<?xml version="1.0" encoding="UTF-8" standalone="no"?>
<!DOCTYPE svg PUBLIC "-//W3C//DTD SVG 1.1//EN"
 "http://www.w3.org/Graphics/SVG/1.1/DTD/svg11.dtd">
<!-- Generated by graphviz version 2.43.0 (0)
 -->
<!-- Title: align.h Pages: 1 -->
<svg width="3953pt" height="308pt"
 viewBox="0.00 0.00 3952.50 308.00" xmlns="http://www.w3.org/2000/svg" xmlns:xlink="http://www.w3.org/1999/xlink">
<g id="graph0" class="graph" transform="scale(1 1) rotate(0) translate(4 304)">
<title>align.h</title>
<polygon fill="white" stroke="transparent" points="-4,4 -4,-304 3948.5,-304 3948.5,4 -4,4"/>
<!-- Node1 -->
<g id="node1" class="node">
<title>Node1</title>
<g id="a_node1"><a xlink:title=" ">
<polygon fill="#bfbfbf" stroke="black" points="119.5,-280.5 119.5,-299.5 169.5,-299.5 169.5,-280.5 119.5,-280.5"/>
<text text-anchor="middle" x="144.5" y="-287.5" font-family="Helvetica,sans-Serif" font-size="10.00">align.h</text>
</a>
</g>
</g>
<!-- Node2 -->
<g id="node2" class="node">
<title>Node2</title>
<g id="a_node2"><a xlink:href="abi-default_2atomic_8h.html" target="_top" xlink:title=" ">
<polygon fill="white" stroke="black" points="0,-112.5 0,-131.5 59,-131.5 59,-112.5 0,-112.5"/>
<text text-anchor="middle" x="29.5" y="-119.5" font-family="Helvetica,sans-Serif" font-size="10.00">atomic.h</text>
</a>
</g>
</g>
<!-- Node1&#45;&gt;Node2 -->
<g id="edge1" class="edge">
<title>Node1&#45;&gt;Node2</title>
<path fill="none" stroke="midnightblue" d="M132.56,-271.76C108.19,-236.59 53.52,-157.68 35.44,-131.57"/>
<polygon fill="midnightblue" stroke="midnightblue" points="129.75,-273.85 138.32,-280.08 135.5,-269.86 129.75,-273.85"/>
</g>
<!-- Node3 -->
<g id="node3" class="node">
<title>Node3</title>
<g id="a_node3"><a xlink:href="abi-default_2cpumask_8h.html" target="_top" xlink:title=" ">
<polygon fill="white" stroke="black" points="77.5,-112.5 77.5,-131.5 147.5,-131.5 147.5,-112.5 77.5,-112.5"/>
<text text-anchor="middle" x="112.5" y="-119.5" font-family="Helvetica,sans-Serif" font-size="10.00">cpumask.h</text>
</a>
</g>
</g>
<!-- Node1&#45;&gt;Node3 -->
<g id="edge2" class="edge">
<title>Node1&#45;&gt;Node3</title>
<path fill="none" stroke="midnightblue" d="M138.7,-270.88C136.24,-262.73 133.49,-252.94 131.5,-244 122.24,-202.27 115.81,-151.48 113.47,-131.58"/>
<polygon fill="midnightblue" stroke="midnightblue" points="135.37,-271.95 141.68,-280.46 142.05,-269.87 135.37,-271.95"/>
</g>
<!-- Node4 -->
<g id="node4" class="node">
<title>Node4</title>
<g id="a_node4"><a xlink:href="spec_2std__types_8h.html" target="_top" xlink:title=" ">
<polygon fill="white" stroke="black" points="141,-224.5 141,-243.5 214,-243.5 214,-224.5 141,-224.5"/>
<text text-anchor="middle" x="177.5" y="-231.5" font-family="Helvetica,sans-Serif" font-size="10.00">std_types.h</text>
</a>
</g>
</g>
<!-- Node1&#45;&gt;Node4 -->
<g id="edge3" class="edge">
<title>Node1&#45;&gt;Node4</title>
<path fill="none" stroke="midnightblue" d="M155.33,-271.27C160.97,-262.05 167.62,-251.17 172.15,-243.75"/>
<polygon fill="midnightblue" stroke="midnightblue" points="152.18,-269.73 149.95,-280.08 158.15,-273.38 152.18,-269.73"/>
</g>
<!-- Node106 -->
<g id="node50" class="node">
<title>Node106</title>
<g id="a_node50"><a xlink:href="time__inlines_8h_source.html" target="_top" xlink:title=" ">
<polygon fill="white" stroke="black" points="232.5,-224.5 232.5,-243.5 318.5,-243.5 318.5,-224.5 232.5,-224.5"/>
<text text-anchor="middle" x="275.5" y="-231.5" font-family="Helvetica,sans-Serif" font-size="10.00">time_inlines.h</text>
</a>
</g>
</g>
<!-- Node1&#45;&gt;Node106 -->
<g id="edge56" class="edge">
<title>Node1&#45;&gt;Node106</title>
<path fill="none" stroke="midnightblue" d="M174.82,-276.5C199.38,-266.38 233.32,-252.39 254.84,-243.52"/>
<polygon fill="midnightblue" stroke="midnightblue" points="173.17,-273.4 165.26,-280.44 175.84,-279.87 173.17,-273.4"/>
</g>
<!-- Node5 -->
<g id="node5" class="node">
<title>Node5</title>
<g id="a_node5"><a xlink:href="std__types_8h.html" target="_top" xlink:title=" ">
<polygon fill="white" stroke="black" points="1695,-168.5 1695,-187.5 1768,-187.5 1768,-168.5 1695,-168.5"/>
<text text-anchor="middle" x="1731.5" y="-175.5" font-family="Helvetica,sans-Serif" font-size="10.00">std_types.h</text>
</a>
</g>
</g>
<!-- Node4&#45;&gt;Node5 -->
<g id="edge4" class="edge">
<title>Node4&#45;&gt;Node5</title>
<path fill="none" stroke="midnightblue" d="M224.22,-224.18C542.5,-190.4 1496.27,-180.92 1694.99,-179.28"/>
<polygon fill="midnightblue" stroke="midnightblue" points="223.64,-220.72 214.07,-225.28 224.4,-227.68 223.64,-220.72"/>
</g>
<!-- Node5&#45;&gt;Node2 -->
<g id="edge5" class="edge">
<title>Node5&#45;&gt;Node2</title>
<path fill="none" stroke="midnightblue" d="M1684.48,-177C1448.7,-176.78 393.51,-173.48 68.5,-132 65.47,-131.61 62.32,-131.09 59.2,-130.5"/>
<polygon fill="midnightblue" stroke="midnightblue" points="1684.77,-180.5 1694.77,-177 1684.77,-173.5 1684.77,-180.5"/>
</g>
<!-- Node5&#45;&gt;Node3 -->
<g id="edge8" class="edge">
<title>Node5&#45;&gt;Node3</title>
<path fill="none" stroke="midnightblue" d="M1684.44,-176.75C1456.28,-175.4 463.61,-167.53 156.5,-132 153.71,-131.68 150.84,-131.27 147.96,-130.8"/>
<polygon fill="midnightblue" stroke="midnightblue" points="1684.71,-180.26 1694.73,-176.81 1684.75,-173.26 1684.71,-180.26"/>
</g>
<!-- Node6 -->
<g id="node6" class="node">
<title>Node6</title>
<g id="a_node6"><a xlink:href="abi-default_2barrier_8h.html" target="_top" xlink:title=" ">
<polygon fill="white" stroke="black" points="3420,-112.5 3420,-131.5 3477,-131.5 3477,-112.5 3420,-112.5"/>
<text text-anchor="middle" x="3448.5" y="-119.5" font-family="Helvetica,sans-Serif" font-size="10.00">barrier.h</text>
</a>
</g>
</g>
<!-- Node5&#45;&gt;Node6 -->
<g id="edge6" class="edge">
<title>Node5&#45;&gt;Node6</title>
<path fill="none" stroke="midnightblue" d="M1778.27,-177.08C2015.04,-177.31 3083.07,-175.84 3411.5,-132 3414.25,-131.63 3417.1,-131.14 3419.93,-130.58"/>
<polygon fill="midnightblue" stroke="midnightblue" points="1778.27,-173.58 1768.26,-177.07 1778.26,-180.58 1778.27,-173.58"/>
</g>
<!-- Node7 -->
<g id="node7" class="node">
<title>Node7</title>
<g id="a_node7"><a xlink:href="abi-default_2byteorder_8h.html" target="_top" xlink:title=" ">
<polygon fill="white" stroke="black" points="3495.5,-112.5 3495.5,-131.5 3567.5,-131.5 3567.5,-112.5 3495.5,-112.5"/>
<text text-anchor="middle" x="3531.5" y="-119.5" font-family="Helvetica,sans-Serif" font-size="10.00">byteorder.h</text>
</a>
</g>
</g>
<!-- Node5&#45;&gt;Node7 -->
<g id="edge7" class="edge">
<title>Node5&#45;&gt;Node7</title>
<path fill="none" stroke="midnightblue" d="M1778.33,-176.89C2021.44,-176.14 3141.59,-170.62 3486.5,-132 3489.35,-131.68 3492.29,-131.27 3495.23,-130.81"/>
<polygon fill="midnightblue" stroke="midnightblue" points="1778.06,-173.39 1768.08,-176.92 1778.09,-180.39 1778.06,-173.39"/>
</g>
<!-- Node8 -->
<g id="node8" class="node">
<title>Node8</title>
<g id="a_node8"><a xlink:href="abi-default_2init_8h.html" target="_top" xlink:title=" ">
<polygon fill="white" stroke="black" points="3586,-112.5 3586,-131.5 3627,-131.5 3627,-112.5 3586,-112.5"/>
<text text-anchor="middle" x="3606.5" y="-119.5" font-family="Helvetica,sans-Serif" font-size="10.00">init.h</text>
</a>
</g>
</g>
<!-- Node5&#45;&gt;Node8 -->
<g id="edge9" class="edge">
<title>Node5&#45;&gt;Node8</title>
<path fill="none" stroke="midnightblue" d="M1778.48,-176.6C2048.23,-174.23 3394.42,-161 3576.5,-132 3579.51,-131.52 3582.63,-130.82 3585.68,-130.02"/>
<polygon fill="midnightblue" stroke="midnightblue" points="1778.22,-173.11 1768.25,-176.69 1778.28,-180.11 1778.22,-173.11"/>
</g>
<!-- Node9 -->
<g id="node9" class="node">
<title>Node9</title>
<g id="a_node9"><a xlink:href="abi-default_2ipsec_8h.html" target="_top" xlink:title=" ">
<polygon fill="white" stroke="black" points="3645,-112.5 3645,-131.5 3696,-131.5 3696,-112.5 3645,-112.5"/>
<text text-anchor="middle" x="3670.5" y="-119.5" font-family="Helvetica,sans-Serif" font-size="10.00">ipsec.h</text>
</a>
</g>
</g>
<!-- Node5&#45;&gt;Node9 -->
<g id="edge10" class="edge">
<title>Node5&#45;&gt;Node9</title>
<path fill="none" stroke="midnightblue" d="M1778.25,-176.55C2052.59,-173.85 3447.63,-158.85 3636.5,-132 3639.16,-131.62 3641.91,-131.11 3644.64,-130.52"/>
<polygon fill="midnightblue" stroke="midnightblue" points="1778.2,-173.05 1768.23,-176.65 1778.26,-180.05 1778.2,-173.05"/>
</g>
<!-- Node10 -->
<g id="node10" class="node">
<title>Node10</title>
<g id="a_node10"><a xlink:href="abi-default_2packet__io__types_8h.html" target="_top" xlink:title=" ">
<polygon fill="white" stroke="black" points="3714.5,-112.5 3714.5,-131.5 3818.5,-131.5 3818.5,-112.5 3714.5,-112.5"/>
<text text-anchor="middle" x="3766.5" y="-119.5" font-family="Helvetica,sans-Serif" font-size="10.00">packet_io_types.h</text>
</a>
</g>
</g>
<!-- Node5&#45;&gt;Node10 -->
<g id="edge11" class="edge">
<title>Node5&#45;&gt;Node10</title>
<path fill="none" stroke="midnightblue" d="M1778.59,-176.72C2039.87,-175.04 3313.85,-165.23 3705.5,-132 3708.38,-131.76 3711.33,-131.46 3714.31,-131.13"/>
<polygon fill="midnightblue" stroke="midnightblue" points="1778.29,-173.22 1768.31,-176.78 1778.33,-180.22 1778.29,-173.22"/>
</g>
<!-- Node11 -->
<g id="node11" class="node">
<title>Node11</title>
<g id="a_node11"><a xlink:href="abi-default_2rwlock__recursive_8h.html" target="_top" xlink:title=" ">
<polygon fill="white" stroke="black" points="3836.5,-112.5 3836.5,-131.5 3944.5,-131.5 3944.5,-112.5 3836.5,-112.5"/>
<text text-anchor="middle" x="3890.5" y="-119.5" font-family="Helvetica,sans-Serif" font-size="10.00">rwlock_recursive.h</text>
</a>
</g>
</g>
<!-- Node5&#45;&gt;Node11 -->
<g id="edge12" class="edge">
<title>Node5&#45;&gt;Node11</title>
<path fill="none" stroke="midnightblue" d="M1778.44,-176.76C2048.82,-175.27 3410.01,-166.18 3827.5,-132 3830.36,-131.77 3833.29,-131.49 3836.25,-131.17"/>
<polygon fill="midnightblue" stroke="midnightblue" points="1778.17,-173.26 1768.19,-176.82 1778.21,-180.26 1778.17,-173.26"/>
</g>
<!-- Node12 -->
<g id="node12" class="node">
<title>Node12</title>
<g id="a_node12"><a xlink:href="abi-default_2schedule_8h.html" target="_top" xlink:title=" ">
<polygon fill="white" stroke="black" points="166,-112.5 166,-131.5 235,-131.5 235,-112.5 166,-112.5"/>
<text text-anchor="middle" x="200.5" y="-119.5" font-family="Helvetica,sans-Serif" font-size="10.00">schedule.h</text>
</a>
</g>
</g>
<!-- Node5&#45;&gt;Node12 -->
<g id="edge13" class="edge">
<title>Node5&#45;&gt;Node12</title>
<path fill="none" stroke="midnightblue" d="M1684.61,-176.66C1464.62,-174.92 533.35,-165.66 244.5,-132 241.56,-131.66 238.52,-131.22 235.48,-130.72"/>
<polygon fill="midnightblue" stroke="midnightblue" points="1684.82,-180.17 1694.84,-176.74 1684.87,-173.17 1684.82,-180.17"/>
</g>
<!-- Node13 -->
<g id="node13" class="node">
<title>Node13</title>
<g id="a_node13"><a xlink:href="abi-default_2spinlock__recursive_8h.html" target="_top" xlink:title=" ">
<polygon fill="white" stroke="black" points="253.5,-112.5 253.5,-131.5 369.5,-131.5 369.5,-112.5 253.5,-112.5"/>
<text text-anchor="middle" x="311.5" y="-119.5" font-family="Helvetica,sans-Serif" font-size="10.00">spinlock_recursive.h</text>
</a>
</g>
</g>
<!-- Node5&#45;&gt;Node13 -->
<g id="edge14" class="edge">
<title>Node5&#45;&gt;Node13</title>
<path fill="none" stroke="midnightblue" d="M1684.77,-177.14C1511.48,-177.3 889.18,-174.68 378.5,-132 375.58,-131.76 372.58,-131.47 369.57,-131.16"/>
<polygon fill="midnightblue" stroke="midnightblue" points="1684.83,-180.64 1694.83,-177.13 1684.82,-173.64 1684.83,-180.64"/>
</g>
<!-- Node14 -->
<g id="node14" class="node">
<title>Node14</title>
<g id="a_node14"><a xlink:href="abi-default_2traffic__mngr_8h.html" target="_top" xlink:title=" ">
<polygon fill="white" stroke="black" points="387.5,-112.5 387.5,-131.5 471.5,-131.5 471.5,-112.5 387.5,-112.5"/>
<text text-anchor="middle" x="429.5" y="-119.5" font-family="Helvetica,sans-Serif" font-size="10.00">traffic_mngr.h</text>
</a>
</g>
</g>
<!-- Node5&#45;&gt;Node14 -->
<g id="edge15" class="edge">
<title>Node5&#45;&gt;Node14</title>
<path fill="none" stroke="midnightblue" d="M1684.91,-176.19C1487.72,-172.63 720.83,-157.4 480.5,-132 477.64,-131.7 474.7,-131.33 471.74,-130.92"/>
<polygon fill="midnightblue" stroke="midnightblue" points="1684.88,-179.69 1694.95,-176.37 1685.01,-172.69 1684.88,-179.69"/>
</g>
<!-- Node15 -->
<g id="node15" class="node">
<title>Node15</title>
<g id="a_node15"><a xlink:href="barrier_8h.html" target="_top" xlink:title=" ">
<polygon fill="white" stroke="black" points="490,-112.5 490,-131.5 547,-131.5 547,-112.5 490,-112.5"/>
<text text-anchor="middle" x="518.5" y="-119.5" font-family="Helvetica,sans-Serif" font-size="10.00">barrier.h</text>
</a>
</g>
</g>
<!-- Node5&#45;&gt;Node15 -->
<g id="edge16" class="edge">
<title>Node5&#45;&gt;Node15</title>
<path fill="none" stroke="midnightblue" d="M1684.55,-176.25C1494.86,-173.04 784.51,-159.43 561.5,-132 556.81,-131.42 551.86,-130.6 547.07,-129.68"/>
<polygon fill="midnightblue" stroke="midnightblue" points="1684.69,-179.75 1694.75,-176.42 1684.81,-172.75 1684.69,-179.75"/>
</g>
<!-- Node16 -->
<g id="node16" class="node">
<title>Node16</title>
<g id="a_node16"><a xlink:href="classification_8h.html" target="_top" xlink:title=" ">
<polygon fill="white" stroke="red" points="623,-56.5 623,-75.5 712,-75.5 712,-56.5 623,-56.5"/>
<text text-anchor="middle" x="667.5" y="-63.5" font-family="Helvetica,sans-Serif" font-size="10.00">classification.h</text>
</a>
</g>
</g>
<!-- Node5&#45;&gt;Node16 -->
<g id="edge17" class="edge">
<title>Node5&#45;&gt;Node16</title>
<path fill="none" stroke="midnightblue" d="M1684.61,-176.71C1499.92,-175.31 828.43,-167.78 740.5,-132 710.95,-119.98 685.43,-90.56 673.96,-75.78"/>
<polygon fill="midnightblue" stroke="midnightblue" points="1684.79,-180.21 1694.81,-176.78 1684.84,-173.21 1684.79,-180.21"/>
</g>
<!-- Node17 -->
<g id="node17" class="node">
<title>Node17</title>
<g id="a_node17"><a xlink:href="spec_2ipsec_8h.html" target="_top" xlink:title=" ">
<polygon fill="white" stroke="red" points="642,-0.5 642,-19.5 693,-19.5 693,-0.5 642,-0.5"/>
<text text-anchor="middle" x="667.5" y="-7.5" font-family="Helvetica,sans-Serif" font-size="10.00">ipsec.h</text>
</a>
</g>
</g>
<!-- Node5&#45;&gt;Node17 -->
<g id="edge33" class="edge">
<title>Node5&#45;&gt;Node17</title>
<path fill="none" stroke="midnightblue" d="M1684.7,-176.94C1475.29,-176.43 632.85,-171.9 594.5,-132 559.99,-96.09 626.11,-41.05 654.97,-19.79"/>
<polygon fill="midnightblue" stroke="midnightblue" points="1684.75,-180.44 1694.76,-176.96 1684.76,-173.44 1684.75,-180.44"/>
</g>
<!-- Node21 -->
<g id="node18" class="node">
<title>Node21</title>
<g id="a_node18"><a xlink:href="crypto_8h.html" target="_top" xlink:title=" ">
<polygon fill="white" stroke="black" points="749.5,-56.5 749.5,-75.5 805.5,-75.5 805.5,-56.5 749.5,-56.5"/>
<text text-anchor="middle" x="777.5" y="-63.5" font-family="Helvetica,sans-Serif" font-size="10.00">crypto.h</text>
</a>
</g>
</g>
<!-- Node5&#45;&gt;Node21 -->
<g id="edge19" class="edge">
<title>Node5&#45;&gt;Node21</title>
<path fill="none" stroke="midnightblue" d="M1684.68,-176.38C1513.82,-173.88 929.82,-163.12 852.5,-132 822.45,-119.91 796.09,-90.52 784.2,-75.76"/>
<polygon fill="midnightblue" stroke="midnightblue" points="1684.81,-179.88 1694.86,-176.53 1684.91,-172.88 1684.81,-179.88"/>
</g>
<!-- Node22 -->
<g id="node19" class="node">
<title>Node22</title>
<g id="a_node19"><a xlink:href="proto__stats_8h.html" target="_top" xlink:title=" ">
<polygon fill="white" stroke="black" points="861.5,-112.5 861.5,-131.5 941.5,-131.5 941.5,-112.5 861.5,-112.5"/>
<text text-anchor="middle" x="901.5" y="-119.5" font-family="Helvetica,sans-Serif" font-size="10.00">proto_stats.h</text>
</a>
</g>
</g>
<!-- Node5&#45;&gt;Node22 -->
<g id="edge21" class="edge">
<title>Node5&#45;&gt;Node22</title>
<path fill="none" stroke="midnightblue" d="M1684.75,-176.26C1563.36,-173.93 1228.32,-164.78 951.5,-132 948.26,-131.62 944.91,-131.16 941.55,-130.65"/>
<polygon fill="midnightblue" stroke="midnightblue" points="1684.75,-179.76 1694.81,-176.45 1684.88,-172.77 1684.75,-179.76"/>
</g>
<!-- Node23 -->
<g id="node20" class="node">
<title>Node23</title>
<g id="a_node20"><a xlink:href="spec_2buffer_8h.html" target="_top" xlink:title=" ">
<polygon fill="white" stroke="red" points="960,-112.5 960,-131.5 1013,-131.5 1013,-112.5 960,-112.5"/>
<text text-anchor="middle" x="986.5" y="-119.5" font-family="Helvetica,sans-Serif" font-size="10.00">buffer.h</text>
</a>
</g>
</g>
<!-- Node5&#45;&gt;Node23 -->
<g id="edge22" class="edge">
<title>Node5&#45;&gt;Node23</title>
<path fill="none" stroke="midnightblue" d="M1684.59,-176.96C1570.51,-176.21 1269.8,-170.43 1022.5,-132 1019.44,-131.53 1016.27,-130.91 1013.13,-130.23"/>
<polygon fill="midnightblue" stroke="midnightblue" points="1684.7,-180.46 1694.72,-177.01 1684.74,-173.46 1684.7,-180.46"/>
</g>
<!-- Node25 -->
<g id="node21" class="node">
<title>Node25</title>
<g id="a_node21"><a xlink:href="spec_2chksum_8h.html" target="_top" xlink:title=" ">
<polygon fill="white" stroke="red" points="1031.5,-112.5 1031.5,-131.5 1095.5,-131.5 1095.5,-112.5 1031.5,-112.5"/>
<text text-anchor="middle" x="1063.5" y="-119.5" font-family="Helvetica,sans-Serif" font-size="10.00">chksum.h</text>
</a>
</g>
</g>
<!-- Node5&#45;&gt;Node25 -->
<g id="edge23" class="edge">
<title>Node5&#45;&gt;Node25</title>
<path fill="none" stroke="midnightblue" d="M1684.78,-175.86C1580.41,-172.84 1320.6,-162.63 1105.5,-132 1102.25,-131.54 1098.88,-130.97 1095.52,-130.34"/>
<polygon fill="midnightblue" stroke="midnightblue" points="1684.88,-179.37 1694.97,-176.15 1685.07,-172.37 1684.88,-179.37"/>
</g>
<!-- Node27 -->
<g id="node22" class="node">
<title>Node27</title>
<g id="a_node22"><a xlink:href="spec_2classification_8h.html" target="_top" xlink:title=" ">
<polygon fill="white" stroke="black" points="604,-112.5 604,-131.5 693,-131.5 693,-112.5 604,-112.5"/>
<text text-anchor="middle" x="648.5" y="-119.5" font-family="Helvetica,sans-Serif" font-size="10.00">classification.h</text>
</a>
</g>
</g>
<!-- Node5&#45;&gt;Node27 -->
<g id="edge24" class="edge">
<title>Node5&#45;&gt;Node27</title>
<path fill="none" stroke="midnightblue" d="M1684.31,-176.73C1538.58,-175.5 1082.86,-168.77 707.5,-132 702.86,-131.55 698.03,-130.97 693.21,-130.34"/>
<polygon fill="midnightblue" stroke="midnightblue" points="1684.64,-180.23 1694.66,-176.81 1684.69,-173.23 1684.64,-180.23"/>
</g>
<!-- Node28 -->
<g id="node23" class="node">
<title>Node28</title>
<g id="a_node23"><a xlink:href="spec_2comp_8h.html" target="_top" xlink:title=" ">
<polygon fill="white" stroke="red" points="1114,-112.5 1114,-131.5 1167,-131.5 1167,-112.5 1114,-112.5"/>
<text text-anchor="middle" x="1140.5" y="-119.5" font-family="Helvetica,sans-Serif" font-size="10.00">comp.h</text>
</a>
</g>
</g>
<!-- Node5&#45;&gt;Node28 -->
<g id="edge26" class="edge">
<title>Node5&#45;&gt;Node28</title>
<path fill="none" stroke="midnightblue" d="M1684.65,-175.79C1588.7,-172.75 1363.14,-162.68 1176.5,-132 1173.45,-131.5 1170.28,-130.87 1167.13,-130.18"/>
<polygon fill="midnightblue" stroke="midnightblue" points="1684.78,-179.3 1694.88,-176.11 1685,-172.3 1684.78,-179.3"/>
</g>
<!-- Node30 -->
<g id="node24" class="node">
<title>Node30</title>
<g id="a_node24"><a xlink:href="spec_2cpu_8h.html" target="_top" xlink:title=" ">
<polygon fill="white" stroke="red" points="1185,-112.5 1185,-131.5 1228,-131.5 1228,-112.5 1185,-112.5"/>
<text text-anchor="middle" x="1206.5" y="-119.5" font-family="Helvetica,sans-Serif" font-size="10.00">cpu.h</text>
</a>
</g>
</g>
<!-- Node5&#45;&gt;Node30 -->
<g id="edge27" class="edge">
<title>Node5&#45;&gt;Node30</title>
<path fill="none" stroke="midnightblue" d="M1684.7,-175.72C1596.5,-172.65 1399.93,-162.68 1237.5,-132 1234.42,-131.42 1231.2,-130.66 1228.05,-129.83"/>
<polygon fill="midnightblue" stroke="midnightblue" points="1684.8,-179.23 1694.91,-176.06 1685.04,-172.23 1684.8,-179.23"/>
</g>
<!-- Node34 -->
<g id="node25" class="node">
<title>Node34</title>
<g id="a_node25"><a xlink:href="spec_2crypto_8h.html" target="_top" xlink:title=" ">
<polygon fill="white" stroke="black" points="749.5,-112.5 749.5,-131.5 805.5,-131.5 805.5,-112.5 749.5,-112.5"/>
<text text-anchor="middle" x="777.5" y="-119.5" font-family="Helvetica,sans-Serif" font-size="10.00">crypto.h</text>
</a>
</g>
</g>
<!-- Node5&#45;&gt;Node34 -->
<g id="edge28" class="edge">
<title>Node5&#45;&gt;Node34</title>
<path fill="none" stroke="midnightblue" d="M1684.43,-177.35C1549.26,-177.8 1148.54,-175.08 819.5,-132 815.06,-131.42 810.4,-130.62 805.86,-129.73"/>
<polygon fill="midnightblue" stroke="midnightblue" points="1684.83,-180.85 1694.82,-177.31 1684.81,-173.85 1684.83,-180.85"/>
</g>
<!-- Node35 -->
<g id="node26" class="node">
<title>Node35</title>
<g id="a_node26"><a xlink:href="spec_2dma__types_8h.html" target="_top" xlink:title=" ">
<polygon fill="white" stroke="red" points="1246.5,-112.5 1246.5,-131.5 1326.5,-131.5 1326.5,-112.5 1246.5,-112.5"/>
<text text-anchor="middle" x="1286.5" y="-119.5" font-family="Helvetica,sans-Serif" font-size="10.00">dma_types.h</text>
</a>
</g>
</g>
<!-- Node5&#45;&gt;Node35 -->
<g id="edge30" class="edge">
<title>Node5&#45;&gt;Node35</title>
<path fill="none" stroke="midnightblue" d="M1684.52,-172.64C1610.39,-165.54 1461.79,-150.39 1336.5,-132 1333.27,-131.53 1329.93,-131 1326.58,-130.45"/>
<polygon fill="midnightblue" stroke="midnightblue" points="1684.62,-176.17 1694.91,-173.63 1685.29,-169.2 1684.62,-176.17"/>
</g>
<!-- Node56 -->
<g id="node27" class="node">
<title>Node56</title>
<g id="a_node27"><a xlink:href="spec_2hash_8h.html" target="_top" xlink:title=" ">
<polygon fill="white" stroke="red" points="1345,-112.5 1345,-131.5 1394,-131.5 1394,-112.5 1345,-112.5"/>
<text text-anchor="middle" x="1369.5" y="-119.5" font-family="Helvetica,sans-Serif" font-size="10.00">hash.h</text>
</a>
</g>
</g>
<!-- Node5&#45;&gt;Node56 -->
<g id="edge31" class="edge">
<title>Node5&#45;&gt;Node56</title>
<path fill="none" stroke="midnightblue" d="M1684.69,-172.4C1620.78,-165.71 1502.8,-151.88 1403.5,-132 1400.51,-131.4 1397.39,-130.69 1394.3,-129.94"/>
<polygon fill="midnightblue" stroke="midnightblue" points="1684.55,-175.91 1694.85,-173.45 1685.27,-168.94 1684.55,-175.91"/>
</g>
<!-- Node58 -->
<g id="node28" class="node">
<title>Node58</title>
<g id="a_node28"><a xlink:href="spec_2init_8h.html" target="_top" xlink:title=" ">
<polygon fill="white" stroke="red" points="1412,-112.5 1412,-131.5 1453,-131.5 1453,-112.5 1412,-112.5"/>
<text text-anchor="middle" x="1432.5" y="-119.5" font-family="Helvetica,sans-Serif" font-size="10.00">init.h</text>
</a>
</g>
</g>
<!-- Node5&#45;&gt;Node58 -->
<g id="edge32" class="edge">
<title>Node5&#45;&gt;Node58</title>
<path fill="none" stroke="midnightblue" d="M1684.48,-170.19C1631.51,-162.24 1542.95,-148.1 1467.5,-132 1462.84,-131 1457.86,-129.81 1453.16,-128.62"/>
<polygon fill="midnightblue" stroke="midnightblue" points="1684.18,-173.68 1694.59,-171.7 1685.21,-166.76 1684.18,-173.68"/>
</g>
<!-- Node41 -->
<g id="node29" class="node">
<title>Node41</title>
<g id="a_node29"><a xlink:href="spec_2packet_8h.html" target="_top" xlink:title=" ">
<polygon fill="white" stroke="red" points="1478.5,-56.5 1478.5,-75.5 1536.5,-75.5 1536.5,-56.5 1478.5,-56.5"/>
<text text-anchor="middle" x="1507.5" y="-63.5" font-family="Helvetica,sans-Serif" font-size="10.00">packet.h</text>
</a>
</g>
</g>
<!-- Node5&#45;&gt;Node41 -->
<g id="edge34" class="edge">
<title>Node5&#45;&gt;Node41</title>
<path fill="none" stroke="midnightblue" d="M1684.44,-174.68C1623.78,-170.59 1523.34,-159.72 1500.5,-132 1487.22,-115.88 1496.65,-89.35 1503,-75.71"/>
<polygon fill="midnightblue" stroke="midnightblue" points="1684.35,-178.18 1694.55,-175.32 1684.79,-171.2 1684.35,-178.18"/>
</g>
<!-- Node63 -->
<g id="node30" class="node">
<title>Node63</title>
<g id="a_node30"><a xlink:href="spec_2packet__flags_8h.html" target="_top" xlink:title=" ">
<polygon fill="white" stroke="red" points="1575.5,-112.5 1575.5,-131.5 1661.5,-131.5 1661.5,-112.5 1575.5,-112.5"/>
<text text-anchor="middle" x="1618.5" y="-119.5" font-family="Helvetica,sans-Serif" font-size="10.00">packet_flags.h</text>
</a>
</g>
</g>
<!-- Node5&#45;&gt;Node63 -->
<g id="edge35" class="edge">
<title>Node5&#45;&gt;Node63</title>
<path fill="none" stroke="midnightblue" d="M1704.5,-164.1C1683.39,-154.01 1654.64,-140.27 1636.32,-131.52"/>
<polygon fill="midnightblue" stroke="midnightblue" points="1703.06,-167.29 1713.59,-168.44 1706.08,-160.97 1703.06,-167.29"/>
</g>
<!-- Node44 -->
<g id="node31" class="node">
<title>Node44</title>
<g id="a_node31"><a xlink:href="spec_2packet__io__types_8h.html" target="_top" xlink:title=" ">
<polygon fill="white" stroke="red" points="1679.5,-112.5 1679.5,-131.5 1783.5,-131.5 1783.5,-112.5 1679.5,-112.5"/>
<text text-anchor="middle" x="1731.5" y="-119.5" font-family="Helvetica,sans-Serif" font-size="10.00">packet_io_types.h</text>
</a>
</g>
</g>
<!-- Node5&#45;&gt;Node44 -->
<g id="edge36" class="edge">
<title>Node5&#45;&gt;Node44</title>
<path fill="none" stroke="midnightblue" d="M1731.5,-157.8C1731.5,-148.91 1731.5,-138.78 1731.5,-131.75"/>
<polygon fill="midnightblue" stroke="midnightblue" points="1728,-158.08 1731.5,-168.08 1735,-158.08 1728,-158.08"/>
</g>
<!-- Node48 -->
<g id="node32" class="node">
<title>Node48</title>
<g id="a_node32"><a xlink:href="spec_2pool_8h.html" target="_top" xlink:title=" ">
<polygon fill="white" stroke="red" points="1802,-112.5 1802,-131.5 1849,-131.5 1849,-112.5 1802,-112.5"/>
<text text-anchor="middle" x="1825.5" y="-119.5" font-family="Helvetica,sans-Serif" font-size="10.00">pool.h</text>
</a>
</g>
</g>
<!-- Node5&#45;&gt;Node48 -->
<g id="edge37" class="edge">
<title>Node5&#45;&gt;Node48</title>
<path fill="none" stroke="midnightblue" d="M1755.56,-163.18C1772.86,-153.24 1795.65,-140.15 1810.43,-131.65"/>
<polygon fill="midnightblue" stroke="midnightblue" points="1753.53,-160.31 1746.6,-168.32 1757.02,-166.38 1753.53,-160.31"/>
</g>
<!-- Node39 -->
<g id="node33" class="node">
<title>Node39</title>
<g id="a_node33"><a xlink:href="spec_2pool__types_8h.html" target="_top" xlink:title=" ">
<polygon fill="white" stroke="red" points="1867,-112.5 1867,-131.5 1946,-131.5 1946,-112.5 1867,-112.5"/>
<text text-anchor="middle" x="1906.5" y="-119.5" font-family="Helvetica,sans-Serif" font-size="10.00">pool_types.h</text>
</a>
</g>
</g>
<!-- Node5&#45;&gt;Node39 -->
<g id="edge38" class="edge">
<title>Node5&#45;&gt;Node39</title>
<path fill="none" stroke="midnightblue" d="M1768.97,-165.44C1801.97,-155.26 1849.26,-140.66 1878.9,-131.52"/>
<polygon fill="midnightblue" stroke="midnightblue" points="1767.75,-162.15 1759.23,-168.44 1769.82,-168.84 1767.75,-162.15"/>
</g>
<!-- Node65 -->
<g id="node34" class="node">
<title>Node65</title>
<g id="a_node34"><a xlink:href="spec_2proto__stats__types_8h.html" target="_top" xlink:title=" ">
<polygon fill="white" stroke="red" points="1964,-112.5 1964,-131.5 2077,-131.5 2077,-112.5 1964,-112.5"/>
<text text-anchor="middle" x="2020.5" y="-119.5" font-family="Helvetica,sans-Serif" font-size="10.00">proto_stats_types.h</text>
</a>
</g>
</g>
<!-- Node5&#45;&gt;Node65 -->
<g id="edge39" class="edge">
<title>Node5&#45;&gt;Node65</title>
<path fill="none" stroke="midnightblue" d="M1778.12,-168.29C1832.23,-158.18 1920.91,-141.61 1974.68,-131.56"/>
<polygon fill="midnightblue" stroke="midnightblue" points="1777.29,-164.88 1768.1,-170.16 1778.57,-171.76 1777.29,-164.88"/>
</g>
<!-- Node73 -->
<g id="node35" class="node">
<title>Node73</title>
<g id="a_node35"><a xlink:href="spec_2queue_8h.html" target="_top" xlink:title=" ">
<polygon fill="white" stroke="red" points="2095.5,-112.5 2095.5,-131.5 2151.5,-131.5 2151.5,-112.5 2095.5,-112.5"/>
<text text-anchor="middle" x="2123.5" y="-119.5" font-family="Helvetica,sans-Serif" font-size="10.00">queue.h</text>
</a>
</g>
</g>
<!-- Node5&#45;&gt;Node73 -->
<g id="edge40" class="edge">
<title>Node5&#45;&gt;Node73</title>
<path fill="none" stroke="midnightblue" d="M1778.24,-172.77C1846.38,-166.21 1976.81,-152.23 2086.5,-132 2089.36,-131.47 2092.33,-130.86 2095.29,-130.21"/>
<polygon fill="midnightblue" stroke="midnightblue" points="1777.87,-169.29 1768.25,-173.72 1778.54,-176.25 1777.87,-169.29"/>
</g>
<!-- Node75 -->
<g id="node36" class="node">
<title>Node75</title>
<g id="a_node36"><a xlink:href="spec_2random_8h.html" target="_top" xlink:title=" ">
<polygon fill="white" stroke="red" points="2170,-112.5 2170,-131.5 2233,-131.5 2233,-112.5 2170,-112.5"/>
<text text-anchor="middle" x="2201.5" y="-119.5" font-family="Helvetica,sans-Serif" font-size="10.00">random.h</text>
</a>
</g>
</g>
<!-- Node5&#45;&gt;Node75 -->
<g id="edge41" class="edge">
<title>Node5&#45;&gt;Node75</title>
<path fill="none" stroke="midnightblue" d="M1778.24,-173.81C1857.32,-168.04 2022.36,-154.34 2160.5,-132 2163.52,-131.51 2166.66,-130.94 2169.78,-130.33"/>
<polygon fill="midnightblue" stroke="midnightblue" points="1777.85,-170.33 1768.12,-174.54 1778.35,-177.31 1777.85,-170.33"/>
</g>
<!-- Node77 -->
<g id="node37" class="node">
<title>Node77</title>
<g id="a_node37"><a xlink:href="spec_2random__types_8h.html" target="_top" xlink:title=" ">
<polygon fill="white" stroke="red" points="2251,-112.5 2251,-131.5 2346,-131.5 2346,-112.5 2251,-112.5"/>
<text text-anchor="middle" x="2298.5" y="-119.5" font-family="Helvetica,sans-Serif" font-size="10.00">random_types.h</text>
</a>
</g>
</g>
<!-- Node5&#45;&gt;Node77 -->
<g id="edge42" class="edge">
<title>Node5&#45;&gt;Node77</title>
<path fill="none" stroke="midnightblue" d="M1778.31,-174C1868.39,-167.99 2072.05,-153.17 2242.5,-132 2245.24,-131.66 2248.04,-131.29 2250.87,-130.89"/>
<polygon fill="midnightblue" stroke="midnightblue" points="1777.9,-170.52 1768.15,-174.68 1778.36,-177.51 1777.9,-170.52"/>
</g>
<!-- Node79 -->
<g id="node38" class="node">
<title>Node79</title>
<g id="a_node38"><a xlink:href="spec_2reassembly_8h.html" target="_top" xlink:title=" ">
<polygon fill="white" stroke="red" points="2364,-112.5 2364,-131.5 2445,-131.5 2445,-112.5 2364,-112.5"/>
<text text-anchor="middle" x="2404.5" y="-119.5" font-family="Helvetica,sans-Serif" font-size="10.00">reassembly.h</text>
</a>
</g>
</g>
<!-- Node5&#45;&gt;Node79 -->
<g id="edge43" class="edge">
<title>Node5&#45;&gt;Node79</title>
<path fill="none" stroke="midnightblue" d="M1778.39,-175.38C1882.55,-171.39 2140.92,-159.36 2355.5,-132 2358.25,-131.65 2361.07,-131.25 2363.91,-130.81"/>
<polygon fill="midnightblue" stroke="midnightblue" points="1778.07,-171.89 1768.21,-175.76 1778.34,-178.88 1778.07,-171.89"/>
</g>
<!-- Node81 -->
<g id="node39" class="node">
<title>Node81</title>
<g id="a_node39"><a xlink:href="spec_2schedule_8h.html" target="_top" xlink:title=" ">
<polygon fill="white" stroke="red" points="2463,-112.5 2463,-131.5 2532,-131.5 2532,-112.5 2463,-112.5"/>
<text text-anchor="middle" x="2497.5" y="-119.5" font-family="Helvetica,sans-Serif" font-size="10.00">schedule.h</text>
</a>
</g>
</g>
<!-- Node5&#45;&gt;Node81 -->
<g id="edge44" class="edge">
<title>Node5&#45;&gt;Node81</title>
<path fill="none" stroke="midnightblue" d="M1778.42,-176.42C1893.91,-174.48 2201,-166.24 2454.5,-132 2457.22,-131.63 2460.03,-131.19 2462.84,-130.7"/>
<polygon fill="midnightblue" stroke="midnightblue" points="1778.11,-172.92 1768.17,-176.58 1778.23,-179.92 1778.11,-172.92"/>
</g>
<!-- Node83 -->
<g id="node40" class="node">
<title>Node83</title>
<g id="a_node40"><a xlink:href="spec_2schedule__types_8h.html" target="_top" xlink:title=" ">
<polygon fill="white" stroke="red" points="2550,-112.5 2550,-131.5 2651,-131.5 2651,-112.5 2550,-112.5"/>
<text text-anchor="middle" x="2600.5" y="-119.5" font-family="Helvetica,sans-Serif" font-size="10.00">schedule_types.h</text>
</a>
</g>
</g>
<!-- Node5&#45;&gt;Node83 -->
<g id="edge45" class="edge">
<title>Node5&#45;&gt;Node83</title>
<path fill="none" stroke="midnightblue" d="M1778.67,-175.96C1903.47,-172.87 2252.58,-161.99 2541.5,-132 2544.18,-131.72 2546.92,-131.41 2549.69,-131.07"/>
<polygon fill="midnightblue" stroke="midnightblue" points="1778.24,-172.47 1768.33,-176.21 1778.41,-179.47 1778.24,-172.47"/>
</g>
<!-- Node91 -->
<g id="node41" class="node">
<title>Node91</title>
<g id="a_node41"><a xlink:href="spec_2stash__types_8h.html" target="_top" xlink:title=" ">
<polygon fill="white" stroke="red" points="2669.5,-112.5 2669.5,-131.5 2753.5,-131.5 2753.5,-112.5 2669.5,-112.5"/>
<text text-anchor="middle" x="2711.5" y="-119.5" font-family="Helvetica,sans-Serif" font-size="10.00">stash_types.h</text>
</a>
</g>
</g>
<!-- Node5&#45;&gt;Node91 -->
<g id="edge46" class="edge">
<title>Node5&#45;&gt;Node91</title>
<path fill="none" stroke="midnightblue" d="M1778.48,-176.82C1915.1,-175.83 2323.86,-169.7 2660.5,-132 2663.36,-131.68 2666.3,-131.3 2669.26,-130.88"/>
<polygon fill="midnightblue" stroke="midnightblue" points="1778.34,-173.32 1768.37,-176.88 1778.39,-180.32 1778.34,-173.32"/>
</g>
<!-- Node95 -->
<g id="node42" class="node">
<title>Node95</title>
<g id="a_node42"><a xlink:href="spec_2std_8h.html" target="_top" xlink:title=" ">
<polygon fill="white" stroke="red" points="2772,-112.5 2772,-131.5 2813,-131.5 2813,-112.5 2772,-112.5"/>
<text text-anchor="middle" x="2792.5" y="-119.5" font-family="Helvetica,sans-Serif" font-size="10.00">std.h</text>
</a>
</g>
</g>
<!-- Node5&#45;&gt;Node95 -->
<g id="edge47" class="edge">
<title>Node5&#45;&gt;Node95</title>
<path fill="none" stroke="midnightblue" d="M1778.29,-176.5C1953.31,-174.37 2569.26,-164.68 2762.5,-132 2765.5,-131.49 2768.63,-130.78 2771.68,-129.97"/>
<polygon fill="midnightblue" stroke="midnightblue" points="1778.08,-173 1768.12,-176.62 1778.16,-180 1778.08,-173"/>
</g>
<!-- Node97 -->
<g id="node43" class="node">
<title>Node97</title>
<g id="a_node43"><a xlink:href="spec_2threshold_8h.html" target="_top" xlink:title=" ">
<polygon fill="white" stroke="red" points="2831,-112.5 2831,-131.5 2902,-131.5 2902,-112.5 2831,-112.5"/>
<text text-anchor="middle" x="2866.5" y="-119.5" font-family="Helvetica,sans-Serif" font-size="10.00">threshold.h</text>
</a>
</g>
</g>
<!-- Node5&#45;&gt;Node97 -->
<g id="edge48" class="edge">
<title>Node5&#45;&gt;Node97</title>
<path fill="none" stroke="midnightblue" d="M1778.23,-176.07C1959.41,-172.32 2615.64,-157.26 2822.5,-132 2825.13,-131.68 2827.84,-131.28 2830.56,-130.84"/>
<polygon fill="midnightblue" stroke="midnightblue" points="1778.15,-172.57 1768.22,-176.28 1778.29,-179.57 1778.15,-172.57"/>
</g>
<!-- Node99 -->
<g id="node44" class="node">
<title>Node99</title>
<g id="a_node44"><a xlink:href="spec_2thrmask_8h.html" target="_top" xlink:title=" ">
<polygon fill="white" stroke="red" points="2920.5,-112.5 2920.5,-131.5 2986.5,-131.5 2986.5,-112.5 2920.5,-112.5"/>
<text text-anchor="middle" x="2953.5" y="-119.5" font-family="Helvetica,sans-Serif" font-size="10.00">thrmask.h</text>
</a>
</g>
</g>
<!-- Node5&#45;&gt;Node99 -->
<g id="edge49" class="edge">
<title>Node5&#45;&gt;Node99</title>
<path fill="none" stroke="midnightblue" d="M1778.53,-176.29C1969.38,-173.26 2686.52,-160.18 2911.5,-132 2914.31,-131.65 2917.21,-131.2 2920.12,-130.7"/>
<polygon fill="midnightblue" stroke="midnightblue" points="1778.22,-172.8 1768.28,-176.45 1778.33,-179.8 1778.22,-172.8"/>
</g>
<!-- Node101 -->
<g id="node45" class="node">
<title>Node101</title>
<g id="a_node45"><a xlink:href="spec_2timer__types_8h.html" target="_top" xlink:title=" ">
<polygon fill="white" stroke="red" points="3004.5,-112.5 3004.5,-131.5 3088.5,-131.5 3088.5,-112.5 3004.5,-112.5"/>
<text text-anchor="middle" x="3046.5" y="-119.5" font-family="Helvetica,sans-Serif" font-size="10.00">timer_types.h</text>
</a>
</g>
</g>
<!-- Node5&#45;&gt;Node101 -->
<g id="edge50" class="edge">
<title>Node5&#45;&gt;Node101</title>
<path fill="none" stroke="midnightblue" d="M1778.24,-176.21C1976.96,-172.7 2752.54,-157.64 2995.5,-132 2998.36,-131.7 3001.3,-131.33 3004.26,-130.92"/>
<polygon fill="midnightblue" stroke="midnightblue" points="1778.07,-172.71 1768.13,-176.38 1778.19,-179.71 1778.07,-172.71"/>
</g>
<!-- Node46 -->
<g id="node46" class="node">
<title>Node46</title>
<g id="a_node46"><a xlink:href="spec_2traffic__mngr_8h.html" target="_top" xlink:title=" ">
<polygon fill="white" stroke="red" points="3106.5,-112.5 3106.5,-131.5 3190.5,-131.5 3190.5,-112.5 3106.5,-112.5"/>
<text text-anchor="middle" x="3148.5" y="-119.5" font-family="Helvetica,sans-Serif" font-size="10.00">traffic_mngr.h</text>
</a>
</g>
</g>
<!-- Node5&#45;&gt;Node46 -->
<g id="edge51" class="edge">
<title>Node5&#45;&gt;Node46</title>
<path fill="none" stroke="midnightblue" d="M1778.23,-176.35C1986.74,-173.32 2833.36,-159.52 3097.5,-132 3100.36,-131.7 3103.3,-131.34 3106.26,-130.93"/>
<polygon fill="midnightblue" stroke="midnightblue" points="1778.17,-172.85 1768.23,-176.5 1778.28,-179.85 1778.17,-172.85"/>
</g>
<!-- Node103 -->
<g id="node47" class="node">
<title>Node103</title>
<g id="a_node47"><a xlink:href="system__info_8h.html" target="_top" xlink:title=" ">
<polygon fill="white" stroke="black" points="3208.5,-112.5 3208.5,-131.5 3294.5,-131.5 3294.5,-112.5 3208.5,-112.5"/>
<text text-anchor="middle" x="3251.5" y="-119.5" font-family="Helvetica,sans-Serif" font-size="10.00">system_info.h</text>
</a>
</g>
</g>
<!-- Node5&#45;&gt;Node103 -->
<g id="edge52" class="edge">
<title>Node5&#45;&gt;Node103</title>
<path fill="none" stroke="midnightblue" d="M1778.48,-176.45C1996.87,-173.76 2914.18,-160.92 3199.5,-132 3202.42,-131.7 3205.42,-131.34 3208.43,-130.93"/>
<polygon fill="midnightblue" stroke="midnightblue" points="1778.28,-172.95 1768.32,-176.57 1778.36,-179.95 1778.28,-172.95"/>
</g>
<!-- Node104 -->
<g id="node48" class="node">
<title>Node104</title>
<g id="a_node48"><a xlink:href="time_8h.html" target="_top" xlink:title=" ">
<polygon fill="white" stroke="red" points="1509.5,-112.5 1509.5,-131.5 1557.5,-131.5 1557.5,-112.5 1509.5,-112.5"/>
<text text-anchor="middle" x="1533.5" y="-119.5" font-family="Helvetica,sans-Serif" font-size="10.00">time.h</text>
</a>
</g>
</g>
<!-- Node5&#45;&gt;Node104 -->
<g id="edge53" class="edge">
<title>Node5&#45;&gt;Node104</title>
<path fill="none" stroke="midnightblue" d="M1690.37,-165.78C1650.23,-154.84 1590.54,-138.56 1557.56,-129.56"/>
<polygon fill="midnightblue" stroke="midnightblue" points="1689.56,-169.19 1700.13,-168.44 1691.4,-162.44 1689.56,-169.19"/>
</g>
<!-- Node105 -->
<g id="node49" class="node">
<title>Node105</title>
<g id="a_node49"><a xlink:href="strong__types_8h.html" target="_top" xlink:title=" ">
<polygon fill="white" stroke="black" points="3313,-112.5 3313,-131.5 3402,-131.5 3402,-112.5 3313,-112.5"/>
<text text-anchor="middle" x="3357.5" y="-119.5" font-family="Helvetica,sans-Serif" font-size="10.00">strong_types.h</text>
</a>
</g>
</g>
<!-- Node5&#45;&gt;Node105 -->
<g id="edge55" class="edge">
<title>Node5&#45;&gt;Node105</title>
<path fill="none" stroke="midnightblue" d="M1778.44,-176.52C2006.05,-174.07 2996.37,-161.85 3303.5,-132 3306.53,-131.71 3309.64,-131.34 3312.77,-130.94"/>
<polygon fill="midnightblue" stroke="midnightblue" points="1778.15,-173.02 1768.19,-176.63 1778.22,-180.02 1778.15,-173.02"/>
</g>
<!-- Node16&#45;&gt;Node17 -->
<g id="edge18" class="edge">
<title>Node16&#45;&gt;Node17</title>
<path fill="none" stroke="midnightblue" d="M667.5,-45.8C667.5,-36.91 667.5,-26.78 667.5,-19.75"/>
<polygon fill="midnightblue" stroke="midnightblue" points="664,-46.08 667.5,-56.08 671,-46.08 664,-46.08"/>
</g>
<!-- Node21&#45;&gt;Node17 -->
<g id="edge20" class="edge">
<title>Node21&#45;&gt;Node17</title>
<path fill="none" stroke="midnightblue" d="M750.74,-51.86C730.34,-41.85 702.83,-28.35 685.13,-19.65"/>
<polygon fill="midnightblue" stroke="midnightblue" points="749.31,-55.06 759.83,-56.32 752.39,-48.78 749.31,-55.06"/>
</g>
<!-- Node27&#45;&gt;Node16 -->
<g id="edge25" class="edge">
<title>Node27&#45;&gt;Node16</title>
<path fill="none" stroke="midnightblue" d="M655.05,-102.4C658.22,-93.36 661.89,-82.94 664.42,-75.75"/>
<polygon fill="midnightblue" stroke="midnightblue" points="651.65,-101.49 651.64,-112.08 658.26,-103.81 651.65,-101.49"/>
</g>
<!-- Node34&#45;&gt;Node21 -->
<g id="edge29" class="edge">
<title>Node34&#45;&gt;Node21</title>
<path fill="none" stroke="midnightblue" d="M777.5,-101.8C777.5,-92.91 777.5,-82.78 777.5,-75.75"/>
<polygon fill="midnightblue" stroke="midnightblue" points="774,-102.08 777.5,-112.08 781,-102.08 774,-102.08"/>
</g>
<!-- Node104&#45;&gt;Node41 -->
<g id="edge54" class="edge">
<title>Node104&#45;&gt;Node41</title>
<path fill="none" stroke="midnightblue" d="M1524.83,-102.98C1520.41,-93.82 1515.25,-83.09 1511.71,-75.75"/>
<polygon fill="midnightblue" stroke="midnightblue" points="1521.71,-104.59 1529.21,-112.08 1528.02,-101.55 1521.71,-104.59"/>
</g>
</g>
</svg>
