<?xml version="1.0" encoding="UTF-8" standalone="no"?>
<!DOCTYPE svg PUBLIC "-//W3C//DTD SVG 1.1//EN"
 "http://www.w3.org/Graphics/SVG/1.1/DTD/svg11.dtd">
<!-- Generated by graphviz version 2.43.0 (0)
 -->
<!-- Title: dma_types.h Pages: 1 -->
<svg width="1038pt" height="476pt"
 viewBox="0.00 0.00 1038.00 476.00" xmlns="http://www.w3.org/2000/svg" xmlns:xlink="http://www.w3.org/1999/xlink">
<g id="graph0" class="graph" transform="scale(1 1) rotate(0) translate(4 472)">
<title>dma_types.h</title>
<polygon fill="white" stroke="transparent" points="-4,4 -4,-472 1034,-472 1034,4 -4,4"/>
<!-- Node1 -->
<g id="node1" class="node">
<title>Node1</title>
<g id="a_node1"><a xlink:title=" ">
<polygon fill="#bfbfbf" stroke="black" points="151.5,-448.5 151.5,-467.5 231.5,-467.5 231.5,-448.5 151.5,-448.5"/>
<text text-anchor="middle" x="191.5" y="-455.5" font-family="Helvetica,sans-Serif" font-size="10.00">dma_types.h</text>
</a>
</g>
</g>
<!-- Node2 -->
<g id="node2" class="node">
<title>Node2</title>
<g id="a_node2"><a xlink:href="spec_2dma_8h.html" target="_top" xlink:title=" ">
<polygon fill="white" stroke="black" points="0,-280.5 0,-299.5 47,-299.5 47,-280.5 0,-280.5"/>
<text text-anchor="middle" x="23.5" y="-287.5" font-family="Helvetica,sans-Serif" font-size="10.00">dma.h</text>
</a>
</g>
</g>
<!-- Node1&#45;&gt;Node2 -->
<g id="edge1" class="edge">
<title>Node1&#45;&gt;Node2</title>
<path fill="none" stroke="midnightblue" d="M174.95,-440.65C139.82,-405.94 58.82,-325.9 32.17,-299.57"/>
<polygon fill="midnightblue" stroke="midnightblue" points="172.89,-443.54 182.47,-448.08 177.81,-438.56 172.89,-443.54"/>
</g>
<!-- Node4 -->
<g id="node4" class="node">
<title>Node4</title>
<g id="a_node4"><a xlink:href="spec_2pool__types_8h.html" target="_top" xlink:title=" ">
<polygon fill="white" stroke="black" points="186,-392.5 186,-411.5 265,-411.5 265,-392.5 186,-392.5"/>
<text text-anchor="middle" x="225.5" y="-399.5" font-family="Helvetica,sans-Serif" font-size="10.00">pool_types.h</text>
</a>
</g>
</g>
<!-- Node1&#45;&gt;Node4 -->
<g id="edge3" class="edge">
<title>Node1&#45;&gt;Node4</title>
<path fill="none" stroke="midnightblue" d="M202.48,-439.57C208.33,-430.27 215.27,-419.25 219.99,-411.75"/>
<polygon fill="midnightblue" stroke="midnightblue" points="199.48,-437.76 197.11,-448.08 205.4,-441.49 199.48,-437.76"/>
</g>
<!-- Node3 -->
<g id="node3" class="node">
<title>Node3</title>
<g id="a_node3"><a xlink:href="dma_8h.html" target="_top" xlink:title=" ">
<polygon fill="white" stroke="black" points="0,-224.5 0,-243.5 47,-243.5 47,-224.5 0,-224.5"/>
<text text-anchor="middle" x="23.5" y="-231.5" font-family="Helvetica,sans-Serif" font-size="10.00">dma.h</text>
</a>
</g>
</g>
<!-- Node2&#45;&gt;Node3 -->
<g id="edge2" class="edge">
<title>Node2&#45;&gt;Node3</title>
<path fill="none" stroke="midnightblue" d="M23.5,-269.8C23.5,-260.91 23.5,-250.78 23.5,-243.75"/>
<polygon fill="midnightblue" stroke="midnightblue" points="20,-270.08 23.5,-280.08 27,-270.08 20,-270.08"/>
</g>
<!-- Node5 -->
<g id="node5" class="node">
<title>Node5</title>
<g id="a_node5"><a xlink:href="pool__types_8h.html" target="_top" xlink:title=" ">
<polygon fill="white" stroke="black" points="319,-336.5 319,-355.5 398,-355.5 398,-336.5 319,-336.5"/>
<text text-anchor="middle" x="358.5" y="-343.5" font-family="Helvetica,sans-Serif" font-size="10.00">pool_types.h</text>
</a>
</g>
</g>
<!-- Node4&#45;&gt;Node5 -->
<g id="edge4" class="edge">
<title>Node4&#45;&gt;Node5</title>
<path fill="none" stroke="midnightblue" d="M255.95,-388.64C280.91,-378.5 315.58,-364.43 337.52,-355.52"/>
<polygon fill="midnightblue" stroke="midnightblue" points="254.52,-385.44 246.57,-392.44 257.16,-391.92 254.52,-385.44"/>
</g>
<!-- Node5&#45;&gt;Node2 -->
<g id="edge16" class="edge">
<title>Node5&#45;&gt;Node2</title>
<path fill="none" stroke="midnightblue" d="M308.68,-339.41C248.54,-332.24 144.53,-318.49 56.5,-300 53.48,-299.37 50.32,-298.62 47.21,-297.83"/>
<polygon fill="midnightblue" stroke="midnightblue" points="308.32,-342.89 318.66,-340.59 309.14,-335.94 308.32,-342.89"/>
</g>
<!-- Node6 -->
<g id="node6" class="node">
<title>Node6</title>
<g id="a_node6"><a xlink:href="spec_2buffer_8h.html" target="_top" xlink:title=" ">
<polygon fill="white" stroke="black" points="787,-280.5 787,-299.5 840,-299.5 840,-280.5 787,-280.5"/>
<text text-anchor="middle" x="813.5" y="-287.5" font-family="Helvetica,sans-Serif" font-size="10.00">buffer.h</text>
</a>
</g>
</g>
<!-- Node5&#45;&gt;Node6 -->
<g id="edge5" class="edge">
<title>Node5&#45;&gt;Node6</title>
<path fill="none" stroke="midnightblue" d="M408.29,-342.01C487.27,-336.74 645.91,-324.02 778.5,-300 781.22,-299.51 784.03,-298.92 786.83,-298.28"/>
<polygon fill="midnightblue" stroke="midnightblue" points="407.9,-338.53 398.15,-342.67 408.36,-345.51 407.9,-338.53"/>
</g>
<!-- Node8 -->
<g id="node8" class="node">
<title>Node8</title>
<g id="a_node8"><a xlink:href="spec_2classification_8h.html" target="_top" xlink:title=" ">
<polygon fill="white" stroke="black" points="698,-168.5 698,-187.5 787,-187.5 787,-168.5 698,-168.5"/>
<text text-anchor="middle" x="742.5" y="-175.5" font-family="Helvetica,sans-Serif" font-size="10.00">classification.h</text>
</a>
</g>
</g>
<!-- Node5&#45;&gt;Node8 -->
<g id="edge7" class="edge">
<title>Node5&#45;&gt;Node8</title>
<path fill="none" stroke="midnightblue" d="M308.94,-340.16C258.62,-334.1 185.71,-321.77 168.5,-300 147.55,-273.51 145.57,-248.8 168.5,-224 186.42,-204.62 565.63,-186.58 697.66,-180.87"/>
<polygon fill="midnightblue" stroke="midnightblue" points="308.66,-343.65 319,-341.32 309.47,-336.7 308.66,-343.65"/>
</g>
<!-- Node14 -->
<g id="node14" class="node">
<title>Node14</title>
<g id="a_node14"><a xlink:href="spec_2crypto_8h.html" target="_top" xlink:title=" ">
<polygon fill="white" stroke="black" points="65.5,-280.5 65.5,-299.5 121.5,-299.5 121.5,-280.5 65.5,-280.5"/>
<text text-anchor="middle" x="93.5" y="-287.5" font-family="Helvetica,sans-Serif" font-size="10.00">crypto.h</text>
</a>
</g>
</g>
<!-- Node5&#45;&gt;Node14 -->
<g id="edge13" class="edge">
<title>Node5&#45;&gt;Node14</title>
<path fill="none" stroke="midnightblue" d="M309.15,-335.22C263.94,-326.21 195.18,-312.41 135.5,-300 130.97,-299.06 126.18,-298.04 121.5,-297.05"/>
<polygon fill="midnightblue" stroke="midnightblue" points="308.5,-338.66 318.99,-337.18 309.87,-331.79 308.5,-338.66"/>
</g>
<!-- Node16 -->
<g id="node16" class="node">
<title>Node16</title>
<g id="a_node16"><a xlink:href="spec_2packet_8h.html" target="_top" xlink:title=" ">
<polygon fill="white" stroke="black" points="955.5,-168.5 955.5,-187.5 1013.5,-187.5 1013.5,-168.5 955.5,-168.5"/>
<text text-anchor="middle" x="984.5" y="-175.5" font-family="Helvetica,sans-Serif" font-size="10.00">packet.h</text>
</a>
</g>
</g>
<!-- Node5&#45;&gt;Node16 -->
<g id="edge17" class="edge">
<title>Node5&#45;&gt;Node16</title>
<path fill="none" stroke="midnightblue" d="M408.74,-344.93C548.01,-344.23 931.4,-338.76 971.5,-300 1002.79,-269.75 992.14,-209.83 986.79,-187.58"/>
<polygon fill="midnightblue" stroke="midnightblue" points="408.35,-341.43 398.36,-344.97 408.38,-348.43 408.35,-341.43"/>
</g>
<!-- Node19 -->
<g id="node19" class="node">
<title>Node19</title>
<g id="a_node19"><a xlink:href="spec_2packet__io__types_8h.html" target="_top" xlink:title=" ">
<polygon fill="white" stroke="black" points="858.5,-280.5 858.5,-299.5 962.5,-299.5 962.5,-280.5 858.5,-280.5"/>
<text text-anchor="middle" x="910.5" y="-287.5" font-family="Helvetica,sans-Serif" font-size="10.00">packet_io_types.h</text>
</a>
</g>
</g>
<!-- Node5&#45;&gt;Node19 -->
<g id="edge20" class="edge">
<title>Node5&#45;&gt;Node19</title>
<path fill="none" stroke="midnightblue" d="M408.08,-341.36C496.78,-334.66 688.44,-319.25 849.5,-300 852.37,-299.66 855.31,-299.29 858.28,-298.9"/>
<polygon fill="midnightblue" stroke="midnightblue" points="407.75,-337.88 398.04,-342.12 408.27,-344.86 407.75,-337.88"/>
</g>
<!-- Node23 -->
<g id="node23" class="node">
<title>Node23</title>
<g id="a_node23"><a xlink:href="spec_2pool_8h.html" target="_top" xlink:title=" ">
<polygon fill="white" stroke="black" points="178,-280.5 178,-299.5 225,-299.5 225,-280.5 178,-280.5"/>
<text text-anchor="middle" x="201.5" y="-287.5" font-family="Helvetica,sans-Serif" font-size="10.00">pool.h</text>
</a>
</g>
</g>
<!-- Node5&#45;&gt;Node23 -->
<g id="edge29" class="edge">
<title>Node5&#45;&gt;Node23</title>
<path fill="none" stroke="midnightblue" d="M323.99,-333.13C294.05,-322.83 251.49,-308.19 225.23,-299.16"/>
<polygon fill="midnightblue" stroke="midnightblue" points="323.03,-336.5 333.62,-336.44 325.3,-329.88 323.03,-336.5"/>
</g>
<!-- Node25 -->
<g id="node25" class="node">
<title>Node25</title>
<g id="a_node25"><a xlink:href="spec_2timer_8h.html" target="_top" xlink:title=" ">
<polygon fill="white" stroke="black" points="243,-280.5 243,-299.5 294,-299.5 294,-280.5 243,-280.5"/>
<text text-anchor="middle" x="268.5" y="-287.5" font-family="Helvetica,sans-Serif" font-size="10.00">timer.h</text>
</a>
</g>
</g>
<!-- Node5&#45;&gt;Node25 -->
<g id="edge31" class="edge">
<title>Node5&#45;&gt;Node25</title>
<path fill="none" stroke="midnightblue" d="M335.46,-331.18C318.9,-321.24 297.08,-308.15 282.92,-299.65"/>
<polygon fill="midnightblue" stroke="midnightblue" points="333.66,-334.18 344.04,-336.32 337.27,-328.18 333.66,-334.18"/>
</g>
<!-- Node27 -->
<g id="node27" class="node">
<title>Node27</title>
<g id="a_node27"><a xlink:href="buffer__inlines_8h_source.html" target="_top" xlink:title=" ">
<polygon fill="white" stroke="black" points="312.5,-280.5 312.5,-299.5 404.5,-299.5 404.5,-280.5 312.5,-280.5"/>
<text text-anchor="middle" x="358.5" y="-287.5" font-family="Helvetica,sans-Serif" font-size="10.00">buffer_inlines.h</text>
</a>
</g>
</g>
<!-- Node5&#45;&gt;Node27 -->
<g id="edge33" class="edge">
<title>Node5&#45;&gt;Node27</title>
<path fill="none" stroke="midnightblue" d="M358.5,-325.8C358.5,-316.91 358.5,-306.78 358.5,-299.75"/>
<polygon fill="midnightblue" stroke="midnightblue" points="355,-326.08 358.5,-336.08 362,-326.08 355,-326.08"/>
</g>
<!-- Node28 -->
<g id="node28" class="node">
<title>Node28</title>
<g id="a_node28"><a xlink:href="packet__inlines_8h.html" target="_top" xlink:title=" ">
<polygon fill="white" stroke="black" points="423,-280.5 423,-299.5 518,-299.5 518,-280.5 423,-280.5"/>
<text text-anchor="middle" x="470.5" y="-287.5" font-family="Helvetica,sans-Serif" font-size="10.00">packet_inlines.h</text>
</a>
</g>
</g>
<!-- Node5&#45;&gt;Node28 -->
<g id="edge34" class="edge">
<title>Node5&#45;&gt;Node28</title>
<path fill="none" stroke="midnightblue" d="M385.75,-331.86C406.52,-321.85 434.52,-308.35 452.55,-299.65"/>
<polygon fill="midnightblue" stroke="midnightblue" points="383.98,-328.83 376.49,-336.32 387.02,-335.13 383.98,-328.83"/>
</g>
<!-- Node29 -->
<g id="node29" class="node">
<title>Node29</title>
<g id="a_node29"><a xlink:href="packet__vector__inlines_8h.html" target="_top" xlink:title=" ">
<polygon fill="white" stroke="black" points="536,-280.5 536,-299.5 667,-299.5 667,-280.5 536,-280.5"/>
<text text-anchor="middle" x="601.5" y="-287.5" font-family="Helvetica,sans-Serif" font-size="10.00">packet_vector_inlines.h</text>
</a>
</g>
</g>
<!-- Node5&#45;&gt;Node29 -->
<g id="edge35" class="edge">
<title>Node5&#45;&gt;Node29</title>
<path fill="none" stroke="midnightblue" d="M407.02,-334.22C452.94,-324.01 520.95,-308.9 563.18,-299.52"/>
<polygon fill="midnightblue" stroke="midnightblue" points="406.01,-330.86 397,-336.44 407.53,-337.69 406.01,-330.86"/>
</g>
<!-- Node30 -->
<g id="node30" class="node">
<title>Node30</title>
<g id="a_node30"><a xlink:href="pool__inlines_8h_source.html" target="_top" xlink:title=" ">
<polygon fill="white" stroke="black" points="685.5,-280.5 685.5,-299.5 769.5,-299.5 769.5,-280.5 685.5,-280.5"/>
<text text-anchor="middle" x="727.5" y="-287.5" font-family="Helvetica,sans-Serif" font-size="10.00">pool_inlines.h</text>
</a>
</g>
</g>
<!-- Node5&#45;&gt;Node30 -->
<g id="edge36" class="edge">
<title>Node5&#45;&gt;Node30</title>
<path fill="none" stroke="midnightblue" d="M408.23,-338.5C470.88,-330.18 581.82,-315.05 676.5,-300 679.43,-299.53 682.45,-299.04 685.49,-298.53"/>
<polygon fill="midnightblue" stroke="midnightblue" points="407.68,-335.04 398.23,-339.82 408.6,-341.98 407.68,-335.04"/>
</g>
<!-- Node7 -->
<g id="node7" class="node">
<title>Node7</title>
<g id="a_node7"><a xlink:href="buffer_8h.html" target="_top" xlink:title=" ">
<polygon fill="white" stroke="black" points="787,-224.5 787,-243.5 840,-243.5 840,-224.5 787,-224.5"/>
<text text-anchor="middle" x="813.5" y="-231.5" font-family="Helvetica,sans-Serif" font-size="10.00">buffer.h</text>
</a>
</g>
</g>
<!-- Node6&#45;&gt;Node7 -->
<g id="edge6" class="edge">
<title>Node6&#45;&gt;Node7</title>
<path fill="none" stroke="midnightblue" d="M813.5,-269.8C813.5,-260.91 813.5,-250.78 813.5,-243.75"/>
<polygon fill="midnightblue" stroke="midnightblue" points="810,-270.08 813.5,-280.08 817,-270.08 810,-270.08"/>
</g>
<!-- Node9 -->
<g id="node9" class="node">
<title>Node9</title>
<g id="a_node9"><a xlink:href="classification_8h.html" target="_top" xlink:title=" ">
<polygon fill="white" stroke="black" points="698,-112.5 698,-131.5 787,-131.5 787,-112.5 698,-112.5"/>
<text text-anchor="middle" x="742.5" y="-119.5" font-family="Helvetica,sans-Serif" font-size="10.00">classification.h</text>
</a>
</g>
</g>
<!-- Node8&#45;&gt;Node9 -->
<g id="edge8" class="edge">
<title>Node8&#45;&gt;Node9</title>
<path fill="none" stroke="midnightblue" d="M742.5,-157.8C742.5,-148.91 742.5,-138.78 742.5,-131.75"/>
<polygon fill="midnightblue" stroke="midnightblue" points="739,-158.08 742.5,-168.08 746,-158.08 739,-158.08"/>
</g>
<!-- Node10 -->
<g id="node10" class="node">
<title>Node10</title>
<g id="a_node10"><a xlink:href="spec_2ipsec_8h.html" target="_top" xlink:title=" ">
<polygon fill="white" stroke="black" points="680,-56.5 680,-75.5 731,-75.5 731,-56.5 680,-56.5"/>
<text text-anchor="middle" x="705.5" y="-63.5" font-family="Helvetica,sans-Serif" font-size="10.00">ipsec.h</text>
</a>
</g>
</g>
<!-- Node9&#45;&gt;Node10 -->
<g id="edge9" class="edge">
<title>Node9&#45;&gt;Node10</title>
<path fill="none" stroke="midnightblue" d="M730.55,-103.57C724.19,-94.27 716.63,-83.25 711.5,-75.75"/>
<polygon fill="midnightblue" stroke="midnightblue" points="727.85,-105.81 736.39,-112.08 733.63,-101.86 727.85,-105.81"/>
</g>
<!-- Node12 -->
<g id="node12" class="node">
<title>Node12</title>
<g id="a_node12"><a xlink:href="spec_2packet__io_8h.html" target="_top" xlink:title=" ">
<polygon fill="white" stroke="black" points="799.5,-56.5 799.5,-75.5 871.5,-75.5 871.5,-56.5 799.5,-56.5"/>
<text text-anchor="middle" x="835.5" y="-63.5" font-family="Helvetica,sans-Serif" font-size="10.00">packet_io.h</text>
</a>
</g>
</g>
<!-- Node9&#45;&gt;Node12 -->
<g id="edge11" class="edge">
<title>Node9&#45;&gt;Node12</title>
<path fill="none" stroke="midnightblue" d="M766.31,-107.18C783.42,-97.24 805.97,-84.15 820.6,-75.65"/>
<polygon fill="midnightblue" stroke="midnightblue" points="764.33,-104.28 757.44,-112.32 767.85,-110.33 764.33,-104.28"/>
</g>
<!-- Node11 -->
<g id="node11" class="node">
<title>Node11</title>
<g id="a_node11"><a xlink:href="ipsec_8h.html" target="_top" xlink:title=" ">
<polygon fill="white" stroke="black" points="680,-0.5 680,-19.5 731,-19.5 731,-0.5 680,-0.5"/>
<text text-anchor="middle" x="705.5" y="-7.5" font-family="Helvetica,sans-Serif" font-size="10.00">ipsec.h</text>
</a>
</g>
</g>
<!-- Node10&#45;&gt;Node11 -->
<g id="edge10" class="edge">
<title>Node10&#45;&gt;Node11</title>
<path fill="none" stroke="midnightblue" d="M705.5,-45.8C705.5,-36.91 705.5,-26.78 705.5,-19.75"/>
<polygon fill="midnightblue" stroke="midnightblue" points="702,-46.08 705.5,-56.08 709,-46.08 702,-46.08"/>
</g>
<!-- Node13 -->
<g id="node13" class="node">
<title>Node13</title>
<g id="a_node13"><a xlink:href="packet__io_8h.html" target="_top" xlink:title=" ">
<polygon fill="white" stroke="black" points="799.5,-0.5 799.5,-19.5 871.5,-19.5 871.5,-0.5 799.5,-0.5"/>
<text text-anchor="middle" x="835.5" y="-7.5" font-family="Helvetica,sans-Serif" font-size="10.00">packet_io.h</text>
</a>
</g>
</g>
<!-- Node12&#45;&gt;Node13 -->
<g id="edge12" class="edge">
<title>Node12&#45;&gt;Node13</title>
<path fill="none" stroke="midnightblue" d="M835.5,-45.8C835.5,-36.91 835.5,-26.78 835.5,-19.75"/>
<polygon fill="midnightblue" stroke="midnightblue" points="832,-46.08 835.5,-56.08 839,-46.08 832,-46.08"/>
</g>
<!-- Node15 -->
<g id="node15" class="node">
<title>Node15</title>
<g id="a_node15"><a xlink:href="crypto_8h.html" target="_top" xlink:title=" ">
<polygon fill="white" stroke="black" points="337.5,-168.5 337.5,-187.5 393.5,-187.5 393.5,-168.5 337.5,-168.5"/>
<text text-anchor="middle" x="365.5" y="-175.5" font-family="Helvetica,sans-Serif" font-size="10.00">crypto.h</text>
</a>
</g>
</g>
<!-- Node14&#45;&gt;Node15 -->
<g id="edge14" class="edge">
<title>Node14&#45;&gt;Node15</title>
<path fill="none" stroke="midnightblue" d="M100.41,-270.94C107.09,-255.98 118.69,-235.38 135.5,-224 168.18,-201.87 283.41,-187.44 337.31,-181.75"/>
<polygon fill="midnightblue" stroke="midnightblue" points="97.16,-269.64 96.56,-280.22 103.62,-272.32 97.16,-269.64"/>
</g>
<!-- Node15&#45;&gt;Node10 -->
<g id="edge15" class="edge">
<title>Node15&#45;&gt;Node10</title>
<path fill="none" stroke="midnightblue" d="M401.47,-165.36C470.46,-143.04 619.85,-94.71 679.82,-75.31"/>
<polygon fill="midnightblue" stroke="midnightblue" points="400.33,-162.05 391.9,-168.46 402.49,-168.71 400.33,-162.05"/>
</g>
<!-- Node17 -->
<g id="node17" class="node">
<title>Node17</title>
<g id="a_node17"><a xlink:href="packet_8h.html" target="_top" xlink:title=" ">
<polygon fill="white" stroke="black" points="955.5,-112.5 955.5,-131.5 1013.5,-131.5 1013.5,-112.5 955.5,-112.5"/>
<text text-anchor="middle" x="984.5" y="-119.5" font-family="Helvetica,sans-Serif" font-size="10.00">packet.h</text>
</a>
</g>
</g>
<!-- Node16&#45;&gt;Node17 -->
<g id="edge18" class="edge">
<title>Node16&#45;&gt;Node17</title>
<path fill="none" stroke="midnightblue" d="M984.5,-157.8C984.5,-148.91 984.5,-138.78 984.5,-131.75"/>
<polygon fill="midnightblue" stroke="midnightblue" points="981,-158.08 984.5,-168.08 988,-158.08 981,-158.08"/>
</g>
<!-- Node18 -->
<g id="node18" class="node">
<title>Node18</title>
<g id="a_node18"><a xlink:href="event__inlines_8h_source.html" target="_top" xlink:title=" ">
<polygon fill="white" stroke="black" points="939,-56.5 939,-75.5 1030,-75.5 1030,-56.5 939,-56.5"/>
<text text-anchor="middle" x="984.5" y="-63.5" font-family="Helvetica,sans-Serif" font-size="10.00">event_inlines.h</text>
</a>
</g>
</g>
<!-- Node17&#45;&gt;Node18 -->
<g id="edge19" class="edge">
<title>Node17&#45;&gt;Node18</title>
<path fill="none" stroke="midnightblue" d="M984.5,-101.8C984.5,-92.91 984.5,-82.78 984.5,-75.75"/>
<polygon fill="midnightblue" stroke="midnightblue" points="981,-102.08 984.5,-112.08 988,-102.08 981,-102.08"/>
</g>
<!-- Node20 -->
<g id="node20" class="node">
<title>Node20</title>
<g id="a_node20"><a xlink:href="packet__io__types_8h.html" target="_top" xlink:title=" ">
<polygon fill="white" stroke="black" points="858.5,-224.5 858.5,-243.5 962.5,-243.5 962.5,-224.5 858.5,-224.5"/>
<text text-anchor="middle" x="910.5" y="-231.5" font-family="Helvetica,sans-Serif" font-size="10.00">packet_io_types.h</text>
</a>
</g>
</g>
<!-- Node19&#45;&gt;Node20 -->
<g id="edge21" class="edge">
<title>Node19&#45;&gt;Node20</title>
<path fill="none" stroke="midnightblue" d="M910.5,-269.8C910.5,-260.91 910.5,-250.78 910.5,-243.75"/>
<polygon fill="midnightblue" stroke="midnightblue" points="907,-270.08 910.5,-280.08 914,-270.08 907,-270.08"/>
</g>
<!-- Node20&#45;&gt;Node8 -->
<g id="edge22" class="edge">
<title>Node20&#45;&gt;Node8</title>
<path fill="none" stroke="midnightblue" d="M874.11,-221.3C842.46,-211.13 797.33,-196.62 769,-187.52"/>
<polygon fill="midnightblue" stroke="midnightblue" points="873.29,-224.72 883.88,-224.44 875.43,-218.05 873.29,-224.72"/>
</g>
<!-- Node20&#45;&gt;Node10 -->
<g id="edge23" class="edge">
<title>Node20&#45;&gt;Node10</title>
<path fill="none" stroke="midnightblue" d="M850.61,-222.73C786.95,-211.52 694.67,-194.32 689.5,-188 662.15,-154.52 688.55,-97.56 700.4,-75.81"/>
<polygon fill="midnightblue" stroke="midnightblue" points="850.11,-226.19 860.57,-224.47 851.32,-219.3 850.11,-226.19"/>
</g>
<!-- Node20&#45;&gt;Node12 -->
<g id="edge25" class="edge">
<title>Node20&#45;&gt;Node12</title>
<path fill="none" stroke="midnightblue" d="M912.94,-214.38C915.29,-189.32 916.14,-144.18 897.5,-112 887.83,-95.31 869.23,-83.09 854.91,-75.63"/>
<polygon fill="midnightblue" stroke="midnightblue" points="909.46,-214.03 911.82,-224.36 916.42,-214.81 909.46,-214.03"/>
</g>
<!-- Node20&#45;&gt;Node16 -->
<g id="edge24" class="edge">
<title>Node20&#45;&gt;Node16</title>
<path fill="none" stroke="midnightblue" d="M930.53,-218.38C943.91,-208.62 961.06,-196.11 972.39,-187.83"/>
<polygon fill="midnightblue" stroke="midnightblue" points="928.4,-215.6 922.39,-224.32 932.53,-221.26 928.4,-215.6"/>
</g>
<!-- Node21 -->
<g id="node21" class="node">
<title>Node21</title>
<g id="a_node21"><a xlink:href="spec_2traffic__mngr_8h.html" target="_top" xlink:title=" ">
<polygon fill="white" stroke="black" points="804.5,-168.5 804.5,-187.5 888.5,-187.5 888.5,-168.5 804.5,-168.5"/>
<text text-anchor="middle" x="846.5" y="-175.5" font-family="Helvetica,sans-Serif" font-size="10.00">traffic_mngr.h</text>
</a>
</g>
</g>
<!-- Node20&#45;&gt;Node21 -->
<g id="edge26" class="edge">
<title>Node20&#45;&gt;Node21</title>
<path fill="none" stroke="midnightblue" d="M892.51,-217.82C881.04,-208.15 866.59,-195.95 856.97,-187.83"/>
<polygon fill="midnightblue" stroke="midnightblue" points="890.32,-220.55 900.22,-224.32 894.83,-215.2 890.32,-220.55"/>
</g>
<!-- Node22 -->
<g id="node22" class="node">
<title>Node22</title>
<g id="a_node22"><a xlink:href="traffic__mngr_8h.html" target="_top" xlink:title=" ">
<polygon fill="white" stroke="black" points="804.5,-112.5 804.5,-131.5 888.5,-131.5 888.5,-112.5 804.5,-112.5"/>
<text text-anchor="middle" x="846.5" y="-119.5" font-family="Helvetica,sans-Serif" font-size="10.00">traffic_mngr.h</text>
</a>
</g>
</g>
<!-- Node21&#45;&gt;Node22 -->
<g id="edge27" class="edge">
<title>Node21&#45;&gt;Node22</title>
<path fill="none" stroke="midnightblue" d="M846.5,-157.8C846.5,-148.91 846.5,-138.78 846.5,-131.75"/>
<polygon fill="midnightblue" stroke="midnightblue" points="843,-158.08 846.5,-168.08 850,-158.08 843,-158.08"/>
</g>
<!-- Node22&#45;&gt;Node10 -->
<g id="edge28" class="edge">
<title>Node22&#45;&gt;Node10</title>
<path fill="none" stroke="midnightblue" d="M814.57,-108.77C788.09,-98.63 751.11,-84.47 727.74,-75.52"/>
<polygon fill="midnightblue" stroke="midnightblue" points="813.57,-112.14 824.16,-112.44 816.07,-105.6 813.57,-112.14"/>
</g>
<!-- Node24 -->
<g id="node24" class="node">
<title>Node24</title>
<g id="a_node24"><a xlink:href="pool_8h.html" target="_top" xlink:title=" ">
<polygon fill="white" stroke="black" points="178,-224.5 178,-243.5 225,-243.5 225,-224.5 178,-224.5"/>
<text text-anchor="middle" x="201.5" y="-231.5" font-family="Helvetica,sans-Serif" font-size="10.00">pool.h</text>
</a>
</g>
</g>
<!-- Node23&#45;&gt;Node24 -->
<g id="edge30" class="edge">
<title>Node23&#45;&gt;Node24</title>
<path fill="none" stroke="midnightblue" d="M201.5,-269.8C201.5,-260.91 201.5,-250.78 201.5,-243.75"/>
<polygon fill="midnightblue" stroke="midnightblue" points="198,-270.08 201.5,-280.08 205,-270.08 198,-270.08"/>
</g>
<!-- Node26 -->
<g id="node26" class="node">
<title>Node26</title>
<g id="a_node26"><a xlink:href="timer_8h.html" target="_top" xlink:title=" ">
<polygon fill="white" stroke="black" points="243,-224.5 243,-243.5 294,-243.5 294,-224.5 243,-224.5"/>
<text text-anchor="middle" x="268.5" y="-231.5" font-family="Helvetica,sans-Serif" font-size="10.00">timer.h</text>
</a>
</g>
</g>
<!-- Node25&#45;&gt;Node26 -->
<g id="edge32" class="edge">
<title>Node25&#45;&gt;Node26</title>
<path fill="none" stroke="midnightblue" d="M268.5,-269.8C268.5,-260.91 268.5,-250.78 268.5,-243.75"/>
<polygon fill="midnightblue" stroke="midnightblue" points="265,-270.08 268.5,-280.08 272,-270.08 265,-270.08"/>
</g>
</g>
</svg>
