<?xml version="1.0" encoding="UTF-8" standalone="no"?>
<!DOCTYPE svg PUBLIC "-//W3C//DTD SVG 1.1//EN"
 "http://www.w3.org/Graphics/SVG/1.1/DTD/svg11.dtd">
<!-- Generated by graphviz version 2.43.0 (0)
 -->
<!-- Title: packet_vector_inlines.h Pages: 1 -->
<svg width="1252pt" height="934pt"
 viewBox="0.00 0.00 1252.00 934.00" xmlns="http://www.w3.org/2000/svg" xmlns:xlink="http://www.w3.org/1999/xlink">
<g id="graph0" class="graph" transform="scale(1 1) rotate(0) translate(4 930)">
<title>packet_vector_inlines.h</title>
<polygon fill="white" stroke="transparent" points="-4,4 -4,-930 1248,-930 1248,4 -4,4"/>
<!-- Node1 -->
<g id="node1" class="node">
<title>Node1</title>
<g id="a_node1"><a xlink:title=" ">
<polygon fill="#bfbfbf" stroke="black" points="879.5,-906.5 879.5,-925.5 1010.5,-925.5 1010.5,-906.5 879.5,-906.5"/>
<text text-anchor="middle" x="945" y="-913.5" font-family="Helvetica,sans-Serif" font-size="10.00">packet_vector_inlines.h</text>
</a>
</g>
</g>
<!-- Node2 -->
<g id="node2" class="node">
<title>Node2</title>
<g id="a_node2"><a xlink:href="event__types_8h.html" target="_top" xlink:title=" ">
<polygon fill="white" stroke="black" points="84.5,-615.5 84.5,-634.5 209.5,-634.5 209.5,-615.5 84.5,-615.5"/>
<text text-anchor="middle" x="147" y="-622.5" font-family="Helvetica,sans-Serif" font-size="10.00">odp/api/event_types.h</text>
</a>
</g>
</g>
<!-- Node1&#45;&gt;Node2 -->
<g id="edge1" class="edge">
<title>Node1&#45;&gt;Node2</title>
<path fill="none" stroke="midnightblue" d="M879.36,-912.94C739.48,-908.12 416.07,-894.63 309,-870 233.4,-852.61 147,-882.58 147,-805 147,-805 147,-805 147,-741.5 147,-707.36 147,-667.55 147,-644.71"/>
<polygon fill="midnightblue" stroke="midnightblue" points="150.5,-644.69 147,-634.69 143.5,-644.69 150.5,-644.69"/>
</g>
<!-- Node7 -->
<g id="node7" class="node">
<title>Node7</title>
<g id="a_node7"><a xlink:href="packet__types_8h.html" target="_top" xlink:title=" ">
<polygon fill="white" stroke="black" points="386.5,-615.5 386.5,-634.5 515.5,-634.5 515.5,-615.5 386.5,-615.5"/>
<text text-anchor="middle" x="451" y="-622.5" font-family="Helvetica,sans-Serif" font-size="10.00">odp/api/packet_types.h</text>
</a>
</g>
</g>
<!-- Node1&#45;&gt;Node7 -->
<g id="edge6" class="edge">
<title>Node1&#45;&gt;Node7</title>
<path fill="none" stroke="midnightblue" d="M879.33,-911.85C701.35,-902.46 223,-871.05 223,-805 223,-805 223,-805 223,-741.5 223,-671.44 309.73,-643.86 376.21,-633.02"/>
<polygon fill="midnightblue" stroke="midnightblue" points="376.92,-636.45 386.27,-631.48 375.86,-629.53 376.92,-636.45"/>
</g>
<!-- Node17 -->
<g id="node17" class="node">
<title>Node17</title>
<g id="a_node17"><a xlink:title=" ">
<polygon fill="white" stroke="#bfbfbf" points="1126.5,-123.5 1126.5,-142.5 1179.5,-142.5 1179.5,-123.5 1126.5,-123.5"/>
<text text-anchor="middle" x="1153" y="-130.5" font-family="Helvetica,sans-Serif" font-size="10.00">stdint.h</text>
</a>
</g>
</g>
<!-- Node1&#45;&gt;Node17 -->
<g id="edge56" class="edge">
<title>Node1&#45;&gt;Node17</title>
<path fill="none" stroke="midnightblue" d="M999.15,-906.48C1085.31,-891.39 1244,-856.58 1244,-805 1244,-805 1244,-805 1244,-244 1244,-201.47 1203.11,-166.53 1176.15,-148.12"/>
<polygon fill="midnightblue" stroke="midnightblue" points="1177.9,-145.08 1167.62,-142.52 1174.06,-150.93 1177.9,-145.08"/>
</g>
<!-- Node27 -->
<g id="node27" class="node">
<title>Node27</title>
<g id="a_node27"><a xlink:href="pool__types_8h.html" target="_top" xlink:title=" ">
<polygon fill="white" stroke="black" points="886,-850.5 886,-869.5 1004,-869.5 1004,-850.5 886,-850.5"/>
<text text-anchor="middle" x="945" y="-857.5" font-family="Helvetica,sans-Serif" font-size="10.00">odp/api/pool_types.h</text>
</a>
</g>
</g>
<!-- Node1&#45;&gt;Node27 -->
<g id="edge39" class="edge">
<title>Node1&#45;&gt;Node27</title>
<path fill="none" stroke="midnightblue" d="M945,-906.08C945,-899.01 945,-888.86 945,-879.99"/>
<polygon fill="midnightblue" stroke="midnightblue" points="948.5,-879.75 945,-869.75 941.5,-879.75 948.5,-879.75"/>
</g>
<!-- Node33 -->
<g id="node33" class="node">
<title>Node33</title>
<g id="a_node33"><a xlink:href="event__vector__inline__types_8h_source.html" target="_top" xlink:title=" ">
<polygon fill="white" stroke="black" points="1090,-727.5 1090,-757.5 1216,-757.5 1216,-727.5 1090,-727.5"/>
<text text-anchor="start" x="1098" y="-745.5" font-family="Helvetica,sans-Serif" font-size="10.00">odp/api/plat/event</text>
<text text-anchor="middle" x="1153" y="-734.5" font-family="Helvetica,sans-Serif" font-size="10.00">_vector_inline_types.h</text>
</a>
</g>
</g>
<!-- Node1&#45;&gt;Node33 -->
<g id="edge54" class="edge">
<title>Node1&#45;&gt;Node33</title>
<path fill="none" stroke="midnightblue" d="M962.34,-906.45C992.72,-890.92 1056.59,-855.79 1101,-814 1116.04,-799.85 1129.76,-780.87 1139.33,-766.17"/>
<polygon fill="midnightblue" stroke="midnightblue" points="1142.33,-767.97 1144.72,-757.65 1136.41,-764.23 1142.33,-767.97"/>
</g>
<!-- Node3 -->
<g id="node3" class="node">
<title>Node3</title>
<g id="a_node3"><a xlink:title=" ">
<polygon fill="white" stroke="#bfbfbf" points="28.5,-554 28.5,-573 171.5,-573 171.5,-554 28.5,-554"/>
<text text-anchor="middle" x="100" y="-561" font-family="Helvetica,sans-Serif" font-size="10.00">odp/api/abi/event_types.h</text>
</a>
</g>
</g>
<!-- Node2&#45;&gt;Node3 -->
<g id="edge2" class="edge">
<title>Node2&#45;&gt;Node3</title>
<path fill="none" stroke="midnightblue" d="M140.27,-615.48C133.22,-606.55 121.97,-592.31 113.15,-581.14"/>
<polygon fill="midnightblue" stroke="midnightblue" points="115.67,-578.69 106.72,-573.01 110.17,-583.03 115.67,-578.69"/>
</g>
<!-- Node4 -->
<g id="node4" class="node">
<title>Node4</title>
<g id="a_node4"><a xlink:href="spec_2event__types_8h.html" target="_top" xlink:title=" ">
<polygon fill="white" stroke="black" points="342.5,-56.5 342.5,-86.5 451.5,-86.5 451.5,-56.5 342.5,-56.5"/>
<text text-anchor="start" x="350.5" y="-74.5" font-family="Helvetica,sans-Serif" font-size="10.00">odp/api/spec/event</text>
<text text-anchor="middle" x="397" y="-63.5" font-family="Helvetica,sans-Serif" font-size="10.00">_types.h</text>
</a>
</g>
</g>
<!-- Node2&#45;&gt;Node4 -->
<g id="edge3" class="edge">
<title>Node2&#45;&gt;Node4</title>
<path fill="none" stroke="midnightblue" d="M154.91,-615.34C162.38,-606.72 173.41,-592.82 180,-579 195.04,-547.47 200,-537.93 200,-503 200,-503 200,-503 200,-372.5 200,-249.48 317.18,-137.77 370.79,-93.1"/>
<polygon fill="midnightblue" stroke="midnightblue" points="373.31,-95.56 378.82,-86.52 368.87,-90.15 373.31,-95.56"/>
</g>
<!-- Node5 -->
<g id="node5" class="node">
<title>Node5</title>
<g id="a_node5"><a xlink:title=" ">
<polygon fill="white" stroke="#bfbfbf" points="253.5,-0.5 253.5,-19.5 374.5,-19.5 374.5,-0.5 253.5,-0.5"/>
<text text-anchor="middle" x="314" y="-7.5" font-family="Helvetica,sans-Serif" font-size="10.00">odp/visibility_begin.h</text>
</a>
</g>
</g>
<!-- Node4&#45;&gt;Node5 -->
<g id="edge4" class="edge">
<title>Node4&#45;&gt;Node5</title>
<path fill="none" stroke="midnightblue" d="M377.33,-56.4C364.4,-47.13 347.51,-35.03 334.43,-25.65"/>
<polygon fill="midnightblue" stroke="midnightblue" points="336.24,-22.64 326.08,-19.66 332.17,-28.33 336.24,-22.64"/>
</g>
<!-- Node6 -->
<g id="node6" class="node">
<title>Node6</title>
<g id="a_node6"><a xlink:title=" ">
<polygon fill="white" stroke="#bfbfbf" points="661,-0.5 661,-19.5 773,-19.5 773,-0.5 661,-0.5"/>
<text text-anchor="middle" x="717" y="-7.5" font-family="Helvetica,sans-Serif" font-size="10.00">odp/visibility_end.h</text>
</a>
</g>
</g>
<!-- Node4&#45;&gt;Node6 -->
<g id="edge5" class="edge">
<title>Node4&#45;&gt;Node6</title>
<path fill="none" stroke="midnightblue" d="M451.65,-60.34C510.12,-49.47 602.38,-32.31 661.26,-21.36"/>
<polygon fill="midnightblue" stroke="midnightblue" points="661.94,-24.8 671.14,-19.53 660.66,-17.92 661.94,-24.8"/>
</g>
<!-- Node8 -->
<g id="node8" class="node">
<title>Node8</title>
<g id="a_node8"><a xlink:title=" ">
<polygon fill="white" stroke="#bfbfbf" points="274,-548.5 274,-578.5 380,-578.5 380,-548.5 274,-548.5"/>
<text text-anchor="start" x="282" y="-566.5" font-family="Helvetica,sans-Serif" font-size="10.00">odp/api/abi/packet</text>
<text text-anchor="middle" x="327" y="-555.5" font-family="Helvetica,sans-Serif" font-size="10.00">_io_types.h</text>
</a>
</g>
</g>
<!-- Node7&#45;&gt;Node8 -->
<g id="edge7" class="edge">
<title>Node7&#45;&gt;Node8</title>
<path fill="none" stroke="midnightblue" d="M433.23,-615.48C415.58,-607 387.93,-593.74 365.27,-582.86"/>
<polygon fill="midnightblue" stroke="midnightblue" points="366.75,-579.69 356.22,-578.52 363.73,-586 366.75,-579.69"/>
</g>
<!-- Node9 -->
<g id="node9" class="node">
<title>Node9</title>
<g id="a_node9"><a xlink:title=" ">
<polygon fill="white" stroke="#bfbfbf" points="398,-548.5 398,-578.5 504,-578.5 504,-548.5 398,-548.5"/>
<text text-anchor="start" x="406" y="-566.5" font-family="Helvetica,sans-Serif" font-size="10.00">odp/api/abi/packet</text>
<text text-anchor="middle" x="451" y="-555.5" font-family="Helvetica,sans-Serif" font-size="10.00">_types.h</text>
</a>
</g>
</g>
<!-- Node7&#45;&gt;Node9 -->
<g id="edge8" class="edge">
<title>Node7&#45;&gt;Node9</title>
<path fill="none" stroke="midnightblue" d="M451,-615.48C451,-608.47 451,-598.19 451,-588.7"/>
<polygon fill="midnightblue" stroke="midnightblue" points="454.5,-588.52 451,-578.52 447.5,-588.52 454.5,-588.52"/>
</g>
<!-- Node10 -->
<g id="node10" class="node">
<title>Node10</title>
<g id="a_node10"><a xlink:href="spec_2packet__types_8h.html" target="_top" xlink:title=" ">
<polygon fill="white" stroke="black" points="522.5,-548.5 522.5,-578.5 635.5,-578.5 635.5,-548.5 522.5,-548.5"/>
<text text-anchor="start" x="530.5" y="-566.5" font-family="Helvetica,sans-Serif" font-size="10.00">odp/api/spec/packet</text>
<text text-anchor="middle" x="579" y="-555.5" font-family="Helvetica,sans-Serif" font-size="10.00">_types.h</text>
</a>
</g>
</g>
<!-- Node7&#45;&gt;Node10 -->
<g id="edge9" class="edge">
<title>Node7&#45;&gt;Node10</title>
<path fill="none" stroke="midnightblue" d="M469.34,-615.48C487.57,-607 516.1,-593.74 539.5,-582.86"/>
<polygon fill="midnightblue" stroke="midnightblue" points="541.24,-585.91 548.83,-578.52 538.29,-579.56 541.24,-585.91"/>
</g>
<!-- Node10&#45;&gt;Node5 -->
<g id="edge10" class="edge">
<title>Node10&#45;&gt;Node5</title>
<path fill="none" stroke="midnightblue" d="M522.69,-548.47C425.84,-523.54 238,-471.34 238,-441.5 238,-441.5 238,-441.5 238,-372.5 238,-289.65 200,-272.85 200,-190 200,-190 200,-190 200,-132 200,-81.35 253.58,-43.28 287.27,-24.34"/>
<polygon fill="midnightblue" stroke="midnightblue" points="289.06,-27.36 296.19,-19.52 285.73,-21.2 289.06,-27.36"/>
</g>
<!-- Node10&#45;&gt;Node6 -->
<g id="edge38" class="edge">
<title>Node10&#45;&gt;Node6</title>
<path fill="none" stroke="midnightblue" d="M580.35,-548.36C582.38,-525.79 586,-480.22 586,-441.5 586,-441.5 586,-441.5 586,-244 586,-156.69 589.51,-125.01 643,-56 653.81,-42.06 670.25,-31.45 684.89,-24.04"/>
<polygon fill="midnightblue" stroke="midnightblue" points="686.64,-27.08 694.17,-19.63 683.64,-20.76 686.64,-27.08"/>
</g>
<!-- Node11 -->
<g id="node11" class="node">
<title>Node11</title>
<g id="a_node11"><a xlink:href="proto__stats__types_8h.html" target="_top" xlink:title=" ">
<polygon fill="white" stroke="black" points="448,-358.5 448,-388.5 558,-388.5 558,-358.5 448,-358.5"/>
<text text-anchor="start" x="456" y="-376.5" font-family="Helvetica,sans-Serif" font-size="10.00">odp/api/proto_stats</text>
<text text-anchor="middle" x="503" y="-365.5" font-family="Helvetica,sans-Serif" font-size="10.00">_types.h</text>
</a>
</g>
</g>
<!-- Node10&#45;&gt;Node11 -->
<g id="edge11" class="edge">
<title>Node10&#45;&gt;Node11</title>
<path fill="none" stroke="midnightblue" d="M573.29,-548.37C560.3,-516.24 528.44,-437.44 512.46,-397.91"/>
<polygon fill="midnightblue" stroke="midnightblue" points="515.67,-396.5 508.67,-388.54 509.18,-399.12 515.67,-396.5"/>
</g>
<!-- Node21 -->
<g id="node21" class="node">
<title>Node21</title>
<g id="a_node21"><a xlink:href="queue__types_8h.html" target="_top" xlink:title=" ">
<polygon fill="white" stroke="black" points="623.5,-492.5 623.5,-511.5 750.5,-511.5 750.5,-492.5 623.5,-492.5"/>
<text text-anchor="middle" x="687" y="-499.5" font-family="Helvetica,sans-Serif" font-size="10.00">odp/api/queue_types.h</text>
</a>
</g>
</g>
<!-- Node10&#45;&gt;Node21 -->
<g id="edge27" class="edge">
<title>Node10&#45;&gt;Node21</title>
<path fill="none" stroke="midnightblue" d="M604.59,-548.4C622.07,-538.77 645.09,-526.09 662.36,-516.58"/>
<polygon fill="midnightblue" stroke="midnightblue" points="664.22,-519.55 671.29,-511.66 660.84,-513.42 664.22,-519.55"/>
</g>
<!-- Node12 -->
<g id="node12" class="node">
<title>Node12</title>
<g id="a_node12"><a xlink:title=" ">
<polygon fill="white" stroke="#bfbfbf" points="304,-291.5 304,-321.5 432,-321.5 432,-291.5 304,-291.5"/>
<text text-anchor="start" x="312" y="-309.5" font-family="Helvetica,sans-Serif" font-size="10.00">odp/api/abi/proto_stats</text>
<text text-anchor="middle" x="368" y="-298.5" font-family="Helvetica,sans-Serif" font-size="10.00">_types.h</text>
</a>
</g>
</g>
<!-- Node11&#45;&gt;Node12 -->
<g id="edge12" class="edge">
<title>Node11&#45;&gt;Node12</title>
<path fill="none" stroke="midnightblue" d="M473.71,-358.4C453.98,-348.9 427.77,-336.28 406.38,-325.98"/>
<polygon fill="midnightblue" stroke="midnightblue" points="407.76,-322.76 397.24,-321.58 404.73,-329.07 407.76,-322.76"/>
</g>
<!-- Node13 -->
<g id="node13" class="node">
<title>Node13</title>
<g id="a_node13"><a xlink:href="spec_2proto__stats__types_8h.html" target="_top" xlink:title=" ">
<polygon fill="white" stroke="black" points="450.5,-291.5 450.5,-321.5 557.5,-321.5 557.5,-291.5 450.5,-291.5"/>
<text text-anchor="start" x="458.5" y="-309.5" font-family="Helvetica,sans-Serif" font-size="10.00">odp/api/spec/proto</text>
<text text-anchor="middle" x="504" y="-298.5" font-family="Helvetica,sans-Serif" font-size="10.00">_stats_types.h</text>
</a>
</g>
</g>
<!-- Node11&#45;&gt;Node13 -->
<g id="edge13" class="edge">
<title>Node11&#45;&gt;Node13</title>
<path fill="none" stroke="midnightblue" d="M503.22,-358.4C503.34,-350.64 503.49,-340.81 503.63,-331.86"/>
<polygon fill="midnightblue" stroke="midnightblue" points="507.13,-331.63 503.78,-321.58 500.13,-331.52 507.13,-331.63"/>
</g>
<!-- Node13&#45;&gt;Node5 -->
<g id="edge14" class="edge">
<title>Node13&#45;&gt;Node5</title>
<path fill="none" stroke="midnightblue" d="M466.92,-291.48C411.62,-269.4 314,-225.42 314,-190 314,-190 314,-190 314,-132 314,-95.71 314,-53.31 314,-29.56"/>
<polygon fill="midnightblue" stroke="midnightblue" points="317.5,-29.51 314,-19.51 310.5,-29.51 317.5,-29.51"/>
</g>
<!-- Node13&#45;&gt;Node6 -->
<g id="edge26" class="edge">
<title>Node13&#45;&gt;Node6</title>
<path fill="none" stroke="midnightblue" d="M504.03,-291.41C504.88,-249.5 513.18,-124.29 580,-56 598.78,-36.81 625.87,-25.8 651.02,-19.48"/>
<polygon fill="midnightblue" stroke="midnightblue" points="651.94,-22.86 660.9,-17.21 650.37,-16.04 651.94,-22.86"/>
</g>
<!-- Node14 -->
<g id="node14" class="node">
<title>Node14</title>
<g id="a_node14"><a xlink:href="std__types_8h.html" target="_top" xlink:title=" ">
<polygon fill="white" stroke="black" points="820,-235.5 820,-254.5 932,-254.5 932,-235.5 820,-235.5"/>
<text text-anchor="middle" x="876" y="-242.5" font-family="Helvetica,sans-Serif" font-size="10.00">odp/api/std_types.h</text>
</a>
</g>
</g>
<!-- Node13&#45;&gt;Node14 -->
<g id="edge15" class="edge">
<title>Node13&#45;&gt;Node14</title>
<path fill="none" stroke="midnightblue" d="M557.69,-296.91C625.1,-286.13 740.58,-267.66 812.36,-256.18"/>
<polygon fill="midnightblue" stroke="midnightblue" points="813.3,-259.57 822.62,-254.54 812.2,-252.66 813.3,-259.57"/>
</g>
<!-- Node15 -->
<g id="node15" class="node">
<title>Node15</title>
<g id="a_node15"><a xlink:title=" ">
<polygon fill="white" stroke="#bfbfbf" points="898,-179.5 898,-198.5 1028,-198.5 1028,-179.5 898,-179.5"/>
<text text-anchor="middle" x="963" y="-186.5" font-family="Helvetica,sans-Serif" font-size="10.00">odp/api/abi/std_types.h</text>
</a>
</g>
</g>
<!-- Node14&#45;&gt;Node15 -->
<g id="edge16" class="edge">
<title>Node14&#45;&gt;Node15</title>
<path fill="none" stroke="midnightblue" d="M889.98,-235.32C903.55,-226.9 924.38,-213.97 940.32,-204.07"/>
<polygon fill="midnightblue" stroke="midnightblue" points="942.41,-206.9 949.06,-198.65 938.71,-200.95 942.41,-206.9"/>
</g>
<!-- Node16 -->
<g id="node16" class="node">
<title>Node16</title>
<g id="a_node16"><a xlink:href="spec_2std__types_8h.html" target="_top" xlink:title=" ">
<polygon fill="white" stroke="black" points="742.5,-179.5 742.5,-198.5 879.5,-198.5 879.5,-179.5 742.5,-179.5"/>
<text text-anchor="middle" x="811" y="-186.5" font-family="Helvetica,sans-Serif" font-size="10.00">odp/api/spec/std_types.h</text>
</a>
</g>
</g>
<!-- Node14&#45;&gt;Node16 -->
<g id="edge17" class="edge">
<title>Node14&#45;&gt;Node16</title>
<path fill="none" stroke="midnightblue" d="M865.56,-235.32C855.85,-227.26 841.18,-215.08 829.5,-205.37"/>
<polygon fill="midnightblue" stroke="midnightblue" points="831.56,-202.53 821.63,-198.83 827.09,-207.92 831.56,-202.53"/>
</g>
<!-- Node16&#45;&gt;Node5 -->
<g id="edge18" class="edge">
<title>Node16&#45;&gt;Node5</title>
<path fill="none" stroke="midnightblue" d="M793.14,-179.44C745.46,-156.85 610.87,-94.7 494,-56 451.37,-41.89 401.8,-29.8 365.48,-21.72"/>
<polygon fill="midnightblue" stroke="midnightblue" points="366.13,-18.28 355.61,-19.55 364.62,-25.11 366.13,-18.28"/>
</g>
<!-- Node16&#45;&gt;Node6 -->
<g id="edge25" class="edge">
<title>Node16&#45;&gt;Node6</title>
<path fill="none" stroke="midnightblue" d="M832.96,-179.41C881.22,-159.31 989.04,-107.06 947,-56 926.59,-31.21 843.89,-19.88 783.48,-14.84"/>
<polygon fill="midnightblue" stroke="midnightblue" points="783.48,-11.33 773.24,-14.02 782.93,-18.31 783.48,-11.33"/>
</g>
<!-- Node16&#45;&gt;Node17 -->
<g id="edge19" class="edge">
<title>Node16&#45;&gt;Node17</title>
<path fill="none" stroke="midnightblue" d="M865.19,-179.44C935.37,-168.36 1055.85,-149.34 1116.23,-139.81"/>
<polygon fill="midnightblue" stroke="midnightblue" points="1117.1,-143.21 1126.44,-138.19 1116.01,-136.3 1117.1,-143.21"/>
</g>
<!-- Node18 -->
<g id="node18" class="node">
<title>Node18</title>
<g id="a_node18"><a xlink:href="align_8h.html" target="_top" xlink:title=" ">
<polygon fill="white" stroke="black" points="766.5,-123.5 766.5,-142.5 855.5,-142.5 855.5,-123.5 766.5,-123.5"/>
<text text-anchor="middle" x="811" y="-130.5" font-family="Helvetica,sans-Serif" font-size="10.00">odp/api/align.h</text>
</a>
</g>
</g>
<!-- Node16&#45;&gt;Node18 -->
<g id="edge20" class="edge">
<title>Node16&#45;&gt;Node18</title>
<path fill="none" stroke="midnightblue" d="M811,-179.08C811,-172.01 811,-161.86 811,-152.99"/>
<polygon fill="midnightblue" stroke="midnightblue" points="814.5,-152.75 811,-142.75 807.5,-152.75 814.5,-152.75"/>
</g>
<!-- Node19 -->
<g id="node19" class="node">
<title>Node19</title>
<g id="a_node19"><a xlink:title=" ">
<polygon fill="white" stroke="#bfbfbf" points="830.5,-62 830.5,-81 937.5,-81 937.5,-62 830.5,-62"/>
<text text-anchor="middle" x="884" y="-69" font-family="Helvetica,sans-Serif" font-size="10.00">odp/api/abi/align.h</text>
</a>
</g>
</g>
<!-- Node18&#45;&gt;Node19 -->
<g id="edge21" class="edge">
<title>Node18&#45;&gt;Node19</title>
<path fill="none" stroke="midnightblue" d="M821.46,-123.48C832.95,-114.11 851.63,-98.88 865.59,-87.51"/>
<polygon fill="midnightblue" stroke="midnightblue" points="868.02,-90.04 873.56,-81.01 863.6,-84.61 868.02,-90.04"/>
</g>
<!-- Node20 -->
<g id="node20" class="node">
<title>Node20</title>
<g id="a_node20"><a xlink:href="spec_2align_8h.html" target="_top" xlink:title=" ">
<polygon fill="white" stroke="black" points="660,-62 660,-81 774,-81 774,-62 660,-62"/>
<text text-anchor="middle" x="717" y="-69" font-family="Helvetica,sans-Serif" font-size="10.00">odp/api/spec/align.h</text>
</a>
</g>
</g>
<!-- Node18&#45;&gt;Node20 -->
<g id="edge22" class="edge">
<title>Node18&#45;&gt;Node20</title>
<path fill="none" stroke="midnightblue" d="M797.53,-123.48C782.32,-113.84 757.31,-98.02 739.2,-86.55"/>
<polygon fill="midnightblue" stroke="midnightblue" points="740.76,-83.4 730.44,-81.01 737.02,-89.31 740.76,-83.4"/>
</g>
<!-- Node20&#45;&gt;Node5 -->
<g id="edge23" class="edge">
<title>Node20&#45;&gt;Node5</title>
<path fill="none" stroke="midnightblue" d="M659.69,-62.04C586.48,-51.23 459.96,-32.55 381.97,-21.04"/>
<polygon fill="midnightblue" stroke="midnightblue" points="382.17,-17.53 371.77,-19.53 381.15,-24.45 382.17,-17.53"/>
</g>
<!-- Node20&#45;&gt;Node6 -->
<g id="edge24" class="edge">
<title>Node20&#45;&gt;Node6</title>
<path fill="none" stroke="midnightblue" d="M717,-61.98C717,-53.58 717,-40.48 717,-29.66"/>
<polygon fill="midnightblue" stroke="midnightblue" points="720.5,-29.51 717,-19.51 713.5,-29.51 720.5,-29.51"/>
</g>
<!-- Node22 -->
<g id="node22" class="node">
<title>Node22</title>
<g id="a_node22"><a xlink:title=" ">
<polygon fill="white" stroke="#bfbfbf" points="614.5,-431 614.5,-450 759.5,-450 759.5,-431 614.5,-431"/>
<text text-anchor="middle" x="687" y="-438" font-family="Helvetica,sans-Serif" font-size="10.00">odp/api/abi/queue_types.h</text>
</a>
</g>
</g>
<!-- Node21&#45;&gt;Node22 -->
<g id="edge28" class="edge">
<title>Node21&#45;&gt;Node22</title>
<path fill="none" stroke="midnightblue" d="M687,-492.48C687,-484.08 687,-470.98 687,-460.16"/>
<polygon fill="midnightblue" stroke="midnightblue" points="690.5,-460.01 687,-450.01 683.5,-460.01 690.5,-460.01"/>
</g>
<!-- Node23 -->
<g id="node23" class="node">
<title>Node23</title>
<g id="a_node23"><a xlink:href="spec_2queue__types_8h.html" target="_top" xlink:title=" ">
<polygon fill="white" stroke="black" points="777.5,-425.5 777.5,-455.5 888.5,-455.5 888.5,-425.5 777.5,-425.5"/>
<text text-anchor="start" x="785.5" y="-443.5" font-family="Helvetica,sans-Serif" font-size="10.00">odp/api/spec/queue</text>
<text text-anchor="middle" x="833" y="-432.5" font-family="Helvetica,sans-Serif" font-size="10.00">_types.h</text>
</a>
</g>
</g>
<!-- Node21&#45;&gt;Node23 -->
<g id="edge29" class="edge">
<title>Node21&#45;&gt;Node23</title>
<path fill="none" stroke="midnightblue" d="M707.92,-492.48C728.99,-483.89 762.13,-470.38 789.01,-459.43"/>
<polygon fill="midnightblue" stroke="midnightblue" points="790.65,-462.54 798.59,-455.52 788.01,-456.06 790.65,-462.54"/>
</g>
<!-- Node23&#45;&gt;Node5 -->
<g id="edge30" class="edge">
<title>Node23&#45;&gt;Node5</title>
<path fill="none" stroke="midnightblue" d="M777.23,-426.47C774.45,-425.95 771.7,-425.45 769,-425 657.92,-406.42 276,-420.12 276,-307.5 276,-307.5 276,-307.5 276,-132 276,-93.81 293.44,-51.83 304.69,-28.72"/>
<polygon fill="midnightblue" stroke="midnightblue" points="307.96,-30.02 309.34,-19.52 301.71,-26.86 307.96,-30.02"/>
</g>
<!-- Node23&#45;&gt;Node6 -->
<g id="edge37" class="edge">
<title>Node23&#45;&gt;Node6</title>
<path fill="none" stroke="midnightblue" d="M853.63,-425.5C864.91,-416.54 877.81,-403.84 884,-389 900.77,-348.8 907,-327.99 884,-291 864.9,-260.28 841.96,-273.71 811,-255 774.78,-233.12 753.2,-236.71 734,-199 729.97,-191.08 732.21,-187.71 734,-179 739.44,-152.47 744.88,-146.69 758,-123 767.44,-105.96 777.18,-105.59 783,-87 787.12,-73.85 789.44,-68.18 783,-56 775.58,-41.95 761.58,-31.47 748.38,-24.17"/>
<polygon fill="midnightblue" stroke="midnightblue" points="749.96,-21.04 739.46,-19.62 746.78,-27.28 749.96,-21.04"/>
</g>
<!-- Node24 -->
<g id="node24" class="node">
<title>Node24</title>
<g id="a_node24"><a xlink:href="schedule__types_8h.html" target="_top" xlink:title=" ">
<polygon fill="white" stroke="black" points="735,-364 735,-383 875,-383 875,-364 735,-364"/>
<text text-anchor="middle" x="805" y="-371" font-family="Helvetica,sans-Serif" font-size="10.00">odp/api/schedule_types.h</text>
</a>
</g>
</g>
<!-- Node23&#45;&gt;Node24 -->
<g id="edge31" class="edge">
<title>Node23&#45;&gt;Node24</title>
<path fill="none" stroke="midnightblue" d="M826.92,-425.4C822.77,-415.76 817.24,-402.91 812.77,-392.54"/>
<polygon fill="midnightblue" stroke="midnightblue" points="815.92,-390.99 808.75,-383.19 809.49,-393.76 815.92,-390.99"/>
</g>
<!-- Node25 -->
<g id="node25" class="node">
<title>Node25</title>
<g id="a_node25"><a xlink:title=" ">
<polygon fill="white" stroke="#bfbfbf" points="614.5,-291.5 614.5,-321.5 731.5,-321.5 731.5,-291.5 614.5,-291.5"/>
<text text-anchor="start" x="622.5" y="-309.5" font-family="Helvetica,sans-Serif" font-size="10.00">odp/api/abi/schedule</text>
<text text-anchor="middle" x="673" y="-298.5" font-family="Helvetica,sans-Serif" font-size="10.00">_types.h</text>
</a>
</g>
</g>
<!-- Node24&#45;&gt;Node25 -->
<g id="edge32" class="edge">
<title>Node24&#45;&gt;Node25</title>
<path fill="none" stroke="midnightblue" d="M787.47,-363.87C768.07,-354.31 736.21,-338.63 711.03,-326.22"/>
<polygon fill="midnightblue" stroke="midnightblue" points="712.26,-322.93 701.74,-321.65 709.16,-329.21 712.26,-322.93"/>
</g>
<!-- Node26 -->
<g id="node26" class="node">
<title>Node26</title>
<g id="a_node26"><a xlink:href="spec_2schedule__types_8h.html" target="_top" xlink:title=" ">
<polygon fill="white" stroke="black" points="749.5,-291.5 749.5,-321.5 874.5,-321.5 874.5,-291.5 749.5,-291.5"/>
<text text-anchor="start" x="757.5" y="-309.5" font-family="Helvetica,sans-Serif" font-size="10.00">odp/api/spec/schedule</text>
<text text-anchor="middle" x="812" y="-298.5" font-family="Helvetica,sans-Serif" font-size="10.00">_types.h</text>
</a>
</g>
</g>
<!-- Node24&#45;&gt;Node26 -->
<g id="edge33" class="edge">
<title>Node24&#45;&gt;Node26</title>
<path fill="none" stroke="midnightblue" d="M805.94,-363.73C806.83,-355.54 808.19,-342.92 809.39,-331.71"/>
<polygon fill="midnightblue" stroke="midnightblue" points="812.89,-331.91 810.48,-321.59 805.93,-331.16 812.89,-331.91"/>
</g>
<!-- Node26&#45;&gt;Node5 -->
<g id="edge34" class="edge">
<title>Node26&#45;&gt;Node5</title>
<path fill="none" stroke="midnightblue" d="M786.4,-291.32C769.09,-281.53 745.86,-267.98 726,-255 619.43,-185.36 592.75,-167.35 494,-87 478.14,-74.09 477.76,-66.15 460,-56 431.88,-39.93 397.37,-28.95 368.96,-21.87"/>
<polygon fill="midnightblue" stroke="midnightblue" points="369.73,-18.45 359.19,-19.52 368.1,-25.26 369.73,-18.45"/>
</g>
<!-- Node26&#45;&gt;Node6 -->
<g id="edge36" class="edge">
<title>Node26&#45;&gt;Node6</title>
<path fill="none" stroke="midnightblue" d="M793.14,-291.49C768.91,-272.69 726.8,-237.23 700,-199 668.81,-154.51 662.12,-140.18 651,-87 648.18,-73.51 644.56,-68.18 651,-56 658.42,-41.95 672.42,-31.47 685.62,-24.17"/>
<polygon fill="midnightblue" stroke="midnightblue" points="687.22,-27.28 694.54,-19.62 684.04,-21.04 687.22,-27.28"/>
</g>
<!-- Node26&#45;&gt;Node14 -->
<g id="edge35" class="edge">
<title>Node26&#45;&gt;Node14</title>
<path fill="none" stroke="midnightblue" d="M827.17,-291.4C836.75,-282.49 849.16,-270.95 859.07,-261.74"/>
<polygon fill="midnightblue" stroke="midnightblue" points="861.75,-264.03 866.69,-254.66 856.98,-258.9 861.75,-264.03"/>
</g>
<!-- Node28 -->
<g id="node28" class="node">
<title>Node28</title>
<g id="a_node28"><a xlink:title=" ">
<polygon fill="white" stroke="#bfbfbf" points="956,-794.5 956,-813.5 1092,-813.5 1092,-794.5 956,-794.5"/>
<text text-anchor="middle" x="1024" y="-801.5" font-family="Helvetica,sans-Serif" font-size="10.00">odp/api/abi/pool_types.h</text>
</a>
</g>
</g>
<!-- Node27&#45;&gt;Node28 -->
<g id="edge40" class="edge">
<title>Node27&#45;&gt;Node28</title>
<path fill="none" stroke="midnightblue" d="M957.69,-850.32C969.9,-841.98 988.58,-829.21 1003,-819.35"/>
<polygon fill="midnightblue" stroke="midnightblue" points="1005.06,-822.19 1011.34,-813.65 1001.11,-816.41 1005.06,-822.19"/>
</g>
<!-- Node29 -->
<g id="node29" class="node">
<title>Node29</title>
<g id="a_node29"><a xlink:href="spec_2pool__types_8h.html" target="_top" xlink:title=" ">
<polygon fill="white" stroke="black" points="794.5,-794.5 794.5,-813.5 937.5,-813.5 937.5,-794.5 794.5,-794.5"/>
<text text-anchor="middle" x="866" y="-801.5" font-family="Helvetica,sans-Serif" font-size="10.00">odp/api/spec/pool_types.h</text>
</a>
</g>
</g>
<!-- Node27&#45;&gt;Node29 -->
<g id="edge41" class="edge">
<title>Node27&#45;&gt;Node29</title>
<path fill="none" stroke="midnightblue" d="M932.31,-850.32C920.1,-841.98 901.42,-829.21 887,-819.35"/>
<polygon fill="midnightblue" stroke="midnightblue" points="888.89,-816.41 878.66,-813.65 884.94,-822.19 888.89,-816.41"/>
</g>
<!-- Node29&#45;&gt;Node5 -->
<g id="edge42" class="edge">
<title>Node29&#45;&gt;Node5</title>
<path fill="none" stroke="midnightblue" d="M794.49,-801.21C649.89,-794.83 316.06,-765.86 75,-635 15.7,-602.81 0,-570.48 0,-503 0,-503 0,-503 0,-132 0,-78.08 163.24,-39.01 254.32,-21.41"/>
<polygon fill="midnightblue" stroke="midnightblue" points="255.08,-24.83 264.25,-19.52 253.77,-17.95 255.08,-24.83"/>
</g>
<!-- Node29&#45;&gt;Node6 -->
<g id="edge53" class="edge">
<title>Node29&#45;&gt;Node6</title>
<path fill="none" stroke="midnightblue" d="M924.58,-794.44C950.56,-788.09 979.94,-777.07 1001,-758 1061.5,-703.23 1094,-564.25 1094,-441.5 1094,-441.5 1094,-441.5 1094,-132 1094,-82.63 1057.4,-77.57 1013,-56 973.65,-36.88 858.07,-23.45 783.52,-16.49"/>
<polygon fill="midnightblue" stroke="midnightblue" points="783.56,-12.98 773.28,-15.55 782.92,-19.95 783.56,-12.98"/>
</g>
<!-- Node29&#45;&gt;Node14 -->
<g id="edge43" class="edge">
<title>Node29&#45;&gt;Node14</title>
<path fill="none" stroke="midnightblue" d="M895.31,-794.4C939.48,-779.42 1018,-744.06 1018,-682 1018,-682 1018,-682 1018,-372.5 1018,-314.46 951.03,-276.47 909.07,-258.38"/>
<polygon fill="midnightblue" stroke="midnightblue" points="910.35,-255.11 899.77,-254.51 907.66,-261.58 910.35,-255.11"/>
</g>
<!-- Node30 -->
<g id="node30" class="node">
<title>Node30</title>
<g id="a_node30"><a xlink:href="dma__types_8h.html" target="_top" xlink:title=" ">
<polygon fill="white" stroke="black" points="799.5,-733 799.5,-752 918.5,-752 918.5,-733 799.5,-733"/>
<text text-anchor="middle" x="859" y="-740" font-family="Helvetica,sans-Serif" font-size="10.00">odp/api/dma_types.h</text>
</a>
</g>
</g>
<!-- Node29&#45;&gt;Node30 -->
<g id="edge44" class="edge">
<title>Node29&#45;&gt;Node30</title>
<path fill="none" stroke="midnightblue" d="M865,-794.48C864.01,-786.08 862.47,-772.98 861.2,-762.16"/>
<polygon fill="midnightblue" stroke="midnightblue" points="864.65,-761.53 860,-752.01 857.69,-762.35 864.65,-761.53"/>
</g>
<!-- Node31 -->
<g id="node31" class="node">
<title>Node31</title>
<g id="a_node31"><a xlink:title=" ">
<polygon fill="white" stroke="#bfbfbf" points="790.5,-671.5 790.5,-690.5 927.5,-690.5 927.5,-671.5 790.5,-671.5"/>
<text text-anchor="middle" x="859" y="-678.5" font-family="Helvetica,sans-Serif" font-size="10.00">odp/api/abi/dma_types.h</text>
</a>
</g>
</g>
<!-- Node30&#45;&gt;Node31 -->
<g id="edge45" class="edge">
<title>Node30&#45;&gt;Node31</title>
<path fill="none" stroke="midnightblue" d="M859,-732.98C859,-724.58 859,-711.48 859,-700.66"/>
<polygon fill="midnightblue" stroke="midnightblue" points="862.5,-700.51 859,-690.51 855.5,-700.51 862.5,-700.51"/>
</g>
<!-- Node32 -->
<g id="node32" class="node">
<title>Node32</title>
<g id="a_node32"><a xlink:href="spec_2dma__types_8h.html" target="_top" xlink:title=" ">
<polygon fill="white" stroke="black" points="615,-671.5 615,-690.5 759,-690.5 759,-671.5 615,-671.5"/>
<text text-anchor="middle" x="687" y="-678.5" font-family="Helvetica,sans-Serif" font-size="10.00">odp/api/spec/dma_types.h</text>
</a>
</g>
</g>
<!-- Node30&#45;&gt;Node32 -->
<g id="edge46" class="edge">
<title>Node30&#45;&gt;Node32</title>
<path fill="none" stroke="midnightblue" d="M834.36,-732.98C804.72,-722.72 754.82,-705.46 721.4,-693.9"/>
<polygon fill="midnightblue" stroke="midnightblue" points="722.19,-690.47 711.6,-690.51 719.9,-697.09 722.19,-690.47"/>
</g>
<!-- Node32&#45;&gt;Node2 -->
<g id="edge48" class="edge">
<title>Node32&#45;&gt;Node2</title>
<path fill="none" stroke="midnightblue" d="M614.78,-673.42C523.65,-665.01 362.12,-649.78 224,-635 222.54,-634.84 221.06,-634.68 219.57,-634.52"/>
<polygon fill="midnightblue" stroke="midnightblue" points="219.93,-631.04 209.6,-633.42 219.16,-638 219.93,-631.04"/>
</g>
<!-- Node32&#45;&gt;Node5 -->
<g id="edge47" class="edge">
<title>Node32&#45;&gt;Node5</title>
<path fill="none" stroke="midnightblue" d="M614.83,-679.21C470.92,-673.42 162,-638.09 162,-441.5 162,-441.5 162,-441.5 162,-132 162,-74.18 230.15,-39.54 275.19,-22.96"/>
<polygon fill="midnightblue" stroke="midnightblue" points="276.43,-26.24 284.69,-19.6 274.1,-19.64 276.43,-26.24"/>
</g>
<!-- Node32&#45;&gt;Node6 -->
<g id="edge52" class="edge">
<title>Node32&#45;&gt;Node6</title>
<path fill="none" stroke="midnightblue" d="M753.25,-671.47C791.33,-664.88 839.33,-653.63 879,-635 984.5,-585.46 1056,-558.05 1056,-441.5 1056,-441.5 1056,-441.5 1056,-132 1056,-79.31 1012.73,-78.33 965,-56 907.22,-28.96 834.83,-18.13 783.2,-13.81"/>
<polygon fill="midnightblue" stroke="midnightblue" points="783.4,-10.31 773.16,-13.03 782.86,-17.29 783.4,-10.31"/>
</g>
<!-- Node32&#45;&gt;Node7 -->
<g id="edge49" class="edge">
<title>Node32&#45;&gt;Node7</title>
<path fill="none" stroke="midnightblue" d="M649.61,-671.44C608.61,-662.06 542.75,-646.99 498.22,-636.8"/>
<polygon fill="midnightblue" stroke="midnightblue" points="498.75,-633.34 488.22,-634.52 497.19,-640.16 498.75,-633.34"/>
</g>
<!-- Node32&#45;&gt;Node14 -->
<g id="edge51" class="edge">
<title>Node32&#45;&gt;Node14</title>
<path fill="none" stroke="midnightblue" d="M723.39,-671.5C793.63,-654.02 941,-611.73 941,-564.5 941,-564.5 941,-564.5 941,-372.5 941,-328.93 910.12,-285.32 890.93,-262.43"/>
<polygon fill="midnightblue" stroke="midnightblue" points="893.43,-259.97 884.23,-254.71 888.14,-264.56 893.43,-259.97"/>
</g>
<!-- Node32&#45;&gt;Node21 -->
<g id="edge50" class="edge">
<title>Node32&#45;&gt;Node21</title>
<path fill="none" stroke="midnightblue" d="M687,-671.46C687,-644.43 687,-560.24 687,-522.11"/>
<polygon fill="midnightblue" stroke="midnightblue" points="690.5,-521.87 687,-511.87 683.5,-521.87 690.5,-521.87"/>
</g>
<!-- Node33&#45;&gt;Node17 -->
<g id="edge55" class="edge">
<title>Node33&#45;&gt;Node17</title>
<path fill="none" stroke="midnightblue" d="M1153,-727.28C1153,-705.48 1153,-662.49 1153,-626 1153,-626 1153,-626 1153,-244 1153,-211.95 1153,-174.64 1153,-152.75"/>
<polygon fill="midnightblue" stroke="midnightblue" points="1156.5,-152.56 1153,-142.56 1149.5,-152.56 1156.5,-152.56"/>
</g>
</g>
</svg>
