<?xml version="1.0" encoding="UTF-8" standalone="no"?>
<!DOCTYPE svg PUBLIC "-//W3C//DTD SVG 1.1//EN"
 "http://www.w3.org/Graphics/SVG/1.1/DTD/svg11.dtd">
<!-- Generated by graphviz version 2.43.0 (0)
 -->
<!-- Title: packet_types.h Pages: 1 -->
<svg width="1334pt" height="588pt"
 viewBox="0.00 0.00 1334.00 588.00" xmlns="http://www.w3.org/2000/svg" xmlns:xlink="http://www.w3.org/1999/xlink">
<g id="graph0" class="graph" transform="scale(1 1) rotate(0) translate(4 584)">
<title>packet_types.h</title>
<polygon fill="white" stroke="transparent" points="-4,4 -4,-584 1330,-584 1330,4 -4,4"/>
<!-- Node1 -->
<g id="node1" class="node">
<title>Node1</title>
<g id="a_node1"><a xlink:title=" ">
<polygon fill="#bfbfbf" stroke="black" points="1000,-560.5 1000,-579.5 1090,-579.5 1090,-560.5 1000,-560.5"/>
<text text-anchor="middle" x="1045" y="-567.5" font-family="Helvetica,sans-Serif" font-size="10.00">packet_types.h</text>
</a>
</g>
</g>
<!-- Node2 -->
<g id="node2" class="node">
<title>Node2</title>
<g id="a_node2"><a xlink:href="spec_2comp_8h.html" target="_top" xlink:title=" ">
<polygon fill="white" stroke="black" points="424.5,-504.5 424.5,-523.5 477.5,-523.5 477.5,-504.5 424.5,-504.5"/>
<text text-anchor="middle" x="451" y="-511.5" font-family="Helvetica,sans-Serif" font-size="10.00">comp.h</text>
</a>
</g>
</g>
<!-- Node1&#45;&gt;Node2 -->
<g id="edge1" class="edge">
<title>Node1&#45;&gt;Node2</title>
<path fill="none" stroke="midnightblue" d="M989.81,-566.98C890,-562.77 673.02,-551.11 492,-524 487.39,-523.31 482.52,-522.4 477.81,-521.43"/>
<polygon fill="midnightblue" stroke="midnightblue" points="989.83,-570.48 999.96,-567.39 990.12,-563.48 989.83,-570.48"/>
</g>
<!-- Node4 -->
<g id="node4" class="node">
<title>Node4</title>
<g id="a_node4"><a xlink:href="spec_2crypto_8h.html" target="_top" xlink:title=" ">
<polygon fill="white" stroke="black" points="75,-280.5 75,-299.5 131,-299.5 131,-280.5 75,-280.5"/>
<text text-anchor="middle" x="103" y="-287.5" font-family="Helvetica,sans-Serif" font-size="10.00">crypto.h</text>
</a>
</g>
</g>
<!-- Node1&#45;&gt;Node4 -->
<g id="edge3" class="edge">
<title>Node1&#45;&gt;Node4</title>
<path fill="none" stroke="midnightblue" d="M989.59,-568.16C881.72,-565.81 647.69,-556.94 575,-524 536.63,-506.61 506,-501.13 506,-459 506,-459 506,-459 506,-401 506,-391.27 222.41,-320.46 131.02,-297.89"/>
<polygon fill="midnightblue" stroke="midnightblue" points="989.56,-571.66 999.63,-568.37 989.7,-564.66 989.56,-571.66"/>
</g>
<!-- Node8 -->
<g id="node8" class="node">
<title>Node8</title>
<g id="a_node8"><a xlink:href="spec_2dma__types_8h.html" target="_top" xlink:title=" ">
<polygon fill="white" stroke="black" points="833,-504.5 833,-523.5 913,-523.5 913,-504.5 833,-504.5"/>
<text text-anchor="middle" x="873" y="-511.5" font-family="Helvetica,sans-Serif" font-size="10.00">dma_types.h</text>
</a>
</g>
</g>
<!-- Node1&#45;&gt;Node8 -->
<g id="edge7" class="edge">
<title>Node1&#45;&gt;Node8</title>
<path fill="none" stroke="midnightblue" d="M1008.17,-557.44C975.74,-547.26 929.26,-532.66 900.13,-523.52"/>
<polygon fill="midnightblue" stroke="midnightblue" points="1007.16,-560.79 1017.75,-560.44 1009.25,-554.11 1007.16,-560.79"/>
</g>
<!-- Node18 -->
<g id="node18" class="node">
<title>Node18</title>
<g id="a_node18"><a xlink:href="spec_2packet__io_8h.html" target="_top" xlink:title=" ">
<polygon fill="white" stroke="black" points="258,-56.5 258,-75.5 330,-75.5 330,-56.5 258,-56.5"/>
<text text-anchor="middle" x="294" y="-63.5" font-family="Helvetica,sans-Serif" font-size="10.00">packet_io.h</text>
</a>
</g>
</g>
<!-- Node1&#45;&gt;Node18 -->
<g id="edge48" class="edge">
<title>Node1&#45;&gt;Node18</title>
<path fill="none" stroke="midnightblue" d="M1069.25,-555.09C1097.39,-536.91 1140,-502.26 1140,-459 1140,-459 1140,-459 1140,-177 1140,-87.3 427.54,-90.42 339,-76 336.17,-75.54 333.24,-75.03 330.31,-74.49"/>
<polygon fill="midnightblue" stroke="midnightblue" points="1067.34,-552.15 1060.69,-560.4 1071.03,-558.1 1067.34,-552.15"/>
</g>
<!-- Node20 -->
<g id="node20" class="node">
<title>Node20</title>
<g id="a_node20"><a xlink:href="spec_2packet_8h.html" target="_top" xlink:title=" ">
<polygon fill="white" stroke="black" points="359,-168.5 359,-187.5 417,-187.5 417,-168.5 359,-168.5"/>
<text text-anchor="middle" x="388" y="-175.5" font-family="Helvetica,sans-Serif" font-size="10.00">packet.h</text>
</a>
</g>
</g>
<!-- Node1&#45;&gt;Node20 -->
<g id="edge45" class="edge">
<title>Node1&#45;&gt;Node20</title>
<path fill="none" stroke="midnightblue" d="M1039.78,-550.39C1034.16,-528.65 1026,-491.51 1026,-459 1026,-459 1026,-459 1026,-401 1026,-341.74 1119.27,-326.07 1082,-280 1039.26,-227.17 543.27,-189.67 417.07,-180.94"/>
<polygon fill="midnightblue" stroke="midnightblue" points="1036.46,-551.5 1042.44,-560.25 1043.22,-549.68 1036.46,-551.5"/>
</g>
<!-- Node23 -->
<g id="node23" class="node">
<title>Node23</title>
<g id="a_node23"><a xlink:href="spec_2packet__io__types_8h.html" target="_top" xlink:title=" ">
<polygon fill="white" stroke="black" points="149,-280.5 149,-299.5 253,-299.5 253,-280.5 149,-280.5"/>
<text text-anchor="middle" x="201" y="-287.5" font-family="Helvetica,sans-Serif" font-size="10.00">packet_io_types.h</text>
</a>
</g>
</g>
<!-- Node1&#45;&gt;Node23 -->
<g id="edge49" class="edge">
<title>Node1&#45;&gt;Node23</title>
<path fill="none" stroke="midnightblue" d="M989.47,-568.43C859.04,-565.59 544,-549.39 544,-459 544,-459 544,-459 544,-401 544,-370.2 543.97,-355.33 520,-336 499.62,-319.56 338.38,-303.1 253.25,-295.44"/>
<polygon fill="midnightblue" stroke="midnightblue" points="989.59,-571.93 999.66,-568.63 989.73,-564.93 989.59,-571.93"/>
</g>
<!-- Node32 -->
<g id="node32" class="node">
<title>Node32</title>
<g id="a_node32"><a xlink:href="packet__inlines_8h.html" target="_top" xlink:title=" ">
<polygon fill="white" stroke="black" points="829.5,-280.5 829.5,-299.5 924.5,-299.5 924.5,-280.5 829.5,-280.5"/>
<text text-anchor="middle" x="877" y="-287.5" font-family="Helvetica,sans-Serif" font-size="10.00">packet_inlines.h</text>
</a>
</g>
</g>
<!-- Node1&#45;&gt;Node32 -->
<g id="edge50" class="edge">
<title>Node1&#45;&gt;Node32</title>
<path fill="none" stroke="midnightblue" d="M1050.22,-550.39C1055.84,-528.65 1064,-491.51 1064,-459 1064,-459 1064,-459 1064,-401 1064,-363.71 952.14,-318.3 901.45,-299.64"/>
<polygon fill="midnightblue" stroke="midnightblue" points="1046.78,-549.68 1047.56,-560.25 1053.54,-551.5 1046.78,-549.68"/>
</g>
<!-- Node33 -->
<g id="node33" class="node">
<title>Node33</title>
<g id="a_node33"><a xlink:href="packet__vector__inlines_8h.html" target="_top" xlink:title=" ">
<polygon fill="white" stroke="black" points="942.5,-280.5 942.5,-299.5 1073.5,-299.5 1073.5,-280.5 942.5,-280.5"/>
<text text-anchor="middle" x="1008" y="-287.5" font-family="Helvetica,sans-Serif" font-size="10.00">packet_vector_inlines.h</text>
</a>
</g>
</g>
<!-- Node1&#45;&gt;Node33 -->
<g id="edge51" class="edge">
<title>Node1&#45;&gt;Node33</title>
<path fill="none" stroke="midnightblue" d="M1059.79,-552.7C1076.68,-532.34 1102,-495.7 1102,-459 1102,-459 1102,-459 1102,-401 1102,-370.2 1097.28,-360.01 1078,-336 1064.7,-319.44 1043.6,-307.06 1028.03,-299.52"/>
<polygon fill="midnightblue" stroke="midnightblue" points="1057.05,-550.52 1053.17,-560.38 1062.35,-555.1 1057.05,-550.52"/>
</g>
<!-- Node35 -->
<g id="node35" class="node">
<title>Node35</title>
<g id="a_node35"><a xlink:href="spec_2event_8h.html" target="_top" xlink:title=" ">
<polygon fill="white" stroke="black" points="1168.5,-504.5 1168.5,-523.5 1221.5,-523.5 1221.5,-504.5 1168.5,-504.5"/>
<text text-anchor="middle" x="1195" y="-511.5" font-family="Helvetica,sans-Serif" font-size="10.00">event.h</text>
</a>
</g>
</g>
<!-- Node1&#45;&gt;Node35 -->
<g id="edge42" class="edge">
<title>Node1&#45;&gt;Node35</title>
<path fill="none" stroke="midnightblue" d="M1078.22,-557.04C1106.45,-546.88 1146.26,-532.55 1171.34,-523.52"/>
<polygon fill="midnightblue" stroke="midnightblue" points="1076.99,-553.76 1068.77,-560.44 1079.36,-560.35 1076.99,-553.76"/>
</g>
<!-- Node38 -->
<g id="node38" class="node">
<title>Node38</title>
<g id="a_node38"><a xlink:href="spec_2packet__flags_8h.html" target="_top" xlink:title=" ">
<polygon fill="white" stroke="black" points="1240,-504.5 1240,-523.5 1326,-523.5 1326,-504.5 1240,-504.5"/>
<text text-anchor="middle" x="1283" y="-511.5" font-family="Helvetica,sans-Serif" font-size="10.00">packet_flags.h</text>
</a>
</g>
</g>
<!-- Node1&#45;&gt;Node38 -->
<g id="edge46" class="edge">
<title>Node1&#45;&gt;Node38</title>
<path fill="none" stroke="midnightblue" d="M1092.52,-558.22C1137.5,-548.01 1204.1,-532.9 1245.46,-523.52"/>
<polygon fill="midnightblue" stroke="midnightblue" points="1091.69,-554.82 1082.71,-560.44 1093.24,-561.64 1091.69,-554.82"/>
</g>
<!-- Node3 -->
<g id="node3" class="node">
<title>Node3</title>
<g id="a_node3"><a xlink:href="comp_8h.html" target="_top" xlink:title=" ">
<polygon fill="white" stroke="black" points="424.5,-448.5 424.5,-467.5 477.5,-467.5 477.5,-448.5 424.5,-448.5"/>
<text text-anchor="middle" x="451" y="-455.5" font-family="Helvetica,sans-Serif" font-size="10.00">comp.h</text>
</a>
</g>
</g>
<!-- Node2&#45;&gt;Node3 -->
<g id="edge2" class="edge">
<title>Node2&#45;&gt;Node3</title>
<path fill="none" stroke="midnightblue" d="M451,-493.8C451,-484.91 451,-474.78 451,-467.75"/>
<polygon fill="midnightblue" stroke="midnightblue" points="447.5,-494.08 451,-504.08 454.5,-494.08 447.5,-494.08"/>
</g>
<!-- Node5 -->
<g id="node5" class="node">
<title>Node5</title>
<g id="a_node5"><a xlink:href="crypto_8h.html" target="_top" xlink:title=" ">
<polygon fill="white" stroke="black" points="0,-168.5 0,-187.5 56,-187.5 56,-168.5 0,-168.5"/>
<text text-anchor="middle" x="28" y="-175.5" font-family="Helvetica,sans-Serif" font-size="10.00">crypto.h</text>
</a>
</g>
</g>
<!-- Node4&#45;&gt;Node5 -->
<g id="edge4" class="edge">
<title>Node4&#45;&gt;Node5</title>
<path fill="none" stroke="midnightblue" d="M91.38,-271.96C75.13,-248.12 46.21,-205.71 33.86,-187.59"/>
<polygon fill="midnightblue" stroke="midnightblue" points="88.59,-274.08 97.11,-280.37 94.37,-270.13 88.59,-274.08"/>
</g>
<!-- Node6 -->
<g id="node6" class="node">
<title>Node6</title>
<g id="a_node6"><a xlink:href="spec_2ipsec_8h.html" target="_top" xlink:title=" ">
<polygon fill="white" stroke="black" points="125.5,-56.5 125.5,-75.5 176.5,-75.5 176.5,-56.5 125.5,-56.5"/>
<text text-anchor="middle" x="151" y="-63.5" font-family="Helvetica,sans-Serif" font-size="10.00">ipsec.h</text>
</a>
</g>
</g>
<!-- Node5&#45;&gt;Node6 -->
<g id="edge5" class="edge">
<title>Node5&#45;&gt;Node6</title>
<path fill="none" stroke="midnightblue" d="M34.99,-158.78C41.16,-144.62 51.3,-125.22 65,-112 82.46,-95.15 107.49,-83.02 126.05,-75.63"/>
<polygon fill="midnightblue" stroke="midnightblue" points="31.6,-157.82 31.05,-168.4 38.08,-160.47 31.6,-157.82"/>
</g>
<!-- Node7 -->
<g id="node7" class="node">
<title>Node7</title>
<g id="a_node7"><a xlink:href="ipsec_8h.html" target="_top" xlink:title=" ">
<polygon fill="white" stroke="black" points="125.5,-0.5 125.5,-19.5 176.5,-19.5 176.5,-0.5 125.5,-0.5"/>
<text text-anchor="middle" x="151" y="-7.5" font-family="Helvetica,sans-Serif" font-size="10.00">ipsec.h</text>
</a>
</g>
</g>
<!-- Node6&#45;&gt;Node7 -->
<g id="edge6" class="edge">
<title>Node6&#45;&gt;Node7</title>
<path fill="none" stroke="midnightblue" d="M151,-45.8C151,-36.91 151,-26.78 151,-19.75"/>
<polygon fill="midnightblue" stroke="midnightblue" points="147.5,-46.08 151,-56.08 154.5,-46.08 147.5,-46.08"/>
</g>
<!-- Node9 -->
<g id="node9" class="node">
<title>Node9</title>
<g id="a_node9"><a xlink:href="dma__types_8h.html" target="_top" xlink:title=" ">
<polygon fill="white" stroke="black" points="748,-448.5 748,-467.5 828,-467.5 828,-448.5 748,-448.5"/>
<text text-anchor="middle" x="788" y="-455.5" font-family="Helvetica,sans-Serif" font-size="10.00">dma_types.h</text>
</a>
</g>
</g>
<!-- Node8&#45;&gt;Node9 -->
<g id="edge8" class="edge">
<title>Node8&#45;&gt;Node9</title>
<path fill="none" stroke="midnightblue" d="M850.81,-498.9C835.22,-489 814.87,-476.07 801.62,-467.65"/>
<polygon fill="midnightblue" stroke="midnightblue" points="849.03,-501.92 859.34,-504.32 852.78,-496.01 849.03,-501.92"/>
</g>
<!-- Node10 -->
<g id="node10" class="node">
<title>Node10</title>
<g id="a_node10"><a xlink:href="spec_2dma_8h.html" target="_top" xlink:title=" ">
<polygon fill="white" stroke="black" points="764.5,-280.5 764.5,-299.5 811.5,-299.5 811.5,-280.5 764.5,-280.5"/>
<text text-anchor="middle" x="788" y="-287.5" font-family="Helvetica,sans-Serif" font-size="10.00">dma.h</text>
</a>
</g>
</g>
<!-- Node9&#45;&gt;Node10 -->
<g id="edge9" class="edge">
<title>Node9&#45;&gt;Node10</title>
<path fill="none" stroke="midnightblue" d="M788,-437.93C788,-401.92 788,-325.23 788,-299.57"/>
<polygon fill="midnightblue" stroke="midnightblue" points="784.5,-438.08 788,-448.08 791.5,-438.08 784.5,-438.08"/>
</g>
<!-- Node12 -->
<g id="node12" class="node">
<title>Node12</title>
<g id="a_node12"><a xlink:href="spec_2pool__types_8h.html" target="_top" xlink:title=" ">
<polygon fill="white" stroke="black" points="648.5,-392.5 648.5,-411.5 727.5,-411.5 727.5,-392.5 648.5,-392.5"/>
<text text-anchor="middle" x="688" y="-399.5" font-family="Helvetica,sans-Serif" font-size="10.00">pool_types.h</text>
</a>
</g>
</g>
<!-- Node9&#45;&gt;Node12 -->
<g id="edge11" class="edge">
<title>Node9&#45;&gt;Node12</title>
<path fill="none" stroke="midnightblue" d="M762.91,-443.45C744.45,-433.48 719.9,-420.23 704.03,-411.65"/>
<polygon fill="midnightblue" stroke="midnightblue" points="761.47,-446.65 771.93,-448.32 764.8,-440.49 761.47,-446.65"/>
</g>
<!-- Node11 -->
<g id="node11" class="node">
<title>Node11</title>
<g id="a_node11"><a xlink:href="dma_8h.html" target="_top" xlink:title=" ">
<polygon fill="white" stroke="black" points="764.5,-224.5 764.5,-243.5 811.5,-243.5 811.5,-224.5 764.5,-224.5"/>
<text text-anchor="middle" x="788" y="-231.5" font-family="Helvetica,sans-Serif" font-size="10.00">dma.h</text>
</a>
</g>
</g>
<!-- Node10&#45;&gt;Node11 -->
<g id="edge10" class="edge">
<title>Node10&#45;&gt;Node11</title>
<path fill="none" stroke="midnightblue" d="M788,-269.8C788,-260.91 788,-250.78 788,-243.75"/>
<polygon fill="midnightblue" stroke="midnightblue" points="784.5,-270.08 788,-280.08 791.5,-270.08 784.5,-270.08"/>
</g>
<!-- Node13 -->
<g id="node13" class="node">
<title>Node13</title>
<g id="a_node13"><a xlink:href="pool__types_8h.html" target="_top" xlink:title=" ">
<polygon fill="white" stroke="black" points="572.5,-336.5 572.5,-355.5 651.5,-355.5 651.5,-336.5 572.5,-336.5"/>
<text text-anchor="middle" x="612" y="-343.5" font-family="Helvetica,sans-Serif" font-size="10.00">pool_types.h</text>
</a>
</g>
</g>
<!-- Node12&#45;&gt;Node13 -->
<g id="edge12" class="edge">
<title>Node12&#45;&gt;Node13</title>
<path fill="none" stroke="midnightblue" d="M667.42,-386.38C653.69,-376.62 636.07,-364.11 624.43,-355.83"/>
<polygon fill="midnightblue" stroke="midnightblue" points="665.61,-389.38 675.79,-392.32 669.66,-383.68 665.61,-389.38"/>
</g>
<!-- Node13&#45;&gt;Node4 -->
<g id="edge20" class="edge">
<title>Node13&#45;&gt;Node4</title>
<path fill="none" stroke="midnightblue" d="M561.99,-340.08C548.37,-338.75 533.62,-337.31 520,-336 351.14,-319.74 307.3,-328.12 140,-300 137.13,-299.52 134.16,-298.94 131.19,-298.3"/>
<polygon fill="midnightblue" stroke="midnightblue" points="561.86,-343.58 572.15,-341.08 562.54,-336.62 561.86,-343.58"/>
</g>
<!-- Node13&#45;&gt;Node10 -->
<g id="edge21" class="edge">
<title>Node13&#45;&gt;Node10</title>
<path fill="none" stroke="midnightblue" d="M649.7,-333.43C684.49,-322.76 735.09,-307.23 764.47,-298.22"/>
<polygon fill="midnightblue" stroke="midnightblue" points="648.42,-330.16 639.89,-336.44 650.47,-336.86 648.42,-330.16"/>
</g>
<!-- Node14 -->
<g id="node14" class="node">
<title>Node14</title>
<g id="a_node14"><a xlink:href="spec_2buffer_8h.html" target="_top" xlink:title=" ">
<polygon fill="white" stroke="black" points="628.5,-280.5 628.5,-299.5 681.5,-299.5 681.5,-280.5 628.5,-280.5"/>
<text text-anchor="middle" x="655" y="-287.5" font-family="Helvetica,sans-Serif" font-size="10.00">buffer.h</text>
</a>
</g>
</g>
<!-- Node13&#45;&gt;Node14 -->
<g id="edge13" class="edge">
<title>Node13&#45;&gt;Node14</title>
<path fill="none" stroke="midnightblue" d="M625.42,-328.14C632.91,-318.74 641.94,-307.4 648.03,-299.75"/>
<polygon fill="midnightblue" stroke="midnightblue" points="622.59,-326.08 619.1,-336.08 628.07,-330.44 622.59,-326.08"/>
</g>
<!-- Node16 -->
<g id="node16" class="node">
<title>Node16</title>
<g id="a_node16"><a xlink:href="spec_2classification_8h.html" target="_top" xlink:title=" ">
<polygon fill="white" stroke="black" points="252.5,-168.5 252.5,-187.5 341.5,-187.5 341.5,-168.5 252.5,-168.5"/>
<text text-anchor="middle" x="297" y="-175.5" font-family="Helvetica,sans-Serif" font-size="10.00">classification.h</text>
</a>
</g>
</g>
<!-- Node13&#45;&gt;Node16 -->
<g id="edge15" class="edge">
<title>Node13&#45;&gt;Node16</title>
<path fill="none" stroke="midnightblue" d="M562.46,-336.72C560.95,-336.47 559.47,-336.23 558,-336 505.83,-327.66 361.45,-336.23 323,-300 290.78,-269.65 293.58,-209.79 295.9,-187.57"/>
<polygon fill="midnightblue" stroke="midnightblue" points="562.06,-340.2 572.49,-338.35 563.18,-333.29 562.06,-340.2"/>
</g>
<!-- Node13&#45;&gt;Node20 -->
<g id="edge22" class="edge">
<title>Node13&#45;&gt;Node20</title>
<path fill="none" stroke="midnightblue" d="M562.45,-336.74C560.95,-336.49 559.47,-336.24 558,-336 509.12,-327.93 370.08,-337.75 338,-300 316.13,-274.26 324.26,-254.86 338,-224 345.13,-208 361.07,-195.3 373.05,-187.53"/>
<polygon fill="midnightblue" stroke="midnightblue" points="562.05,-340.22 572.48,-338.4 563.19,-333.31 562.05,-340.22"/>
</g>
<!-- Node13&#45;&gt;Node23 -->
<g id="edge25" class="edge">
<title>Node13&#45;&gt;Node23</title>
<path fill="none" stroke="midnightblue" d="M561.93,-336.58C560.61,-336.38 559.3,-336.19 558,-336 429.03,-317.28 396.23,-316.8 267,-300 262.53,-299.42 257.89,-298.81 253.23,-298.18"/>
<polygon fill="midnightblue" stroke="midnightblue" points="561.8,-340.1 572.22,-338.17 562.87,-333.18 561.8,-340.1"/>
</g>
<!-- Node27 -->
<g id="node27" class="node">
<title>Node27</title>
<g id="a_node27"><a xlink:href="spec_2pool_8h.html" target="_top" xlink:title=" ">
<polygon fill="white" stroke="black" points="699.5,-280.5 699.5,-299.5 746.5,-299.5 746.5,-280.5 699.5,-280.5"/>
<text text-anchor="middle" x="723" y="-287.5" font-family="Helvetica,sans-Serif" font-size="10.00">pool.h</text>
</a>
</g>
</g>
<!-- Node13&#45;&gt;Node27 -->
<g id="edge34" class="edge">
<title>Node13&#45;&gt;Node27</title>
<path fill="none" stroke="midnightblue" d="M639.01,-331.86C659.59,-321.85 687.34,-308.35 705.21,-299.65"/>
<polygon fill="midnightblue" stroke="midnightblue" points="637.3,-328.8 629.83,-336.32 640.36,-335.1 637.3,-328.8"/>
</g>
<!-- Node29 -->
<g id="node29" class="node">
<title>Node29</title>
<g id="a_node29"><a xlink:href="spec_2timer_8h.html" target="_top" xlink:title=" ">
<polygon fill="white" stroke="black" points="347.5,-280.5 347.5,-299.5 398.5,-299.5 398.5,-280.5 347.5,-280.5"/>
<text text-anchor="middle" x="373" y="-287.5" font-family="Helvetica,sans-Serif" font-size="10.00">timer.h</text>
</a>
</g>
</g>
<!-- Node13&#45;&gt;Node29 -->
<g id="edge36" class="edge">
<title>Node13&#45;&gt;Node29</title>
<path fill="none" stroke="midnightblue" d="M562.59,-334.6C521.21,-325.77 460.63,-312.57 408,-300 404.95,-299.27 401.75,-298.48 398.59,-297.69"/>
<polygon fill="midnightblue" stroke="midnightblue" points="561.91,-338.03 572.42,-336.69 563.37,-331.19 561.91,-338.03"/>
</g>
<!-- Node31 -->
<g id="node31" class="node">
<title>Node31</title>
<g id="a_node31"><a xlink:href="buffer__inlines_8h_source.html" target="_top" xlink:title=" ">
<polygon fill="white" stroke="black" points="417,-280.5 417,-299.5 509,-299.5 509,-280.5 417,-280.5"/>
<text text-anchor="middle" x="463" y="-287.5" font-family="Helvetica,sans-Serif" font-size="10.00">buffer_inlines.h</text>
</a>
</g>
</g>
<!-- Node13&#45;&gt;Node31 -->
<g id="edge38" class="edge">
<title>Node13&#45;&gt;Node31</title>
<path fill="none" stroke="midnightblue" d="M578.63,-332.91C550.62,-322.75 511.3,-308.51 486.5,-299.52"/>
<polygon fill="midnightblue" stroke="midnightblue" points="577.8,-336.33 588.39,-336.44 580.18,-329.75 577.8,-336.33"/>
</g>
<!-- Node13&#45;&gt;Node32 -->
<g id="edge39" class="edge">
<title>Node13&#45;&gt;Node32</title>
<path fill="none" stroke="midnightblue" d="M661.6,-334.89C711.55,-324.71 787.76,-309.19 834.86,-299.59"/>
<polygon fill="midnightblue" stroke="midnightblue" points="660.77,-331.49 651.67,-336.92 662.17,-338.35 660.77,-331.49"/>
</g>
<!-- Node13&#45;&gt;Node33 -->
<g id="edge40" class="edge">
<title>Node13&#45;&gt;Node33</title>
<path fill="none" stroke="midnightblue" d="M661.96,-338.19C734.05,-328.36 867.16,-310.21 945.61,-299.51"/>
<polygon fill="midnightblue" stroke="midnightblue" points="661.22,-334.76 651.78,-339.58 662.16,-341.69 661.22,-334.76"/>
</g>
<!-- Node34 -->
<g id="node34" class="node">
<title>Node34</title>
<g id="a_node34"><a xlink:href="pool__inlines_8h_source.html" target="_top" xlink:title=" ">
<polygon fill="white" stroke="black" points="527,-280.5 527,-299.5 611,-299.5 611,-280.5 527,-280.5"/>
<text text-anchor="middle" x="569" y="-287.5" font-family="Helvetica,sans-Serif" font-size="10.00">pool_inlines.h</text>
</a>
</g>
</g>
<!-- Node13&#45;&gt;Node34 -->
<g id="edge41" class="edge">
<title>Node13&#45;&gt;Node34</title>
<path fill="none" stroke="midnightblue" d="M598.58,-328.14C591.09,-318.74 582.06,-307.4 575.97,-299.75"/>
<polygon fill="midnightblue" stroke="midnightblue" points="595.93,-330.44 604.9,-336.08 601.41,-326.08 595.93,-330.44"/>
</g>
<!-- Node15 -->
<g id="node15" class="node">
<title>Node15</title>
<g id="a_node15"><a xlink:href="buffer_8h.html" target="_top" xlink:title=" ">
<polygon fill="white" stroke="black" points="628.5,-224.5 628.5,-243.5 681.5,-243.5 681.5,-224.5 628.5,-224.5"/>
<text text-anchor="middle" x="655" y="-231.5" font-family="Helvetica,sans-Serif" font-size="10.00">buffer.h</text>
</a>
</g>
</g>
<!-- Node14&#45;&gt;Node15 -->
<g id="edge14" class="edge">
<title>Node14&#45;&gt;Node15</title>
<path fill="none" stroke="midnightblue" d="M655,-269.8C655,-260.91 655,-250.78 655,-243.75"/>
<polygon fill="midnightblue" stroke="midnightblue" points="651.5,-270.08 655,-280.08 658.5,-270.08 651.5,-270.08"/>
</g>
<!-- Node17 -->
<g id="node17" class="node">
<title>Node17</title>
<g id="a_node17"><a xlink:href="classification_8h.html" target="_top" xlink:title=" ">
<polygon fill="white" stroke="black" points="252.5,-112.5 252.5,-131.5 341.5,-131.5 341.5,-112.5 252.5,-112.5"/>
<text text-anchor="middle" x="297" y="-119.5" font-family="Helvetica,sans-Serif" font-size="10.00">classification.h</text>
</a>
</g>
</g>
<!-- Node16&#45;&gt;Node17 -->
<g id="edge16" class="edge">
<title>Node16&#45;&gt;Node17</title>
<path fill="none" stroke="midnightblue" d="M297,-157.8C297,-148.91 297,-138.78 297,-131.75"/>
<polygon fill="midnightblue" stroke="midnightblue" points="293.5,-158.08 297,-168.08 300.5,-158.08 293.5,-158.08"/>
</g>
<!-- Node17&#45;&gt;Node6 -->
<g id="edge17" class="edge">
<title>Node17&#45;&gt;Node6</title>
<path fill="none" stroke="midnightblue" d="M264.3,-108.91C236.85,-98.75 198.33,-84.51 174.03,-75.52"/>
<polygon fill="midnightblue" stroke="midnightblue" points="263.27,-112.26 273.87,-112.44 265.7,-105.69 263.27,-112.26"/>
</g>
<!-- Node17&#45;&gt;Node18 -->
<g id="edge18" class="edge">
<title>Node17&#45;&gt;Node18</title>
<path fill="none" stroke="midnightblue" d="M295.93,-101.8C295.44,-92.91 294.88,-82.78 294.49,-75.75"/>
<polygon fill="midnightblue" stroke="midnightblue" points="292.46,-102.29 296.5,-112.08 299.44,-101.9 292.46,-102.29"/>
</g>
<!-- Node19 -->
<g id="node19" class="node">
<title>Node19</title>
<g id="a_node19"><a xlink:href="packet__io_8h.html" target="_top" xlink:title=" ">
<polygon fill="white" stroke="black" points="258,-0.5 258,-19.5 330,-19.5 330,-0.5 258,-0.5"/>
<text text-anchor="middle" x="294" y="-7.5" font-family="Helvetica,sans-Serif" font-size="10.00">packet_io.h</text>
</a>
</g>
</g>
<!-- Node18&#45;&gt;Node19 -->
<g id="edge19" class="edge">
<title>Node18&#45;&gt;Node19</title>
<path fill="none" stroke="midnightblue" d="M294,-45.8C294,-36.91 294,-26.78 294,-19.75"/>
<polygon fill="midnightblue" stroke="midnightblue" points="290.5,-46.08 294,-56.08 297.5,-46.08 290.5,-46.08"/>
</g>
<!-- Node21 -->
<g id="node21" class="node">
<title>Node21</title>
<g id="a_node21"><a xlink:href="packet_8h.html" target="_top" xlink:title=" ">
<polygon fill="white" stroke="black" points="363,-112.5 363,-131.5 421,-131.5 421,-112.5 363,-112.5"/>
<text text-anchor="middle" x="392" y="-119.5" font-family="Helvetica,sans-Serif" font-size="10.00">packet.h</text>
</a>
</g>
</g>
<!-- Node20&#45;&gt;Node21 -->
<g id="edge23" class="edge">
<title>Node20&#45;&gt;Node21</title>
<path fill="none" stroke="midnightblue" d="M389.4,-158.1C390.06,-149.14 390.83,-138.86 391.35,-131.75"/>
<polygon fill="midnightblue" stroke="midnightblue" points="385.91,-157.85 388.66,-168.08 392.89,-158.37 385.91,-157.85"/>
</g>
<!-- Node22 -->
<g id="node22" class="node">
<title>Node22</title>
<g id="a_node22"><a xlink:href="event__inlines_8h_source.html" target="_top" xlink:title=" ">
<polygon fill="white" stroke="black" points="348.5,-56.5 348.5,-75.5 439.5,-75.5 439.5,-56.5 348.5,-56.5"/>
<text text-anchor="middle" x="394" y="-63.5" font-family="Helvetica,sans-Serif" font-size="10.00">event_inlines.h</text>
</a>
</g>
</g>
<!-- Node21&#45;&gt;Node22 -->
<g id="edge24" class="edge">
<title>Node21&#45;&gt;Node22</title>
<path fill="none" stroke="midnightblue" d="M392.71,-101.8C393.04,-92.91 393.42,-82.78 393.68,-75.75"/>
<polygon fill="midnightblue" stroke="midnightblue" points="389.2,-101.96 392.33,-112.08 396.2,-102.22 389.2,-101.96"/>
</g>
<!-- Node24 -->
<g id="node24" class="node">
<title>Node24</title>
<g id="a_node24"><a xlink:href="packet__io__types_8h.html" target="_top" xlink:title=" ">
<polygon fill="white" stroke="black" points="149,-224.5 149,-243.5 253,-243.5 253,-224.5 149,-224.5"/>
<text text-anchor="middle" x="201" y="-231.5" font-family="Helvetica,sans-Serif" font-size="10.00">packet_io_types.h</text>
</a>
</g>
</g>
<!-- Node23&#45;&gt;Node24 -->
<g id="edge26" class="edge">
<title>Node23&#45;&gt;Node24</title>
<path fill="none" stroke="midnightblue" d="M201,-269.8C201,-260.91 201,-250.78 201,-243.75"/>
<polygon fill="midnightblue" stroke="midnightblue" points="197.5,-270.08 201,-280.08 204.5,-270.08 197.5,-270.08"/>
</g>
<!-- Node24&#45;&gt;Node6 -->
<g id="edge28" class="edge">
<title>Node24&#45;&gt;Node6</title>
<path fill="none" stroke="midnightblue" d="M196.26,-214.65C190.01,-190.84 178.47,-148.08 167,-112 162.93,-99.2 157.6,-84.58 154.24,-75.57"/>
<polygon fill="midnightblue" stroke="midnightblue" points="192.9,-215.64 198.81,-224.43 199.67,-213.87 192.9,-215.64"/>
</g>
<!-- Node24&#45;&gt;Node16 -->
<g id="edge27" class="edge">
<title>Node24&#45;&gt;Node16</title>
<path fill="none" stroke="midnightblue" d="M225.57,-219.18C243.24,-209.24 266.51,-196.15 281.61,-187.65"/>
<polygon fill="midnightblue" stroke="midnightblue" points="223.42,-216.37 216.42,-224.32 226.86,-222.47 223.42,-216.37"/>
</g>
<!-- Node24&#45;&gt;Node18 -->
<g id="edge30" class="edge">
<title>Node24&#45;&gt;Node18</title>
<path fill="none" stroke="midnightblue" d="M204.35,-214.47C209.52,-189.52 221.19,-144.51 243,-112 253.13,-96.9 269.53,-83.68 280.99,-75.55"/>
<polygon fill="midnightblue" stroke="midnightblue" points="200.89,-213.92 202.42,-224.41 207.76,-215.26 200.89,-213.92"/>
</g>
<!-- Node24&#45;&gt;Node20 -->
<g id="edge29" class="edge">
<title>Node24&#45;&gt;Node20</title>
<path fill="none" stroke="midnightblue" d="M240.62,-221.56C276.01,-211.34 327.03,-196.61 358.82,-187.43"/>
<polygon fill="midnightblue" stroke="midnightblue" points="239.27,-218.31 230.63,-224.44 241.21,-225.03 239.27,-218.31"/>
</g>
<!-- Node25 -->
<g id="node25" class="node">
<title>Node25</title>
<g id="a_node25"><a xlink:href="spec_2traffic__mngr_8h.html" target="_top" xlink:title=" ">
<polygon fill="white" stroke="black" points="74,-168.5 74,-187.5 158,-187.5 158,-168.5 74,-168.5"/>
<text text-anchor="middle" x="116" y="-175.5" font-family="Helvetica,sans-Serif" font-size="10.00">traffic_mngr.h</text>
</a>
</g>
</g>
<!-- Node24&#45;&gt;Node25 -->
<g id="edge31" class="edge">
<title>Node24&#45;&gt;Node25</title>
<path fill="none" stroke="midnightblue" d="M178.81,-218.9C163.22,-209 142.87,-196.07 129.62,-187.65"/>
<polygon fill="midnightblue" stroke="midnightblue" points="177.03,-221.92 187.34,-224.32 180.78,-216.01 177.03,-221.92"/>
</g>
<!-- Node26 -->
<g id="node26" class="node">
<title>Node26</title>
<g id="a_node26"><a xlink:href="traffic__mngr_8h.html" target="_top" xlink:title=" ">
<polygon fill="white" stroke="black" points="74,-112.5 74,-131.5 158,-131.5 158,-112.5 74,-112.5"/>
<text text-anchor="middle" x="116" y="-119.5" font-family="Helvetica,sans-Serif" font-size="10.00">traffic_mngr.h</text>
</a>
</g>
</g>
<!-- Node25&#45;&gt;Node26 -->
<g id="edge32" class="edge">
<title>Node25&#45;&gt;Node26</title>
<path fill="none" stroke="midnightblue" d="M116,-157.8C116,-148.91 116,-138.78 116,-131.75"/>
<polygon fill="midnightblue" stroke="midnightblue" points="112.5,-158.08 116,-168.08 119.5,-158.08 112.5,-158.08"/>
</g>
<!-- Node26&#45;&gt;Node6 -->
<g id="edge33" class="edge">
<title>Node26&#45;&gt;Node6</title>
<path fill="none" stroke="midnightblue" d="M127.3,-103.57C133.32,-94.27 140.47,-83.25 145.33,-75.75"/>
<polygon fill="midnightblue" stroke="midnightblue" points="124.28,-101.79 121.78,-112.08 130.16,-105.6 124.28,-101.79"/>
</g>
<!-- Node28 -->
<g id="node28" class="node">
<title>Node28</title>
<g id="a_node28"><a xlink:href="pool_8h.html" target="_top" xlink:title=" ">
<polygon fill="white" stroke="black" points="699.5,-224.5 699.5,-243.5 746.5,-243.5 746.5,-224.5 699.5,-224.5"/>
<text text-anchor="middle" x="723" y="-231.5" font-family="Helvetica,sans-Serif" font-size="10.00">pool.h</text>
</a>
</g>
</g>
<!-- Node27&#45;&gt;Node28 -->
<g id="edge35" class="edge">
<title>Node27&#45;&gt;Node28</title>
<path fill="none" stroke="midnightblue" d="M723,-269.8C723,-260.91 723,-250.78 723,-243.75"/>
<polygon fill="midnightblue" stroke="midnightblue" points="719.5,-270.08 723,-280.08 726.5,-270.08 719.5,-270.08"/>
</g>
<!-- Node30 -->
<g id="node30" class="node">
<title>Node30</title>
<g id="a_node30"><a xlink:href="timer_8h.html" target="_top" xlink:title=" ">
<polygon fill="white" stroke="black" points="347.5,-224.5 347.5,-243.5 398.5,-243.5 398.5,-224.5 347.5,-224.5"/>
<text text-anchor="middle" x="373" y="-231.5" font-family="Helvetica,sans-Serif" font-size="10.00">timer.h</text>
</a>
</g>
</g>
<!-- Node29&#45;&gt;Node30 -->
<g id="edge37" class="edge">
<title>Node29&#45;&gt;Node30</title>
<path fill="none" stroke="midnightblue" d="M373,-269.8C373,-260.91 373,-250.78 373,-243.75"/>
<polygon fill="midnightblue" stroke="midnightblue" points="369.5,-270.08 373,-280.08 376.5,-270.08 369.5,-270.08"/>
</g>
<!-- Node36 -->
<g id="node36" class="node">
<title>Node36</title>
<g id="a_node36"><a xlink:href="event_8h.html" target="_top" xlink:title=" ">
<polygon fill="white" stroke="black" points="1168.5,-448.5 1168.5,-467.5 1221.5,-467.5 1221.5,-448.5 1168.5,-448.5"/>
<text text-anchor="middle" x="1195" y="-455.5" font-family="Helvetica,sans-Serif" font-size="10.00">event.h</text>
</a>
</g>
</g>
<!-- Node35&#45;&gt;Node36 -->
<g id="edge43" class="edge">
<title>Node35&#45;&gt;Node36</title>
<path fill="none" stroke="midnightblue" d="M1195,-493.8C1195,-484.91 1195,-474.78 1195,-467.75"/>
<polygon fill="midnightblue" stroke="midnightblue" points="1191.5,-494.08 1195,-504.08 1198.5,-494.08 1191.5,-494.08"/>
</g>
<!-- Node37 -->
<g id="node37" class="node">
<title>Node37</title>
<g id="a_node37"><a xlink:href="timer__inlines_8h_source.html" target="_top" xlink:title=" ">
<polygon fill="white" stroke="black" points="1168.5,-392.5 1168.5,-411.5 1257.5,-411.5 1257.5,-392.5 1168.5,-392.5"/>
<text text-anchor="middle" x="1213" y="-399.5" font-family="Helvetica,sans-Serif" font-size="10.00">timer_inlines.h</text>
</a>
</g>
</g>
<!-- Node36&#45;&gt;Node37 -->
<g id="edge44" class="edge">
<title>Node36&#45;&gt;Node37</title>
<path fill="none" stroke="midnightblue" d="M1201.2,-438.4C1204.21,-429.36 1207.69,-418.94 1210.08,-411.75"/>
<polygon fill="midnightblue" stroke="midnightblue" points="1197.81,-437.49 1197.97,-448.08 1204.46,-439.7 1197.81,-437.49"/>
</g>
<!-- Node39 -->
<g id="node39" class="node">
<title>Node39</title>
<g id="a_node39"><a xlink:href="packet__flags_8h.html" target="_top" xlink:title=" ">
<polygon fill="white" stroke="black" points="1240,-448.5 1240,-467.5 1326,-467.5 1326,-448.5 1240,-448.5"/>
<text text-anchor="middle" x="1283" y="-455.5" font-family="Helvetica,sans-Serif" font-size="10.00">packet_flags.h</text>
</a>
</g>
</g>
<!-- Node38&#45;&gt;Node39 -->
<g id="edge47" class="edge">
<title>Node38&#45;&gt;Node39</title>
<path fill="none" stroke="midnightblue" d="M1283,-493.8C1283,-484.91 1283,-474.78 1283,-467.75"/>
<polygon fill="midnightblue" stroke="midnightblue" points="1279.5,-494.08 1283,-504.08 1286.5,-494.08 1279.5,-494.08"/>
</g>
</g>
</svg>
