<?xml version="1.0" encoding="UTF-8" standalone="no"?>
<!DOCTYPE svg PUBLIC "-//W3C//DTD SVG 1.1//EN"
 "http://www.w3.org/Graphics/SVG/1.1/DTD/svg11.dtd">
<!-- Generated by graphviz version 2.43.0 (0)
 -->
<!-- Title: packet_inlines.h Pages: 1 -->
<svg width="1986pt" height="956pt"
 viewBox="0.00 0.00 1986.00 956.00" xmlns="http://www.w3.org/2000/svg" xmlns:xlink="http://www.w3.org/1999/xlink">
<g id="graph0" class="graph" transform="scale(1 1) rotate(0) translate(4 952)">
<title>packet_inlines.h</title>
<polygon fill="white" stroke="transparent" points="-4,4 -4,-952 1982,-952 1982,4 -4,4"/>
<!-- Node1 -->
<g id="node1" class="node">
<title>Node1</title>
<g id="a_node1"><a xlink:title=" ">
<polygon fill="#bfbfbf" stroke="black" points="1298,-928.5 1298,-947.5 1393,-947.5 1393,-928.5 1298,-928.5"/>
<text text-anchor="middle" x="1345.5" y="-935.5" font-family="Helvetica,sans-Serif" font-size="10.00">packet_inlines.h</text>
</a>
</g>
</g>
<!-- Node2 -->
<g id="node2" class="node">
<title>Node2</title>
<g id="a_node2"><a xlink:href="hints_8h.html" target="_top" xlink:title=" ">
<polygon fill="white" stroke="black" points="0,-492.5 0,-511.5 89,-511.5 89,-492.5 0,-492.5"/>
<text text-anchor="middle" x="44.5" y="-499.5" font-family="Helvetica,sans-Serif" font-size="10.00">odp/api/hints.h</text>
</a>
</g>
</g>
<!-- Node1&#45;&gt;Node2 -->
<g id="edge1" class="edge">
<title>Node1&#45;&gt;Node2</title>
<path fill="none" stroke="midnightblue" d="M1297.88,-936.53C1093.69,-934.31 297.73,-923.69 190.5,-892 127.05,-873.25 62.5,-882.16 62.5,-816 62.5,-816 62.5,-816 62.5,-629.5 62.5,-590.82 54.15,-546.14 48.82,-521.58"/>
<polygon fill="midnightblue" stroke="midnightblue" points="52.17,-520.52 46.56,-511.53 45.34,-522.05 52.17,-520.52"/>
</g>
<!-- Node6 -->
<g id="node6" class="node">
<title>Node6</title>
<g id="a_node6"><a xlink:href="packet__types_8h.html" target="_top" xlink:title=" ">
<polygon fill="white" stroke="black" points="539,-621 539,-640 668,-640 668,-621 539,-621"/>
<text text-anchor="middle" x="603.5" y="-628" font-family="Helvetica,sans-Serif" font-size="10.00">odp/api/packet_types.h</text>
</a>
</g>
</g>
<!-- Node1&#45;&gt;Node6 -->
<g id="edge5" class="edge">
<title>Node1&#45;&gt;Node6</title>
<path fill="none" stroke="midnightblue" d="M1297.86,-937C1082.63,-936.39 211.5,-927.06 211.5,-816 211.5,-816 211.5,-816 211.5,-752.5 211.5,-686.82 414.96,-652.97 528.72,-639.18"/>
<polygon fill="midnightblue" stroke="midnightblue" points="529.25,-642.64 538.77,-637.99 528.43,-635.69 529.25,-642.64"/>
</g>
<!-- Node16 -->
<g id="node16" class="node">
<title>Node16</title>
<g id="a_node16"><a xlink:title=" ">
<polygon fill="white" stroke="#bfbfbf" points="1517,-123.5 1517,-142.5 1570,-142.5 1570,-123.5 1517,-123.5"/>
<text text-anchor="middle" x="1543.5" y="-130.5" font-family="Helvetica,sans-Serif" font-size="10.00">stdint.h</text>
</a>
</g>
</g>
<!-- Node1&#45;&gt;Node16 -->
<g id="edge73" class="edge">
<title>Node1&#45;&gt;Node16</title>
<path fill="none" stroke="midnightblue" d="M1393.26,-937.19C1477.48,-936.5 1647.54,-930.27 1690.5,-892 1716.5,-868.84 1709.5,-850.82 1709.5,-816 1709.5,-816 1709.5,-816 1709.5,-244 1709.5,-182.35 1628.96,-153.22 1580.08,-141.21"/>
<polygon fill="midnightblue" stroke="midnightblue" points="1580.7,-137.76 1570.17,-138.9 1579.12,-144.58 1580.7,-137.76"/>
</g>
<!-- Node26 -->
<g id="node26" class="node">
<title>Node26</title>
<g id="a_node26"><a xlink:href="pool__types_8h.html" target="_top" xlink:title=" ">
<polygon fill="white" stroke="black" points="1069.5,-867 1069.5,-886 1187.5,-886 1187.5,-867 1069.5,-867"/>
<text text-anchor="middle" x="1128.5" y="-874" font-family="Helvetica,sans-Serif" font-size="10.00">odp/api/pool_types.h</text>
</a>
</g>
</g>
<!-- Node1&#45;&gt;Node26 -->
<g id="edge38" class="edge">
<title>Node1&#45;&gt;Node26</title>
<path fill="none" stroke="midnightblue" d="M1314.41,-928.48C1276.22,-918 1211.33,-900.21 1169.2,-888.66"/>
<polygon fill="midnightblue" stroke="midnightblue" points="1170.1,-885.28 1159.53,-886.01 1168.25,-892.03 1170.1,-885.28"/>
</g>
<!-- Node33 -->
<g id="node33" class="node">
<title>Node33</title>
<g id="a_node33"><a xlink:title=" ">
<polygon fill="white" stroke="#bfbfbf" points="146,-554 146,-573 289,-573 289,-554 146,-554"/>
<text text-anchor="middle" x="217.5" y="-561" font-family="Helvetica,sans-Serif" font-size="10.00">odp/api/abi/event_types.h</text>
</a>
</g>
</g>
<!-- Node1&#45;&gt;Node33 -->
<g id="edge64" class="edge">
<title>Node1&#45;&gt;Node33</title>
<path fill="none" stroke="midnightblue" d="M1297.71,-936.75C1101.76,-935.49 365.61,-928.36 268.5,-892 217.86,-873.04 173.5,-870.07 173.5,-816 173.5,-816 173.5,-816 173.5,-691 173.5,-650.1 194.27,-605.69 207.27,-581.9"/>
<polygon fill="midnightblue" stroke="midnightblue" points="210.4,-583.46 212.28,-573.04 204.31,-580.02 210.4,-583.46"/>
</g>
<!-- Node35 -->
<g id="node35" class="node">
<title>Node35</title>
<g id="a_node35"><a xlink:href="time_8h.html" target="_top" xlink:title=" ">
<polygon fill="white" stroke="black" points="1198,-297 1198,-316 1285,-316 1285,-297 1198,-297"/>
<text text-anchor="middle" x="1241.5" y="-304" font-family="Helvetica,sans-Serif" font-size="10.00">odp/api/time.h</text>
</a>
</g>
</g>
<!-- Node1&#45;&gt;Node35 -->
<g id="edge57" class="edge">
<title>Node1&#45;&gt;Node35</title>
<path fill="none" stroke="midnightblue" d="M1324.02,-928.36C1309.11,-921.09 1290.39,-909.12 1281.5,-892 1275.15,-879.77 1280.55,-874.74 1281.5,-861 1289.13,-751.12 1323.8,-724.45 1311.5,-615 1298.99,-503.68 1261.76,-373.89 1247.32,-326.25"/>
<polygon fill="midnightblue" stroke="midnightblue" points="1250.59,-324.96 1244.31,-316.43 1243.89,-327.02 1250.59,-324.96"/>
</g>
<!-- Node38 -->
<g id="node38" class="node">
<title>Node38</title>
<g id="a_node38"><a xlink:title=" ">
<polygon fill="white" stroke="#bfbfbf" points="1290.5,-867 1290.5,-886 1400.5,-886 1400.5,-867 1290.5,-867"/>
<text text-anchor="middle" x="1345.5" y="-874" font-family="Helvetica,sans-Serif" font-size="10.00">odp/api/abi/buffer.h</text>
</a>
</g>
</g>
<!-- Node1&#45;&gt;Node38 -->
<g id="edge63" class="edge">
<title>Node1&#45;&gt;Node38</title>
<path fill="none" stroke="midnightblue" d="M1345.5,-928.48C1345.5,-920.08 1345.5,-906.98 1345.5,-896.16"/>
<polygon fill="midnightblue" stroke="midnightblue" points="1349,-896.01 1345.5,-886.01 1342,-896.01 1349,-896.01"/>
</g>
<!-- Node39 -->
<g id="node39" class="node">
<title>Node39</title>
<g id="a_node39"><a xlink:title=" ">
<polygon fill="white" stroke="#bfbfbf" points="1419,-867 1419,-886 1534,-886 1534,-867 1419,-867"/>
<text text-anchor="middle" x="1476.5" y="-874" font-family="Helvetica,sans-Serif" font-size="10.00">odp/api/abi/packet.h</text>
</a>
</g>
</g>
<!-- Node1&#45;&gt;Node39 -->
<g id="edge65" class="edge">
<title>Node1&#45;&gt;Node39</title>
<path fill="none" stroke="midnightblue" d="M1364.27,-928.48C1386.35,-918.45 1423.22,-901.7 1448.64,-890.15"/>
<polygon fill="midnightblue" stroke="midnightblue" points="1450.11,-893.33 1457.77,-886.01 1447.21,-886.96 1450.11,-893.33"/>
</g>
<!-- Node40 -->
<g id="node40" class="node">
<title>Node40</title>
<g id="a_node40"><a xlink:title=" ">
<polygon fill="white" stroke="#bfbfbf" points="1552,-867 1552,-886 1681,-886 1681,-867 1552,-867"/>
<text text-anchor="middle" x="1616.5" y="-874" font-family="Helvetica,sans-Serif" font-size="10.00">odp/api/abi/packet_io.h</text>
</a>
</g>
</g>
<!-- Node1&#45;&gt;Node40 -->
<g id="edge66" class="edge">
<title>Node1&#45;&gt;Node40</title>
<path fill="none" stroke="midnightblue" d="M1384.33,-928.48C1432.62,-917.87 1515.11,-899.76 1567.65,-888.22"/>
<polygon fill="midnightblue" stroke="midnightblue" points="1568.73,-891.57 1577.74,-886.01 1567.23,-884.74 1568.73,-891.57"/>
</g>
<!-- Node41 -->
<g id="node41" class="node">
<title>Node41</title>
<g id="a_node41"><a xlink:href="packet__io__inlines_8h_source.html" target="_top" xlink:title=" ">
<polygon fill="white" stroke="black" points="1192.5,-615.5 1192.5,-645.5 1302.5,-645.5 1302.5,-615.5 1192.5,-615.5"/>
<text text-anchor="start" x="1200.5" y="-633.5" font-family="Helvetica,sans-Serif" font-size="10.00">odp/api/plat/packet</text>
<text text-anchor="middle" x="1247.5" y="-622.5" font-family="Helvetica,sans-Serif" font-size="10.00">_io_inlines.h</text>
</a>
</g>
</g>
<!-- Node1&#45;&gt;Node41 -->
<g id="edge67" class="edge">
<title>Node1&#45;&gt;Node41</title>
<path fill="none" stroke="midnightblue" d="M1310.19,-928.35C1289.58,-921.62 1264.56,-910.26 1248.5,-892 1225.11,-865.4 1224.5,-851.42 1224.5,-816 1224.5,-816 1224.5,-816 1224.5,-752.5 1224.5,-718.41 1233.42,-679.86 1240.15,-655.62"/>
<polygon fill="midnightblue" stroke="midnightblue" points="1243.55,-656.44 1242.96,-645.86 1236.83,-654.5 1243.55,-656.44"/>
</g>
<!-- Node42 -->
<g id="node42" class="node">
<title>Node42</title>
<g id="a_node42"><a xlink:href="packet__inline__types_8h.html" target="_top" xlink:title=" ">
<polygon fill="white" stroke="black" points="1737.5,-738.5 1737.5,-768.5 1847.5,-768.5 1847.5,-738.5 1737.5,-738.5"/>
<text text-anchor="start" x="1745.5" y="-756.5" font-family="Helvetica,sans-Serif" font-size="10.00">odp/api/plat/packet</text>
<text text-anchor="middle" x="1792.5" y="-745.5" font-family="Helvetica,sans-Serif" font-size="10.00">_inline_types.h</text>
</a>
</g>
</g>
<!-- Node1&#45;&gt;Node42 -->
<g id="edge70" class="edge">
<title>Node1&#45;&gt;Node42</title>
<path fill="none" stroke="midnightblue" d="M1393.08,-936.83C1482.48,-935.63 1671.24,-928.69 1723.5,-892 1761.99,-864.98 1780.18,-810.07 1787.78,-778.43"/>
<polygon fill="midnightblue" stroke="midnightblue" points="1791.2,-779.19 1789.97,-768.66 1784.37,-777.66 1791.2,-779.19"/>
</g>
<!-- Node43 -->
<g id="node43" class="node">
<title>Node43</title>
<g id="a_node43"><a xlink:href="pool__inline__types_8h.html" target="_top" xlink:title=" ">
<polygon fill="white" stroke="black" points="1776,-861.5 1776,-891.5 1907,-891.5 1907,-861.5 1776,-861.5"/>
<text text-anchor="start" x="1784" y="-879.5" font-family="Helvetica,sans-Serif" font-size="10.00">odp/api/plat/pool_inline</text>
<text text-anchor="middle" x="1841.5" y="-868.5" font-family="Helvetica,sans-Serif" font-size="10.00">_types.h</text>
</a>
</g>
</g>
<!-- Node1&#45;&gt;Node43 -->
<g id="edge72" class="edge">
<title>Node1&#45;&gt;Node43</title>
<path fill="none" stroke="midnightblue" d="M1393.05,-932.97C1470.47,-926.16 1628.49,-911.22 1761.5,-892 1762.8,-891.81 1764.1,-891.62 1765.42,-891.42"/>
<polygon fill="midnightblue" stroke="midnightblue" points="1766.3,-894.83 1775.64,-889.82 1765.22,-887.91 1766.3,-894.83"/>
</g>
<!-- Node44 -->
<g id="node44" class="node">
<title>Node44</title>
<g id="a_node44"><a xlink:title=" ">
<polygon fill="white" stroke="#bfbfbf" points="1925,-867 1925,-886 1978,-886 1978,-867 1925,-867"/>
<text text-anchor="middle" x="1951.5" y="-874" font-family="Helvetica,sans-Serif" font-size="10.00">string.h</text>
</a>
</g>
</g>
<!-- Node1&#45;&gt;Node44 -->
<g id="edge74" class="edge">
<title>Node1&#45;&gt;Node44</title>
<path fill="none" stroke="midnightblue" d="M1393.09,-935.17C1511.61,-930.3 1817.51,-915.77 1916.5,-892 1919.02,-891.4 1921.59,-890.63 1924.14,-889.78"/>
<polygon fill="midnightblue" stroke="midnightblue" points="1925.6,-892.97 1933.7,-886.14 1923.11,-886.43 1925.6,-892.97"/>
</g>
<!-- Node3 -->
<g id="node3" class="node">
<title>Node3</title>
<g id="a_node3"><a xlink:href="spec_2hints_8h.html" target="_top" xlink:title=" ">
<polygon fill="white" stroke="black" points="221.5,-62 221.5,-81 335.5,-81 335.5,-62 221.5,-62"/>
<text text-anchor="middle" x="278.5" y="-69" font-family="Helvetica,sans-Serif" font-size="10.00">odp/api/spec/hints.h</text>
</a>
</g>
</g>
<!-- Node2&#45;&gt;Node3 -->
<g id="edge2" class="edge">
<title>Node2&#45;&gt;Node3</title>
<path fill="none" stroke="midnightblue" d="M70.45,-492.47C113.14,-476.61 193.5,-438.29 193.5,-374.5 193.5,-374.5 193.5,-374.5 193.5,-244 193.5,-181.36 239.59,-117.98 263.89,-88.92"/>
<polygon fill="midnightblue" stroke="midnightblue" points="266.8,-90.9 270.66,-81.04 261.49,-86.34 266.8,-90.9"/>
</g>
<!-- Node4 -->
<g id="node4" class="node">
<title>Node4</title>
<g id="a_node4"><a xlink:title=" ">
<polygon fill="white" stroke="#bfbfbf" points="744,-0.5 744,-19.5 865,-19.5 865,-0.5 744,-0.5"/>
<text text-anchor="middle" x="804.5" y="-7.5" font-family="Helvetica,sans-Serif" font-size="10.00">odp/visibility_begin.h</text>
</a>
</g>
</g>
<!-- Node3&#45;&gt;Node4 -->
<g id="edge3" class="edge">
<title>Node3&#45;&gt;Node4</title>
<path fill="none" stroke="midnightblue" d="M335.54,-64.05C432.32,-53.1 628.41,-30.92 733.76,-19"/>
<polygon fill="midnightblue" stroke="midnightblue" points="734.44,-22.45 743.98,-17.85 733.65,-15.49 734.44,-22.45"/>
</g>
<!-- Node5 -->
<g id="node5" class="node">
<title>Node5</title>
<g id="a_node5"><a xlink:title=" ">
<polygon fill="white" stroke="#bfbfbf" points="345.5,-0.5 345.5,-19.5 457.5,-19.5 457.5,-0.5 345.5,-0.5"/>
<text text-anchor="middle" x="401.5" y="-7.5" font-family="Helvetica,sans-Serif" font-size="10.00">odp/visibility_end.h</text>
</a>
</g>
</g>
<!-- Node3&#45;&gt;Node5 -->
<g id="edge4" class="edge">
<title>Node3&#45;&gt;Node5</title>
<path fill="none" stroke="midnightblue" d="M296.12,-61.98C316.67,-52.03 350.86,-35.49 374.71,-23.96"/>
<polygon fill="midnightblue" stroke="midnightblue" points="376.43,-27.01 383.91,-19.51 373.38,-20.71 376.43,-27.01"/>
</g>
<!-- Node7 -->
<g id="node7" class="node">
<title>Node7</title>
<g id="a_node7"><a xlink:title=" ">
<polygon fill="white" stroke="#bfbfbf" points="1035.5,-548.5 1035.5,-578.5 1141.5,-578.5 1141.5,-548.5 1035.5,-548.5"/>
<text text-anchor="start" x="1043.5" y="-566.5" font-family="Helvetica,sans-Serif" font-size="10.00">odp/api/abi/packet</text>
<text text-anchor="middle" x="1088.5" y="-555.5" font-family="Helvetica,sans-Serif" font-size="10.00">_io_types.h</text>
</a>
</g>
</g>
<!-- Node6&#45;&gt;Node7 -->
<g id="edge6" class="edge">
<title>Node6&#45;&gt;Node7</title>
<path fill="none" stroke="midnightblue" d="M667.15,-620.97C760.17,-608.5 932.23,-585.44 1025.1,-573"/>
<polygon fill="midnightblue" stroke="midnightblue" points="1025.76,-576.44 1035.2,-571.64 1024.83,-569.5 1025.76,-576.44"/>
</g>
<!-- Node8 -->
<g id="node8" class="node">
<title>Node8</title>
<g id="a_node8"><a xlink:title=" ">
<polygon fill="white" stroke="#bfbfbf" points="422.5,-548.5 422.5,-578.5 528.5,-578.5 528.5,-548.5 422.5,-548.5"/>
<text text-anchor="start" x="430.5" y="-566.5" font-family="Helvetica,sans-Serif" font-size="10.00">odp/api/abi/packet</text>
<text text-anchor="middle" x="475.5" y="-555.5" font-family="Helvetica,sans-Serif" font-size="10.00">_types.h</text>
</a>
</g>
</g>
<!-- Node6&#45;&gt;Node8 -->
<g id="edge7" class="edge">
<title>Node6&#45;&gt;Node8</title>
<path fill="none" stroke="midnightblue" d="M586.5,-620.87C567.69,-611.31 536.8,-595.63 512.37,-583.22"/>
<polygon fill="midnightblue" stroke="midnightblue" points="513.87,-580.06 503.37,-578.65 510.7,-586.3 513.87,-580.06"/>
</g>
<!-- Node9 -->
<g id="node9" class="node">
<title>Node9</title>
<g id="a_node9"><a xlink:href="spec_2packet__types_8h.html" target="_top" xlink:title=" ">
<polygon fill="white" stroke="black" points="547,-548.5 547,-578.5 660,-578.5 660,-548.5 547,-548.5"/>
<text text-anchor="start" x="555" y="-566.5" font-family="Helvetica,sans-Serif" font-size="10.00">odp/api/spec/packet</text>
<text text-anchor="middle" x="603.5" y="-555.5" font-family="Helvetica,sans-Serif" font-size="10.00">_types.h</text>
</a>
</g>
</g>
<!-- Node6&#45;&gt;Node9 -->
<g id="edge8" class="edge">
<title>Node6&#45;&gt;Node9</title>
<path fill="none" stroke="midnightblue" d="M603.5,-620.73C603.5,-612.54 603.5,-599.92 603.5,-588.71"/>
<polygon fill="midnightblue" stroke="midnightblue" points="607,-588.59 603.5,-578.59 600,-588.59 607,-588.59"/>
</g>
<!-- Node9&#45;&gt;Node4 -->
<g id="edge9" class="edge">
<title>Node9&#45;&gt;Node4</title>
<path fill="none" stroke="midnightblue" d="M602.3,-548.35C597.57,-483.29 586.5,-209.48 718.5,-56 731.18,-41.26 749.89,-30.67 766.63,-23.48"/>
<polygon fill="midnightblue" stroke="midnightblue" points="768.22,-26.61 776.19,-19.63 765.61,-20.11 768.22,-26.61"/>
</g>
<!-- Node9&#45;&gt;Node5 -->
<g id="edge37" class="edge">
<title>Node9&#45;&gt;Node5</title>
<path fill="none" stroke="midnightblue" d="M560.95,-548.37C449.12,-509.95 155.5,-400.24 155.5,-307.5 155.5,-307.5 155.5,-307.5 155.5,-132 155.5,-96.58 153.16,-79.69 179.5,-56 202.12,-35.66 278.48,-23.47 335.36,-17.01"/>
<polygon fill="midnightblue" stroke="midnightblue" points="335.83,-20.48 345.38,-15.9 335.06,-13.52 335.83,-20.48"/>
</g>
<!-- Node10 -->
<g id="node10" class="node">
<title>Node10</title>
<g id="a_node10"><a xlink:href="proto__stats__types_8h.html" target="_top" xlink:title=" ">
<polygon fill="white" stroke="black" points="465.5,-358.5 465.5,-388.5 575.5,-388.5 575.5,-358.5 465.5,-358.5"/>
<text text-anchor="start" x="473.5" y="-376.5" font-family="Helvetica,sans-Serif" font-size="10.00">odp/api/proto_stats</text>
<text text-anchor="middle" x="520.5" y="-365.5" font-family="Helvetica,sans-Serif" font-size="10.00">_types.h</text>
</a>
</g>
</g>
<!-- Node9&#45;&gt;Node10 -->
<g id="edge10" class="edge">
<title>Node9&#45;&gt;Node10</title>
<path fill="none" stroke="midnightblue" d="M597.26,-548.37C583.08,-516.24 548.29,-437.44 530.84,-397.91"/>
<polygon fill="midnightblue" stroke="midnightblue" points="533.94,-396.27 526.7,-388.54 527.53,-399.1 533.94,-396.27"/>
</g>
<!-- Node20 -->
<g id="node20" class="node">
<title>Node20</title>
<g id="a_node20"><a xlink:href="queue__types_8h.html" target="_top" xlink:title=" ">
<polygon fill="white" stroke="black" points="641,-492.5 641,-511.5 768,-511.5 768,-492.5 641,-492.5"/>
<text text-anchor="middle" x="704.5" y="-499.5" font-family="Helvetica,sans-Serif" font-size="10.00">odp/api/queue_types.h</text>
</a>
</g>
</g>
<!-- Node9&#45;&gt;Node20 -->
<g id="edge26" class="edge">
<title>Node9&#45;&gt;Node20</title>
<path fill="none" stroke="midnightblue" d="M627.44,-548.4C643.63,-538.86 664.91,-526.32 681,-516.84"/>
<polygon fill="midnightblue" stroke="midnightblue" points="682.96,-519.75 689.8,-511.66 679.41,-513.72 682.96,-519.75"/>
</g>
<!-- Node11 -->
<g id="node11" class="node">
<title>Node11</title>
<g id="a_node11"><a xlink:title=" ">
<polygon fill="white" stroke="#bfbfbf" points="297.5,-291.5 297.5,-321.5 425.5,-321.5 425.5,-291.5 297.5,-291.5"/>
<text text-anchor="start" x="305.5" y="-309.5" font-family="Helvetica,sans-Serif" font-size="10.00">odp/api/abi/proto_stats</text>
<text text-anchor="middle" x="361.5" y="-298.5" font-family="Helvetica,sans-Serif" font-size="10.00">_types.h</text>
</a>
</g>
</g>
<!-- Node10&#45;&gt;Node11 -->
<g id="edge11" class="edge">
<title>Node10&#45;&gt;Node11</title>
<path fill="none" stroke="midnightblue" d="M486,-358.4C462.35,-348.73 430.78,-335.82 405.35,-325.43"/>
<polygon fill="midnightblue" stroke="midnightblue" points="406.51,-322.12 395.93,-321.58 403.87,-328.6 406.51,-322.12"/>
</g>
<!-- Node12 -->
<g id="node12" class="node">
<title>Node12</title>
<g id="a_node12"><a xlink:href="spec_2proto__stats__types_8h.html" target="_top" xlink:title=" ">
<polygon fill="white" stroke="black" points="482,-291.5 482,-321.5 589,-321.5 589,-291.5 482,-291.5"/>
<text text-anchor="start" x="490" y="-309.5" font-family="Helvetica,sans-Serif" font-size="10.00">odp/api/spec/proto</text>
<text text-anchor="middle" x="535.5" y="-298.5" font-family="Helvetica,sans-Serif" font-size="10.00">_stats_types.h</text>
</a>
</g>
</g>
<!-- Node10&#45;&gt;Node12 -->
<g id="edge12" class="edge">
<title>Node10&#45;&gt;Node12</title>
<path fill="none" stroke="midnightblue" d="M523.75,-358.4C525.56,-350.56 527.86,-340.6 529.95,-331.57"/>
<polygon fill="midnightblue" stroke="midnightblue" points="533.41,-332.11 532.25,-321.58 526.59,-330.53 533.41,-332.11"/>
</g>
<!-- Node12&#45;&gt;Node4 -->
<g id="edge13" class="edge">
<title>Node12&#45;&gt;Node4</title>
<path fill="none" stroke="midnightblue" d="M538.98,-291.26C550.04,-248.93 588.47,-122.67 667.5,-56 687.35,-39.26 713.6,-28.7 737.81,-22.05"/>
<polygon fill="midnightblue" stroke="midnightblue" points="738.85,-25.4 747.67,-19.53 737.12,-18.62 738.85,-25.4"/>
</g>
<!-- Node12&#45;&gt;Node5 -->
<g id="edge25" class="edge">
<title>Node12&#45;&gt;Node5</title>
<path fill="none" stroke="midnightblue" d="M527.34,-291.3C507.87,-257.02 457.89,-166.67 425.5,-87 417.7,-67.82 410.82,-45.08 406.45,-29.51"/>
<polygon fill="midnightblue" stroke="midnightblue" points="409.75,-28.31 403.73,-19.59 402.99,-30.16 409.75,-28.31"/>
</g>
<!-- Node13 -->
<g id="node13" class="node">
<title>Node13</title>
<g id="a_node13"><a xlink:href="std__types_8h.html" target="_top" xlink:title=" ">
<polygon fill="white" stroke="black" points="1009.5,-235.5 1009.5,-254.5 1121.5,-254.5 1121.5,-235.5 1009.5,-235.5"/>
<text text-anchor="middle" x="1065.5" y="-242.5" font-family="Helvetica,sans-Serif" font-size="10.00">odp/api/std_types.h</text>
</a>
</g>
</g>
<!-- Node12&#45;&gt;Node13 -->
<g id="edge14" class="edge">
<title>Node12&#45;&gt;Node13</title>
<path fill="none" stroke="midnightblue" d="M589.18,-297.49C604.75,-295.27 621.79,-292.94 637.5,-291 765.27,-275.21 914.95,-260.29 999.15,-252.22"/>
<polygon fill="midnightblue" stroke="midnightblue" points="999.72,-255.68 1009.34,-251.25 999.05,-248.71 999.72,-255.68"/>
</g>
<!-- Node14 -->
<g id="node14" class="node">
<title>Node14</title>
<g id="a_node14"><a xlink:title=" ">
<polygon fill="white" stroke="#bfbfbf" points="1000.5,-179.5 1000.5,-198.5 1130.5,-198.5 1130.5,-179.5 1000.5,-179.5"/>
<text text-anchor="middle" x="1065.5" y="-186.5" font-family="Helvetica,sans-Serif" font-size="10.00">odp/api/abi/std_types.h</text>
</a>
</g>
</g>
<!-- Node13&#45;&gt;Node14 -->
<g id="edge15" class="edge">
<title>Node13&#45;&gt;Node14</title>
<path fill="none" stroke="midnightblue" d="M1065.5,-235.08C1065.5,-228.01 1065.5,-217.86 1065.5,-208.99"/>
<polygon fill="midnightblue" stroke="midnightblue" points="1069,-208.75 1065.5,-198.75 1062,-208.75 1069,-208.75"/>
</g>
<!-- Node15 -->
<g id="node15" class="node">
<title>Node15</title>
<g id="a_node15"><a xlink:href="spec_2std__types_8h.html" target="_top" xlink:title=" ">
<polygon fill="white" stroke="black" points="1187,-179.5 1187,-198.5 1324,-198.5 1324,-179.5 1187,-179.5"/>
<text text-anchor="middle" x="1255.5" y="-186.5" font-family="Helvetica,sans-Serif" font-size="10.00">odp/api/spec/std_types.h</text>
</a>
</g>
</g>
<!-- Node13&#45;&gt;Node15 -->
<g id="edge16" class="edge">
<title>Node13&#45;&gt;Node15</title>
<path fill="none" stroke="midnightblue" d="M1095.61,-235.44C1128.13,-226.2 1180.08,-211.44 1215.89,-201.26"/>
<polygon fill="midnightblue" stroke="midnightblue" points="1216.87,-204.62 1225.53,-198.52 1214.96,-197.88 1216.87,-204.62"/>
</g>
<!-- Node15&#45;&gt;Node4 -->
<g id="edge17" class="edge">
<title>Node15&#45;&gt;Node4</title>
<path fill="none" stroke="midnightblue" d="M1256.22,-179.21C1257.63,-155.19 1257.91,-88.13 1220.5,-56 1194.92,-34.02 987.55,-20.25 875.59,-14.35"/>
<polygon fill="midnightblue" stroke="midnightblue" points="875.56,-10.84 865.39,-13.81 875.2,-17.83 875.56,-10.84"/>
</g>
<!-- Node15&#45;&gt;Node5 -->
<g id="edge24" class="edge">
<title>Node15&#45;&gt;Node5</title>
<path fill="none" stroke="midnightblue" d="M1209.51,-179.44C1119.24,-162.55 912.58,-123.39 739.5,-87 635.02,-65.03 512.93,-36.99 447.88,-21.86"/>
<polygon fill="midnightblue" stroke="midnightblue" points="448.47,-18.4 437.94,-19.54 446.89,-25.22 448.47,-18.4"/>
</g>
<!-- Node15&#45;&gt;Node16 -->
<g id="edge18" class="edge">
<title>Node15&#45;&gt;Node16</title>
<path fill="none" stroke="midnightblue" d="M1301.13,-179.44C1358.09,-168.77 1454.36,-150.71 1506.79,-140.88"/>
<polygon fill="midnightblue" stroke="midnightblue" points="1507.48,-144.31 1516.67,-139.03 1506.19,-137.43 1507.48,-144.31"/>
</g>
<!-- Node17 -->
<g id="node17" class="node">
<title>Node17</title>
<g id="a_node17"><a xlink:href="align_8h.html" target="_top" xlink:title=" ">
<polygon fill="white" stroke="black" points="1113,-123.5 1113,-142.5 1202,-142.5 1202,-123.5 1113,-123.5"/>
<text text-anchor="middle" x="1157.5" y="-130.5" font-family="Helvetica,sans-Serif" font-size="10.00">odp/api/align.h</text>
</a>
</g>
</g>
<!-- Node15&#45;&gt;Node17 -->
<g id="edge19" class="edge">
<title>Node15&#45;&gt;Node17</title>
<path fill="none" stroke="midnightblue" d="M1239.75,-179.32C1224.18,-170.74 1200.12,-157.49 1182.04,-147.52"/>
<polygon fill="midnightblue" stroke="midnightblue" points="1183.65,-144.42 1173.21,-142.65 1180.28,-150.55 1183.65,-144.42"/>
</g>
<!-- Node18 -->
<g id="node18" class="node">
<title>Node18</title>
<g id="a_node18"><a xlink:title=" ">
<polygon fill="white" stroke="#bfbfbf" points="1104,-62 1104,-81 1211,-81 1211,-62 1104,-62"/>
<text text-anchor="middle" x="1157.5" y="-69" font-family="Helvetica,sans-Serif" font-size="10.00">odp/api/abi/align.h</text>
</a>
</g>
</g>
<!-- Node17&#45;&gt;Node18 -->
<g id="edge20" class="edge">
<title>Node17&#45;&gt;Node18</title>
<path fill="none" stroke="midnightblue" d="M1157.5,-123.48C1157.5,-115.08 1157.5,-101.98 1157.5,-91.16"/>
<polygon fill="midnightblue" stroke="midnightblue" points="1161,-91.01 1157.5,-81.01 1154,-91.01 1161,-91.01"/>
</g>
<!-- Node19 -->
<g id="node19" class="node">
<title>Node19</title>
<g id="a_node19"><a xlink:href="spec_2align_8h.html" target="_top" xlink:title=" ">
<polygon fill="white" stroke="black" points="879.5,-62 879.5,-81 993.5,-81 993.5,-62 879.5,-62"/>
<text text-anchor="middle" x="936.5" y="-69" font-family="Helvetica,sans-Serif" font-size="10.00">odp/api/spec/align.h</text>
</a>
</g>
</g>
<!-- Node17&#45;&gt;Node19 -->
<g id="edge21" class="edge">
<title>Node17&#45;&gt;Node19</title>
<path fill="none" stroke="midnightblue" d="M1125.84,-123.48C1086.94,-113 1020.86,-95.21 977.95,-83.66"/>
<polygon fill="midnightblue" stroke="midnightblue" points="978.67,-80.23 968.11,-81.01 976.85,-86.99 978.67,-80.23"/>
</g>
<!-- Node19&#45;&gt;Node4 -->
<g id="edge22" class="edge">
<title>Node19&#45;&gt;Node4</title>
<path fill="none" stroke="midnightblue" d="M917.59,-61.98C895.34,-51.95 858.19,-35.2 832.57,-23.65"/>
<polygon fill="midnightblue" stroke="midnightblue" points="833.93,-20.43 823.38,-19.51 831.06,-26.81 833.93,-20.43"/>
</g>
<!-- Node19&#45;&gt;Node5 -->
<g id="edge23" class="edge">
<title>Node19&#45;&gt;Node5</title>
<path fill="none" stroke="midnightblue" d="M901.37,-61.96C891.43,-59.77 880.58,-57.59 870.5,-56 727.92,-33.58 559.08,-20.69 467.91,-14.84"/>
<polygon fill="midnightblue" stroke="midnightblue" points="467.93,-11.33 457.73,-14.2 467.48,-18.32 467.93,-11.33"/>
</g>
<!-- Node21 -->
<g id="node21" class="node">
<title>Node21</title>
<g id="a_node21"><a xlink:title=" ">
<polygon fill="white" stroke="#bfbfbf" points="632,-431 632,-450 777,-450 777,-431 632,-431"/>
<text text-anchor="middle" x="704.5" y="-438" font-family="Helvetica,sans-Serif" font-size="10.00">odp/api/abi/queue_types.h</text>
</a>
</g>
</g>
<!-- Node20&#45;&gt;Node21 -->
<g id="edge27" class="edge">
<title>Node20&#45;&gt;Node21</title>
<path fill="none" stroke="midnightblue" d="M704.5,-492.48C704.5,-484.08 704.5,-470.98 704.5,-460.16"/>
<polygon fill="midnightblue" stroke="midnightblue" points="708,-460.01 704.5,-450.01 701,-460.01 708,-460.01"/>
</g>
<!-- Node22 -->
<g id="node22" class="node">
<title>Node22</title>
<g id="a_node22"><a xlink:href="spec_2queue__types_8h.html" target="_top" xlink:title=" ">
<polygon fill="white" stroke="black" points="795,-425.5 795,-455.5 906,-455.5 906,-425.5 795,-425.5"/>
<text text-anchor="start" x="803" y="-443.5" font-family="Helvetica,sans-Serif" font-size="10.00">odp/api/spec/queue</text>
<text text-anchor="middle" x="850.5" y="-432.5" font-family="Helvetica,sans-Serif" font-size="10.00">_types.h</text>
</a>
</g>
</g>
<!-- Node20&#45;&gt;Node22 -->
<g id="edge28" class="edge">
<title>Node20&#45;&gt;Node22</title>
<path fill="none" stroke="midnightblue" d="M725.42,-492.48C746.49,-483.89 779.63,-470.38 806.51,-459.43"/>
<polygon fill="midnightblue" stroke="midnightblue" points="808.15,-462.54 816.09,-455.52 805.51,-456.06 808.15,-462.54"/>
</g>
<!-- Node22&#45;&gt;Node4 -->
<g id="edge29" class="edge">
<title>Node22&#45;&gt;Node4</title>
<path fill="none" stroke="midnightblue" d="M876.25,-425.39C889.89,-416.63 905.79,-404.16 915.5,-389 935.56,-357.68 934.5,-344.69 934.5,-307.5 934.5,-307.5 934.5,-307.5 934.5,-244 934.5,-213.2 946.51,-207.37 958.5,-179 967.32,-158.13 997.49,-109.1 1002.5,-87 1005.55,-73.56 1011.1,-66.77 1002.5,-56 986.61,-36.09 925.54,-24.32 875.38,-17.84"/>
<polygon fill="midnightblue" stroke="midnightblue" points="875.54,-14.33 865.18,-16.58 874.68,-21.28 875.54,-14.33"/>
</g>
<!-- Node22&#45;&gt;Node5 -->
<g id="edge36" class="edge">
<title>Node22&#45;&gt;Node5</title>
<path fill="none" stroke="midnightblue" d="M804.74,-425.43C704.44,-394.57 473.99,-323.55 472.5,-322 392.21,-238.15 395.8,-83.1 399.74,-29.67"/>
<polygon fill="midnightblue" stroke="midnightblue" points="403.24,-29.87 400.58,-19.62 396.26,-29.29 403.24,-29.87"/>
</g>
<!-- Node23 -->
<g id="node23" class="node">
<title>Node23</title>
<g id="a_node23"><a xlink:href="schedule__types_8h.html" target="_top" xlink:title=" ">
<polygon fill="white" stroke="black" points="766.5,-364 766.5,-383 906.5,-383 906.5,-364 766.5,-364"/>
<text text-anchor="middle" x="836.5" y="-371" font-family="Helvetica,sans-Serif" font-size="10.00">odp/api/schedule_types.h</text>
</a>
</g>
</g>
<!-- Node22&#45;&gt;Node23 -->
<g id="edge30" class="edge">
<title>Node22&#45;&gt;Node23</title>
<path fill="none" stroke="midnightblue" d="M847.46,-425.4C845.43,-415.96 842.74,-403.45 840.53,-393.19"/>
<polygon fill="midnightblue" stroke="midnightblue" points="843.9,-392.23 838.37,-383.19 837.06,-393.71 843.9,-392.23"/>
</g>
<!-- Node24 -->
<g id="node24" class="node">
<title>Node24</title>
<g id="a_node24"><a xlink:title=" ">
<polygon fill="white" stroke="#bfbfbf" points="646,-291.5 646,-321.5 763,-321.5 763,-291.5 646,-291.5"/>
<text text-anchor="start" x="654" y="-309.5" font-family="Helvetica,sans-Serif" font-size="10.00">odp/api/abi/schedule</text>
<text text-anchor="middle" x="704.5" y="-298.5" font-family="Helvetica,sans-Serif" font-size="10.00">_types.h</text>
</a>
</g>
</g>
<!-- Node23&#45;&gt;Node24 -->
<g id="edge31" class="edge">
<title>Node23&#45;&gt;Node24</title>
<path fill="none" stroke="midnightblue" d="M818.97,-363.87C799.57,-354.31 767.71,-338.63 742.53,-326.22"/>
<polygon fill="midnightblue" stroke="midnightblue" points="743.76,-322.93 733.24,-321.65 740.66,-329.21 743.76,-322.93"/>
</g>
<!-- Node25 -->
<g id="node25" class="node">
<title>Node25</title>
<g id="a_node25"><a xlink:href="spec_2schedule__types_8h.html" target="_top" xlink:title=" ">
<polygon fill="white" stroke="black" points="781,-291.5 781,-321.5 906,-321.5 906,-291.5 781,-291.5"/>
<text text-anchor="start" x="789" y="-309.5" font-family="Helvetica,sans-Serif" font-size="10.00">odp/api/spec/schedule</text>
<text text-anchor="middle" x="843.5" y="-298.5" font-family="Helvetica,sans-Serif" font-size="10.00">_types.h</text>
</a>
</g>
</g>
<!-- Node23&#45;&gt;Node25 -->
<g id="edge32" class="edge">
<title>Node23&#45;&gt;Node25</title>
<path fill="none" stroke="midnightblue" d="M837.44,-363.73C838.33,-355.54 839.69,-342.92 840.89,-331.71"/>
<polygon fill="midnightblue" stroke="midnightblue" points="844.39,-331.91 841.98,-321.59 837.43,-331.16 844.39,-331.91"/>
</g>
<!-- Node25&#45;&gt;Node4 -->
<g id="edge33" class="edge">
<title>Node25&#45;&gt;Node4</title>
<path fill="none" stroke="midnightblue" d="M809.62,-291.46C772.9,-273.72 719.5,-239.43 719.5,-190 719.5,-190 719.5,-190 719.5,-132 719.5,-97.07 719.45,-84.6 739.5,-56 748.82,-42.7 763.4,-32.09 776.4,-24.51"/>
<polygon fill="midnightblue" stroke="midnightblue" points="778.39,-27.41 785.48,-19.54 775.03,-21.27 778.39,-27.41"/>
</g>
<!-- Node25&#45;&gt;Node5 -->
<g id="edge35" class="edge">
<title>Node25&#45;&gt;Node5</title>
<path fill="none" stroke="midnightblue" d="M807.49,-291.5C735.11,-262.05 569.45,-188.03 458.5,-87 439.34,-69.55 422.22,-44.88 411.86,-28.44"/>
<polygon fill="midnightblue" stroke="midnightblue" points="414.79,-26.51 406.58,-19.82 408.82,-30.17 414.79,-26.51"/>
</g>
<!-- Node25&#45;&gt;Node13 -->
<g id="edge34" class="edge">
<title>Node25&#45;&gt;Node13</title>
<path fill="none" stroke="midnightblue" d="M895.83,-291.47C934.97,-280.99 987.76,-266.84 1024,-257.12"/>
<polygon fill="midnightblue" stroke="midnightblue" points="1025.01,-260.48 1033.76,-254.51 1023.2,-253.71 1025.01,-260.48"/>
</g>
<!-- Node27 -->
<g id="node27" class="node">
<title>Node27</title>
<g id="a_node27"><a xlink:title=" ">
<polygon fill="white" stroke="#bfbfbf" points="1060.5,-805.5 1060.5,-824.5 1196.5,-824.5 1196.5,-805.5 1060.5,-805.5"/>
<text text-anchor="middle" x="1128.5" y="-812.5" font-family="Helvetica,sans-Serif" font-size="10.00">odp/api/abi/pool_types.h</text>
</a>
</g>
</g>
<!-- Node26&#45;&gt;Node27 -->
<g id="edge39" class="edge">
<title>Node26&#45;&gt;Node27</title>
<path fill="none" stroke="midnightblue" d="M1128.5,-866.98C1128.5,-858.58 1128.5,-845.48 1128.5,-834.66"/>
<polygon fill="midnightblue" stroke="midnightblue" points="1132,-834.51 1128.5,-824.51 1125,-834.51 1132,-834.51"/>
</g>
<!-- Node28 -->
<g id="node28" class="node">
<title>Node28</title>
<g id="a_node28"><a xlink:href="spec_2pool__types_8h.html" target="_top" xlink:title=" ">
<polygon fill="white" stroke="black" points="899,-805.5 899,-824.5 1042,-824.5 1042,-805.5 899,-805.5"/>
<text text-anchor="middle" x="970.5" y="-812.5" font-family="Helvetica,sans-Serif" font-size="10.00">odp/api/spec/pool_types.h</text>
</a>
</g>
</g>
<!-- Node26&#45;&gt;Node28 -->
<g id="edge40" class="edge">
<title>Node26&#45;&gt;Node28</title>
<path fill="none" stroke="midnightblue" d="M1105.86,-866.98C1078.76,-856.77 1033.19,-839.61 1002.5,-828.05"/>
<polygon fill="midnightblue" stroke="midnightblue" points="1003.69,-824.76 993.1,-824.51 1001.22,-831.31 1003.69,-824.76"/>
</g>
<!-- Node28&#45;&gt;Node4 -->
<g id="edge41" class="edge">
<title>Node28&#45;&gt;Node4</title>
<path fill="none" stroke="midnightblue" d="M991.73,-805.38C1009.42,-797.55 1034.68,-784.82 1053.5,-769 1082.56,-744.56 1083.68,-732.35 1106.5,-702 1230.68,-536.85 1352.5,-514.13 1352.5,-307.5 1352.5,-307.5 1352.5,-307.5 1352.5,-132 1352.5,-35.43 1023.88,-15.86 875.6,-11.95"/>
<polygon fill="midnightblue" stroke="midnightblue" points="875.32,-8.44 865.24,-11.7 875.15,-15.44 875.32,-8.44"/>
</g>
<!-- Node28&#45;&gt;Node5 -->
<g id="edge56" class="edge">
<title>Node28&#45;&gt;Node5</title>
<path fill="none" stroke="midnightblue" d="M898.87,-813.68C754.66,-809.96 423.41,-785.55 192.5,-646 131.08,-608.88 117.5,-574.77 117.5,-503 117.5,-503 117.5,-503 117.5,-132 117.5,-94.43 124.57,-78.7 154.5,-56 182.3,-34.91 271.92,-22.6 335.17,-16.34"/>
<polygon fill="midnightblue" stroke="midnightblue" points="335.86,-19.79 345.48,-15.35 335.19,-12.82 335.86,-19.79"/>
</g>
<!-- Node28&#45;&gt;Node13 -->
<g id="edge42" class="edge">
<title>Node28&#45;&gt;Node13</title>
<path fill="none" stroke="midnightblue" d="M981.48,-805.42C1023.2,-771.76 1169.5,-643.7 1169.5,-503 1169.5,-503 1169.5,-503 1169.5,-372.5 1169.5,-322.04 1119.51,-280.75 1088.85,-260.16"/>
<polygon fill="midnightblue" stroke="midnightblue" points="1090.7,-257.19 1080.4,-254.68 1086.89,-263.06 1090.7,-257.19"/>
</g>
<!-- Node29 -->
<g id="node29" class="node">
<title>Node29</title>
<g id="a_node29"><a xlink:href="dma__types_8h.html" target="_top" xlink:title=" ">
<polygon fill="white" stroke="black" points="859,-744 859,-763 978,-763 978,-744 859,-744"/>
<text text-anchor="middle" x="918.5" y="-751" font-family="Helvetica,sans-Serif" font-size="10.00">odp/api/dma_types.h</text>
</a>
</g>
</g>
<!-- Node28&#45;&gt;Node29 -->
<g id="edge43" class="edge">
<title>Node28&#45;&gt;Node29</title>
<path fill="none" stroke="midnightblue" d="M963.05,-805.48C955.17,-796.46 942.56,-782.02 932.76,-770.81"/>
<polygon fill="midnightblue" stroke="midnightblue" points="935.15,-768.24 925.94,-763.01 929.88,-772.84 935.15,-768.24"/>
</g>
<!-- Node30 -->
<g id="node30" class="node">
<title>Node30</title>
<g id="a_node30"><a xlink:title=" ">
<polygon fill="white" stroke="#bfbfbf" points="850,-682.5 850,-701.5 987,-701.5 987,-682.5 850,-682.5"/>
<text text-anchor="middle" x="918.5" y="-689.5" font-family="Helvetica,sans-Serif" font-size="10.00">odp/api/abi/dma_types.h</text>
</a>
</g>
</g>
<!-- Node29&#45;&gt;Node30 -->
<g id="edge44" class="edge">
<title>Node29&#45;&gt;Node30</title>
<path fill="none" stroke="midnightblue" d="M918.5,-743.98C918.5,-735.58 918.5,-722.48 918.5,-711.66"/>
<polygon fill="midnightblue" stroke="midnightblue" points="922,-711.51 918.5,-701.51 915,-711.51 922,-711.51"/>
</g>
<!-- Node31 -->
<g id="node31" class="node">
<title>Node31</title>
<g id="a_node31"><a xlink:href="spec_2dma__types_8h.html" target="_top" xlink:title=" ">
<polygon fill="white" stroke="black" points="632.5,-682.5 632.5,-701.5 776.5,-701.5 776.5,-682.5 632.5,-682.5"/>
<text text-anchor="middle" x="704.5" y="-689.5" font-family="Helvetica,sans-Serif" font-size="10.00">odp/api/spec/dma_types.h</text>
</a>
</g>
</g>
<!-- Node29&#45;&gt;Node31 -->
<g id="edge45" class="edge">
<title>Node29&#45;&gt;Node31</title>
<path fill="none" stroke="midnightblue" d="M887.84,-743.98C850.26,-733.53 786.46,-715.79 744.9,-704.23"/>
<polygon fill="midnightblue" stroke="midnightblue" points="745.68,-700.82 735.1,-701.51 743.8,-707.56 745.68,-700.82"/>
</g>
<!-- Node31&#45;&gt;Node4 -->
<g id="edge46" class="edge">
<title>Node31&#45;&gt;Node4</title>
<path fill="none" stroke="midnightblue" d="M717.07,-682.3C770.05,-644.5 972.5,-488.23 972.5,-307.5 972.5,-307.5 972.5,-307.5 972.5,-244 972.5,-171.29 1008.16,-158.97 1018.5,-87 1020.46,-73.36 1027.18,-66.7 1018.5,-56 1000.59,-33.94 930.47,-22.29 875.31,-16.42"/>
<polygon fill="midnightblue" stroke="midnightblue" points="875.5,-12.92 865.2,-15.39 874.79,-19.89 875.5,-12.92"/>
</g>
<!-- Node31&#45;&gt;Node5 -->
<g id="edge55" class="edge">
<title>Node31&#45;&gt;Node5</title>
<path fill="none" stroke="midnightblue" d="M638.25,-682.47C572.37,-670.55 472.81,-642.68 413.5,-579 326.93,-486.05 335.94,-439.83 288.5,-322 242.58,-207.94 136.29,-152.49 212.5,-56 227.77,-36.66 287.18,-24.74 335.36,-18.07"/>
<polygon fill="midnightblue" stroke="midnightblue" points="336,-21.51 345.45,-16.72 335.08,-14.57 336,-21.51"/>
</g>
<!-- Node31&#45;&gt;Node6 -->
<g id="edge52" class="edge">
<title>Node31&#45;&gt;Node6</title>
<path fill="none" stroke="midnightblue" d="M690.03,-682.48C673.53,-672.75 646.32,-656.73 626.82,-645.24"/>
<polygon fill="midnightblue" stroke="midnightblue" points="628.34,-642.07 617.94,-640.01 624.78,-648.1 628.34,-642.07"/>
</g>
<!-- Node31&#45;&gt;Node13 -->
<g id="edge54" class="edge">
<title>Node31&#45;&gt;Node13</title>
<path fill="none" stroke="midnightblue" d="M776.51,-683.64C854.15,-675.05 968.69,-660.2 983.5,-646 1039.61,-592.21 1059.76,-337.06 1064.39,-265"/>
<polygon fill="midnightblue" stroke="midnightblue" points="1067.9,-264.93 1065.02,-254.73 1060.91,-264.5 1067.9,-264.93"/>
</g>
<!-- Node31&#45;&gt;Node20 -->
<g id="edge53" class="edge">
<title>Node31&#45;&gt;Node20</title>
<path fill="none" stroke="midnightblue" d="M704.5,-682.43C704.5,-653.93 704.5,-561.82 704.5,-521.83"/>
<polygon fill="midnightblue" stroke="midnightblue" points="708,-521.62 704.5,-511.62 701,-521.62 708,-521.62"/>
</g>
<!-- Node32 -->
<g id="node32" class="node">
<title>Node32</title>
<g id="a_node32"><a xlink:href="event__types_8h.html" target="_top" xlink:title=" ">
<polygon fill="white" stroke="black" points="202,-621 202,-640 327,-640 327,-621 202,-621"/>
<text text-anchor="middle" x="264.5" y="-628" font-family="Helvetica,sans-Serif" font-size="10.00">odp/api/event_types.h</text>
</a>
</g>
</g>
<!-- Node31&#45;&gt;Node32 -->
<g id="edge47" class="edge">
<title>Node31&#45;&gt;Node32</title>
<path fill="none" stroke="midnightblue" d="M632.34,-683.41C558.96,-675.37 442.05,-661.68 341.5,-646 333.57,-644.76 325.2,-643.33 317.02,-641.85"/>
<polygon fill="midnightblue" stroke="midnightblue" points="317.65,-638.4 307.18,-640.03 316.38,-645.29 317.65,-638.4"/>
</g>
<!-- Node32&#45;&gt;Node33 -->
<g id="edge48" class="edge">
<title>Node32&#45;&gt;Node33</title>
<path fill="none" stroke="midnightblue" d="M258.16,-620.73C250.9,-610.7 238.84,-594.01 229.74,-581.42"/>
<polygon fill="midnightblue" stroke="midnightblue" points="232.43,-579.18 223.74,-573.13 226.76,-583.28 232.43,-579.18"/>
</g>
<!-- Node34 -->
<g id="node34" class="node">
<title>Node34</title>
<g id="a_node34"><a xlink:href="spec_2event__types_8h.html" target="_top" xlink:title=" ">
<polygon fill="white" stroke="black" points="468,-56.5 468,-86.5 577,-86.5 577,-56.5 468,-56.5"/>
<text text-anchor="start" x="476" y="-74.5" font-family="Helvetica,sans-Serif" font-size="10.00">odp/api/spec/event</text>
<text text-anchor="middle" x="522.5" y="-63.5" font-family="Helvetica,sans-Serif" font-size="10.00">_types.h</text>
</a>
</g>
</g>
<!-- Node32&#45;&gt;Node34 -->
<g id="edge49" class="edge">
<title>Node32&#45;&gt;Node34</title>
<path fill="none" stroke="midnightblue" d="M272.32,-621C280.43,-611.56 292.6,-595.46 297.5,-579 301.43,-565.8 297.77,-561.78 297.5,-548 295.23,-433.73 242.96,-395.83 288.5,-291 329.51,-196.59 433.64,-124.43 488.11,-91.73"/>
<polygon fill="midnightblue" stroke="midnightblue" points="489.9,-94.74 496.72,-86.64 486.33,-88.72 489.9,-94.74"/>
</g>
<!-- Node34&#45;&gt;Node4 -->
<g id="edge50" class="edge">
<title>Node34&#45;&gt;Node4</title>
<path fill="none" stroke="midnightblue" d="M577.21,-58.96C628.45,-48.14 704.41,-32.12 754.19,-21.62"/>
<polygon fill="midnightblue" stroke="midnightblue" points="755.02,-25.02 764.08,-19.53 753.58,-18.17 755.02,-25.02"/>
</g>
<!-- Node34&#45;&gt;Node5 -->
<g id="edge51" class="edge">
<title>Node34&#45;&gt;Node5</title>
<path fill="none" stroke="midnightblue" d="M493.82,-56.4C473.98,-46.64 447.74,-33.74 428.31,-24.18"/>
<polygon fill="midnightblue" stroke="midnightblue" points="429.62,-20.93 419.11,-19.66 426.54,-27.21 429.62,-20.93"/>
</g>
<!-- Node35&#45;&gt;Node13 -->
<g id="edge58" class="edge">
<title>Node35&#45;&gt;Node13</title>
<path fill="none" stroke="midnightblue" d="M1216.28,-296.98C1185.83,-286.68 1134.45,-269.31 1100.26,-257.75"/>
<polygon fill="midnightblue" stroke="midnightblue" points="1101.26,-254.4 1090.67,-254.51 1099.02,-261.03 1101.26,-254.4"/>
</g>
<!-- Node36 -->
<g id="node36" class="node">
<title>Node36</title>
<g id="a_node36"><a xlink:title=" ">
<polygon fill="white" stroke="#bfbfbf" points="1189,-235.5 1189,-254.5 1294,-254.5 1294,-235.5 1189,-235.5"/>
<text text-anchor="middle" x="1241.5" y="-242.5" font-family="Helvetica,sans-Serif" font-size="10.00">odp/api/abi/time.h</text>
</a>
</g>
</g>
<!-- Node35&#45;&gt;Node36 -->
<g id="edge59" class="edge">
<title>Node35&#45;&gt;Node36</title>
<path fill="none" stroke="midnightblue" d="M1241.5,-296.98C1241.5,-288.58 1241.5,-275.48 1241.5,-264.66"/>
<polygon fill="midnightblue" stroke="midnightblue" points="1245,-264.51 1241.5,-254.51 1238,-264.51 1245,-264.51"/>
</g>
<!-- Node37 -->
<g id="node37" class="node">
<title>Node37</title>
<g id="a_node37"><a xlink:href="spec_2time_8h.html" target="_top" xlink:title=" ">
<polygon fill="white" stroke="black" points="748,-62 748,-81 861,-81 861,-62 748,-62"/>
<text text-anchor="middle" x="804.5" y="-69" font-family="Helvetica,sans-Serif" font-size="10.00">odp/api/spec/time.h</text>
</a>
</g>
</g>
<!-- Node35&#45;&gt;Node37 -->
<g id="edge60" class="edge">
<title>Node35&#45;&gt;Node37</title>
<path fill="none" stroke="midnightblue" d="M1228.08,-296.7C1214.79,-287.48 1194.45,-272.01 1180.5,-255 1156.16,-225.33 1169.05,-203.49 1139.5,-179 1095.29,-142.37 935.11,-102.05 853.3,-83.26"/>
<polygon fill="midnightblue" stroke="midnightblue" points="854.02,-79.83 843.49,-81.02 852.46,-86.66 854.02,-79.83"/>
</g>
<!-- Node37&#45;&gt;Node4 -->
<g id="edge61" class="edge">
<title>Node37&#45;&gt;Node4</title>
<path fill="none" stroke="midnightblue" d="M804.5,-61.98C804.5,-53.58 804.5,-40.48 804.5,-29.66"/>
<polygon fill="midnightblue" stroke="midnightblue" points="808,-29.51 804.5,-19.51 801,-29.51 808,-29.51"/>
</g>
<!-- Node37&#45;&gt;Node5 -->
<g id="edge62" class="edge">
<title>Node37&#45;&gt;Node5</title>
<path fill="none" stroke="midnightblue" d="M747.61,-62.1C674,-51.23 545.97,-32.33 467.97,-20.81"/>
<polygon fill="midnightblue" stroke="midnightblue" points="468.18,-17.31 457.77,-19.31 467.15,-24.23 468.18,-17.31"/>
</g>
<!-- Node41&#45;&gt;Node7 -->
<g id="edge68" class="edge">
<title>Node41&#45;&gt;Node7</title>
<path fill="none" stroke="midnightblue" d="M1213,-615.4C1189.35,-605.73 1157.78,-592.82 1132.35,-582.43"/>
<polygon fill="midnightblue" stroke="midnightblue" points="1133.51,-579.12 1122.93,-578.58 1130.87,-585.6 1133.51,-579.12"/>
</g>
<!-- Node41&#45;&gt;Node16 -->
<g id="edge69" class="edge">
<title>Node41&#45;&gt;Node16</title>
<path fill="none" stroke="midnightblue" d="M1258.96,-615.42C1292.89,-572.26 1390.5,-436.87 1390.5,-307.5 1390.5,-307.5 1390.5,-307.5 1390.5,-244 1390.5,-186.82 1461.82,-156.44 1507.07,-142.92"/>
<polygon fill="midnightblue" stroke="midnightblue" points="1508.19,-146.25 1516.85,-140.14 1506.27,-139.51 1508.19,-146.25"/>
</g>
<!-- Node42&#45;&gt;Node16 -->
<g id="edge71" class="edge">
<title>Node42&#45;&gt;Node16</title>
<path fill="none" stroke="midnightblue" d="M1787.96,-738.14C1781.25,-715.65 1769.5,-670.63 1769.5,-631.5 1769.5,-631.5 1769.5,-631.5 1769.5,-244 1769.5,-160.92 1644.48,-140.57 1580.41,-135.6"/>
<polygon fill="midnightblue" stroke="midnightblue" points="1580.53,-132.1 1570.31,-134.9 1580.05,-139.08 1580.53,-132.1"/>
</g>
</g>
</svg>
