<?xml version="1.0" encoding="UTF-8" standalone="no"?>
<!DOCTYPE svg PUBLIC "-//W3C//DTD SVG 1.1//EN"
 "http://www.w3.org/Graphics/SVG/1.1/DTD/svg11.dtd">
<!-- Generated by graphviz version 2.43.0 (0)
 -->
<!-- Title: proto_stats_types.h Pages: 1 -->
<svg width="1131pt" height="700pt"
 viewBox="0.00 0.00 1131.00 700.00" xmlns="http://www.w3.org/2000/svg" xmlns:xlink="http://www.w3.org/1999/xlink">
<g id="graph0" class="graph" transform="scale(1 1) rotate(0) translate(4 696)">
<title>proto_stats_types.h</title>
<polygon fill="white" stroke="transparent" points="-4,4 -4,-696 1127,-696 1127,4 -4,4"/>
<!-- Node1 -->
<g id="node1" class="node">
<title>Node1</title>
<g id="a_node1"><a xlink:title=" ">
<polygon fill="#bfbfbf" stroke="black" points="687.5,-672.5 687.5,-691.5 800.5,-691.5 800.5,-672.5 687.5,-672.5"/>
<text text-anchor="middle" x="744" y="-679.5" font-family="Helvetica,sans-Serif" font-size="10.00">proto_stats_types.h</text>
</a>
</g>
</g>
<!-- Node2 -->
<g id="node2" class="node">
<title>Node2</title>
<g id="a_node2"><a xlink:href="spec_2packet_8h.html" target="_top" xlink:title=" ">
<polygon fill="white" stroke="black" points="90,-168.5 90,-187.5 148,-187.5 148,-168.5 90,-168.5"/>
<text text-anchor="middle" x="119" y="-175.5" font-family="Helvetica,sans-Serif" font-size="10.00">packet.h</text>
</a>
</g>
</g>
<!-- Node1&#45;&gt;Node2 -->
<g id="edge1" class="edge">
<title>Node1&#45;&gt;Node2</title>
<path fill="none" stroke="midnightblue" d="M677.46,-678.11C494.95,-669.31 0,-639.16 0,-571 0,-571 0,-571 0,-289 0,-236.81 62.48,-202.5 96.9,-187.56"/>
<polygon fill="midnightblue" stroke="midnightblue" points="677.31,-681.61 687.47,-678.59 677.65,-674.62 677.31,-681.61"/>
</g>
<!-- Node5 -->
<g id="node5" class="node">
<title>Node5</title>
<g id="a_node5"><a xlink:href="spec_2packet__types_8h.html" target="_top" xlink:title=" ">
<polygon fill="white" stroke="black" points="699,-616.5 699,-635.5 789,-635.5 789,-616.5 699,-616.5"/>
<text text-anchor="middle" x="744" y="-623.5" font-family="Helvetica,sans-Serif" font-size="10.00">packet_types.h</text>
</a>
</g>
</g>
<!-- Node1&#45;&gt;Node5 -->
<g id="edge4" class="edge">
<title>Node1&#45;&gt;Node5</title>
<path fill="none" stroke="midnightblue" d="M744,-661.8C744,-652.91 744,-642.78 744,-635.75"/>
<polygon fill="midnightblue" stroke="midnightblue" points="740.5,-662.08 744,-672.08 747.5,-662.08 740.5,-662.08"/>
</g>
<!-- Node42 -->
<g id="node42" class="node">
<title>Node42</title>
<g id="a_node42"><a xlink:href="spec_2proto__stats_8h.html" target="_top" xlink:title=" ">
<polygon fill="white" stroke="black" points="807,-616.5 807,-635.5 887,-635.5 887,-616.5 807,-616.5"/>
<text text-anchor="middle" x="847" y="-623.5" font-family="Helvetica,sans-Serif" font-size="10.00">proto_stats.h</text>
</a>
</g>
</g>
<!-- Node1&#45;&gt;Node42 -->
<g id="edge55" class="edge">
<title>Node1&#45;&gt;Node42</title>
<path fill="none" stroke="midnightblue" d="M769.58,-667.59C788.62,-657.61 814.06,-644.27 830.49,-635.65"/>
<polygon fill="midnightblue" stroke="midnightblue" points="767.78,-664.58 760.55,-672.32 771.03,-670.78 767.78,-664.58"/>
</g>
<!-- Node3 -->
<g id="node3" class="node">
<title>Node3</title>
<g id="a_node3"><a xlink:href="packet_8h.html" target="_top" xlink:title=" ">
<polygon fill="white" stroke="black" points="90,-112.5 90,-131.5 148,-131.5 148,-112.5 90,-112.5"/>
<text text-anchor="middle" x="119" y="-119.5" font-family="Helvetica,sans-Serif" font-size="10.00">packet.h</text>
</a>
</g>
</g>
<!-- Node2&#45;&gt;Node3 -->
<g id="edge2" class="edge">
<title>Node2&#45;&gt;Node3</title>
<path fill="none" stroke="midnightblue" d="M119,-157.8C119,-148.91 119,-138.78 119,-131.75"/>
<polygon fill="midnightblue" stroke="midnightblue" points="115.5,-158.08 119,-168.08 122.5,-158.08 115.5,-158.08"/>
</g>
<!-- Node4 -->
<g id="node4" class="node">
<title>Node4</title>
<g id="a_node4"><a xlink:href="event__inlines_8h_source.html" target="_top" xlink:title=" ">
<polygon fill="white" stroke="black" points="73.5,-56.5 73.5,-75.5 164.5,-75.5 164.5,-56.5 73.5,-56.5"/>
<text text-anchor="middle" x="119" y="-63.5" font-family="Helvetica,sans-Serif" font-size="10.00">event_inlines.h</text>
</a>
</g>
</g>
<!-- Node3&#45;&gt;Node4 -->
<g id="edge3" class="edge">
<title>Node3&#45;&gt;Node4</title>
<path fill="none" stroke="midnightblue" d="M119,-101.8C119,-92.91 119,-82.78 119,-75.75"/>
<polygon fill="midnightblue" stroke="midnightblue" points="115.5,-102.08 119,-112.08 122.5,-102.08 115.5,-102.08"/>
</g>
<!-- Node6 -->
<g id="node6" class="node">
<title>Node6</title>
<g id="a_node6"><a xlink:href="packet__types_8h.html" target="_top" xlink:title=" ">
<polygon fill="white" stroke="black" points="699,-560.5 699,-579.5 789,-579.5 789,-560.5 699,-560.5"/>
<text text-anchor="middle" x="744" y="-567.5" font-family="Helvetica,sans-Serif" font-size="10.00">packet_types.h</text>
</a>
</g>
</g>
<!-- Node5&#45;&gt;Node6 -->
<g id="edge5" class="edge">
<title>Node5&#45;&gt;Node6</title>
<path fill="none" stroke="midnightblue" d="M744,-605.8C744,-596.91 744,-586.78 744,-579.75"/>
<polygon fill="midnightblue" stroke="midnightblue" points="740.5,-606.08 744,-616.08 747.5,-606.08 740.5,-606.08"/>
</g>
<!-- Node6&#45;&gt;Node2 -->
<g id="edge48" class="edge">
<title>Node6&#45;&gt;Node2</title>
<path fill="none" stroke="midnightblue" d="M688.55,-566.58C555.3,-557.38 218.34,-513.08 86,-300 68.18,-271.31 75.49,-256.1 86,-224 90.7,-209.64 101.93,-196.07 109.98,-187.66"/>
<polygon fill="midnightblue" stroke="midnightblue" points="688.71,-570.1 698.92,-567.26 689.17,-563.12 688.71,-570.1"/>
</g>
<!-- Node7 -->
<g id="node7" class="node">
<title>Node7</title>
<g id="a_node7"><a xlink:href="spec_2comp_8h.html" target="_top" xlink:title=" ">
<polygon fill="white" stroke="black" points="28.5,-504.5 28.5,-523.5 81.5,-523.5 81.5,-504.5 28.5,-504.5"/>
<text text-anchor="middle" x="55" y="-511.5" font-family="Helvetica,sans-Serif" font-size="10.00">comp.h</text>
</a>
</g>
</g>
<!-- Node6&#45;&gt;Node7 -->
<g id="edge6" class="edge">
<title>Node6&#45;&gt;Node7</title>
<path fill="none" stroke="midnightblue" d="M688.92,-567.9C576.79,-565.05 314.11,-555.34 96,-524 91.38,-523.34 86.51,-522.44 81.8,-521.47"/>
<polygon fill="midnightblue" stroke="midnightblue" points="688.9,-571.4 698.98,-568.14 689.07,-564.4 688.9,-571.4"/>
</g>
<!-- Node9 -->
<g id="node9" class="node">
<title>Node9</title>
<g id="a_node9"><a xlink:href="spec_2crypto_8h.html" target="_top" xlink:title=" ">
<polygon fill="white" stroke="black" points="776,-280.5 776,-299.5 832,-299.5 832,-280.5 776,-280.5"/>
<text text-anchor="middle" x="804" y="-287.5" font-family="Helvetica,sans-Serif" font-size="10.00">crypto.h</text>
</a>
</g>
</g>
<!-- Node6&#45;&gt;Node9 -->
<g id="edge8" class="edge">
<title>Node6&#45;&gt;Node9</title>
<path fill="none" stroke="midnightblue" d="M744,-550.25C744,-528.36 744,-491.05 744,-459 744,-459 744,-459 744,-401 744,-358.58 778.81,-316.96 795.4,-299.53"/>
<polygon fill="midnightblue" stroke="midnightblue" points="740.5,-550.44 744,-560.44 747.5,-550.44 740.5,-550.44"/>
</g>
<!-- Node13 -->
<g id="node13" class="node">
<title>Node13</title>
<g id="a_node13"><a xlink:href="spec_2dma__types_8h.html" target="_top" xlink:title=" ">
<polygon fill="white" stroke="black" points="548,-504.5 548,-523.5 628,-523.5 628,-504.5 548,-504.5"/>
<text text-anchor="middle" x="588" y="-511.5" font-family="Helvetica,sans-Serif" font-size="10.00">dma_types.h</text>
</a>
</g>
</g>
<!-- Node6&#45;&gt;Node13 -->
<g id="edge12" class="edge">
<title>Node6&#45;&gt;Node13</title>
<path fill="none" stroke="midnightblue" d="M709.83,-557.17C680.46,-547 638.8,-532.59 612.6,-523.52"/>
<polygon fill="midnightblue" stroke="midnightblue" points="708.69,-560.48 719.28,-560.44 710.98,-553.86 708.69,-560.48"/>
</g>
<!-- Node23 -->
<g id="node23" class="node">
<title>Node23</title>
<g id="a_node23"><a xlink:href="spec_2packet__io_8h.html" target="_top" xlink:title=" ">
<polygon fill="white" stroke="black" points="716,-56.5 716,-75.5 788,-75.5 788,-56.5 716,-56.5"/>
<text text-anchor="middle" x="752" y="-63.5" font-family="Helvetica,sans-Serif" font-size="10.00">packet_io.h</text>
</a>
</g>
</g>
<!-- Node6&#45;&gt;Node23 -->
<g id="edge51" class="edge">
<title>Node6&#45;&gt;Node23</title>
<path fill="none" stroke="midnightblue" d="M799.18,-559.6C873.53,-546.91 997.2,-525.66 1002,-524 1059.7,-504.06 1123,-520.05 1123,-459 1123,-459 1123,-459 1123,-177 1123,-107.64 881.6,-78.6 788.25,-69.97"/>
<polygon fill="midnightblue" stroke="midnightblue" points="798.3,-556.2 789.03,-561.33 799.48,-563.1 798.3,-556.2"/>
</g>
<!-- Node25 -->
<g id="node25" class="node">
<title>Node25</title>
<g id="a_node25"><a xlink:href="spec_2packet__io__types_8h.html" target="_top" xlink:title=" ">
<polygon fill="white" stroke="black" points="654,-280.5 654,-299.5 758,-299.5 758,-280.5 654,-280.5"/>
<text text-anchor="middle" x="706" y="-287.5" font-family="Helvetica,sans-Serif" font-size="10.00">packet_io_types.h</text>
</a>
</g>
</g>
<!-- Node6&#45;&gt;Node25 -->
<g id="edge52" class="edge">
<title>Node6&#45;&gt;Node25</title>
<path fill="none" stroke="midnightblue" d="M733.86,-551.43C722.6,-530.24 706,-493.19 706,-459 706,-459 706,-459 706,-401 706,-363.19 706,-318.06 706,-299.56"/>
<polygon fill="midnightblue" stroke="midnightblue" points="730.82,-553.17 738.72,-560.23 736.95,-549.78 730.82,-553.17"/>
</g>
<!-- Node34 -->
<g id="node34" class="node">
<title>Node34</title>
<g id="a_node34"><a xlink:href="packet__inlines_8h.html" target="_top" xlink:title=" ">
<polygon fill="white" stroke="black" points="850.5,-280.5 850.5,-299.5 945.5,-299.5 945.5,-280.5 850.5,-280.5"/>
<text text-anchor="middle" x="898" y="-287.5" font-family="Helvetica,sans-Serif" font-size="10.00">packet_inlines.h</text>
</a>
</g>
</g>
<!-- Node6&#45;&gt;Node34 -->
<g id="edge53" class="edge">
<title>Node6&#45;&gt;Node34</title>
<path fill="none" stroke="midnightblue" d="M754.14,-551.43C765.4,-530.24 782,-493.19 782,-459 782,-459 782,-459 782,-401 782,-349.38 843.24,-314.7 876.72,-299.6"/>
<polygon fill="midnightblue" stroke="midnightblue" points="751.05,-549.78 749.28,-560.23 757.18,-553.17 751.05,-549.78"/>
</g>
<!-- Node35 -->
<g id="node35" class="node">
<title>Node35</title>
<g id="a_node35"><a xlink:href="packet__vector__inlines_8h.html" target="_top" xlink:title=" ">
<polygon fill="white" stroke="black" points="963.5,-280.5 963.5,-299.5 1094.5,-299.5 1094.5,-280.5 963.5,-280.5"/>
<text text-anchor="middle" x="1029" y="-287.5" font-family="Helvetica,sans-Serif" font-size="10.00">packet_vector_inlines.h</text>
</a>
</g>
</g>
<!-- Node6&#45;&gt;Node35 -->
<g id="edge54" class="edge">
<title>Node6&#45;&gt;Node35</title>
<path fill="none" stroke="midnightblue" d="M799.19,-559.55C865.78,-547.97 969.79,-529.24 977,-524 1003.73,-504.6 1013,-492.02 1013,-459 1013,-459 1013,-459 1013,-401 1013,-362.98 1022.47,-318.34 1026.84,-299.78"/>
<polygon fill="midnightblue" stroke="midnightblue" points="798.5,-556.12 789.25,-561.27 799.7,-563.01 798.5,-556.12"/>
</g>
<!-- Node37 -->
<g id="node37" class="node">
<title>Node37</title>
<g id="a_node37"><a xlink:href="spec_2event_8h.html" target="_top" xlink:title=" ">
<polygon fill="white" stroke="black" points="810.5,-504.5 810.5,-523.5 863.5,-523.5 863.5,-504.5 810.5,-504.5"/>
<text text-anchor="middle" x="837" y="-511.5" font-family="Helvetica,sans-Serif" font-size="10.00">event.h</text>
</a>
</g>
</g>
<!-- Node6&#45;&gt;Node37 -->
<g id="edge45" class="edge">
<title>Node6&#45;&gt;Node37</title>
<path fill="none" stroke="midnightblue" d="M767.81,-555.18C784.92,-545.24 807.47,-532.15 822.1,-523.65"/>
<polygon fill="midnightblue" stroke="midnightblue" points="765.83,-552.28 758.94,-560.32 769.35,-558.33 765.83,-552.28"/>
</g>
<!-- Node40 -->
<g id="node40" class="node">
<title>Node40</title>
<g id="a_node40"><a xlink:href="spec_2packet__flags_8h.html" target="_top" xlink:title=" ">
<polygon fill="white" stroke="black" points="882,-504.5 882,-523.5 968,-523.5 968,-504.5 882,-504.5"/>
<text text-anchor="middle" x="925" y="-511.5" font-family="Helvetica,sans-Serif" font-size="10.00">packet_flags.h</text>
</a>
</g>
</g>
<!-- Node6&#45;&gt;Node40 -->
<g id="edge49" class="edge">
<title>Node6&#45;&gt;Node40</title>
<path fill="none" stroke="midnightblue" d="M782.32,-557.57C816.46,-547.38 865.66,-532.7 896.45,-523.52"/>
<polygon fill="midnightblue" stroke="midnightblue" points="781.26,-554.23 772.68,-560.44 783.26,-560.94 781.26,-554.23"/>
</g>
<!-- Node8 -->
<g id="node8" class="node">
<title>Node8</title>
<g id="a_node8"><a xlink:href="comp_8h.html" target="_top" xlink:title=" ">
<polygon fill="white" stroke="black" points="28.5,-448.5 28.5,-467.5 81.5,-467.5 81.5,-448.5 28.5,-448.5"/>
<text text-anchor="middle" x="55" y="-455.5" font-family="Helvetica,sans-Serif" font-size="10.00">comp.h</text>
</a>
</g>
</g>
<!-- Node7&#45;&gt;Node8 -->
<g id="edge7" class="edge">
<title>Node7&#45;&gt;Node8</title>
<path fill="none" stroke="midnightblue" d="M55,-493.8C55,-484.91 55,-474.78 55,-467.75"/>
<polygon fill="midnightblue" stroke="midnightblue" points="51.5,-494.08 55,-504.08 58.5,-494.08 51.5,-494.08"/>
</g>
<!-- Node10 -->
<g id="node10" class="node">
<title>Node10</title>
<g id="a_node10"><a xlink:href="crypto_8h.html" target="_top" xlink:title=" ">
<polygon fill="white" stroke="black" points="776,-168.5 776,-187.5 832,-187.5 832,-168.5 776,-168.5"/>
<text text-anchor="middle" x="804" y="-175.5" font-family="Helvetica,sans-Serif" font-size="10.00">crypto.h</text>
</a>
</g>
</g>
<!-- Node9&#45;&gt;Node10 -->
<g id="edge9" class="edge">
<title>Node9&#45;&gt;Node10</title>
<path fill="none" stroke="midnightblue" d="M804,-270.35C804,-246.25 804,-205.31 804,-187.59"/>
<polygon fill="midnightblue" stroke="midnightblue" points="800.5,-270.37 804,-280.37 807.5,-270.37 800.5,-270.37"/>
</g>
<!-- Node11 -->
<g id="node11" class="node">
<title>Node11</title>
<g id="a_node11"><a xlink:href="spec_2ipsec_8h.html" target="_top" xlink:title=" ">
<polygon fill="white" stroke="black" points="595.5,-56.5 595.5,-75.5 646.5,-75.5 646.5,-56.5 595.5,-56.5"/>
<text text-anchor="middle" x="621" y="-63.5" font-family="Helvetica,sans-Serif" font-size="10.00">ipsec.h</text>
</a>
</g>
</g>
<!-- Node10&#45;&gt;Node11 -->
<g id="edge10" class="edge">
<title>Node10&#45;&gt;Node11</title>
<path fill="none" stroke="midnightblue" d="M768.88,-164.88C747.86,-156.93 721.04,-145.51 699,-132 671.35,-115.05 643.15,-88.89 629.48,-75.51"/>
<polygon fill="midnightblue" stroke="midnightblue" points="767.79,-168.21 778.38,-168.4 770.22,-161.65 767.79,-168.21"/>
</g>
<!-- Node12 -->
<g id="node12" class="node">
<title>Node12</title>
<g id="a_node12"><a xlink:href="ipsec_8h.html" target="_top" xlink:title=" ">
<polygon fill="white" stroke="black" points="595.5,-0.5 595.5,-19.5 646.5,-19.5 646.5,-0.5 595.5,-0.5"/>
<text text-anchor="middle" x="621" y="-7.5" font-family="Helvetica,sans-Serif" font-size="10.00">ipsec.h</text>
</a>
</g>
</g>
<!-- Node11&#45;&gt;Node12 -->
<g id="edge11" class="edge">
<title>Node11&#45;&gt;Node12</title>
<path fill="none" stroke="midnightblue" d="M621,-45.8C621,-36.91 621,-26.78 621,-19.75"/>
<polygon fill="midnightblue" stroke="midnightblue" points="617.5,-46.08 621,-56.08 624.5,-46.08 617.5,-46.08"/>
</g>
<!-- Node14 -->
<g id="node14" class="node">
<title>Node14</title>
<g id="a_node14"><a xlink:href="dma__types_8h.html" target="_top" xlink:title=" ">
<polygon fill="white" stroke="black" points="498,-448.5 498,-467.5 578,-467.5 578,-448.5 498,-448.5"/>
<text text-anchor="middle" x="538" y="-455.5" font-family="Helvetica,sans-Serif" font-size="10.00">dma_types.h</text>
</a>
</g>
</g>
<!-- Node13&#45;&gt;Node14 -->
<g id="edge13" class="edge">
<title>Node13&#45;&gt;Node14</title>
<path fill="none" stroke="midnightblue" d="M572.92,-496.72C564.11,-487.2 553.33,-475.56 546.1,-467.75"/>
<polygon fill="midnightblue" stroke="midnightblue" points="570.38,-499.12 579.74,-504.08 575.52,-494.37 570.38,-499.12"/>
</g>
<!-- Node15 -->
<g id="node15" class="node">
<title>Node15</title>
<g id="a_node15"><a xlink:href="spec_2dma_8h.html" target="_top" xlink:title=" ">
<polygon fill="white" stroke="black" points="95.5,-280.5 95.5,-299.5 142.5,-299.5 142.5,-280.5 95.5,-280.5"/>
<text text-anchor="middle" x="119" y="-287.5" font-family="Helvetica,sans-Serif" font-size="10.00">dma.h</text>
</a>
</g>
</g>
<!-- Node14&#45;&gt;Node15 -->
<g id="edge14" class="edge">
<title>Node14&#45;&gt;Node15</title>
<path fill="none" stroke="midnightblue" d="M506.69,-444.6C425.47,-412.42 209.52,-326.86 140.52,-299.52"/>
<polygon fill="midnightblue" stroke="midnightblue" points="505.77,-448 516.36,-448.42 508.35,-441.49 505.77,-448"/>
</g>
<!-- Node17 -->
<g id="node17" class="node">
<title>Node17</title>
<g id="a_node17"><a xlink:href="spec_2pool__types_8h.html" target="_top" xlink:title=" ">
<polygon fill="white" stroke="black" points="498.5,-392.5 498.5,-411.5 577.5,-411.5 577.5,-392.5 498.5,-392.5"/>
<text text-anchor="middle" x="538" y="-399.5" font-family="Helvetica,sans-Serif" font-size="10.00">pool_types.h</text>
</a>
</g>
</g>
<!-- Node14&#45;&gt;Node17 -->
<g id="edge16" class="edge">
<title>Node14&#45;&gt;Node17</title>
<path fill="none" stroke="midnightblue" d="M538,-437.8C538,-428.91 538,-418.78 538,-411.75"/>
<polygon fill="midnightblue" stroke="midnightblue" points="534.5,-438.08 538,-448.08 541.5,-438.08 534.5,-438.08"/>
</g>
<!-- Node16 -->
<g id="node16" class="node">
<title>Node16</title>
<g id="a_node16"><a xlink:href="dma_8h.html" target="_top" xlink:title=" ">
<polygon fill="white" stroke="black" points="95.5,-224.5 95.5,-243.5 142.5,-243.5 142.5,-224.5 95.5,-224.5"/>
<text text-anchor="middle" x="119" y="-231.5" font-family="Helvetica,sans-Serif" font-size="10.00">dma.h</text>
</a>
</g>
</g>
<!-- Node15&#45;&gt;Node16 -->
<g id="edge15" class="edge">
<title>Node15&#45;&gt;Node16</title>
<path fill="none" stroke="midnightblue" d="M119,-269.8C119,-260.91 119,-250.78 119,-243.75"/>
<polygon fill="midnightblue" stroke="midnightblue" points="115.5,-270.08 119,-280.08 122.5,-270.08 115.5,-270.08"/>
</g>
<!-- Node18 -->
<g id="node18" class="node">
<title>Node18</title>
<g id="a_node18"><a xlink:href="pool__types_8h.html" target="_top" xlink:title=" ">
<polygon fill="white" stroke="black" points="498.5,-336.5 498.5,-355.5 577.5,-355.5 577.5,-336.5 498.5,-336.5"/>
<text text-anchor="middle" x="538" y="-343.5" font-family="Helvetica,sans-Serif" font-size="10.00">pool_types.h</text>
</a>
</g>
</g>
<!-- Node17&#45;&gt;Node18 -->
<g id="edge17" class="edge">
<title>Node17&#45;&gt;Node18</title>
<path fill="none" stroke="midnightblue" d="M538,-381.8C538,-372.91 538,-362.78 538,-355.75"/>
<polygon fill="midnightblue" stroke="midnightblue" points="534.5,-382.08 538,-392.08 541.5,-382.08 534.5,-382.08"/>
</g>
<!-- Node18&#45;&gt;Node2 -->
<g id="edge27" class="edge">
<title>Node18&#45;&gt;Node2</title>
<path fill="none" stroke="midnightblue" d="M488.15,-344.16C403.68,-341.82 237.01,-333.04 190,-300 158.94,-278.17 170.72,-256.44 151,-224 143.03,-210.89 132.53,-196.59 125.76,-187.71"/>
<polygon fill="midnightblue" stroke="midnightblue" points="488.19,-347.66 498.28,-344.41 488.37,-340.66 488.19,-347.66"/>
</g>
<!-- Node18&#45;&gt;Node9 -->
<g id="edge25" class="edge">
<title>Node18&#45;&gt;Node9</title>
<path fill="none" stroke="midnightblue" d="M587.93,-335.85C634.41,-327.18 705.56,-313.5 767,-300 769.84,-299.38 772.8,-298.7 775.75,-298.01"/>
<polygon fill="midnightblue" stroke="midnightblue" points="587.02,-332.46 577.83,-337.73 588.3,-339.34 587.02,-332.46"/>
</g>
<!-- Node18&#45;&gt;Node15 -->
<g id="edge26" class="edge">
<title>Node18&#45;&gt;Node15</title>
<path fill="none" stroke="midnightblue" d="M488.01,-340.94C414.93,-334.59 274.84,-320.84 157,-300 152.33,-299.17 147.37,-298.13 142.63,-297.04"/>
<polygon fill="midnightblue" stroke="midnightblue" points="488.03,-344.46 498.29,-341.83 488.63,-337.48 488.03,-344.46"/>
</g>
<!-- Node19 -->
<g id="node19" class="node">
<title>Node19</title>
<g id="a_node19"><a xlink:href="spec_2buffer_8h.html" target="_top" xlink:title=" ">
<polygon fill="white" stroke="black" points="410.5,-280.5 410.5,-299.5 463.5,-299.5 463.5,-280.5 410.5,-280.5"/>
<text text-anchor="middle" x="437" y="-287.5" font-family="Helvetica,sans-Serif" font-size="10.00">buffer.h</text>
</a>
</g>
</g>
<!-- Node18&#45;&gt;Node19 -->
<g id="edge18" class="edge">
<title>Node18&#45;&gt;Node19</title>
<path fill="none" stroke="midnightblue" d="M512.92,-331.59C494.24,-321.61 469.3,-308.27 453.19,-299.65"/>
<polygon fill="midnightblue" stroke="midnightblue" points="511.3,-334.7 521.77,-336.32 514.6,-328.52 511.3,-334.7"/>
</g>
<!-- Node21 -->
<g id="node21" class="node">
<title>Node21</title>
<g id="a_node21"><a xlink:href="spec_2classification_8h.html" target="_top" xlink:title=" ">
<polygon fill="white" stroke="black" points="669.5,-168.5 669.5,-187.5 758.5,-187.5 758.5,-168.5 669.5,-168.5"/>
<text text-anchor="middle" x="714" y="-175.5" font-family="Helvetica,sans-Serif" font-size="10.00">classification.h</text>
</a>
</g>
</g>
<!-- Node18&#45;&gt;Node21 -->
<g id="edge20" class="edge">
<title>Node18&#45;&gt;Node21</title>
<path fill="none" stroke="midnightblue" d="M561.32,-331.13C574.82,-322.72 591.88,-311.44 606,-300 633.6,-277.65 639.32,-270.47 663,-244 680.21,-224.76 698.43,-200.44 707.74,-187.7"/>
<polygon fill="midnightblue" stroke="midnightblue" points="559.32,-328.24 552.62,-336.45 562.98,-334.21 559.32,-328.24"/>
</g>
<!-- Node18&#45;&gt;Node25 -->
<g id="edge28" class="edge">
<title>Node18&#45;&gt;Node25</title>
<path fill="none" stroke="midnightblue" d="M574.39,-333.3C606.04,-323.13 651.17,-308.62 679.5,-299.52"/>
<polygon fill="midnightblue" stroke="midnightblue" points="573.07,-330.05 564.62,-336.44 575.21,-336.72 573.07,-330.05"/>
</g>
<!-- Node29 -->
<g id="node29" class="node">
<title>Node29</title>
<g id="a_node29"><a xlink:href="spec_2pool_8h.html" target="_top" xlink:title=" ">
<polygon fill="white" stroke="black" points="481.5,-280.5 481.5,-299.5 528.5,-299.5 528.5,-280.5 481.5,-280.5"/>
<text text-anchor="middle" x="505" y="-287.5" font-family="Helvetica,sans-Serif" font-size="10.00">pool.h</text>
</a>
</g>
</g>
<!-- Node18&#45;&gt;Node29 -->
<g id="edge37" class="edge">
<title>Node18&#45;&gt;Node29</title>
<path fill="none" stroke="midnightblue" d="M527.17,-327.27C521.53,-318.05 514.88,-307.17 510.35,-299.75"/>
<polygon fill="midnightblue" stroke="midnightblue" points="524.35,-329.38 532.55,-336.08 530.32,-325.73 524.35,-329.38"/>
</g>
<!-- Node31 -->
<g id="node31" class="node">
<title>Node31</title>
<g id="a_node31"><a xlink:href="spec_2timer_8h.html" target="_top" xlink:title=" ">
<polygon fill="white" stroke="black" points="546.5,-280.5 546.5,-299.5 597.5,-299.5 597.5,-280.5 546.5,-280.5"/>
<text text-anchor="middle" x="572" y="-287.5" font-family="Helvetica,sans-Serif" font-size="10.00">timer.h</text>
</a>
</g>
</g>
<!-- Node18&#45;&gt;Node31 -->
<g id="edge39" class="edge">
<title>Node18&#45;&gt;Node31</title>
<path fill="none" stroke="midnightblue" d="M548.98,-327.57C554.83,-318.27 561.77,-307.25 566.49,-299.75"/>
<polygon fill="midnightblue" stroke="midnightblue" points="545.98,-325.76 543.61,-336.08 551.9,-329.49 545.98,-325.76"/>
</g>
<!-- Node33 -->
<g id="node33" class="node">
<title>Node33</title>
<g id="a_node33"><a xlink:href="buffer__inlines_8h_source.html" target="_top" xlink:title=" ">
<polygon fill="white" stroke="black" points="199,-280.5 199,-299.5 291,-299.5 291,-280.5 199,-280.5"/>
<text text-anchor="middle" x="245" y="-287.5" font-family="Helvetica,sans-Serif" font-size="10.00">buffer_inlines.h</text>
</a>
</g>
</g>
<!-- Node18&#45;&gt;Node33 -->
<g id="edge41" class="edge">
<title>Node18&#45;&gt;Node33</title>
<path fill="none" stroke="midnightblue" d="M488.59,-335.89C433.44,-325.73 344.89,-309.41 291.11,-299.5"/>
<polygon fill="midnightblue" stroke="midnightblue" points="488.02,-339.35 498.48,-337.72 489.28,-332.46 488.02,-339.35"/>
</g>
<!-- Node18&#45;&gt;Node34 -->
<g id="edge42" class="edge">
<title>Node18&#45;&gt;Node34</title>
<path fill="none" stroke="midnightblue" d="M587.69,-337.76C647.73,-328.99 751.8,-313.67 841,-300 844.07,-299.53 847.23,-299.04 850.42,-298.55"/>
<polygon fill="midnightblue" stroke="midnightblue" points="587.11,-334.31 577.72,-339.22 588.12,-341.24 587.11,-334.31"/>
</g>
<!-- Node18&#45;&gt;Node35 -->
<g id="edge43" class="edge">
<title>Node18&#45;&gt;Node35</title>
<path fill="none" stroke="midnightblue" d="M587.74,-339.85C665.95,-331.71 822.42,-315.22 955,-300 957.7,-299.69 960.46,-299.37 963.24,-299.04"/>
<polygon fill="midnightblue" stroke="midnightblue" points="587.28,-336.38 577.69,-340.9 588,-343.34 587.28,-336.38"/>
</g>
<!-- Node36 -->
<g id="node36" class="node">
<title>Node36</title>
<g id="a_node36"><a xlink:href="pool__inlines_8h_source.html" target="_top" xlink:title=" ">
<polygon fill="white" stroke="black" points="309,-280.5 309,-299.5 393,-299.5 393,-280.5 309,-280.5"/>
<text text-anchor="middle" x="351" y="-287.5" font-family="Helvetica,sans-Serif" font-size="10.00">pool_inlines.h</text>
</a>
</g>
</g>
<!-- Node18&#45;&gt;Node36 -->
<g id="edge44" class="edge">
<title>Node18&#45;&gt;Node36</title>
<path fill="none" stroke="midnightblue" d="M498.41,-333.57C463.13,-323.38 412.31,-308.7 380.49,-299.52"/>
<polygon fill="midnightblue" stroke="midnightblue" points="497.79,-337.03 508.37,-336.44 499.73,-330.31 497.79,-337.03"/>
</g>
<!-- Node20 -->
<g id="node20" class="node">
<title>Node20</title>
<g id="a_node20"><a xlink:href="buffer_8h.html" target="_top" xlink:title=" ">
<polygon fill="white" stroke="black" points="344.5,-224.5 344.5,-243.5 397.5,-243.5 397.5,-224.5 344.5,-224.5"/>
<text text-anchor="middle" x="371" y="-231.5" font-family="Helvetica,sans-Serif" font-size="10.00">buffer.h</text>
</a>
</g>
</g>
<!-- Node19&#45;&gt;Node20 -->
<g id="edge19" class="edge">
<title>Node19&#45;&gt;Node20</title>
<path fill="none" stroke="midnightblue" d="M418.45,-273.82C406.62,-264.15 391.71,-251.95 381.8,-243.83"/>
<polygon fill="midnightblue" stroke="midnightblue" points="416.44,-276.7 426.4,-280.32 420.87,-271.28 416.44,-276.7"/>
</g>
<!-- Node22 -->
<g id="node22" class="node">
<title>Node22</title>
<g id="a_node22"><a xlink:href="classification_8h.html" target="_top" xlink:title=" ">
<polygon fill="white" stroke="black" points="707.5,-112.5 707.5,-131.5 796.5,-131.5 796.5,-112.5 707.5,-112.5"/>
<text text-anchor="middle" x="752" y="-119.5" font-family="Helvetica,sans-Serif" font-size="10.00">classification.h</text>
</a>
</g>
</g>
<!-- Node21&#45;&gt;Node22 -->
<g id="edge21" class="edge">
<title>Node21&#45;&gt;Node22</title>
<path fill="none" stroke="midnightblue" d="M726.06,-159.86C732.64,-150.5 740.51,-139.33 745.84,-131.75"/>
<polygon fill="midnightblue" stroke="midnightblue" points="723.17,-157.89 720.27,-168.08 728.89,-161.92 723.17,-157.89"/>
</g>
<!-- Node22&#45;&gt;Node11 -->
<g id="edge22" class="edge">
<title>Node22&#45;&gt;Node11</title>
<path fill="none" stroke="midnightblue" d="M721.68,-108.5C697.12,-98.38 663.18,-84.39 641.66,-75.52"/>
<polygon fill="midnightblue" stroke="midnightblue" points="720.66,-111.87 731.24,-112.44 723.33,-105.4 720.66,-111.87"/>
</g>
<!-- Node22&#45;&gt;Node23 -->
<g id="edge23" class="edge">
<title>Node22&#45;&gt;Node23</title>
<path fill="none" stroke="midnightblue" d="M752,-101.8C752,-92.91 752,-82.78 752,-75.75"/>
<polygon fill="midnightblue" stroke="midnightblue" points="748.5,-102.08 752,-112.08 755.5,-102.08 748.5,-102.08"/>
</g>
<!-- Node24 -->
<g id="node24" class="node">
<title>Node24</title>
<g id="a_node24"><a xlink:href="packet__io_8h.html" target="_top" xlink:title=" ">
<polygon fill="white" stroke="black" points="716,-0.5 716,-19.5 788,-19.5 788,-0.5 716,-0.5"/>
<text text-anchor="middle" x="752" y="-7.5" font-family="Helvetica,sans-Serif" font-size="10.00">packet_io.h</text>
</a>
</g>
</g>
<!-- Node23&#45;&gt;Node24 -->
<g id="edge24" class="edge">
<title>Node23&#45;&gt;Node24</title>
<path fill="none" stroke="midnightblue" d="M752,-45.8C752,-36.91 752,-26.78 752,-19.75"/>
<polygon fill="midnightblue" stroke="midnightblue" points="748.5,-46.08 752,-56.08 755.5,-46.08 748.5,-46.08"/>
</g>
<!-- Node26 -->
<g id="node26" class="node">
<title>Node26</title>
<g id="a_node26"><a xlink:href="packet__io__types_8h.html" target="_top" xlink:title=" ">
<polygon fill="white" stroke="black" points="550,-224.5 550,-243.5 654,-243.5 654,-224.5 550,-224.5"/>
<text text-anchor="middle" x="602" y="-231.5" font-family="Helvetica,sans-Serif" font-size="10.00">packet_io_types.h</text>
</a>
</g>
</g>
<!-- Node25&#45;&gt;Node26 -->
<g id="edge29" class="edge">
<title>Node25&#45;&gt;Node26</title>
<path fill="none" stroke="midnightblue" d="M680.17,-275.59C660.94,-265.61 635.26,-252.27 618.67,-243.65"/>
<polygon fill="midnightblue" stroke="midnightblue" points="678.8,-278.82 689.29,-280.32 682.03,-272.61 678.8,-278.82"/>
</g>
<!-- Node26&#45;&gt;Node2 -->
<g id="edge32" class="edge">
<title>Node26&#45;&gt;Node2</title>
<path fill="none" stroke="midnightblue" d="M540.3,-224.04C540.2,-224.03 540.1,-224.01 540,-224 393.05,-205.49 216.6,-188.24 148.14,-181.73"/>
<polygon fill="midnightblue" stroke="midnightblue" points="539.55,-227.47 549.92,-225.3 540.46,-220.53 539.55,-227.47"/>
</g>
<!-- Node26&#45;&gt;Node11 -->
<g id="edge31" class="edge">
<title>Node26&#45;&gt;Node11</title>
<path fill="none" stroke="midnightblue" d="M560.63,-220.5C545.07,-213.55 528.97,-203.16 520,-188 502.79,-158.93 501.61,-140.33 520,-112 536.52,-86.56 571.12,-75.38 595.19,-70.55"/>
<polygon fill="midnightblue" stroke="midnightblue" points="559.61,-223.86 570.19,-224.38 562.25,-217.37 559.61,-223.86"/>
</g>
<!-- Node26&#45;&gt;Node21 -->
<g id="edge30" class="edge">
<title>Node26&#45;&gt;Node21</title>
<path fill="none" stroke="midnightblue" d="M629.25,-219.86C650.02,-209.85 678.02,-196.35 696.05,-187.65"/>
<polygon fill="midnightblue" stroke="midnightblue" points="627.48,-216.83 619.99,-224.32 630.52,-223.13 627.48,-216.83"/>
</g>
<!-- Node26&#45;&gt;Node23 -->
<g id="edge33" class="edge">
<title>Node26&#45;&gt;Node23</title>
<path fill="none" stroke="midnightblue" d="M613.9,-216.17C631.32,-192 665.38,-146.58 699,-112 712.29,-98.33 729.37,-84.39 740.49,-75.72"/>
<polygon fill="midnightblue" stroke="midnightblue" points="611.03,-214.15 608.07,-224.32 616.73,-218.23 611.03,-214.15"/>
</g>
<!-- Node27 -->
<g id="node27" class="node">
<title>Node27</title>
<g id="a_node27"><a xlink:href="spec_2traffic__mngr_8h.html" target="_top" xlink:title=" ">
<polygon fill="white" stroke="black" points="529,-168.5 529,-187.5 613,-187.5 613,-168.5 529,-168.5"/>
<text text-anchor="middle" x="571" y="-175.5" font-family="Helvetica,sans-Serif" font-size="10.00">traffic_mngr.h</text>
</a>
</g>
</g>
<!-- Node26&#45;&gt;Node27 -->
<g id="edge34" class="edge">
<title>Node26&#45;&gt;Node27</title>
<path fill="none" stroke="midnightblue" d="M591.82,-215.27C586.53,-206.05 580.28,-195.17 576.02,-187.75"/>
<polygon fill="midnightblue" stroke="midnightblue" points="588.87,-217.15 596.88,-224.08 594.94,-213.67 588.87,-217.15"/>
</g>
<!-- Node28 -->
<g id="node28" class="node">
<title>Node28</title>
<g id="a_node28"><a xlink:href="traffic__mngr_8h.html" target="_top" xlink:title=" ">
<polygon fill="white" stroke="black" points="529,-112.5 529,-131.5 613,-131.5 613,-112.5 529,-112.5"/>
<text text-anchor="middle" x="571" y="-119.5" font-family="Helvetica,sans-Serif" font-size="10.00">traffic_mngr.h</text>
</a>
</g>
</g>
<!-- Node27&#45;&gt;Node28 -->
<g id="edge35" class="edge">
<title>Node27&#45;&gt;Node28</title>
<path fill="none" stroke="midnightblue" d="M571,-157.8C571,-148.91 571,-138.78 571,-131.75"/>
<polygon fill="midnightblue" stroke="midnightblue" points="567.5,-158.08 571,-168.08 574.5,-158.08 567.5,-158.08"/>
</g>
<!-- Node28&#45;&gt;Node11 -->
<g id="edge36" class="edge">
<title>Node28&#45;&gt;Node11</title>
<path fill="none" stroke="midnightblue" d="M586.08,-104.72C594.89,-95.2 605.67,-83.56 612.9,-75.75"/>
<polygon fill="midnightblue" stroke="midnightblue" points="583.48,-102.37 579.26,-112.08 588.62,-107.12 583.48,-102.37"/>
</g>
<!-- Node30 -->
<g id="node30" class="node">
<title>Node30</title>
<g id="a_node30"><a xlink:href="pool_8h.html" target="_top" xlink:title=" ">
<polygon fill="white" stroke="black" points="415.5,-224.5 415.5,-243.5 462.5,-243.5 462.5,-224.5 415.5,-224.5"/>
<text text-anchor="middle" x="439" y="-231.5" font-family="Helvetica,sans-Serif" font-size="10.00">pool.h</text>
</a>
</g>
</g>
<!-- Node29&#45;&gt;Node30 -->
<g id="edge38" class="edge">
<title>Node29&#45;&gt;Node30</title>
<path fill="none" stroke="midnightblue" d="M486.45,-273.82C474.62,-264.15 459.71,-251.95 449.8,-243.83"/>
<polygon fill="midnightblue" stroke="midnightblue" points="484.44,-276.7 494.4,-280.32 488.87,-271.28 484.44,-276.7"/>
</g>
<!-- Node32 -->
<g id="node32" class="node">
<title>Node32</title>
<g id="a_node32"><a xlink:href="timer_8h.html" target="_top" xlink:title=" ">
<polygon fill="white" stroke="black" points="480.5,-224.5 480.5,-243.5 531.5,-243.5 531.5,-224.5 480.5,-224.5"/>
<text text-anchor="middle" x="506" y="-231.5" font-family="Helvetica,sans-Serif" font-size="10.00">timer.h</text>
</a>
</g>
</g>
<!-- Node31&#45;&gt;Node32 -->
<g id="edge40" class="edge">
<title>Node31&#45;&gt;Node32</title>
<path fill="none" stroke="midnightblue" d="M553.45,-273.82C541.62,-264.15 526.71,-251.95 516.8,-243.83"/>
<polygon fill="midnightblue" stroke="midnightblue" points="551.44,-276.7 561.4,-280.32 555.87,-271.28 551.44,-276.7"/>
</g>
<!-- Node38 -->
<g id="node38" class="node">
<title>Node38</title>
<g id="a_node38"><a xlink:href="event_8h.html" target="_top" xlink:title=" ">
<polygon fill="white" stroke="black" points="810.5,-448.5 810.5,-467.5 863.5,-467.5 863.5,-448.5 810.5,-448.5"/>
<text text-anchor="middle" x="837" y="-455.5" font-family="Helvetica,sans-Serif" font-size="10.00">event.h</text>
</a>
</g>
</g>
<!-- Node37&#45;&gt;Node38 -->
<g id="edge46" class="edge">
<title>Node37&#45;&gt;Node38</title>
<path fill="none" stroke="midnightblue" d="M837,-493.8C837,-484.91 837,-474.78 837,-467.75"/>
<polygon fill="midnightblue" stroke="midnightblue" points="833.5,-494.08 837,-504.08 840.5,-494.08 833.5,-494.08"/>
</g>
<!-- Node39 -->
<g id="node39" class="node">
<title>Node39</title>
<g id="a_node39"><a xlink:href="timer__inlines_8h_source.html" target="_top" xlink:title=" ">
<polygon fill="white" stroke="black" points="810.5,-392.5 810.5,-411.5 899.5,-411.5 899.5,-392.5 810.5,-392.5"/>
<text text-anchor="middle" x="855" y="-399.5" font-family="Helvetica,sans-Serif" font-size="10.00">timer_inlines.h</text>
</a>
</g>
</g>
<!-- Node38&#45;&gt;Node39 -->
<g id="edge47" class="edge">
<title>Node38&#45;&gt;Node39</title>
<path fill="none" stroke="midnightblue" d="M843.2,-438.4C846.21,-429.36 849.69,-418.94 852.08,-411.75"/>
<polygon fill="midnightblue" stroke="midnightblue" points="839.81,-437.49 839.97,-448.08 846.46,-439.7 839.81,-437.49"/>
</g>
<!-- Node41 -->
<g id="node41" class="node">
<title>Node41</title>
<g id="a_node41"><a xlink:href="packet__flags_8h.html" target="_top" xlink:title=" ">
<polygon fill="white" stroke="black" points="882,-448.5 882,-467.5 968,-467.5 968,-448.5 882,-448.5"/>
<text text-anchor="middle" x="925" y="-455.5" font-family="Helvetica,sans-Serif" font-size="10.00">packet_flags.h</text>
</a>
</g>
</g>
<!-- Node40&#45;&gt;Node41 -->
<g id="edge50" class="edge">
<title>Node40&#45;&gt;Node41</title>
<path fill="none" stroke="midnightblue" d="M925,-493.8C925,-484.91 925,-474.78 925,-467.75"/>
<polygon fill="midnightblue" stroke="midnightblue" points="921.5,-494.08 925,-504.08 928.5,-494.08 921.5,-494.08"/>
</g>
<!-- Node43 -->
<g id="node43" class="node">
<title>Node43</title>
<g id="a_node43"><a xlink:href="proto__stats_8h.html" target="_top" xlink:title=" ">
<polygon fill="white" stroke="black" points="807,-560.5 807,-579.5 887,-579.5 887,-560.5 807,-560.5"/>
<text text-anchor="middle" x="847" y="-567.5" font-family="Helvetica,sans-Serif" font-size="10.00">proto_stats.h</text>
</a>
</g>
</g>
<!-- Node42&#45;&gt;Node43 -->
<g id="edge56" class="edge">
<title>Node42&#45;&gt;Node43</title>
<path fill="none" stroke="midnightblue" d="M847,-605.8C847,-596.91 847,-586.78 847,-579.75"/>
<polygon fill="midnightblue" stroke="midnightblue" points="843.5,-606.08 847,-616.08 850.5,-606.08 843.5,-606.08"/>
</g>
</g>
</svg>
