<?xml version="1.0" encoding="UTF-8" standalone="no"?>
<!DOCTYPE svg PUBLIC "-//W3C//DTD SVG 1.1//EN"
 "http://www.w3.org/Graphics/SVG/1.1/DTD/svg11.dtd">
<!-- Generated by graphviz version 2.43.0 (0)
 -->
<!-- Title: schedule_types.h Pages: 1 -->
<svg width="1310pt" height="812pt"
 viewBox="0.00 0.00 1309.50 812.00" xmlns="http://www.w3.org/2000/svg" xmlns:xlink="http://www.w3.org/1999/xlink">
<g id="graph0" class="graph" transform="scale(1 1) rotate(0) translate(4 808)">
<title>schedule_types.h</title>
<polygon fill="white" stroke="transparent" points="-4,4 -4,-808 1305.5,-808 1305.5,4 -4,4"/>
<!-- Node1 -->
<g id="node1" class="node">
<title>Node1</title>
<g id="a_node1"><a xlink:title=" ">
<polygon fill="#bfbfbf" stroke="black" points="1047.5,-784.5 1047.5,-803.5 1148.5,-803.5 1148.5,-784.5 1047.5,-784.5"/>
<text text-anchor="middle" x="1098" y="-791.5" font-family="Helvetica,sans-Serif" font-size="10.00">schedule_types.h</text>
</a>
</g>
</g>
<!-- Node2 -->
<g id="node2" class="node">
<title>Node2</title>
<g id="a_node2"><a xlink:href="spec_2queue__types_8h.html" target="_top" xlink:title=" ">
<polygon fill="white" stroke="black" points="1018,-728.5 1018,-747.5 1106,-747.5 1106,-728.5 1018,-728.5"/>
<text text-anchor="middle" x="1062" y="-735.5" font-family="Helvetica,sans-Serif" font-size="10.00">queue_types.h</text>
</a>
</g>
</g>
<!-- Node1&#45;&gt;Node2 -->
<g id="edge1" class="edge">
<title>Node1&#45;&gt;Node2</title>
<path fill="none" stroke="midnightblue" d="M1086.38,-775.57C1080.18,-766.27 1072.83,-755.25 1067.83,-747.75"/>
<polygon fill="midnightblue" stroke="midnightblue" points="1083.6,-777.7 1092.06,-784.08 1089.42,-773.82 1083.6,-777.7"/>
</g>
<!-- Node48 -->
<g id="node47" class="node">
<title>Node48</title>
<g id="a_node47"><a xlink:href="spec_2schedule_8h.html" target="_top" xlink:title=" ">
<polygon fill="white" stroke="black" points="1227.5,-616.5 1227.5,-635.5 1296.5,-635.5 1296.5,-616.5 1227.5,-616.5"/>
<text text-anchor="middle" x="1262" y="-623.5" font-family="Helvetica,sans-Serif" font-size="10.00">schedule.h</text>
</a>
</g>
</g>
<!-- Node1&#45;&gt;Node48 -->
<g id="edge70" class="edge">
<title>Node1&#45;&gt;Node48</title>
<path fill="none" stroke="midnightblue" d="M1114.15,-776.65C1148.45,-741.94 1227.52,-661.9 1253.54,-635.57"/>
<polygon fill="midnightblue" stroke="midnightblue" points="1111.36,-774.5 1106.82,-784.08 1116.34,-779.42 1111.36,-774.5"/>
</g>
<!-- Node3 -->
<g id="node3" class="node">
<title>Node3</title>
<g id="a_node3"><a xlink:href="queue__types_8h.html" target="_top" xlink:title=" ">
<polygon fill="white" stroke="black" points="865,-672.5 865,-691.5 953,-691.5 953,-672.5 865,-672.5"/>
<text text-anchor="middle" x="909" y="-679.5" font-family="Helvetica,sans-Serif" font-size="10.00">queue_types.h</text>
</a>
</g>
</g>
<!-- Node2&#45;&gt;Node3 -->
<g id="edge2" class="edge">
<title>Node2&#45;&gt;Node3</title>
<path fill="none" stroke="midnightblue" d="M1028.11,-725.04C999.32,-714.88 958.71,-700.55 933.13,-691.52"/>
<polygon fill="midnightblue" stroke="midnightblue" points="1027.16,-728.42 1037.76,-728.44 1029.49,-721.81 1027.16,-728.42"/>
</g>
<!-- Node4 -->
<g id="node4" class="node">
<title>Node4</title>
<g id="a_node4"><a xlink:href="spec_2comp_8h.html" target="_top" xlink:title=" ">
<polygon fill="white" stroke="black" points="1117.5,-504.5 1117.5,-523.5 1170.5,-523.5 1170.5,-504.5 1117.5,-504.5"/>
<text text-anchor="middle" x="1144" y="-511.5" font-family="Helvetica,sans-Serif" font-size="10.00">comp.h</text>
</a>
</g>
</g>
<!-- Node3&#45;&gt;Node4 -->
<g id="edge3" class="edge">
<title>Node3&#45;&gt;Node4</title>
<path fill="none" stroke="midnightblue" d="M963.14,-674.97C995.25,-669.19 1035.34,-657.92 1065,-636 1106.56,-605.28 1132.39,-545.65 1140.89,-523.53"/>
<polygon fill="midnightblue" stroke="midnightblue" points="962.3,-671.56 953.02,-676.66 963.46,-678.47 962.3,-671.56"/>
</g>
<!-- Node6 -->
<g id="node6" class="node">
<title>Node6</title>
<g id="a_node6"><a xlink:href="spec_2dma__types_8h.html" target="_top" xlink:title=" ">
<polygon fill="white" stroke="black" points="471,-504.5 471,-523.5 551,-523.5 551,-504.5 471,-504.5"/>
<text text-anchor="middle" x="511" y="-511.5" font-family="Helvetica,sans-Serif" font-size="10.00">dma_types.h</text>
</a>
</g>
</g>
<!-- Node3&#45;&gt;Node6 -->
<g id="edge5" class="edge">
<title>Node3&#45;&gt;Node6</title>
<path fill="none" stroke="midnightblue" d="M854.81,-680.38C813.13,-677.26 756.21,-666.98 717,-636 687.37,-612.59 708.26,-583.88 679,-560 659.52,-544.11 594.32,-529.85 551.1,-521.83"/>
<polygon fill="midnightblue" stroke="midnightblue" points="854.59,-683.87 864.79,-681.01 855.03,-676.88 854.59,-683.87"/>
</g>
<!-- Node18 -->
<g id="node18" class="node">
<title>Node18</title>
<g id="a_node18"><a xlink:href="spec_2packet__io_8h.html" target="_top" xlink:title=" ">
<polygon fill="white" stroke="black" points="418,-56.5 418,-75.5 490,-75.5 490,-56.5 418,-56.5"/>
<text text-anchor="middle" x="454" y="-63.5" font-family="Helvetica,sans-Serif" font-size="10.00">packet_io.h</text>
</a>
</g>
</g>
<!-- Node3&#45;&gt;Node18 -->
<g id="edge42" class="edge">
<title>Node3&#45;&gt;Node18</title>
<path fill="none" stroke="midnightblue" d="M962.92,-671.92C1046.8,-656.25 1199,-620.93 1199,-571 1199,-571 1199,-571 1199,-177 1199,-104.48 639.38,-75.04 490.18,-68.48"/>
<polygon fill="midnightblue" stroke="midnightblue" points="962.25,-668.49 953.04,-673.73 963.51,-675.37 962.25,-668.49"/>
</g>
<!-- Node25 -->
<g id="node25" class="node">
<title>Node25</title>
<g id="a_node25"><a xlink:href="spec_2packet__io__types_8h.html" target="_top" xlink:title=" ">
<polygon fill="white" stroke="black" points="0,-280.5 0,-299.5 104,-299.5 104,-280.5 0,-280.5"/>
<text text-anchor="middle" x="52" y="-287.5" font-family="Helvetica,sans-Serif" font-size="10.00">packet_io_types.h</text>
</a>
</g>
</g>
<!-- Node3&#45;&gt;Node25 -->
<g id="edge47" class="edge">
<title>Node3&#45;&gt;Node25</title>
<path fill="none" stroke="midnightblue" d="M854.49,-679.76C665.81,-674.76 52,-652.25 52,-571 52,-571 52,-571 52,-401 52,-363.19 52,-318.06 52,-299.56"/>
<polygon fill="midnightblue" stroke="midnightblue" points="854.64,-683.27 864.73,-680.03 854.82,-676.27 854.64,-683.27"/>
</g>
<!-- Node31 -->
<g id="node30" class="node">
<title>Node31</title>
<g id="a_node30"><a xlink:href="spec_2timer_8h.html" target="_top" xlink:title=" ">
<polygon fill="white" stroke="black" points="1025.5,-280.5 1025.5,-299.5 1076.5,-299.5 1076.5,-280.5 1025.5,-280.5"/>
<text text-anchor="middle" x="1051" y="-287.5" font-family="Helvetica,sans-Serif" font-size="10.00">timer.h</text>
</a>
</g>
</g>
<!-- Node3&#45;&gt;Node31 -->
<g id="edge67" class="edge">
<title>Node3&#45;&gt;Node31</title>
<path fill="none" stroke="midnightblue" d="M948.91,-669.11C990.91,-653.85 1051,-622.93 1051,-571 1051,-571 1051,-571 1051,-401 1051,-363.19 1051,-318.06 1051,-299.56"/>
<polygon fill="midnightblue" stroke="midnightblue" points="947.76,-665.81 939.46,-672.4 950.06,-672.42 947.76,-665.81"/>
</g>
<!-- Node37 -->
<g id="node36" class="node">
<title>Node37</title>
<g id="a_node36"><a xlink:href="spec_2packet__io__stats_8h.html" target="_top" xlink:title=" ">
<polygon fill="white" stroke="black" points="80.5,-392.5 80.5,-411.5 181.5,-411.5 181.5,-392.5 80.5,-392.5"/>
<text text-anchor="middle" x="131" y="-399.5" font-family="Helvetica,sans-Serif" font-size="10.00">packet_io_stats.h</text>
</a>
</g>
</g>
<!-- Node3&#45;&gt;Node37 -->
<g id="edge43" class="edge">
<title>Node3&#45;&gt;Node37</title>
<path fill="none" stroke="midnightblue" d="M854.57,-678.83C681,-671.18 152,-642.05 152,-571 152,-571 152,-571 152,-513 152,-474.7 139.56,-430.21 133.83,-411.73"/>
<polygon fill="midnightblue" stroke="midnightblue" points="854.61,-682.33 864.75,-679.27 854.91,-675.34 854.61,-682.33"/>
</g>
<!-- Node39 -->
<g id="node38" class="node">
<title>Node39</title>
<g id="a_node38"><a xlink:href="spec_2packet__types_8h.html" target="_top" xlink:title=" ">
<polygon fill="white" stroke="black" points="864,-616.5 864,-635.5 954,-635.5 954,-616.5 864,-616.5"/>
<text text-anchor="middle" x="909" y="-623.5" font-family="Helvetica,sans-Serif" font-size="10.00">packet_types.h</text>
</a>
</g>
</g>
<!-- Node3&#45;&gt;Node39 -->
<g id="edge48" class="edge">
<title>Node3&#45;&gt;Node39</title>
<path fill="none" stroke="midnightblue" d="M909,-661.8C909,-652.91 909,-642.78 909,-635.75"/>
<polygon fill="midnightblue" stroke="midnightblue" points="905.5,-662.08 909,-672.08 912.5,-662.08 905.5,-662.08"/>
</g>
<!-- Node46 -->
<g id="node45" class="node">
<title>Node46</title>
<g id="a_node45"><a xlink:href="spec_2queue_8h.html" target="_top" xlink:title=" ">
<polygon fill="white" stroke="black" points="614,-616.5 614,-635.5 670,-635.5 670,-616.5 614,-616.5"/>
<text text-anchor="middle" x="642" y="-623.5" font-family="Helvetica,sans-Serif" font-size="10.00">queue.h</text>
</a>
</g>
</g>
<!-- Node3&#45;&gt;Node46 -->
<g id="edge63" class="edge">
<title>Node3&#45;&gt;Node46</title>
<path fill="none" stroke="midnightblue" d="M855.45,-670.5C809.83,-661.51 742.57,-648.13 684,-636 679.47,-635.06 674.67,-634.05 670,-633.06"/>
<polygon fill="midnightblue" stroke="midnightblue" points="854.92,-673.97 865.41,-672.47 856.27,-667.1 854.92,-673.97"/>
</g>
<!-- Node3&#45;&gt;Node48 -->
<g id="edge65" class="edge">
<title>Node3&#45;&gt;Node48</title>
<path fill="none" stroke="midnightblue" d="M963.27,-673.55C1024.15,-665.05 1125.8,-650.46 1213,-636 1217.69,-635.22 1222.63,-634.36 1227.49,-633.49"/>
<polygon fill="midnightblue" stroke="midnightblue" points="962.55,-670.11 953.13,-674.96 963.51,-677.05 962.55,-670.11"/>
</g>
<!-- Node50 -->
<g id="node49" class="node">
<title>Node50</title>
<g id="a_node49"><a xlink:href="queue__inline__types_8h_source.html" target="_top" xlink:title=" ">
<polygon fill="white" stroke="black" points="726,-616.5 726,-635.5 846,-635.5 846,-616.5 726,-616.5"/>
<text text-anchor="middle" x="786" y="-623.5" font-family="Helvetica,sans-Serif" font-size="10.00">queue_inline_types.h</text>
</a>
</g>
</g>
<!-- Node3&#45;&gt;Node50 -->
<g id="edge68" class="edge">
<title>Node3&#45;&gt;Node50</title>
<path fill="none" stroke="midnightblue" d="M880.23,-668.37C857.19,-658.26 825.52,-644.35 805.4,-635.52"/>
<polygon fill="midnightblue" stroke="midnightblue" points="878.95,-671.63 889.51,-672.44 881.76,-665.22 878.95,-671.63"/>
</g>
<!-- Node5 -->
<g id="node5" class="node">
<title>Node5</title>
<g id="a_node5"><a xlink:href="comp_8h.html" target="_top" xlink:title=" ">
<polygon fill="white" stroke="black" points="1117.5,-448.5 1117.5,-467.5 1170.5,-467.5 1170.5,-448.5 1117.5,-448.5"/>
<text text-anchor="middle" x="1144" y="-455.5" font-family="Helvetica,sans-Serif" font-size="10.00">comp.h</text>
</a>
</g>
</g>
<!-- Node4&#45;&gt;Node5 -->
<g id="edge4" class="edge">
<title>Node4&#45;&gt;Node5</title>
<path fill="none" stroke="midnightblue" d="M1144,-493.8C1144,-484.91 1144,-474.78 1144,-467.75"/>
<polygon fill="midnightblue" stroke="midnightblue" points="1140.5,-494.08 1144,-504.08 1147.5,-494.08 1140.5,-494.08"/>
</g>
<!-- Node7 -->
<g id="node7" class="node">
<title>Node7</title>
<g id="a_node7"><a xlink:href="dma__types_8h.html" target="_top" xlink:title=" ">
<polygon fill="white" stroke="black" points="539,-448.5 539,-467.5 619,-467.5 619,-448.5 539,-448.5"/>
<text text-anchor="middle" x="579" y="-455.5" font-family="Helvetica,sans-Serif" font-size="10.00">dma_types.h</text>
</a>
</g>
</g>
<!-- Node6&#45;&gt;Node7 -->
<g id="edge6" class="edge">
<title>Node6&#45;&gt;Node7</title>
<path fill="none" stroke="midnightblue" d="M529.76,-498.1C542,-488.38 557.56,-476.03 567.88,-467.83"/>
<polygon fill="midnightblue" stroke="midnightblue" points="527.58,-495.36 521.93,-504.32 531.93,-500.85 527.58,-495.36"/>
</g>
<!-- Node8 -->
<g id="node8" class="node">
<title>Node8</title>
<g id="a_node8"><a xlink:href="spec_2dma_8h.html" target="_top" xlink:title=" ">
<polygon fill="white" stroke="black" points="620.5,-280.5 620.5,-299.5 667.5,-299.5 667.5,-280.5 620.5,-280.5"/>
<text text-anchor="middle" x="644" y="-287.5" font-family="Helvetica,sans-Serif" font-size="10.00">dma.h</text>
</a>
</g>
</g>
<!-- Node7&#45;&gt;Node8 -->
<g id="edge7" class="edge">
<title>Node7&#45;&gt;Node8</title>
<path fill="none" stroke="midnightblue" d="M600.5,-442.21C610.19,-434.38 620.82,-423.92 627,-412 646.73,-373.96 645.91,-320.62 644.68,-299.8"/>
<polygon fill="midnightblue" stroke="midnightblue" points="598.22,-439.55 592.37,-448.38 602.45,-445.13 598.22,-439.55"/>
</g>
<!-- Node10 -->
<g id="node10" class="node">
<title>Node10</title>
<g id="a_node10"><a xlink:href="spec_2pool__types_8h.html" target="_top" xlink:title=" ">
<polygon fill="white" stroke="black" points="539.5,-392.5 539.5,-411.5 618.5,-411.5 618.5,-392.5 539.5,-392.5"/>
<text text-anchor="middle" x="579" y="-399.5" font-family="Helvetica,sans-Serif" font-size="10.00">pool_types.h</text>
</a>
</g>
</g>
<!-- Node7&#45;&gt;Node10 -->
<g id="edge9" class="edge">
<title>Node7&#45;&gt;Node10</title>
<path fill="none" stroke="midnightblue" d="M579,-437.8C579,-428.91 579,-418.78 579,-411.75"/>
<polygon fill="midnightblue" stroke="midnightblue" points="575.5,-438.08 579,-448.08 582.5,-438.08 575.5,-438.08"/>
</g>
<!-- Node9 -->
<g id="node9" class="node">
<title>Node9</title>
<g id="a_node9"><a xlink:href="dma_8h.html" target="_top" xlink:title=" ">
<polygon fill="white" stroke="black" points="620.5,-224.5 620.5,-243.5 667.5,-243.5 667.5,-224.5 620.5,-224.5"/>
<text text-anchor="middle" x="644" y="-231.5" font-family="Helvetica,sans-Serif" font-size="10.00">dma.h</text>
</a>
</g>
</g>
<!-- Node8&#45;&gt;Node9 -->
<g id="edge8" class="edge">
<title>Node8&#45;&gt;Node9</title>
<path fill="none" stroke="midnightblue" d="M644,-269.8C644,-260.91 644,-250.78 644,-243.75"/>
<polygon fill="midnightblue" stroke="midnightblue" points="640.5,-270.08 644,-280.08 647.5,-270.08 640.5,-270.08"/>
</g>
<!-- Node11 -->
<g id="node11" class="node">
<title>Node11</title>
<g id="a_node11"><a xlink:href="pool__types_8h.html" target="_top" xlink:title=" ">
<polygon fill="white" stroke="black" points="539.5,-336.5 539.5,-355.5 618.5,-355.5 618.5,-336.5 539.5,-336.5"/>
<text text-anchor="middle" x="579" y="-343.5" font-family="Helvetica,sans-Serif" font-size="10.00">pool_types.h</text>
</a>
</g>
</g>
<!-- Node10&#45;&gt;Node11 -->
<g id="edge10" class="edge">
<title>Node10&#45;&gt;Node11</title>
<path fill="none" stroke="midnightblue" d="M579,-381.8C579,-372.91 579,-362.78 579,-355.75"/>
<polygon fill="midnightblue" stroke="midnightblue" points="575.5,-382.08 579,-392.08 582.5,-382.08 575.5,-382.08"/>
</g>
<!-- Node11&#45;&gt;Node8 -->
<g id="edge22" class="edge">
<title>Node11&#45;&gt;Node8</title>
<path fill="none" stroke="midnightblue" d="M597.27,-329.82C608.92,-320.15 623.6,-307.95 633.37,-299.83"/>
<polygon fill="midnightblue" stroke="midnightblue" points="594.9,-327.24 589.44,-336.32 599.37,-332.63 594.9,-327.24"/>
</g>
<!-- Node12 -->
<g id="node12" class="node">
<title>Node12</title>
<g id="a_node12"><a xlink:href="spec_2buffer_8h.html" target="_top" xlink:title=" ">
<polygon fill="white" stroke="black" points="484.5,-280.5 484.5,-299.5 537.5,-299.5 537.5,-280.5 484.5,-280.5"/>
<text text-anchor="middle" x="511" y="-287.5" font-family="Helvetica,sans-Serif" font-size="10.00">buffer.h</text>
</a>
</g>
</g>
<!-- Node11&#45;&gt;Node12 -->
<g id="edge11" class="edge">
<title>Node11&#45;&gt;Node12</title>
<path fill="none" stroke="midnightblue" d="M560.24,-330.1C548,-320.38 532.44,-308.03 522.12,-299.83"/>
<polygon fill="midnightblue" stroke="midnightblue" points="558.07,-332.85 568.07,-336.32 562.42,-327.36 558.07,-332.85"/>
</g>
<!-- Node14 -->
<g id="node14" class="node">
<title>Node14</title>
<g id="a_node14"><a xlink:href="spec_2classification_8h.html" target="_top" xlink:title=" ">
<polygon fill="white" stroke="black" points="298.5,-168.5 298.5,-187.5 387.5,-187.5 387.5,-168.5 298.5,-168.5"/>
<text text-anchor="middle" x="343" y="-175.5" font-family="Helvetica,sans-Serif" font-size="10.00">classification.h</text>
</a>
</g>
</g>
<!-- Node11&#45;&gt;Node14 -->
<g id="edge13" class="edge">
<title>Node11&#45;&gt;Node14</title>
<path fill="none" stroke="midnightblue" d="M543.15,-332.89C522.39,-325.06 496.23,-313.77 475,-300 421.78,-265.5 369.56,-209.15 350.54,-187.68"/>
<polygon fill="midnightblue" stroke="midnightblue" points="541.98,-336.19 552.57,-336.34 544.39,-329.61 541.98,-336.19"/>
</g>
<!-- Node20 -->
<g id="node20" class="node">
<title>Node20</title>
<g id="a_node20"><a xlink:href="spec_2crypto_8h.html" target="_top" xlink:title=" ">
<polygon fill="white" stroke="black" points="160,-280.5 160,-299.5 216,-299.5 216,-280.5 160,-280.5"/>
<text text-anchor="middle" x="188" y="-287.5" font-family="Helvetica,sans-Serif" font-size="10.00">crypto.h</text>
</a>
</g>
</g>
<!-- Node11&#45;&gt;Node20 -->
<g id="edge19" class="edge">
<title>Node11&#45;&gt;Node20</title>
<path fill="none" stroke="midnightblue" d="M528.93,-336.57C527.61,-336.38 526.3,-336.19 525,-336 392.07,-316.96 357.14,-323.91 225,-300 222.14,-299.48 219.17,-298.88 216.21,-298.23"/>
<polygon fill="midnightblue" stroke="midnightblue" points="528.8,-340.1 539.22,-338.16 529.87,-333.18 528.8,-340.1"/>
</g>
<!-- Node22 -->
<g id="node22" class="node">
<title>Node22</title>
<g id="a_node22"><a xlink:href="spec_2packet_8h.html" target="_top" xlink:title=" ">
<polygon fill="white" stroke="black" points="789,-168.5 789,-187.5 847,-187.5 847,-168.5 789,-168.5"/>
<text text-anchor="middle" x="818" y="-175.5" font-family="Helvetica,sans-Serif" font-size="10.00">packet.h</text>
</a>
</g>
</g>
<!-- Node11&#45;&gt;Node22 -->
<g id="edge23" class="edge">
<title>Node11&#45;&gt;Node22</title>
<path fill="none" stroke="midnightblue" d="M611.94,-332.58C631.54,-324.54 656.5,-313.13 677,-300 732.41,-264.5 789.05,-208.74 809.77,-187.55"/>
<polygon fill="midnightblue" stroke="midnightblue" points="610.5,-329.39 602.52,-336.36 613.1,-335.88 610.5,-329.39"/>
</g>
<!-- Node11&#45;&gt;Node25 -->
<g id="edge26" class="edge">
<title>Node11&#45;&gt;Node25</title>
<path fill="none" stroke="midnightblue" d="M529.28,-339.91C429.58,-329.69 206.1,-306.79 104.31,-296.36"/>
<polygon fill="midnightblue" stroke="midnightblue" points="529.08,-343.4 539.39,-340.94 529.8,-336.44 529.08,-343.4"/>
</g>
<!-- Node29 -->
<g id="node29" class="node">
<title>Node29</title>
<g id="a_node29"><a xlink:href="spec_2pool_8h.html" target="_top" xlink:title=" ">
<polygon fill="white" stroke="red" points="555.5,-280.5 555.5,-299.5 602.5,-299.5 602.5,-280.5 555.5,-280.5"/>
<text text-anchor="middle" x="579" y="-287.5" font-family="Helvetica,sans-Serif" font-size="10.00">pool.h</text>
</a>
</g>
</g>
<!-- Node11&#45;&gt;Node29 -->
<g id="edge35" class="edge">
<title>Node11&#45;&gt;Node29</title>
<path fill="none" stroke="midnightblue" d="M579,-325.8C579,-316.91 579,-306.78 579,-299.75"/>
<polygon fill="midnightblue" stroke="midnightblue" points="575.5,-326.08 579,-336.08 582.5,-326.08 575.5,-326.08"/>
</g>
<!-- Node11&#45;&gt;Node31 -->
<g id="edge36" class="edge">
<title>Node11&#45;&gt;Node31</title>
<path fill="none" stroke="midnightblue" d="M628.83,-339.55C704.36,-331.25 852.37,-314.83 978,-300 993.73,-298.14 1011.34,-295.97 1025.33,-294.23"/>
<polygon fill="midnightblue" stroke="midnightblue" points="628.22,-336.09 618.66,-340.66 628.98,-343.05 628.22,-336.09"/>
</g>
<!-- Node33 -->
<g id="node32" class="node">
<title>Node33</title>
<g id="a_node32"><a xlink:href="buffer__inlines_8h_source.html" target="_top" xlink:title=" ">
<polygon fill="white" stroke="black" points="234,-280.5 234,-299.5 326,-299.5 326,-280.5 234,-280.5"/>
<text text-anchor="middle" x="280" y="-287.5" font-family="Helvetica,sans-Serif" font-size="10.00">buffer_inlines.h</text>
</a>
</g>
</g>
<!-- Node11&#45;&gt;Node33 -->
<g id="edge38" class="edge">
<title>Node11&#45;&gt;Node33</title>
<path fill="none" stroke="midnightblue" d="M529.15,-336C472.55,-325.77 380.96,-309.23 326,-299.31"/>
<polygon fill="midnightblue" stroke="midnightblue" points="528.83,-339.5 539.3,-337.83 530.08,-332.61 528.83,-339.5"/>
</g>
<!-- Node34 -->
<g id="node33" class="node">
<title>Node34</title>
<g id="a_node33"><a xlink:href="packet__inlines_8h.html" target="_top" xlink:title=" ">
<polygon fill="white" stroke="black" points="724.5,-280.5 724.5,-299.5 819.5,-299.5 819.5,-280.5 724.5,-280.5"/>
<text text-anchor="middle" x="772" y="-287.5" font-family="Helvetica,sans-Serif" font-size="10.00">packet_inlines.h</text>
</a>
</g>
</g>
<!-- Node11&#45;&gt;Node34 -->
<g id="edge39" class="edge">
<title>Node11&#45;&gt;Node34</title>
<path fill="none" stroke="midnightblue" d="M619.39,-333.7C655.82,-323.51 708.59,-308.74 741.56,-299.52"/>
<polygon fill="midnightblue" stroke="midnightblue" points="618.27,-330.38 609.58,-336.44 620.15,-337.12 618.27,-330.38"/>
</g>
<!-- Node35 -->
<g id="node34" class="node">
<title>Node35</title>
<g id="a_node34"><a xlink:href="packet__vector__inlines_8h.html" target="_top" xlink:title=" ">
<polygon fill="white" stroke="black" points="837.5,-280.5 837.5,-299.5 968.5,-299.5 968.5,-280.5 837.5,-280.5"/>
<text text-anchor="middle" x="903" y="-287.5" font-family="Helvetica,sans-Serif" font-size="10.00">packet_vector_inlines.h</text>
</a>
</g>
</g>
<!-- Node11&#45;&gt;Node35 -->
<g id="edge40" class="edge">
<title>Node11&#45;&gt;Node35</title>
<path fill="none" stroke="midnightblue" d="M628.79,-336.7C689.23,-326.63 790.63,-309.73 851.73,-299.55"/>
<polygon fill="midnightblue" stroke="midnightblue" points="628.02,-333.28 618.73,-338.38 629.17,-340.19 628.02,-333.28"/>
</g>
<!-- Node36 -->
<g id="node35" class="node">
<title>Node36</title>
<g id="a_node35"><a xlink:href="pool__inlines_8h_source.html" target="_top" xlink:title=" ">
<polygon fill="white" stroke="black" points="344,-280.5 344,-299.5 428,-299.5 428,-280.5 344,-280.5"/>
<text text-anchor="middle" x="386" y="-287.5" font-family="Helvetica,sans-Serif" font-size="10.00">pool_inlines.h</text>
</a>
</g>
</g>
<!-- Node11&#45;&gt;Node36 -->
<g id="edge41" class="edge">
<title>Node11&#45;&gt;Node36</title>
<path fill="none" stroke="midnightblue" d="M538.61,-333.7C502.18,-323.51 449.41,-308.74 416.44,-299.52"/>
<polygon fill="midnightblue" stroke="midnightblue" points="537.85,-337.12 548.42,-336.44 539.73,-330.38 537.85,-337.12"/>
</g>
<!-- Node13 -->
<g id="node13" class="node">
<title>Node13</title>
<g id="a_node13"><a xlink:href="buffer_8h.html" target="_top" xlink:title=" ">
<polygon fill="white" stroke="black" points="484.5,-224.5 484.5,-243.5 537.5,-243.5 537.5,-224.5 484.5,-224.5"/>
<text text-anchor="middle" x="511" y="-231.5" font-family="Helvetica,sans-Serif" font-size="10.00">buffer.h</text>
</a>
</g>
</g>
<!-- Node12&#45;&gt;Node13 -->
<g id="edge12" class="edge">
<title>Node12&#45;&gt;Node13</title>
<path fill="none" stroke="midnightblue" d="M511,-269.8C511,-260.91 511,-250.78 511,-243.75"/>
<polygon fill="midnightblue" stroke="midnightblue" points="507.5,-270.08 511,-280.08 514.5,-270.08 507.5,-270.08"/>
</g>
<!-- Node15 -->
<g id="node15" class="node">
<title>Node15</title>
<g id="a_node15"><a xlink:href="classification_8h.html" target="_top" xlink:title=" ">
<polygon fill="white" stroke="black" points="298.5,-112.5 298.5,-131.5 387.5,-131.5 387.5,-112.5 298.5,-112.5"/>
<text text-anchor="middle" x="343" y="-119.5" font-family="Helvetica,sans-Serif" font-size="10.00">classification.h</text>
</a>
</g>
</g>
<!-- Node14&#45;&gt;Node15 -->
<g id="edge14" class="edge">
<title>Node14&#45;&gt;Node15</title>
<path fill="none" stroke="midnightblue" d="M343,-157.8C343,-148.91 343,-138.78 343,-131.75"/>
<polygon fill="midnightblue" stroke="midnightblue" points="339.5,-158.08 343,-168.08 346.5,-158.08 339.5,-158.08"/>
</g>
<!-- Node16 -->
<g id="node16" class="node">
<title>Node16</title>
<g id="a_node16"><a xlink:href="spec_2ipsec_8h.html" target="_top" xlink:title=" ">
<polygon fill="white" stroke="black" points="178.5,-56.5 178.5,-75.5 229.5,-75.5 229.5,-56.5 178.5,-56.5"/>
<text text-anchor="middle" x="204" y="-63.5" font-family="Helvetica,sans-Serif" font-size="10.00">ipsec.h</text>
</a>
</g>
</g>
<!-- Node15&#45;&gt;Node16 -->
<g id="edge15" class="edge">
<title>Node15&#45;&gt;Node16</title>
<path fill="none" stroke="midnightblue" d="M311.52,-108.77C285.41,-98.63 248.96,-84.47 225.92,-75.52"/>
<polygon fill="midnightblue" stroke="midnightblue" points="310.39,-112.08 320.98,-112.44 312.92,-105.56 310.39,-112.08"/>
</g>
<!-- Node15&#45;&gt;Node18 -->
<g id="edge17" class="edge">
<title>Node15&#45;&gt;Node18</title>
<path fill="none" stroke="midnightblue" d="M370.01,-107.86C390.59,-97.85 418.34,-84.35 436.21,-75.65"/>
<polygon fill="midnightblue" stroke="midnightblue" points="368.3,-104.8 360.83,-112.32 371.36,-111.1 368.3,-104.8"/>
</g>
<!-- Node17 -->
<g id="node17" class="node">
<title>Node17</title>
<g id="a_node17"><a xlink:href="ipsec_8h.html" target="_top" xlink:title=" ">
<polygon fill="white" stroke="black" points="178.5,-0.5 178.5,-19.5 229.5,-19.5 229.5,-0.5 178.5,-0.5"/>
<text text-anchor="middle" x="204" y="-7.5" font-family="Helvetica,sans-Serif" font-size="10.00">ipsec.h</text>
</a>
</g>
</g>
<!-- Node16&#45;&gt;Node17 -->
<g id="edge16" class="edge">
<title>Node16&#45;&gt;Node17</title>
<path fill="none" stroke="midnightblue" d="M204,-45.8C204,-36.91 204,-26.78 204,-19.75"/>
<polygon fill="midnightblue" stroke="midnightblue" points="200.5,-46.08 204,-56.08 207.5,-46.08 200.5,-46.08"/>
</g>
<!-- Node19 -->
<g id="node19" class="node">
<title>Node19</title>
<g id="a_node19"><a xlink:href="packet__io_8h.html" target="_top" xlink:title=" ">
<polygon fill="white" stroke="black" points="418,-0.5 418,-19.5 490,-19.5 490,-0.5 418,-0.5"/>
<text text-anchor="middle" x="454" y="-7.5" font-family="Helvetica,sans-Serif" font-size="10.00">packet_io.h</text>
</a>
</g>
</g>
<!-- Node18&#45;&gt;Node19 -->
<g id="edge18" class="edge">
<title>Node18&#45;&gt;Node19</title>
<path fill="none" stroke="midnightblue" d="M454,-45.8C454,-36.91 454,-26.78 454,-19.75"/>
<polygon fill="midnightblue" stroke="midnightblue" points="450.5,-46.08 454,-56.08 457.5,-46.08 450.5,-46.08"/>
</g>
<!-- Node21 -->
<g id="node21" class="node">
<title>Node21</title>
<g id="a_node21"><a xlink:href="crypto_8h.html" target="_top" xlink:title=" ">
<polygon fill="white" stroke="black" points="85,-168.5 85,-187.5 141,-187.5 141,-168.5 85,-168.5"/>
<text text-anchor="middle" x="113" y="-175.5" font-family="Helvetica,sans-Serif" font-size="10.00">crypto.h</text>
</a>
</g>
</g>
<!-- Node20&#45;&gt;Node21 -->
<g id="edge20" class="edge">
<title>Node20&#45;&gt;Node21</title>
<path fill="none" stroke="midnightblue" d="M176.38,-271.96C160.13,-248.12 131.21,-205.71 118.86,-187.59"/>
<polygon fill="midnightblue" stroke="midnightblue" points="173.59,-274.08 182.11,-280.37 179.37,-270.13 173.59,-274.08"/>
</g>
<!-- Node21&#45;&gt;Node16 -->
<g id="edge21" class="edge">
<title>Node21&#45;&gt;Node16</title>
<path fill="none" stroke="midnightblue" d="M122.78,-159.29C130.66,-145.73 142.45,-126.87 155,-112 166.77,-98.05 182.67,-84.18 193.13,-75.6"/>
<polygon fill="midnightblue" stroke="midnightblue" points="119.67,-157.68 117.78,-168.1 125.76,-161.13 119.67,-157.68"/>
</g>
<!-- Node23 -->
<g id="node23" class="node">
<title>Node23</title>
<g id="a_node23"><a xlink:href="packet_8h.html" target="_top" xlink:title=" ">
<polygon fill="white" stroke="black" points="1227,-112.5 1227,-131.5 1285,-131.5 1285,-112.5 1227,-112.5"/>
<text text-anchor="middle" x="1256" y="-119.5" font-family="Helvetica,sans-Serif" font-size="10.00">packet.h</text>
</a>
</g>
</g>
<!-- Node22&#45;&gt;Node23 -->
<g id="edge24" class="edge">
<title>Node22&#45;&gt;Node23</title>
<path fill="none" stroke="midnightblue" d="M857.03,-172.19C943.68,-161.5 1150.47,-136.01 1226.93,-126.58"/>
<polygon fill="midnightblue" stroke="midnightblue" points="856.57,-168.72 847.08,-173.42 857.43,-175.67 856.57,-168.72"/>
</g>
<!-- Node24 -->
<g id="node24" class="node">
<title>Node24</title>
<g id="a_node24"><a xlink:href="event__inlines_8h_source.html" target="_top" xlink:title=" ">
<polygon fill="white" stroke="black" points="1210.5,-56.5 1210.5,-75.5 1301.5,-75.5 1301.5,-56.5 1210.5,-56.5"/>
<text text-anchor="middle" x="1256" y="-63.5" font-family="Helvetica,sans-Serif" font-size="10.00">event_inlines.h</text>
</a>
</g>
</g>
<!-- Node23&#45;&gt;Node24 -->
<g id="edge25" class="edge">
<title>Node23&#45;&gt;Node24</title>
<path fill="none" stroke="midnightblue" d="M1256,-101.8C1256,-92.91 1256,-82.78 1256,-75.75"/>
<polygon fill="midnightblue" stroke="midnightblue" points="1252.5,-102.08 1256,-112.08 1259.5,-102.08 1252.5,-102.08"/>
</g>
<!-- Node26 -->
<g id="node26" class="node">
<title>Node26</title>
<g id="a_node26"><a xlink:href="packet__io__types_8h.html" target="_top" xlink:title=" ">
<polygon fill="white" stroke="black" points="221,-224.5 221,-243.5 325,-243.5 325,-224.5 221,-224.5"/>
<text text-anchor="middle" x="273" y="-231.5" font-family="Helvetica,sans-Serif" font-size="10.00">packet_io_types.h</text>
</a>
</g>
</g>
<!-- Node25&#45;&gt;Node26 -->
<g id="edge27" class="edge">
<title>Node25&#45;&gt;Node26</title>
<path fill="none" stroke="midnightblue" d="M96.92,-278.02C138.67,-267.82 199.98,-252.84 238.15,-243.52"/>
<polygon fill="midnightblue" stroke="midnightblue" points="95.9,-274.67 87.02,-280.44 97.56,-281.47 95.9,-274.67"/>
</g>
<!-- Node26&#45;&gt;Node14 -->
<g id="edge28" class="edge">
<title>Node26&#45;&gt;Node14</title>
<path fill="none" stroke="midnightblue" d="M292.31,-218.1C304.91,-208.38 320.93,-196.03 331.55,-187.83"/>
<polygon fill="midnightblue" stroke="midnightblue" points="290.03,-215.44 284.25,-224.32 294.3,-220.99 290.03,-215.44"/>
</g>
<!-- Node26&#45;&gt;Node16 -->
<g id="edge29" class="edge">
<title>Node26&#45;&gt;Node16</title>
<path fill="none" stroke="midnightblue" d="M229.87,-220.73C213.83,-213.84 197.29,-203.43 188,-188 165.81,-151.15 188.87,-96.66 199.37,-75.67"/>
<polygon fill="midnightblue" stroke="midnightblue" points="228.61,-223.99 239.2,-224.39 231.17,-217.48 228.61,-223.99"/>
</g>
<!-- Node26&#45;&gt;Node18 -->
<g id="edge31" class="edge">
<title>Node26&#45;&gt;Node18</title>
<path fill="none" stroke="midnightblue" d="M330.83,-221.74C353.28,-215.02 377.89,-204.45 396,-188 414.11,-171.56 441.54,-100.67 450.81,-75.72"/>
<polygon fill="midnightblue" stroke="midnightblue" points="329.72,-218.42 321.03,-224.49 331.61,-225.16 329.72,-218.42"/>
</g>
<!-- Node26&#45;&gt;Node22 -->
<g id="edge30" class="edge">
<title>Node26&#45;&gt;Node22</title>
<path fill="none" stroke="midnightblue" d="M335.54,-226.8C453.2,-215.15 703.34,-190.36 788.73,-181.9"/>
<polygon fill="midnightblue" stroke="midnightblue" points="334.86,-223.35 325.26,-227.82 335.55,-230.32 334.86,-223.35"/>
</g>
<!-- Node27 -->
<g id="node27" class="node">
<title>Node27</title>
<g id="a_node27"><a xlink:href="spec_2traffic__mngr_8h.html" target="_top" xlink:title=" ">
<polygon fill="white" stroke="black" points="197,-168.5 197,-187.5 281,-187.5 281,-168.5 197,-168.5"/>
<text text-anchor="middle" x="239" y="-175.5" font-family="Helvetica,sans-Serif" font-size="10.00">traffic_mngr.h</text>
</a>
</g>
</g>
<!-- Node26&#45;&gt;Node27 -->
<g id="edge32" class="edge">
<title>Node26&#45;&gt;Node27</title>
<path fill="none" stroke="midnightblue" d="M262.02,-215.57C256.17,-206.27 249.23,-195.25 244.51,-187.75"/>
<polygon fill="midnightblue" stroke="midnightblue" points="259.1,-217.49 267.39,-224.08 265.02,-213.76 259.1,-217.49"/>
</g>
<!-- Node28 -->
<g id="node28" class="node">
<title>Node28</title>
<g id="a_node28"><a xlink:href="traffic__mngr_8h.html" target="_top" xlink:title=" ">
<polygon fill="white" stroke="black" points="197,-112.5 197,-131.5 281,-131.5 281,-112.5 197,-112.5"/>
<text text-anchor="middle" x="239" y="-119.5" font-family="Helvetica,sans-Serif" font-size="10.00">traffic_mngr.h</text>
</a>
</g>
</g>
<!-- Node27&#45;&gt;Node28 -->
<g id="edge33" class="edge">
<title>Node27&#45;&gt;Node28</title>
<path fill="none" stroke="midnightblue" d="M239,-157.8C239,-148.91 239,-138.78 239,-131.75"/>
<polygon fill="midnightblue" stroke="midnightblue" points="235.5,-158.08 239,-168.08 242.5,-158.08 235.5,-158.08"/>
</g>
<!-- Node28&#45;&gt;Node16 -->
<g id="edge34" class="edge">
<title>Node28&#45;&gt;Node16</title>
<path fill="none" stroke="midnightblue" d="M227.7,-103.57C221.68,-94.27 214.53,-83.25 209.67,-75.75"/>
<polygon fill="midnightblue" stroke="midnightblue" points="224.84,-105.6 233.22,-112.08 230.72,-101.79 224.84,-105.6"/>
</g>
<!-- Node32 -->
<g id="node31" class="node">
<title>Node32</title>
<g id="a_node31"><a xlink:href="timer_8h.html" target="_top" xlink:title=" ">
<polygon fill="white" stroke="black" points="1025.5,-224.5 1025.5,-243.5 1076.5,-243.5 1076.5,-224.5 1025.5,-224.5"/>
<text text-anchor="middle" x="1051" y="-231.5" font-family="Helvetica,sans-Serif" font-size="10.00">timer.h</text>
</a>
</g>
</g>
<!-- Node31&#45;&gt;Node32 -->
<g id="edge37" class="edge">
<title>Node31&#45;&gt;Node32</title>
<path fill="none" stroke="midnightblue" d="M1051,-269.8C1051,-260.91 1051,-250.78 1051,-243.75"/>
<polygon fill="midnightblue" stroke="midnightblue" points="1047.5,-270.08 1051,-280.08 1054.5,-270.08 1047.5,-270.08"/>
</g>
<!-- Node38 -->
<g id="node37" class="node">
<title>Node38</title>
<g id="a_node37"><a xlink:href="packet__io__stats_8h.html" target="_top" xlink:title=" ">
<polygon fill="white" stroke="black" points="178.5,-336.5 178.5,-355.5 279.5,-355.5 279.5,-336.5 178.5,-336.5"/>
<text text-anchor="middle" x="229" y="-343.5" font-family="Helvetica,sans-Serif" font-size="10.00">packet_io_stats.h</text>
</a>
</g>
</g>
<!-- Node37&#45;&gt;Node38 -->
<g id="edge44" class="edge">
<title>Node37&#45;&gt;Node38</title>
<path fill="none" stroke="midnightblue" d="M155.59,-387.45C173.68,-377.48 197.73,-364.23 213.29,-355.65"/>
<polygon fill="midnightblue" stroke="midnightblue" points="153.81,-384.43 146.75,-392.32 157.19,-390.56 153.81,-384.43"/>
</g>
<!-- Node38&#45;&gt;Node18 -->
<g id="edge45" class="edge">
<title>Node38&#45;&gt;Node18</title>
<path fill="none" stroke="midnightblue" d="M194.53,-332.69C166.27,-320.7 133.55,-301.22 151,-280 203.65,-215.98 257.46,-275.81 334,-244 375.09,-226.92 388.9,-222.5 417,-188 445.3,-153.25 451.99,-97.05 453.54,-75.65"/>
<polygon fill="midnightblue" stroke="midnightblue" points="193.28,-335.96 203.87,-336.46 195.9,-329.47 193.28,-335.96"/>
</g>
<!-- Node38&#45;&gt;Node25 -->
<g id="edge46" class="edge">
<title>Node38&#45;&gt;Node25</title>
<path fill="none" stroke="midnightblue" d="M191.1,-333.44C157.72,-323.26 109.9,-308.66 79.91,-299.52"/>
<polygon fill="midnightblue" stroke="midnightblue" points="190.37,-336.87 200.95,-336.44 192.41,-330.18 190.37,-336.87"/>
</g>
<!-- Node40 -->
<g id="node39" class="node">
<title>Node40</title>
<g id="a_node39"><a xlink:href="packet__types_8h.html" target="_top" xlink:title=" ">
<polygon fill="white" stroke="black" points="845,-560.5 845,-579.5 935,-579.5 935,-560.5 845,-560.5"/>
<text text-anchor="middle" x="890" y="-567.5" font-family="Helvetica,sans-Serif" font-size="10.00">packet_types.h</text>
</a>
</g>
</g>
<!-- Node39&#45;&gt;Node40 -->
<g id="edge49" class="edge">
<title>Node39&#45;&gt;Node40</title>
<path fill="none" stroke="midnightblue" d="M902.45,-606.4C899.28,-597.36 895.61,-586.94 893.08,-579.75"/>
<polygon fill="midnightblue" stroke="midnightblue" points="899.24,-607.81 905.86,-616.08 905.85,-605.49 899.24,-607.81"/>
</g>
<!-- Node40&#45;&gt;Node4 -->
<g id="edge50" class="edge">
<title>Node40&#45;&gt;Node4</title>
<path fill="none" stroke="midnightblue" d="M940.83,-558.38C984,-549.33 1047.59,-535.94 1103,-524 1107.56,-523.02 1112.4,-521.96 1117.1,-520.94"/>
<polygon fill="midnightblue" stroke="midnightblue" points="939.92,-554.99 930.85,-560.47 941.36,-561.84 939.92,-554.99"/>
</g>
<!-- Node40&#45;&gt;Node6 -->
<g id="edge52" class="edge">
<title>Node40&#45;&gt;Node6</title>
<path fill="none" stroke="midnightblue" d="M834.93,-559.88C714.16,-542 681.99,-541.52 565,-524 560.49,-523.32 555.77,-522.59 551.08,-521.83"/>
<polygon fill="midnightblue" stroke="midnightblue" points="834.53,-563.36 844.94,-561.37 835.56,-556.44 834.53,-563.36"/>
</g>
<!-- Node40&#45;&gt;Node18 -->
<g id="edge59" class="edge">
<title>Node40&#45;&gt;Node18</title>
<path fill="none" stroke="midnightblue" d="M895.61,-550.72C902.91,-527 916.16,-484.33 928,-448 958.83,-353.39 997,-334.51 997,-235 997,-235 997,-235 997,-177 997,-73.24 611.32,-66.24 490.05,-66.61"/>
<polygon fill="midnightblue" stroke="midnightblue" points="892.2,-549.88 892.61,-560.47 898.89,-551.94 892.2,-549.88"/>
</g>
<!-- Node40&#45;&gt;Node20 -->
<g id="edge51" class="edge">
<title>Node40&#45;&gt;Node20</title>
<path fill="none" stroke="midnightblue" d="M837.9,-558.28C766.78,-542.77 636.02,-511.14 530,-468 416.52,-421.83 397.72,-390.51 288,-336 260.72,-322.45 228.48,-308.26 208.13,-299.52"/>
<polygon fill="midnightblue" stroke="midnightblue" points="837.44,-561.76 847.95,-560.45 838.92,-554.91 837.44,-561.76"/>
</g>
<!-- Node40&#45;&gt;Node22 -->
<g id="edge56" class="edge">
<title>Node40&#45;&gt;Node22</title>
<path fill="none" stroke="midnightblue" d="M945.24,-563.94C974.61,-558.48 1009.25,-547.22 1032,-524 1126.82,-427.23 1173.51,-327.42 1086,-224 1055.68,-188.16 910.56,-180.85 847.43,-179.37"/>
<polygon fill="midnightblue" stroke="midnightblue" points="944.39,-560.53 935.1,-565.63 945.54,-567.44 944.39,-560.53"/>
</g>
<!-- Node40&#45;&gt;Node25 -->
<g id="edge60" class="edge">
<title>Node40&#45;&gt;Node25</title>
<path fill="none" stroke="midnightblue" d="M834.87,-559.97C668.47,-539.64 618.1,-573.38 462,-524 289.1,-469.31 108.46,-334.83 62.91,-299.57"/>
<polygon fill="midnightblue" stroke="midnightblue" points="834.59,-563.47 844.95,-561.25 835.47,-556.52 834.59,-563.47"/>
</g>
<!-- Node40&#45;&gt;Node34 -->
<g id="edge61" class="edge">
<title>Node40&#45;&gt;Node34</title>
<path fill="none" stroke="midnightblue" d="M875.21,-552.7C858.32,-532.34 833,-495.7 833,-459 833,-459 833,-459 833,-401 833,-358.42 797.61,-316.88 780.74,-299.51"/>
<polygon fill="midnightblue" stroke="midnightblue" points="872.65,-555.1 881.83,-560.38 877.95,-550.52 872.65,-555.1"/>
</g>
<!-- Node40&#45;&gt;Node35 -->
<g id="edge62" class="edge">
<title>Node40&#45;&gt;Node35</title>
<path fill="none" stroke="midnightblue" d="M884.78,-550.39C879.16,-528.65 871,-491.51 871,-459 871,-459 871,-459 871,-401 871,-361.82 889.95,-317.8 898.68,-299.59"/>
<polygon fill="midnightblue" stroke="midnightblue" points="881.46,-551.5 887.44,-560.25 888.22,-549.68 881.46,-551.5"/>
</g>
<!-- Node41 -->
<g id="node40" class="node">
<title>Node41</title>
<g id="a_node40"><a xlink:href="spec_2event_8h.html" target="_top" xlink:title=" ">
<polygon fill="white" stroke="black" points="742.5,-504.5 742.5,-523.5 795.5,-523.5 795.5,-504.5 742.5,-504.5"/>
<text text-anchor="middle" x="769" y="-511.5" font-family="Helvetica,sans-Serif" font-size="10.00">event.h</text>
</a>
</g>
</g>
<!-- Node40&#45;&gt;Node41 -->
<g id="edge53" class="edge">
<title>Node40&#45;&gt;Node41</title>
<path fill="none" stroke="midnightblue" d="M861.69,-556.37C839.03,-546.26 807.87,-532.35 788.08,-523.52"/>
<polygon fill="midnightblue" stroke="midnightblue" points="860.27,-559.56 870.83,-560.44 863.12,-553.17 860.27,-559.56"/>
</g>
<!-- Node44 -->
<g id="node43" class="node">
<title>Node44</title>
<g id="a_node43"><a xlink:href="spec_2packet__flags_8h.html" target="_top" xlink:title=" ">
<polygon fill="white" stroke="black" points="937,-504.5 937,-523.5 1023,-523.5 1023,-504.5 937,-504.5"/>
<text text-anchor="middle" x="980" y="-511.5" font-family="Helvetica,sans-Serif" font-size="10.00">packet_flags.h</text>
</a>
</g>
</g>
<!-- Node40&#45;&gt;Node44 -->
<g id="edge57" class="edge">
<title>Node40&#45;&gt;Node44</title>
<path fill="none" stroke="midnightblue" d="M913.04,-555.18C929.6,-545.24 951.42,-532.15 965.58,-523.65"/>
<polygon fill="midnightblue" stroke="midnightblue" points="911.23,-552.18 904.46,-560.32 914.84,-558.18 911.23,-552.18"/>
</g>
<!-- Node42 -->
<g id="node41" class="node">
<title>Node42</title>
<g id="a_node41"><a xlink:href="event_8h.html" target="_top" xlink:title=" ">
<polygon fill="white" stroke="black" points="737.5,-448.5 737.5,-467.5 790.5,-467.5 790.5,-448.5 737.5,-448.5"/>
<text text-anchor="middle" x="764" y="-455.5" font-family="Helvetica,sans-Serif" font-size="10.00">event.h</text>
</a>
</g>
</g>
<!-- Node41&#45;&gt;Node42 -->
<g id="edge54" class="edge">
<title>Node41&#45;&gt;Node42</title>
<path fill="none" stroke="midnightblue" d="M767.25,-494.1C766.42,-485.14 765.47,-474.86 764.81,-467.75"/>
<polygon fill="midnightblue" stroke="midnightblue" points="763.77,-494.45 768.17,-504.08 770.74,-493.8 763.77,-494.45"/>
</g>
<!-- Node43 -->
<g id="node42" class="node">
<title>Node43</title>
<g id="a_node42"><a xlink:href="timer__inlines_8h_source.html" target="_top" xlink:title=" ">
<polygon fill="white" stroke="black" points="715.5,-392.5 715.5,-411.5 804.5,-411.5 804.5,-392.5 715.5,-392.5"/>
<text text-anchor="middle" x="760" y="-399.5" font-family="Helvetica,sans-Serif" font-size="10.00">timer_inlines.h</text>
</a>
</g>
</g>
<!-- Node42&#45;&gt;Node43 -->
<g id="edge55" class="edge">
<title>Node42&#45;&gt;Node43</title>
<path fill="none" stroke="midnightblue" d="M762.6,-438.1C761.94,-429.14 761.17,-418.86 760.65,-411.75"/>
<polygon fill="midnightblue" stroke="midnightblue" points="759.11,-438.37 763.34,-448.08 766.09,-437.85 759.11,-438.37"/>
</g>
<!-- Node45 -->
<g id="node44" class="node">
<title>Node45</title>
<g id="a_node44"><a xlink:href="packet__flags_8h.html" target="_top" xlink:title=" ">
<polygon fill="white" stroke="black" points="937,-448.5 937,-467.5 1023,-467.5 1023,-448.5 937,-448.5"/>
<text text-anchor="middle" x="980" y="-455.5" font-family="Helvetica,sans-Serif" font-size="10.00">packet_flags.h</text>
</a>
</g>
</g>
<!-- Node44&#45;&gt;Node45 -->
<g id="edge58" class="edge">
<title>Node44&#45;&gt;Node45</title>
<path fill="none" stroke="midnightblue" d="M980,-493.8C980,-484.91 980,-474.78 980,-467.75"/>
<polygon fill="midnightblue" stroke="midnightblue" points="976.5,-494.08 980,-504.08 983.5,-494.08 976.5,-494.08"/>
</g>
<!-- Node47 -->
<g id="node46" class="node">
<title>Node47</title>
<g id="a_node46"><a xlink:href="queue_8h.html" target="_top" xlink:title=" ">
<polygon fill="white" stroke="black" points="614,-560.5 614,-579.5 670,-579.5 670,-560.5 614,-560.5"/>
<text text-anchor="middle" x="642" y="-567.5" font-family="Helvetica,sans-Serif" font-size="10.00">queue.h</text>
</a>
</g>
</g>
<!-- Node46&#45;&gt;Node47 -->
<g id="edge64" class="edge">
<title>Node46&#45;&gt;Node47</title>
<path fill="none" stroke="midnightblue" d="M642,-605.8C642,-596.91 642,-586.78 642,-579.75"/>
<polygon fill="midnightblue" stroke="midnightblue" points="638.5,-606.08 642,-616.08 645.5,-606.08 638.5,-606.08"/>
</g>
<!-- Node49 -->
<g id="node48" class="node">
<title>Node49</title>
<g id="a_node48"><a xlink:href="schedule_8h.html" target="_top" xlink:title=" ">
<polygon fill="white" stroke="black" points="1227.5,-560.5 1227.5,-579.5 1296.5,-579.5 1296.5,-560.5 1227.5,-560.5"/>
<text text-anchor="middle" x="1262" y="-567.5" font-family="Helvetica,sans-Serif" font-size="10.00">schedule.h</text>
</a>
</g>
</g>
<!-- Node48&#45;&gt;Node49 -->
<g id="edge66" class="edge">
<title>Node48&#45;&gt;Node49</title>
<path fill="none" stroke="midnightblue" d="M1262,-605.8C1262,-596.91 1262,-586.78 1262,-579.75"/>
<polygon fill="midnightblue" stroke="midnightblue" points="1258.5,-606.08 1262,-616.08 1265.5,-606.08 1258.5,-606.08"/>
</g>
<!-- Node51 -->
<g id="node50" class="node">
<title>Node51</title>
<g id="a_node50"><a xlink:href="queue__inlines_8h_source.html" target="_top" xlink:title=" ">
<polygon fill="white" stroke="black" points="733.5,-560.5 733.5,-579.5 826.5,-579.5 826.5,-560.5 733.5,-560.5"/>
<text text-anchor="middle" x="780" y="-567.5" font-family="Helvetica,sans-Serif" font-size="10.00">queue_inlines.h</text>
</a>
</g>
</g>
<!-- Node50&#45;&gt;Node51 -->
<g id="edge69" class="edge">
<title>Node50&#45;&gt;Node51</title>
<path fill="none" stroke="midnightblue" d="M783.9,-606.1C782.9,-597.14 781.76,-586.86 780.97,-579.75"/>
<polygon fill="midnightblue" stroke="midnightblue" points="780.43,-606.53 785.01,-616.08 787.38,-605.76 780.43,-606.53"/>
</g>
</g>
</svg>
