<?xml version="1.0" encoding="UTF-8" standalone="no"?>
<!DOCTYPE svg PUBLIC "-//W3C//DTD SVG 1.1//EN"
 "http://www.w3.org/Graphics/SVG/1.1/DTD/svg11.dtd">
<!-- Generated by graphviz version 2.43.0 (0)
 -->
<!-- Title: pool_types.h Pages: 1 -->
<svg width="1069pt" height="420pt"
 viewBox="0.00 0.00 1069.00 420.00" xmlns="http://www.w3.org/2000/svg" xmlns:xlink="http://www.w3.org/1999/xlink">
<g id="graph0" class="graph" transform="scale(1 1) rotate(0) translate(4 416)">
<title>pool_types.h</title>
<polygon fill="white" stroke="transparent" points="-4,4 -4,-416 1065,-416 1065,4 -4,4"/>
<!-- Node1 -->
<g id="node1" class="node">
<title>Node1</title>
<g id="a_node1"><a xlink:title=" ">
<polygon fill="#bfbfbf" stroke="black" points="420.5,-392.5 420.5,-411.5 499.5,-411.5 499.5,-392.5 420.5,-392.5"/>
<text text-anchor="middle" x="460" y="-399.5" font-family="Helvetica,sans-Serif" font-size="10.00">pool_types.h</text>
</a>
</g>
</g>
<!-- Node2 -->
<g id="node2" class="node">
<title>Node2</title>
<g id="a_node2"><a xlink:href="pool__types_8h.html" target="_top" xlink:title=" ">
<polygon fill="white" stroke="black" points="420.5,-336.5 420.5,-355.5 499.5,-355.5 499.5,-336.5 420.5,-336.5"/>
<text text-anchor="middle" x="460" y="-343.5" font-family="Helvetica,sans-Serif" font-size="10.00">pool_types.h</text>
</a>
</g>
</g>
<!-- Node1&#45;&gt;Node2 -->
<g id="edge1" class="edge">
<title>Node1&#45;&gt;Node2</title>
<path fill="none" stroke="midnightblue" d="M460,-381.8C460,-372.91 460,-362.78 460,-355.75"/>
<polygon fill="midnightblue" stroke="midnightblue" points="456.5,-382.08 460,-392.08 463.5,-382.08 456.5,-382.08"/>
</g>
<!-- Node3 -->
<g id="node3" class="node">
<title>Node3</title>
<g id="a_node3"><a xlink:href="spec_2buffer_8h.html" target="_top" xlink:title=" ">
<polygon fill="white" stroke="black" points="60.5,-280.5 60.5,-299.5 113.5,-299.5 113.5,-280.5 60.5,-280.5"/>
<text text-anchor="middle" x="87" y="-287.5" font-family="Helvetica,sans-Serif" font-size="10.00">buffer.h</text>
</a>
</g>
</g>
<!-- Node2&#45;&gt;Node3 -->
<g id="edge2" class="edge">
<title>Node2&#45;&gt;Node3</title>
<path fill="none" stroke="midnightblue" d="M410.22,-340.12C344.21,-333.25 224.26,-319.35 123,-300 119.96,-299.42 116.8,-298.74 113.66,-298.02"/>
<polygon fill="midnightblue" stroke="midnightblue" points="410.03,-343.62 420.34,-341.16 410.75,-336.66 410.03,-343.62"/>
</g>
<!-- Node5 -->
<g id="node5" class="node">
<title>Node5</title>
<g id="a_node5"><a xlink:href="spec_2classification_8h.html" target="_top" xlink:title=" ">
<polygon fill="white" stroke="black" points="175.5,-168.5 175.5,-187.5 264.5,-187.5 264.5,-168.5 175.5,-168.5"/>
<text text-anchor="middle" x="220" y="-175.5" font-family="Helvetica,sans-Serif" font-size="10.00">classification.h</text>
</a>
</g>
</g>
<!-- Node2&#45;&gt;Node5 -->
<g id="edge4" class="edge">
<title>Node2&#45;&gt;Node5</title>
<path fill="none" stroke="midnightblue" d="M409.95,-341.69C351.02,-336.68 258.21,-324.99 235,-300 205.47,-268.2 213.62,-209.74 218.03,-187.71"/>
<polygon fill="midnightblue" stroke="midnightblue" points="409.92,-345.19 420.17,-342.52 410.49,-338.22 409.92,-345.19"/>
</g>
<!-- Node11 -->
<g id="node11" class="node">
<title>Node11</title>
<g id="a_node11"><a xlink:href="spec_2crypto_8h.html" target="_top" xlink:title=" ">
<polygon fill="white" stroke="black" points="132,-280.5 132,-299.5 188,-299.5 188,-280.5 132,-280.5"/>
<text text-anchor="middle" x="160" y="-287.5" font-family="Helvetica,sans-Serif" font-size="10.00">crypto.h</text>
</a>
</g>
</g>
<!-- Node2&#45;&gt;Node11 -->
<g id="edge10" class="edge">
<title>Node2&#45;&gt;Node11</title>
<path fill="none" stroke="midnightblue" d="M410.16,-336.89C358.12,-328.29 274.18,-314.02 202,-300 197.61,-299.15 192.97,-298.2 188.44,-297.25"/>
<polygon fill="midnightblue" stroke="midnightblue" points="409.7,-340.36 420.13,-338.53 410.84,-333.45 409.7,-340.36"/>
</g>
<!-- Node13 -->
<g id="node13" class="node">
<title>Node13</title>
<g id="a_node13"><a xlink:href="spec_2dma_8h.html" target="_top" xlink:title=" ">
<polygon fill="white" stroke="black" points="404.5,-280.5 404.5,-299.5 451.5,-299.5 451.5,-280.5 404.5,-280.5"/>
<text text-anchor="middle" x="428" y="-287.5" font-family="Helvetica,sans-Serif" font-size="10.00">dma.h</text>
</a>
</g>
</g>
<!-- Node2&#45;&gt;Node13 -->
<g id="edge13" class="edge">
<title>Node2&#45;&gt;Node13</title>
<path fill="none" stroke="midnightblue" d="M449.5,-327.27C444.03,-318.05 437.58,-307.17 433.19,-299.75"/>
<polygon fill="midnightblue" stroke="midnightblue" points="446.61,-329.26 454.72,-336.08 452.63,-325.7 446.61,-329.26"/>
</g>
<!-- Node15 -->
<g id="node15" class="node">
<title>Node15</title>
<g id="a_node15"><a xlink:href="spec_2packet_8h.html" target="_top" xlink:title=" ">
<polygon fill="white" stroke="black" points="359,-168.5 359,-187.5 417,-187.5 417,-168.5 359,-168.5"/>
<text text-anchor="middle" x="388" y="-175.5" font-family="Helvetica,sans-Serif" font-size="10.00">packet.h</text>
</a>
</g>
</g>
<!-- Node2&#45;&gt;Node15 -->
<g id="edge15" class="edge">
<title>Node2&#45;&gt;Node15</title>
<path fill="none" stroke="midnightblue" d="M429.62,-331.62C416.64,-324.26 402.73,-313.77 395,-300 374.09,-262.75 381.94,-208.49 386.09,-187.62"/>
<polygon fill="midnightblue" stroke="midnightblue" points="428.32,-334.89 438.8,-336.44 431.57,-328.7 428.32,-334.89"/>
</g>
<!-- Node18 -->
<g id="node18" class="node">
<title>Node18</title>
<g id="a_node18"><a xlink:href="spec_2packet__io__types_8h.html" target="_top" xlink:title=" ">
<polygon fill="white" stroke="black" points="244,-280.5 244,-299.5 348,-299.5 348,-280.5 244,-280.5"/>
<text text-anchor="middle" x="296" y="-287.5" font-family="Helvetica,sans-Serif" font-size="10.00">packet_io_types.h</text>
</a>
</g>
</g>
<!-- Node2&#45;&gt;Node18 -->
<g id="edge18" class="edge">
<title>Node2&#45;&gt;Node18</title>
<path fill="none" stroke="midnightblue" d="M424.48,-333.3C393.58,-323.13 349.53,-308.62 321.86,-299.52"/>
<polygon fill="midnightblue" stroke="midnightblue" points="423.42,-336.64 434.01,-336.44 425.61,-329.99 423.42,-336.64"/>
</g>
<!-- Node22 -->
<g id="node22" class="node">
<title>Node22</title>
<g id="a_node22"><a xlink:href="spec_2pool_8h.html" target="_top" xlink:title=" ">
<polygon fill="white" stroke="black" points="469.5,-280.5 469.5,-299.5 516.5,-299.5 516.5,-280.5 469.5,-280.5"/>
<text text-anchor="middle" x="493" y="-287.5" font-family="Helvetica,sans-Serif" font-size="10.00">pool.h</text>
</a>
</g>
</g>
<!-- Node2&#45;&gt;Node22 -->
<g id="edge27" class="edge">
<title>Node2&#45;&gt;Node22</title>
<path fill="none" stroke="midnightblue" d="M470.83,-327.27C476.47,-318.05 483.12,-307.17 487.65,-299.75"/>
<polygon fill="midnightblue" stroke="midnightblue" points="467.68,-325.73 465.45,-336.08 473.65,-329.38 467.68,-325.73"/>
</g>
<!-- Node24 -->
<g id="node24" class="node">
<title>Node24</title>
<g id="a_node24"><a xlink:href="spec_2timer_8h.html" target="_top" xlink:title=" ">
<polygon fill="white" stroke="black" points="534.5,-280.5 534.5,-299.5 585.5,-299.5 585.5,-280.5 534.5,-280.5"/>
<text text-anchor="middle" x="560" y="-287.5" font-family="Helvetica,sans-Serif" font-size="10.00">timer.h</text>
</a>
</g>
</g>
<!-- Node2&#45;&gt;Node24 -->
<g id="edge29" class="edge">
<title>Node2&#45;&gt;Node24</title>
<path fill="none" stroke="midnightblue" d="M485.09,-331.45C503.55,-321.48 528.1,-308.23 543.97,-299.65"/>
<polygon fill="midnightblue" stroke="midnightblue" points="483.2,-328.49 476.07,-336.32 486.53,-334.65 483.2,-328.49"/>
</g>
<!-- Node26 -->
<g id="node26" class="node">
<title>Node26</title>
<g id="a_node26"><a xlink:href="buffer__inlines_8h_source.html" target="_top" xlink:title=" ">
<polygon fill="white" stroke="black" points="604,-280.5 604,-299.5 696,-299.5 696,-280.5 604,-280.5"/>
<text text-anchor="middle" x="650" y="-287.5" font-family="Helvetica,sans-Serif" font-size="10.00">buffer_inlines.h</text>
</a>
</g>
</g>
<!-- Node2&#45;&gt;Node26 -->
<g id="edge31" class="edge">
<title>Node2&#45;&gt;Node26</title>
<path fill="none" stroke="midnightblue" d="M499.76,-333.7C535.62,-323.51 587.57,-308.74 620.03,-299.52"/>
<polygon fill="midnightblue" stroke="midnightblue" points="498.77,-330.34 490.11,-336.44 500.68,-337.08 498.77,-330.34"/>
</g>
<!-- Node27 -->
<g id="node27" class="node">
<title>Node27</title>
<g id="a_node27"><a xlink:href="packet__inlines_8h.html" target="_top" xlink:title=" ">
<polygon fill="white" stroke="black" points="714.5,-280.5 714.5,-299.5 809.5,-299.5 809.5,-280.5 714.5,-280.5"/>
<text text-anchor="middle" x="762" y="-287.5" font-family="Helvetica,sans-Serif" font-size="10.00">packet_inlines.h</text>
</a>
</g>
</g>
<!-- Node2&#45;&gt;Node27 -->
<g id="edge32" class="edge">
<title>Node2&#45;&gt;Node27</title>
<path fill="none" stroke="midnightblue" d="M509.96,-336.07C566.71,-325.92 658.65,-309.48 714.4,-299.51"/>
<polygon fill="midnightblue" stroke="midnightblue" points="509.02,-332.68 499.79,-337.88 510.25,-339.57 509.02,-332.68"/>
</g>
<!-- Node28 -->
<g id="node28" class="node">
<title>Node28</title>
<g id="a_node28"><a xlink:href="packet__vector__inlines_8h.html" target="_top" xlink:title=" ">
<polygon fill="white" stroke="black" points="827.5,-280.5 827.5,-299.5 958.5,-299.5 958.5,-280.5 827.5,-280.5"/>
<text text-anchor="middle" x="893" y="-287.5" font-family="Helvetica,sans-Serif" font-size="10.00">packet_vector_inlines.h</text>
</a>
</g>
</g>
<!-- Node2&#45;&gt;Node28 -->
<g id="edge33" class="edge">
<title>Node2&#45;&gt;Node28</title>
<path fill="none" stroke="midnightblue" d="M509.65,-338.81C587.89,-329.05 739.89,-310.09 827.15,-299.21"/>
<polygon fill="midnightblue" stroke="midnightblue" points="509.06,-335.35 499.57,-340.06 509.93,-342.3 509.06,-335.35"/>
</g>
<!-- Node29 -->
<g id="node29" class="node">
<title>Node29</title>
<g id="a_node29"><a xlink:href="pool__inlines_8h_source.html" target="_top" xlink:title=" ">
<polygon fill="white" stroke="black" points="977,-280.5 977,-299.5 1061,-299.5 1061,-280.5 977,-280.5"/>
<text text-anchor="middle" x="1019" y="-287.5" font-family="Helvetica,sans-Serif" font-size="10.00">pool_inlines.h</text>
</a>
</g>
</g>
<!-- Node2&#45;&gt;Node29 -->
<g id="edge34" class="edge">
<title>Node2&#45;&gt;Node29</title>
<path fill="none" stroke="midnightblue" d="M509.69,-342.03C600.81,-336.26 800.65,-322.14 968,-300 970.85,-299.62 973.79,-299.2 976.74,-298.75"/>
<polygon fill="midnightblue" stroke="midnightblue" points="509.41,-338.54 499.65,-342.66 509.85,-345.52 509.41,-338.54"/>
</g>
<!-- Node4 -->
<g id="node4" class="node">
<title>Node4</title>
<g id="a_node4"><a xlink:href="buffer_8h.html" target="_top" xlink:title=" ">
<polygon fill="white" stroke="black" points="60.5,-224.5 60.5,-243.5 113.5,-243.5 113.5,-224.5 60.5,-224.5"/>
<text text-anchor="middle" x="87" y="-231.5" font-family="Helvetica,sans-Serif" font-size="10.00">buffer.h</text>
</a>
</g>
</g>
<!-- Node3&#45;&gt;Node4 -->
<g id="edge3" class="edge">
<title>Node3&#45;&gt;Node4</title>
<path fill="none" stroke="midnightblue" d="M87,-269.8C87,-260.91 87,-250.78 87,-243.75"/>
<polygon fill="midnightblue" stroke="midnightblue" points="83.5,-270.08 87,-280.08 90.5,-270.08 83.5,-270.08"/>
</g>
<!-- Node6 -->
<g id="node6" class="node">
<title>Node6</title>
<g id="a_node6"><a xlink:href="classification_8h.html" target="_top" xlink:title=" ">
<polygon fill="white" stroke="black" points="175.5,-112.5 175.5,-131.5 264.5,-131.5 264.5,-112.5 175.5,-112.5"/>
<text text-anchor="middle" x="220" y="-119.5" font-family="Helvetica,sans-Serif" font-size="10.00">classification.h</text>
</a>
</g>
</g>
<!-- Node5&#45;&gt;Node6 -->
<g id="edge5" class="edge">
<title>Node5&#45;&gt;Node6</title>
<path fill="none" stroke="midnightblue" d="M220,-157.8C220,-148.91 220,-138.78 220,-131.75"/>
<polygon fill="midnightblue" stroke="midnightblue" points="216.5,-158.08 220,-168.08 223.5,-158.08 216.5,-158.08"/>
</g>
<!-- Node7 -->
<g id="node7" class="node">
<title>Node7</title>
<g id="a_node7"><a xlink:href="spec_2ipsec_8h.html" target="_top" xlink:title=" ">
<polygon fill="white" stroke="black" points="136.5,-56.5 136.5,-75.5 187.5,-75.5 187.5,-56.5 136.5,-56.5"/>
<text text-anchor="middle" x="162" y="-63.5" font-family="Helvetica,sans-Serif" font-size="10.00">ipsec.h</text>
</a>
</g>
</g>
<!-- Node6&#45;&gt;Node7 -->
<g id="edge6" class="edge">
<title>Node6&#45;&gt;Node7</title>
<path fill="none" stroke="midnightblue" d="M203.09,-105.25C192.8,-95.67 180.03,-83.79 171.49,-75.83"/>
<polygon fill="midnightblue" stroke="midnightblue" points="200.98,-108.07 210.68,-112.32 205.75,-102.95 200.98,-108.07"/>
</g>
<!-- Node9 -->
<g id="node9" class="node">
<title>Node9</title>
<g id="a_node9"><a xlink:href="spec_2packet__io_8h.html" target="_top" xlink:title=" ">
<polygon fill="white" stroke="black" points="218,-56.5 218,-75.5 290,-75.5 290,-56.5 218,-56.5"/>
<text text-anchor="middle" x="254" y="-63.5" font-family="Helvetica,sans-Serif" font-size="10.00">packet_io.h</text>
</a>
</g>
</g>
<!-- Node6&#45;&gt;Node9 -->
<g id="edge8" class="edge">
<title>Node6&#45;&gt;Node9</title>
<path fill="none" stroke="midnightblue" d="M230.98,-103.57C236.83,-94.27 243.77,-83.25 248.49,-75.75"/>
<polygon fill="midnightblue" stroke="midnightblue" points="227.98,-101.76 225.61,-112.08 233.9,-105.49 227.98,-101.76"/>
</g>
<!-- Node8 -->
<g id="node8" class="node">
<title>Node8</title>
<g id="a_node8"><a xlink:href="ipsec_8h.html" target="_top" xlink:title=" ">
<polygon fill="white" stroke="black" points="136.5,-0.5 136.5,-19.5 187.5,-19.5 187.5,-0.5 136.5,-0.5"/>
<text text-anchor="middle" x="162" y="-7.5" font-family="Helvetica,sans-Serif" font-size="10.00">ipsec.h</text>
</a>
</g>
</g>
<!-- Node7&#45;&gt;Node8 -->
<g id="edge7" class="edge">
<title>Node7&#45;&gt;Node8</title>
<path fill="none" stroke="midnightblue" d="M162,-45.8C162,-36.91 162,-26.78 162,-19.75"/>
<polygon fill="midnightblue" stroke="midnightblue" points="158.5,-46.08 162,-56.08 165.5,-46.08 158.5,-46.08"/>
</g>
<!-- Node10 -->
<g id="node10" class="node">
<title>Node10</title>
<g id="a_node10"><a xlink:href="packet__io_8h.html" target="_top" xlink:title=" ">
<polygon fill="white" stroke="black" points="218,-0.5 218,-19.5 290,-19.5 290,-0.5 218,-0.5"/>
<text text-anchor="middle" x="254" y="-7.5" font-family="Helvetica,sans-Serif" font-size="10.00">packet_io.h</text>
</a>
</g>
</g>
<!-- Node9&#45;&gt;Node10 -->
<g id="edge9" class="edge">
<title>Node9&#45;&gt;Node10</title>
<path fill="none" stroke="midnightblue" d="M254,-45.8C254,-36.91 254,-26.78 254,-19.75"/>
<polygon fill="midnightblue" stroke="midnightblue" points="250.5,-46.08 254,-56.08 257.5,-46.08 250.5,-46.08"/>
</g>
<!-- Node12 -->
<g id="node12" class="node">
<title>Node12</title>
<g id="a_node12"><a xlink:href="crypto_8h.html" target="_top" xlink:title=" ">
<polygon fill="white" stroke="black" points="0,-168.5 0,-187.5 56,-187.5 56,-168.5 0,-168.5"/>
<text text-anchor="middle" x="28" y="-175.5" font-family="Helvetica,sans-Serif" font-size="10.00">crypto.h</text>
</a>
</g>
</g>
<!-- Node11&#45;&gt;Node12 -->
<g id="edge11" class="edge">
<title>Node11&#45;&gt;Node12</title>
<path fill="none" stroke="midnightblue" d="M153.02,-271.07C146.72,-256.8 136.24,-237.11 122,-224 103.1,-206.6 76.24,-194.66 56.08,-187.47"/>
<polygon fill="midnightblue" stroke="midnightblue" points="149.8,-272.44 156.87,-280.33 156.27,-269.76 149.8,-272.44"/>
</g>
<!-- Node12&#45;&gt;Node7 -->
<g id="edge12" class="edge">
<title>Node12&#45;&gt;Node7</title>
<path fill="none" stroke="midnightblue" d="M34.82,-158.6C40.89,-144.34 50.99,-124.89 65,-112 85.49,-93.14 115.27,-80.94 136.42,-74.06"/>
<polygon fill="midnightblue" stroke="midnightblue" points="31.4,-157.72 30.96,-168.31 37.91,-160.31 31.4,-157.72"/>
</g>
<!-- Node14 -->
<g id="node14" class="node">
<title>Node14</title>
<g id="a_node14"><a xlink:href="dma_8h.html" target="_top" xlink:title=" ">
<polygon fill="white" stroke="black" points="404.5,-224.5 404.5,-243.5 451.5,-243.5 451.5,-224.5 404.5,-224.5"/>
<text text-anchor="middle" x="428" y="-231.5" font-family="Helvetica,sans-Serif" font-size="10.00">dma.h</text>
</a>
</g>
</g>
<!-- Node13&#45;&gt;Node14 -->
<g id="edge14" class="edge">
<title>Node13&#45;&gt;Node14</title>
<path fill="none" stroke="midnightblue" d="M428,-269.8C428,-260.91 428,-250.78 428,-243.75"/>
<polygon fill="midnightblue" stroke="midnightblue" points="424.5,-270.08 428,-280.08 431.5,-270.08 424.5,-270.08"/>
</g>
<!-- Node16 -->
<g id="node16" class="node">
<title>Node16</title>
<g id="a_node16"><a xlink:href="packet_8h.html" target="_top" xlink:title=" ">
<polygon fill="white" stroke="black" points="359,-112.5 359,-131.5 417,-131.5 417,-112.5 359,-112.5"/>
<text text-anchor="middle" x="388" y="-119.5" font-family="Helvetica,sans-Serif" font-size="10.00">packet.h</text>
</a>
</g>
</g>
<!-- Node15&#45;&gt;Node16 -->
<g id="edge16" class="edge">
<title>Node15&#45;&gt;Node16</title>
<path fill="none" stroke="midnightblue" d="M388,-157.8C388,-148.91 388,-138.78 388,-131.75"/>
<polygon fill="midnightblue" stroke="midnightblue" points="384.5,-158.08 388,-168.08 391.5,-158.08 384.5,-158.08"/>
</g>
<!-- Node17 -->
<g id="node17" class="node">
<title>Node17</title>
<g id="a_node17"><a xlink:href="event__inlines_8h_source.html" target="_top" xlink:title=" ">
<polygon fill="white" stroke="black" points="342.5,-56.5 342.5,-75.5 433.5,-75.5 433.5,-56.5 342.5,-56.5"/>
<text text-anchor="middle" x="388" y="-63.5" font-family="Helvetica,sans-Serif" font-size="10.00">event_inlines.h</text>
</a>
</g>
</g>
<!-- Node16&#45;&gt;Node17 -->
<g id="edge17" class="edge">
<title>Node16&#45;&gt;Node17</title>
<path fill="none" stroke="midnightblue" d="M388,-101.8C388,-92.91 388,-82.78 388,-75.75"/>
<polygon fill="midnightblue" stroke="midnightblue" points="384.5,-102.08 388,-112.08 391.5,-102.08 384.5,-102.08"/>
</g>
<!-- Node19 -->
<g id="node19" class="node">
<title>Node19</title>
<g id="a_node19"><a xlink:href="packet__io__types_8h.html" target="_top" xlink:title=" ">
<polygon fill="white" stroke="black" points="244,-224.5 244,-243.5 348,-243.5 348,-224.5 244,-224.5"/>
<text text-anchor="middle" x="296" y="-231.5" font-family="Helvetica,sans-Serif" font-size="10.00">packet_io_types.h</text>
</a>
</g>
</g>
<!-- Node18&#45;&gt;Node19 -->
<g id="edge19" class="edge">
<title>Node18&#45;&gt;Node19</title>
<path fill="none" stroke="midnightblue" d="M296,-269.8C296,-260.91 296,-250.78 296,-243.75"/>
<polygon fill="midnightblue" stroke="midnightblue" points="292.5,-270.08 296,-280.08 299.5,-270.08 292.5,-270.08"/>
</g>
<!-- Node19&#45;&gt;Node5 -->
<g id="edge20" class="edge">
<title>Node19&#45;&gt;Node5</title>
<path fill="none" stroke="midnightblue" d="M275.42,-218.38C261.69,-208.62 244.07,-196.11 232.43,-187.83"/>
<polygon fill="midnightblue" stroke="midnightblue" points="273.61,-221.38 283.79,-224.32 277.66,-215.68 273.61,-221.38"/>
</g>
<!-- Node19&#45;&gt;Node7 -->
<g id="edge21" class="edge">
<title>Node19&#45;&gt;Node7</title>
<path fill="none" stroke="midnightblue" d="M297.62,-214.21C298.82,-188.28 297.09,-141.38 273,-112 261.83,-98.37 216.79,-83.06 187.63,-74.27"/>
<polygon fill="midnightblue" stroke="midnightblue" points="294.13,-214.02 296.96,-224.23 301.11,-214.48 294.13,-214.02"/>
</g>
<!-- Node19&#45;&gt;Node9 -->
<g id="edge23" class="edge">
<title>Node19&#45;&gt;Node9</title>
<path fill="none" stroke="midnightblue" d="M303.12,-214.79C311.55,-190.23 322.59,-145.68 307,-112 299.5,-95.79 282.96,-83.28 270.33,-75.61"/>
<polygon fill="midnightblue" stroke="midnightblue" points="299.8,-213.69 299.65,-224.28 306.37,-216.09 299.8,-213.69"/>
</g>
<!-- Node19&#45;&gt;Node15 -->
<g id="edge22" class="edge">
<title>Node19&#45;&gt;Node15</title>
<path fill="none" stroke="midnightblue" d="M319.55,-219.18C336.48,-209.24 358.78,-196.15 373.26,-187.65"/>
<polygon fill="midnightblue" stroke="midnightblue" points="317.63,-216.24 310.78,-224.32 321.18,-222.28 317.63,-216.24"/>
</g>
<!-- Node20 -->
<g id="node20" class="node">
<title>Node20</title>
<g id="a_node20"><a xlink:href="spec_2traffic__mngr_8h.html" target="_top" xlink:title=" ">
<polygon fill="white" stroke="black" points="74,-168.5 74,-187.5 158,-187.5 158,-168.5 74,-168.5"/>
<text text-anchor="middle" x="116" y="-175.5" font-family="Helvetica,sans-Serif" font-size="10.00">traffic_mngr.h</text>
</a>
</g>
</g>
<!-- Node19&#45;&gt;Node20 -->
<g id="edge24" class="edge">
<title>Node19&#45;&gt;Node20</title>
<path fill="none" stroke="midnightblue" d="M257.89,-221.57C223.94,-211.38 175.01,-196.7 144.39,-187.52"/>
<polygon fill="midnightblue" stroke="midnightblue" points="256.89,-224.92 267.48,-224.44 258.91,-218.22 256.89,-224.92"/>
</g>
<!-- Node21 -->
<g id="node21" class="node">
<title>Node21</title>
<g id="a_node21"><a xlink:href="traffic__mngr_8h.html" target="_top" xlink:title=" ">
<polygon fill="white" stroke="black" points="74,-112.5 74,-131.5 158,-131.5 158,-112.5 74,-112.5"/>
<text text-anchor="middle" x="116" y="-119.5" font-family="Helvetica,sans-Serif" font-size="10.00">traffic_mngr.h</text>
</a>
</g>
</g>
<!-- Node20&#45;&gt;Node21 -->
<g id="edge25" class="edge">
<title>Node20&#45;&gt;Node21</title>
<path fill="none" stroke="midnightblue" d="M116,-157.8C116,-148.91 116,-138.78 116,-131.75"/>
<polygon fill="midnightblue" stroke="midnightblue" points="112.5,-158.08 116,-168.08 119.5,-158.08 112.5,-158.08"/>
</g>
<!-- Node21&#45;&gt;Node7 -->
<g id="edge26" class="edge">
<title>Node21&#45;&gt;Node7</title>
<path fill="none" stroke="midnightblue" d="M130.11,-104.43C138.18,-94.97 147.96,-83.48 154.55,-75.75"/>
<polygon fill="midnightblue" stroke="midnightblue" points="127.42,-102.2 123.6,-112.08 132.75,-106.74 127.42,-102.2"/>
</g>
<!-- Node23 -->
<g id="node23" class="node">
<title>Node23</title>
<g id="a_node23"><a xlink:href="pool_8h.html" target="_top" xlink:title=" ">
<polygon fill="white" stroke="black" points="469.5,-224.5 469.5,-243.5 516.5,-243.5 516.5,-224.5 469.5,-224.5"/>
<text text-anchor="middle" x="493" y="-231.5" font-family="Helvetica,sans-Serif" font-size="10.00">pool.h</text>
</a>
</g>
</g>
<!-- Node22&#45;&gt;Node23 -->
<g id="edge28" class="edge">
<title>Node22&#45;&gt;Node23</title>
<path fill="none" stroke="midnightblue" d="M493,-269.8C493,-260.91 493,-250.78 493,-243.75"/>
<polygon fill="midnightblue" stroke="midnightblue" points="489.5,-270.08 493,-280.08 496.5,-270.08 489.5,-270.08"/>
</g>
<!-- Node25 -->
<g id="node25" class="node">
<title>Node25</title>
<g id="a_node25"><a xlink:href="timer_8h.html" target="_top" xlink:title=" ">
<polygon fill="white" stroke="black" points="534.5,-224.5 534.5,-243.5 585.5,-243.5 585.5,-224.5 534.5,-224.5"/>
<text text-anchor="middle" x="560" y="-231.5" font-family="Helvetica,sans-Serif" font-size="10.00">timer.h</text>
</a>
</g>
</g>
<!-- Node24&#45;&gt;Node25 -->
<g id="edge30" class="edge">
<title>Node24&#45;&gt;Node25</title>
<path fill="none" stroke="midnightblue" d="M560,-269.8C560,-260.91 560,-250.78 560,-243.75"/>
<polygon fill="midnightblue" stroke="midnightblue" points="556.5,-270.08 560,-280.08 563.5,-270.08 556.5,-270.08"/>
</g>
</g>
</svg>
