<?xml version="1.0" encoding="UTF-8" standalone="no"?>
<!DOCTYPE svg PUBLIC "-//W3C//DTD SVG 1.1//EN"
 "http://www.w3.org/Graphics/SVG/1.1/DTD/svg11.dtd">
<!-- Generated by graphviz version 2.43.0 (0)
 -->
<!-- Title: schedule_types.h Pages: 1 -->
<svg width="1631pt" height="868pt"
 viewBox="0.00 0.00 1630.50 868.00" xmlns="http://www.w3.org/2000/svg" xmlns:xlink="http://www.w3.org/1999/xlink">
<g id="graph0" class="graph" transform="scale(1 1) rotate(0) translate(4 864)">
<title>schedule_types.h</title>
<polygon fill="white" stroke="transparent" points="-4,4 -4,-864 1626.5,-864 1626.5,4 -4,4"/>
<!-- Node1 -->
<g id="node1" class="node">
<title>Node1</title>
<g id="a_node1"><a xlink:title=" ">
<polygon fill="#bfbfbf" stroke="black" points="1380.5,-840.5 1380.5,-859.5 1481.5,-859.5 1481.5,-840.5 1380.5,-840.5"/>
<text text-anchor="middle" x="1431" y="-847.5" font-family="Helvetica,sans-Serif" font-size="10.00">schedule_types.h</text>
</a>
</g>
</g>
<!-- Node2 -->
<g id="node2" class="node">
<title>Node2</title>
<g id="a_node2"><a xlink:href="schedule__types_8h.html" target="_top" xlink:title=" ">
<polygon fill="white" stroke="black" points="1380.5,-784.5 1380.5,-803.5 1481.5,-803.5 1481.5,-784.5 1380.5,-784.5"/>
<text text-anchor="middle" x="1431" y="-791.5" font-family="Helvetica,sans-Serif" font-size="10.00">schedule_types.h</text>
</a>
</g>
</g>
<!-- Node1&#45;&gt;Node2 -->
<g id="edge1" class="edge">
<title>Node1&#45;&gt;Node2</title>
<path fill="none" stroke="midnightblue" d="M1431,-829.8C1431,-820.91 1431,-810.78 1431,-803.75"/>
<polygon fill="midnightblue" stroke="midnightblue" points="1427.5,-830.08 1431,-840.08 1434.5,-830.08 1427.5,-830.08"/>
</g>
<!-- Node3 -->
<g id="node3" class="node">
<title>Node3</title>
<g id="a_node3"><a xlink:href="spec_2queue__types_8h.html" target="_top" xlink:title=" ">
<polygon fill="white" stroke="black" points="1351,-728.5 1351,-747.5 1439,-747.5 1439,-728.5 1351,-728.5"/>
<text text-anchor="middle" x="1395" y="-735.5" font-family="Helvetica,sans-Serif" font-size="10.00">queue_types.h</text>
</a>
</g>
</g>
<!-- Node2&#45;&gt;Node3 -->
<g id="edge2" class="edge">
<title>Node2&#45;&gt;Node3</title>
<path fill="none" stroke="midnightblue" d="M1419.38,-775.57C1413.18,-766.27 1405.83,-755.25 1400.83,-747.75"/>
<polygon fill="midnightblue" stroke="midnightblue" points="1416.6,-777.7 1425.06,-784.08 1422.42,-773.82 1416.6,-777.7"/>
</g>
<!-- Node49 -->
<g id="node47" class="node">
<title>Node49</title>
<g id="a_node47"><a xlink:href="spec_2schedule_8h.html" target="_top" xlink:title=" ">
<polygon fill="white" stroke="black" points="1553.5,-616.5 1553.5,-635.5 1622.5,-635.5 1622.5,-616.5 1553.5,-616.5"/>
<text text-anchor="middle" x="1588" y="-623.5" font-family="Helvetica,sans-Serif" font-size="10.00">schedule.h</text>
</a>
</g>
</g>
<!-- Node2&#45;&gt;Node49 -->
<g id="edge70" class="edge">
<title>Node2&#45;&gt;Node49</title>
<path fill="none" stroke="midnightblue" d="M1446.46,-776.65C1479.29,-741.94 1554.99,-661.9 1579.9,-635.57"/>
<polygon fill="midnightblue" stroke="midnightblue" points="1443.77,-774.4 1439.44,-784.08 1448.86,-779.21 1443.77,-774.4"/>
</g>
<!-- Node4 -->
<g id="node4" class="node">
<title>Node4</title>
<g id="a_node4"><a xlink:href="queue__types_8h.html" target="_top" xlink:title=" ">
<polygon fill="white" stroke="black" points="1231,-672.5 1231,-691.5 1319,-691.5 1319,-672.5 1231,-672.5"/>
<text text-anchor="middle" x="1275" y="-679.5" font-family="Helvetica,sans-Serif" font-size="10.00">queue_types.h</text>
</a>
</g>
</g>
<!-- Node3&#45;&gt;Node4 -->
<g id="edge3" class="edge">
<title>Node3&#45;&gt;Node4</title>
<path fill="none" stroke="midnightblue" d="M1366.63,-724.23C1344.18,-714.13 1313.46,-700.31 1293.93,-691.52"/>
<polygon fill="midnightblue" stroke="midnightblue" points="1365.43,-727.53 1375.99,-728.44 1368.3,-721.15 1365.43,-727.53"/>
</g>
<!-- Node5 -->
<g id="node5" class="node">
<title>Node5</title>
<g id="a_node5"><a xlink:href="spec_2comp_8h.html" target="_top" xlink:title=" ">
<polygon fill="white" stroke="black" points="1332.5,-504.5 1332.5,-523.5 1385.5,-523.5 1385.5,-504.5 1332.5,-504.5"/>
<text text-anchor="middle" x="1359" y="-511.5" font-family="Helvetica,sans-Serif" font-size="10.00">comp.h</text>
</a>
</g>
</g>
<!-- Node4&#45;&gt;Node5 -->
<g id="edge4" class="edge">
<title>Node4&#45;&gt;Node5</title>
<path fill="none" stroke="midnightblue" d="M1324.11,-668.89C1341,-662.13 1358.12,-651.75 1368,-636 1390.72,-599.77 1371.75,-544.91 1362.92,-523.75"/>
<polygon fill="midnightblue" stroke="midnightblue" points="1322.46,-665.77 1314.25,-672.48 1324.85,-672.35 1322.46,-665.77"/>
</g>
<!-- Node7 -->
<g id="node7" class="node">
<title>Node7</title>
<g id="a_node7"><a xlink:href="spec_2dma__types_8h.html" target="_top" xlink:title=" ">
<polygon fill="white" stroke="black" points="624,-504.5 624,-523.5 704,-523.5 704,-504.5 624,-504.5"/>
<text text-anchor="middle" x="664" y="-511.5" font-family="Helvetica,sans-Serif" font-size="10.00">dma_types.h</text>
</a>
</g>
</g>
<!-- Node4&#45;&gt;Node7 -->
<g id="edge6" class="edge">
<title>Node4&#45;&gt;Node7</title>
<path fill="none" stroke="midnightblue" d="M1220.83,-674.02C1168.45,-666.69 1087.1,-653.74 1018,-636 889.04,-602.89 739.61,-545.21 685.2,-523.55"/>
<polygon fill="midnightblue" stroke="midnightblue" points="1220.52,-677.51 1230.9,-675.41 1221.48,-670.58 1220.52,-677.51"/>
</g>
<!-- Node19 -->
<g id="node18" class="node">
<title>Node19</title>
<g id="a_node18"><a xlink:href="spec_2packet__io_8h.html" target="_top" xlink:title=" ">
<polygon fill="white" stroke="black" points="333,-56.5 333,-75.5 405,-75.5 405,-56.5 333,-56.5"/>
<text text-anchor="middle" x="369" y="-63.5" font-family="Helvetica,sans-Serif" font-size="10.00">packet_io.h</text>
</a>
</g>
</g>
<!-- Node4&#45;&gt;Node19 -->
<g id="edge42" class="edge">
<title>Node4&#45;&gt;Node19</title>
<path fill="none" stroke="midnightblue" d="M1275,-662.25C1275,-640.36 1275,-603.05 1275,-571 1275,-571 1275,-571 1275,-177 1275,-87.77 573.58,-70.4 405.08,-67.52"/>
<polygon fill="midnightblue" stroke="midnightblue" points="1271.5,-662.44 1275,-672.44 1278.5,-662.44 1271.5,-662.44"/>
</g>
<!-- Node26 -->
<g id="node25" class="node">
<title>Node26</title>
<g id="a_node25"><a xlink:href="spec_2packet__io__types_8h.html" target="_top" xlink:title=" ">
<polygon fill="white" stroke="black" points="132,-280.5 132,-299.5 236,-299.5 236,-280.5 132,-280.5"/>
<text text-anchor="middle" x="184" y="-287.5" font-family="Helvetica,sans-Serif" font-size="10.00">packet_io_types.h</text>
</a>
</g>
</g>
<!-- Node4&#45;&gt;Node26 -->
<g id="edge47" class="edge">
<title>Node4&#45;&gt;Node26</title>
<path fill="none" stroke="midnightblue" d="M1220.85,-681.29C1000.64,-681.76 184,-676.41 184,-571 184,-571 184,-571 184,-401 184,-363.19 184,-318.06 184,-299.56"/>
<polygon fill="midnightblue" stroke="midnightblue" points="1220.89,-684.79 1230.88,-681.26 1220.87,-677.79 1220.89,-684.79"/>
</g>
<!-- Node32 -->
<g id="node30" class="node">
<title>Node32</title>
<g id="a_node30"><a xlink:href="spec_2timer_8h.html" target="_top" xlink:title=" ">
<polygon fill="white" stroke="black" points="1157.5,-280.5 1157.5,-299.5 1208.5,-299.5 1208.5,-280.5 1157.5,-280.5"/>
<text text-anchor="middle" x="1183" y="-287.5" font-family="Helvetica,sans-Serif" font-size="10.00">timer.h</text>
</a>
</g>
</g>
<!-- Node4&#45;&gt;Node32 -->
<g id="edge67" class="edge">
<title>Node4&#45;&gt;Node32</title>
<path fill="none" stroke="midnightblue" d="M1264.86,-663.43C1253.6,-642.24 1237,-605.19 1237,-571 1237,-571 1237,-571 1237,-401 1237,-359.52 1205.67,-317.41 1190.74,-299.69"/>
<polygon fill="midnightblue" stroke="midnightblue" points="1261.82,-665.17 1269.72,-672.23 1267.95,-661.78 1261.82,-665.17"/>
</g>
<!-- Node38 -->
<g id="node36" class="node">
<title>Node38</title>
<g id="a_node36"><a xlink:href="spec_2packet__io__stats_8h.html" target="_top" xlink:title=" ">
<polygon fill="white" stroke="black" points="212.5,-392.5 212.5,-411.5 313.5,-411.5 313.5,-392.5 212.5,-392.5"/>
<text text-anchor="middle" x="263" y="-399.5" font-family="Helvetica,sans-Serif" font-size="10.00">packet_io_stats.h</text>
</a>
</g>
</g>
<!-- Node4&#45;&gt;Node38 -->
<g id="edge43" class="edge">
<title>Node4&#45;&gt;Node38</title>
<path fill="none" stroke="midnightblue" d="M1220.73,-680.73C1013.4,-679 283,-666.16 283,-571 283,-571 283,-571 283,-513 283,-474.76 271.16,-430.23 265.7,-411.74"/>
<polygon fill="midnightblue" stroke="midnightblue" points="1220.75,-684.23 1230.77,-680.81 1220.8,-677.23 1220.75,-684.23"/>
</g>
<!-- Node40 -->
<g id="node38" class="node">
<title>Node40</title>
<g id="a_node38"><a xlink:href="spec_2packet__types_8h.html" target="_top" xlink:title=" ">
<polygon fill="white" stroke="black" points="1027,-616.5 1027,-635.5 1117,-635.5 1117,-616.5 1027,-616.5"/>
<text text-anchor="middle" x="1072" y="-623.5" font-family="Helvetica,sans-Serif" font-size="10.00">packet_types.h</text>
</a>
</g>
</g>
<!-- Node4&#45;&gt;Node40 -->
<g id="edge48" class="edge">
<title>Node4&#45;&gt;Node40</title>
<path fill="none" stroke="midnightblue" d="M1233.01,-669.83C1194.68,-659.63 1138.85,-644.78 1104.02,-635.52"/>
<polygon fill="midnightblue" stroke="midnightblue" points="1232.27,-673.26 1242.83,-672.44 1234.07,-666.49 1232.27,-673.26"/>
</g>
<!-- Node47 -->
<g id="node45" class="node">
<title>Node47</title>
<g id="a_node45"><a xlink:href="spec_2queue_8h.html" target="_top" xlink:title=" ">
<polygon fill="white" stroke="black" points="1303,-616.5 1303,-635.5 1359,-635.5 1359,-616.5 1303,-616.5"/>
<text text-anchor="middle" x="1331" y="-623.5" font-family="Helvetica,sans-Serif" font-size="10.00">queue.h</text>
</a>
</g>
</g>
<!-- Node4&#45;&gt;Node47 -->
<g id="edge63" class="edge">
<title>Node4&#45;&gt;Node47</title>
<path fill="none" stroke="midnightblue" d="M1291.33,-665.25C1301.26,-655.67 1313.59,-643.79 1321.84,-635.83"/>
<polygon fill="midnightblue" stroke="midnightblue" points="1288.77,-662.86 1284,-672.32 1293.63,-667.9 1288.77,-662.86"/>
</g>
<!-- Node4&#45;&gt;Node49 -->
<g id="edge65" class="edge">
<title>Node4&#45;&gt;Node49</title>
<path fill="none" stroke="midnightblue" d="M1329.47,-672.48C1383.88,-663.83 1469.87,-649.78 1544,-636 1547.07,-635.43 1550.25,-634.82 1553.44,-634.19"/>
<polygon fill="midnightblue" stroke="midnightblue" points="1328.68,-669.06 1319.35,-674.08 1329.78,-675.97 1328.68,-669.06"/>
</g>
<!-- Node51 -->
<g id="node49" class="node">
<title>Node51</title>
<g id="a_node49"><a xlink:href="queue__inline__types_8h_source.html" target="_top" xlink:title=" ">
<polygon fill="white" stroke="black" points="1415,-616.5 1415,-635.5 1535,-635.5 1535,-616.5 1415,-616.5"/>
<text text-anchor="middle" x="1475" y="-623.5" font-family="Helvetica,sans-Serif" font-size="10.00">queue_inline_types.h</text>
</a>
</g>
</g>
<!-- Node4&#45;&gt;Node51 -->
<g id="edge68" class="edge">
<title>Node4&#45;&gt;Node51</title>
<path fill="none" stroke="midnightblue" d="M1316.37,-669.83C1354.14,-659.63 1409.14,-644.78 1443.46,-635.52"/>
<polygon fill="midnightblue" stroke="midnightblue" points="1315.43,-666.46 1306.69,-672.44 1317.26,-673.22 1315.43,-666.46"/>
</g>
<!-- Node6 -->
<g id="node6" class="node">
<title>Node6</title>
<g id="a_node6"><a xlink:href="comp_8h.html" target="_top" xlink:title=" ">
<polygon fill="white" stroke="black" points="1332.5,-448.5 1332.5,-467.5 1385.5,-467.5 1385.5,-448.5 1332.5,-448.5"/>
<text text-anchor="middle" x="1359" y="-455.5" font-family="Helvetica,sans-Serif" font-size="10.00">comp.h</text>
</a>
</g>
</g>
<!-- Node5&#45;&gt;Node6 -->
<g id="edge5" class="edge">
<title>Node5&#45;&gt;Node6</title>
<path fill="none" stroke="midnightblue" d="M1359,-493.8C1359,-484.91 1359,-474.78 1359,-467.75"/>
<polygon fill="midnightblue" stroke="midnightblue" points="1355.5,-494.08 1359,-504.08 1362.5,-494.08 1355.5,-494.08"/>
</g>
<!-- Node8 -->
<g id="node8" class="node">
<title>Node8</title>
<g id="a_node8"><a xlink:href="dma__types_8h.html" target="_top" xlink:title=" ">
<polygon fill="white" stroke="black" points="692,-448.5 692,-467.5 772,-467.5 772,-448.5 692,-448.5"/>
<text text-anchor="middle" x="732" y="-455.5" font-family="Helvetica,sans-Serif" font-size="10.00">dma_types.h</text>
</a>
</g>
</g>
<!-- Node7&#45;&gt;Node8 -->
<g id="edge7" class="edge">
<title>Node7&#45;&gt;Node8</title>
<path fill="none" stroke="midnightblue" d="M682.76,-498.1C695,-488.38 710.56,-476.03 720.88,-467.83"/>
<polygon fill="midnightblue" stroke="midnightblue" points="680.58,-495.36 674.93,-504.32 684.93,-500.85 680.58,-495.36"/>
</g>
<!-- Node9 -->
<g id="node9" class="node">
<title>Node9</title>
<g id="a_node9"><a xlink:href="spec_2dma_8h.html" target="_top" xlink:title=" ">
<polygon fill="white" stroke="black" points="791.5,-280.5 791.5,-299.5 838.5,-299.5 838.5,-280.5 791.5,-280.5"/>
<text text-anchor="middle" x="815" y="-287.5" font-family="Helvetica,sans-Serif" font-size="10.00">dma.h</text>
</a>
</g>
</g>
<!-- Node8&#45;&gt;Node9 -->
<g id="edge8" class="edge">
<title>Node8&#45;&gt;Node9</title>
<path fill="none" stroke="midnightblue" d="M752.4,-442.11C762.01,-434.15 772.89,-423.6 780,-412 803.19,-374.15 811.61,-320.24 814.1,-299.54"/>
<polygon fill="midnightblue" stroke="midnightblue" points="750.1,-439.47 744.41,-448.41 754.43,-444.97 750.1,-439.47"/>
</g>
<!-- Node11 -->
<g id="node11" class="node">
<title>Node11</title>
<g id="a_node11"><a xlink:href="spec_2pool__types_8h.html" target="_top" xlink:title=" ">
<polygon fill="white" stroke="black" points="692.5,-392.5 692.5,-411.5 771.5,-411.5 771.5,-392.5 692.5,-392.5"/>
<text text-anchor="middle" x="732" y="-399.5" font-family="Helvetica,sans-Serif" font-size="10.00">pool_types.h</text>
</a>
</g>
</g>
<!-- Node8&#45;&gt;Node11 -->
<g id="edge10" class="edge">
<title>Node8&#45;&gt;Node11</title>
<path fill="none" stroke="midnightblue" d="M732,-437.8C732,-428.91 732,-418.78 732,-411.75"/>
<polygon fill="midnightblue" stroke="midnightblue" points="728.5,-438.08 732,-448.08 735.5,-438.08 728.5,-438.08"/>
</g>
<!-- Node10 -->
<g id="node10" class="node">
<title>Node10</title>
<g id="a_node10"><a xlink:href="dma_8h.html" target="_top" xlink:title=" ">
<polygon fill="white" stroke="black" points="791.5,-224.5 791.5,-243.5 838.5,-243.5 838.5,-224.5 791.5,-224.5"/>
<text text-anchor="middle" x="815" y="-231.5" font-family="Helvetica,sans-Serif" font-size="10.00">dma.h</text>
</a>
</g>
</g>
<!-- Node9&#45;&gt;Node10 -->
<g id="edge9" class="edge">
<title>Node9&#45;&gt;Node10</title>
<path fill="none" stroke="midnightblue" d="M815,-269.8C815,-260.91 815,-250.78 815,-243.75"/>
<polygon fill="midnightblue" stroke="midnightblue" points="811.5,-270.08 815,-280.08 818.5,-270.08 811.5,-270.08"/>
</g>
<!-- Node12 -->
<g id="node12" class="node">
<title>Node12</title>
<g id="a_node12"><a xlink:href="pool__types_8h.html" target="_top" xlink:title=" ">
<polygon fill="white" stroke="black" points="692.5,-336.5 692.5,-355.5 771.5,-355.5 771.5,-336.5 692.5,-336.5"/>
<text text-anchor="middle" x="732" y="-343.5" font-family="Helvetica,sans-Serif" font-size="10.00">pool_types.h</text>
</a>
</g>
</g>
<!-- Node11&#45;&gt;Node12 -->
<g id="edge11" class="edge">
<title>Node11&#45;&gt;Node12</title>
<path fill="none" stroke="midnightblue" d="M732,-381.8C732,-372.91 732,-362.78 732,-355.75"/>
<polygon fill="midnightblue" stroke="midnightblue" points="728.5,-382.08 732,-392.08 735.5,-382.08 728.5,-382.08"/>
</g>
<!-- Node12&#45;&gt;Node9 -->
<g id="edge22" class="edge">
<title>Node12&#45;&gt;Node9</title>
<path fill="none" stroke="midnightblue" d="M754.1,-330.62C769.26,-320.76 788.88,-307.99 801.7,-299.65"/>
<polygon fill="midnightblue" stroke="midnightblue" points="751.81,-327.94 745.34,-336.32 755.63,-333.8 751.81,-327.94"/>
</g>
<!-- Node13 -->
<g id="node13" class="node">
<title>Node13</title>
<g id="a_node13"><a xlink:href="spec_2buffer_8h.html" target="_top" xlink:title=" ">
<polygon fill="white" stroke="red" points="404.5,-280.5 404.5,-299.5 457.5,-299.5 457.5,-280.5 404.5,-280.5"/>
<text text-anchor="middle" x="431" y="-287.5" font-family="Helvetica,sans-Serif" font-size="10.00">buffer.h</text>
</a>
</g>
</g>
<!-- Node12&#45;&gt;Node13 -->
<g id="edge12" class="edge">
<title>Node12&#45;&gt;Node13</title>
<path fill="none" stroke="midnightblue" d="M682.46,-336.73C608.44,-324.36 476.5,-302.23 466,-300 463.3,-299.43 460.49,-298.78 457.7,-298.11"/>
<polygon fill="midnightblue" stroke="midnightblue" points="682.06,-340.21 692.5,-338.41 683.21,-333.31 682.06,-340.21"/>
</g>
<!-- Node15 -->
<g id="node14" class="node">
<title>Node15</title>
<g id="a_node14"><a xlink:href="spec_2classification_8h.html" target="_top" xlink:title=" ">
<polygon fill="white" stroke="black" points="213.5,-168.5 213.5,-187.5 302.5,-187.5 302.5,-168.5 213.5,-168.5"/>
<text text-anchor="middle" x="258" y="-175.5" font-family="Helvetica,sans-Serif" font-size="10.00">classification.h</text>
</a>
</g>
</g>
<!-- Node12&#45;&gt;Node15 -->
<g id="edge13" class="edge">
<title>Node12&#45;&gt;Node15</title>
<path fill="none" stroke="midnightblue" d="M681.93,-336.59C680.61,-336.39 679.3,-336.19 678,-336 552.55,-317.57 510.51,-352.28 395,-300 335.16,-272.92 282.52,-210.52 264.56,-187.63"/>
<polygon fill="midnightblue" stroke="midnightblue" points="681.8,-340.11 692.22,-338.19 682.87,-333.19 681.8,-340.11"/>
</g>
<!-- Node21 -->
<g id="node20" class="node">
<title>Node21</title>
<g id="a_node20"><a xlink:href="spec_2crypto_8h.html" target="_top" xlink:title=" ">
<polygon fill="white" stroke="black" points="292,-280.5 292,-299.5 348,-299.5 348,-280.5 292,-280.5"/>
<text text-anchor="middle" x="320" y="-287.5" font-family="Helvetica,sans-Serif" font-size="10.00">crypto.h</text>
</a>
</g>
</g>
<!-- Node12&#45;&gt;Node21 -->
<g id="edge19" class="edge">
<title>Node12&#45;&gt;Node21</title>
<path fill="none" stroke="midnightblue" d="M681.94,-336.56C680.61,-336.37 679.3,-336.18 678,-336 538.02,-316.37 501.5,-322.84 362,-300 357.58,-299.28 352.93,-298.4 348.4,-297.48"/>
<polygon fill="midnightblue" stroke="midnightblue" points="681.81,-340.09 692.22,-338.13 682.87,-333.16 681.81,-340.09"/>
</g>
<!-- Node23 -->
<g id="node22" class="node">
<title>Node23</title>
<g id="a_node22"><a xlink:href="spec_2packet_8h.html" target="_top" xlink:title=" ">
<polygon fill="white" stroke="black" points="814,-168.5 814,-187.5 872,-187.5 872,-168.5 814,-168.5"/>
<text text-anchor="middle" x="843" y="-175.5" font-family="Helvetica,sans-Serif" font-size="10.00">packet.h</text>
</a>
</g>
</g>
<!-- Node12&#45;&gt;Node23 -->
<g id="edge23" class="edge">
<title>Node12&#45;&gt;Node23</title>
<path fill="none" stroke="midnightblue" d="M736.29,-326.53C742.83,-301.32 757.24,-255.67 782,-224 794.24,-208.34 813.26,-195.5 826.81,-187.6"/>
<polygon fill="midnightblue" stroke="midnightblue" points="732.88,-325.72 733.89,-336.26 739.68,-327.39 732.88,-325.72"/>
</g>
<!-- Node12&#45;&gt;Node26 -->
<g id="edge26" class="edge">
<title>Node12&#45;&gt;Node26</title>
<path fill="none" stroke="midnightblue" d="M681.96,-340.07C578.44,-329.87 341.62,-306.53 236.24,-296.15"/>
<polygon fill="midnightblue" stroke="midnightblue" points="681.85,-343.58 692.15,-341.07 682.54,-336.61 681.85,-343.58"/>
</g>
<!-- Node30 -->
<g id="node29" class="node">
<title>Node30</title>
<g id="a_node29"><a xlink:href="spec_2pool_8h.html" target="_top" xlink:title=" ">
<polygon fill="white" stroke="red" points="475.5,-280.5 475.5,-299.5 522.5,-299.5 522.5,-280.5 475.5,-280.5"/>
<text text-anchor="middle" x="499" y="-287.5" font-family="Helvetica,sans-Serif" font-size="10.00">pool.h</text>
</a>
</g>
</g>
<!-- Node12&#45;&gt;Node30 -->
<g id="edge35" class="edge">
<title>Node12&#45;&gt;Node30</title>
<path fill="none" stroke="midnightblue" d="M682.51,-334.51C641.94,-325.76 583.1,-312.71 532,-300 529,-299.25 525.86,-298.44 522.76,-297.62"/>
<polygon fill="midnightblue" stroke="midnightblue" points="681.9,-337.96 692.41,-336.64 683.37,-331.12 681.9,-337.96"/>
</g>
<!-- Node12&#45;&gt;Node32 -->
<g id="edge36" class="edge">
<title>Node12&#45;&gt;Node32</title>
<path fill="none" stroke="midnightblue" d="M781.77,-342.07C860.31,-336.9 1017.61,-324.33 1149,-300 1151.76,-299.49 1154.63,-298.87 1157.47,-298.2"/>
<polygon fill="midnightblue" stroke="midnightblue" points="781.43,-338.59 771.67,-342.72 781.88,-345.57 781.43,-338.59"/>
</g>
<!-- Node34 -->
<g id="node32" class="node">
<title>Node34</title>
<g id="a_node32"><a xlink:href="buffer__inlines_8h_source.html" target="_top" xlink:title=" ">
<polygon fill="white" stroke="black" points="541,-280.5 541,-299.5 633,-299.5 633,-280.5 541,-280.5"/>
<text text-anchor="middle" x="587" y="-287.5" font-family="Helvetica,sans-Serif" font-size="10.00">buffer_inlines.h</text>
</a>
</g>
</g>
<!-- Node12&#45;&gt;Node34 -->
<g id="edge38" class="edge">
<title>Node12&#45;&gt;Node34</title>
<path fill="none" stroke="midnightblue" d="M699.52,-332.91C672.26,-322.75 634.01,-308.51 609.87,-299.52"/>
<polygon fill="midnightblue" stroke="midnightblue" points="698.43,-336.23 709.02,-336.44 700.87,-329.67 698.43,-336.23"/>
</g>
<!-- Node35 -->
<g id="node33" class="node">
<title>Node35</title>
<g id="a_node33"><a xlink:href="packet__inlines_8h.html" target="_top" xlink:title=" ">
<polygon fill="white" stroke="black" points="856.5,-280.5 856.5,-299.5 951.5,-299.5 951.5,-280.5 856.5,-280.5"/>
<text text-anchor="middle" x="904" y="-287.5" font-family="Helvetica,sans-Serif" font-size="10.00">packet_inlines.h</text>
</a>
</g>
</g>
<!-- Node12&#45;&gt;Node35 -->
<g id="edge39" class="edge">
<title>Node12&#45;&gt;Node35</title>
<path fill="none" stroke="midnightblue" d="M768.83,-333.44C801.26,-323.26 847.74,-308.66 876.87,-299.52"/>
<polygon fill="midnightblue" stroke="midnightblue" points="767.75,-330.11 759.25,-336.44 769.84,-336.79 767.75,-330.11"/>
</g>
<!-- Node36 -->
<g id="node34" class="node">
<title>Node36</title>
<g id="a_node34"><a xlink:href="packet__vector__inlines_8h.html" target="_top" xlink:title=" ">
<polygon fill="white" stroke="black" points="1008.5,-280.5 1008.5,-299.5 1139.5,-299.5 1139.5,-280.5 1008.5,-280.5"/>
<text text-anchor="middle" x="1074" y="-287.5" font-family="Helvetica,sans-Serif" font-size="10.00">packet_vector_inlines.h</text>
</a>
</g>
</g>
<!-- Node12&#45;&gt;Node36 -->
<g id="edge40" class="edge">
<title>Node12&#45;&gt;Node36</title>
<path fill="none" stroke="midnightblue" d="M781.72,-337.15C845.15,-327.13 954.46,-309.87 1019.92,-299.54"/>
<polygon fill="midnightblue" stroke="midnightblue" points="780.9,-333.74 771.57,-338.75 781.99,-340.65 780.9,-333.74"/>
</g>
<!-- Node37 -->
<g id="node35" class="node">
<title>Node37</title>
<g id="a_node35"><a xlink:href="pool__inlines_8h_source.html" target="_top" xlink:title=" ">
<polygon fill="white" stroke="black" points="651,-280.5 651,-299.5 735,-299.5 735,-280.5 651,-280.5"/>
<text text-anchor="middle" x="693" y="-287.5" font-family="Helvetica,sans-Serif" font-size="10.00">pool_inlines.h</text>
</a>
</g>
</g>
<!-- Node12&#45;&gt;Node37 -->
<g id="edge41" class="edge">
<title>Node12&#45;&gt;Node37</title>
<path fill="none" stroke="midnightblue" d="M719.62,-327.86C712.86,-318.5 704.79,-307.33 699.32,-299.75"/>
<polygon fill="midnightblue" stroke="midnightblue" points="716.87,-330.03 725.56,-336.08 722.54,-325.93 716.87,-330.03"/>
</g>
<!-- Node16 -->
<g id="node15" class="node">
<title>Node16</title>
<g id="a_node15"><a xlink:href="classification_8h.html" target="_top" xlink:title=" ">
<polygon fill="white" stroke="black" points="213.5,-112.5 213.5,-131.5 302.5,-131.5 302.5,-112.5 213.5,-112.5"/>
<text text-anchor="middle" x="258" y="-119.5" font-family="Helvetica,sans-Serif" font-size="10.00">classification.h</text>
</a>
</g>
</g>
<!-- Node15&#45;&gt;Node16 -->
<g id="edge14" class="edge">
<title>Node15&#45;&gt;Node16</title>
<path fill="none" stroke="midnightblue" d="M258,-157.8C258,-148.91 258,-138.78 258,-131.75"/>
<polygon fill="midnightblue" stroke="midnightblue" points="254.5,-158.08 258,-168.08 261.5,-158.08 254.5,-158.08"/>
</g>
<!-- Node17 -->
<g id="node16" class="node">
<title>Node17</title>
<g id="a_node16"><a xlink:href="spec_2ipsec_8h.html" target="_top" xlink:title=" ">
<polygon fill="white" stroke="black" points="93.5,-56.5 93.5,-75.5 144.5,-75.5 144.5,-56.5 93.5,-56.5"/>
<text text-anchor="middle" x="119" y="-63.5" font-family="Helvetica,sans-Serif" font-size="10.00">ipsec.h</text>
</a>
</g>
</g>
<!-- Node16&#45;&gt;Node17 -->
<g id="edge15" class="edge">
<title>Node16&#45;&gt;Node17</title>
<path fill="none" stroke="midnightblue" d="M226.52,-108.77C200.41,-98.63 163.96,-84.47 140.92,-75.52"/>
<polygon fill="midnightblue" stroke="midnightblue" points="225.39,-112.08 235.98,-112.44 227.92,-105.56 225.39,-112.08"/>
</g>
<!-- Node16&#45;&gt;Node19 -->
<g id="edge17" class="edge">
<title>Node16&#45;&gt;Node19</title>
<path fill="none" stroke="midnightblue" d="M285.01,-107.86C305.59,-97.85 333.34,-84.35 351.21,-75.65"/>
<polygon fill="midnightblue" stroke="midnightblue" points="283.3,-104.8 275.83,-112.32 286.36,-111.1 283.3,-104.8"/>
</g>
<!-- Node18 -->
<g id="node17" class="node">
<title>Node18</title>
<g id="a_node17"><a xlink:href="ipsec_8h.html" target="_top" xlink:title=" ">
<polygon fill="white" stroke="black" points="93.5,-0.5 93.5,-19.5 144.5,-19.5 144.5,-0.5 93.5,-0.5"/>
<text text-anchor="middle" x="119" y="-7.5" font-family="Helvetica,sans-Serif" font-size="10.00">ipsec.h</text>
</a>
</g>
</g>
<!-- Node17&#45;&gt;Node18 -->
<g id="edge16" class="edge">
<title>Node17&#45;&gt;Node18</title>
<path fill="none" stroke="midnightblue" d="M119,-45.8C119,-36.91 119,-26.78 119,-19.75"/>
<polygon fill="midnightblue" stroke="midnightblue" points="115.5,-46.08 119,-56.08 122.5,-46.08 115.5,-46.08"/>
</g>
<!-- Node20 -->
<g id="node19" class="node">
<title>Node20</title>
<g id="a_node19"><a xlink:href="packet__io_8h.html" target="_top" xlink:title=" ">
<polygon fill="white" stroke="black" points="333,-0.5 333,-19.5 405,-19.5 405,-0.5 333,-0.5"/>
<text text-anchor="middle" x="369" y="-7.5" font-family="Helvetica,sans-Serif" font-size="10.00">packet_io.h</text>
</a>
</g>
</g>
<!-- Node19&#45;&gt;Node20 -->
<g id="edge18" class="edge">
<title>Node19&#45;&gt;Node20</title>
<path fill="none" stroke="midnightblue" d="M369,-45.8C369,-36.91 369,-26.78 369,-19.75"/>
<polygon fill="midnightblue" stroke="midnightblue" points="365.5,-46.08 369,-56.08 372.5,-46.08 365.5,-46.08"/>
</g>
<!-- Node22 -->
<g id="node21" class="node">
<title>Node22</title>
<g id="a_node21"><a xlink:href="crypto_8h.html" target="_top" xlink:title=" ">
<polygon fill="white" stroke="black" points="0,-168.5 0,-187.5 56,-187.5 56,-168.5 0,-168.5"/>
<text text-anchor="middle" x="28" y="-175.5" font-family="Helvetica,sans-Serif" font-size="10.00">crypto.h</text>
</a>
</g>
</g>
<!-- Node21&#45;&gt;Node22 -->
<g id="edge20" class="edge">
<title>Node21&#45;&gt;Node22</title>
<path fill="none" stroke="midnightblue" d="M281.56,-282.4C244.85,-275.39 188.42,-262.7 142,-244 102.9,-228.25 60.78,-201.32 40.42,-187.59"/>
<polygon fill="midnightblue" stroke="midnightblue" points="281.35,-285.93 291.82,-284.32 282.63,-279.04 281.35,-285.93"/>
</g>
<!-- Node22&#45;&gt;Node17 -->
<g id="edge21" class="edge">
<title>Node22&#45;&gt;Node17</title>
<path fill="none" stroke="midnightblue" d="M37.78,-159.29C45.66,-145.73 57.45,-126.87 70,-112 81.77,-98.05 97.67,-84.18 108.13,-75.6"/>
<polygon fill="midnightblue" stroke="midnightblue" points="34.67,-157.68 32.78,-168.1 40.76,-161.13 34.67,-157.68"/>
</g>
<!-- Node24 -->
<g id="node23" class="node">
<title>Node24</title>
<g id="a_node23"><a xlink:href="packet_8h.html" target="_top" xlink:title=" ">
<polygon fill="white" stroke="black" points="1008,-112.5 1008,-131.5 1066,-131.5 1066,-112.5 1008,-112.5"/>
<text text-anchor="middle" x="1037" y="-119.5" font-family="Helvetica,sans-Serif" font-size="10.00">packet.h</text>
</a>
</g>
</g>
<!-- Node23&#45;&gt;Node24 -->
<g id="edge24" class="edge">
<title>Node23&#45;&gt;Node24</title>
<path fill="none" stroke="midnightblue" d="M882.01,-166.14C919.16,-155.8 974.24,-140.47 1007.76,-131.14"/>
<polygon fill="midnightblue" stroke="midnightblue" points="880.74,-162.86 872.04,-168.92 882.62,-169.61 880.74,-162.86"/>
</g>
<!-- Node25 -->
<g id="node24" class="node">
<title>Node25</title>
<g id="a_node24"><a xlink:href="event__inlines_8h_source.html" target="_top" xlink:title=" ">
<polygon fill="white" stroke="black" points="991.5,-56.5 991.5,-75.5 1082.5,-75.5 1082.5,-56.5 991.5,-56.5"/>
<text text-anchor="middle" x="1037" y="-63.5" font-family="Helvetica,sans-Serif" font-size="10.00">event_inlines.h</text>
</a>
</g>
</g>
<!-- Node24&#45;&gt;Node25 -->
<g id="edge25" class="edge">
<title>Node24&#45;&gt;Node25</title>
<path fill="none" stroke="midnightblue" d="M1037,-101.8C1037,-92.91 1037,-82.78 1037,-75.75"/>
<polygon fill="midnightblue" stroke="midnightblue" points="1033.5,-102.08 1037,-112.08 1040.5,-102.08 1033.5,-102.08"/>
</g>
<!-- Node27 -->
<g id="node26" class="node">
<title>Node27</title>
<g id="a_node26"><a xlink:href="packet__io__types_8h.html" target="_top" xlink:title=" ">
<polygon fill="white" stroke="black" points="151,-224.5 151,-243.5 255,-243.5 255,-224.5 151,-224.5"/>
<text text-anchor="middle" x="203" y="-231.5" font-family="Helvetica,sans-Serif" font-size="10.00">packet_io_types.h</text>
</a>
</g>
</g>
<!-- Node26&#45;&gt;Node27 -->
<g id="edge27" class="edge">
<title>Node26&#45;&gt;Node27</title>
<path fill="none" stroke="midnightblue" d="M190.55,-270.4C193.72,-261.36 197.39,-250.94 199.92,-243.75"/>
<polygon fill="midnightblue" stroke="midnightblue" points="187.15,-269.49 187.14,-280.08 193.76,-271.81 187.15,-269.49"/>
</g>
<!-- Node27&#45;&gt;Node15 -->
<g id="edge28" class="edge">
<title>Node27&#45;&gt;Node15</title>
<path fill="none" stroke="midnightblue" d="M219.29,-217C229.04,-207.43 241.05,-195.64 249.09,-187.75"/>
<polygon fill="midnightblue" stroke="midnightblue" points="216.77,-214.58 212.08,-224.08 221.67,-219.57 216.77,-214.58"/>
</g>
<!-- Node27&#45;&gt;Node17 -->
<g id="edge29" class="edge">
<title>Node27&#45;&gt;Node17</title>
<path fill="none" stroke="midnightblue" d="M148.58,-221.13C131,-214.43 113.38,-204.05 103,-188 79.64,-151.88 103.39,-96.96 114.22,-75.77"/>
<polygon fill="midnightblue" stroke="midnightblue" points="147.71,-224.53 158.3,-224.48 149.99,-217.91 147.71,-224.53"/>
</g>
<!-- Node27&#45;&gt;Node19 -->
<g id="edge31" class="edge">
<title>Node27&#45;&gt;Node19</title>
<path fill="none" stroke="midnightblue" d="M250.58,-221.45C271.15,-214.52 294.27,-203.87 311,-188 328.74,-171.16 356.4,-100.53 365.77,-75.69"/>
<polygon fill="midnightblue" stroke="midnightblue" points="249.52,-218.12 241.04,-224.47 251.63,-224.79 249.52,-218.12"/>
</g>
<!-- Node27&#45;&gt;Node23 -->
<g id="edge30" class="edge">
<title>Node27&#45;&gt;Node23</title>
<path fill="none" stroke="midnightblue" d="M265.29,-227.74C400.47,-216.34 716.41,-189.68 813.86,-181.46"/>
<polygon fill="midnightblue" stroke="midnightblue" points="264.77,-224.28 255.1,-228.6 265.36,-231.25 264.77,-224.28"/>
</g>
<!-- Node28 -->
<g id="node27" class="node">
<title>Node28</title>
<g id="a_node27"><a xlink:href="spec_2traffic__mngr_8h.html" target="_top" xlink:title=" ">
<polygon fill="white" stroke="black" points="112,-168.5 112,-187.5 196,-187.5 196,-168.5 112,-168.5"/>
<text text-anchor="middle" x="154" y="-175.5" font-family="Helvetica,sans-Serif" font-size="10.00">traffic_mngr.h</text>
</a>
</g>
</g>
<!-- Node27&#45;&gt;Node28 -->
<g id="edge32" class="edge">
<title>Node27&#45;&gt;Node28</title>
<path fill="none" stroke="midnightblue" d="M187.97,-216.43C179.38,-206.97 168.96,-195.48 161.94,-187.75"/>
<polygon fill="midnightblue" stroke="midnightblue" points="185.6,-219.03 194.91,-224.08 190.78,-214.33 185.6,-219.03"/>
</g>
<!-- Node29 -->
<g id="node28" class="node">
<title>Node29</title>
<g id="a_node28"><a xlink:href="traffic__mngr_8h.html" target="_top" xlink:title=" ">
<polygon fill="white" stroke="black" points="112,-112.5 112,-131.5 196,-131.5 196,-112.5 112,-112.5"/>
<text text-anchor="middle" x="154" y="-119.5" font-family="Helvetica,sans-Serif" font-size="10.00">traffic_mngr.h</text>
</a>
</g>
</g>
<!-- Node28&#45;&gt;Node29 -->
<g id="edge33" class="edge">
<title>Node28&#45;&gt;Node29</title>
<path fill="none" stroke="midnightblue" d="M154,-157.8C154,-148.91 154,-138.78 154,-131.75"/>
<polygon fill="midnightblue" stroke="midnightblue" points="150.5,-158.08 154,-168.08 157.5,-158.08 150.5,-158.08"/>
</g>
<!-- Node29&#45;&gt;Node17 -->
<g id="edge34" class="edge">
<title>Node29&#45;&gt;Node17</title>
<path fill="none" stroke="midnightblue" d="M142.7,-103.57C136.68,-94.27 129.53,-83.25 124.67,-75.75"/>
<polygon fill="midnightblue" stroke="midnightblue" points="139.84,-105.6 148.22,-112.08 145.72,-101.79 139.84,-105.6"/>
</g>
<!-- Node33 -->
<g id="node31" class="node">
<title>Node33</title>
<g id="a_node31"><a xlink:href="timer_8h.html" target="_top" xlink:title=" ">
<polygon fill="white" stroke="black" points="1157.5,-224.5 1157.5,-243.5 1208.5,-243.5 1208.5,-224.5 1157.5,-224.5"/>
<text text-anchor="middle" x="1183" y="-231.5" font-family="Helvetica,sans-Serif" font-size="10.00">timer.h</text>
</a>
</g>
</g>
<!-- Node32&#45;&gt;Node33 -->
<g id="edge37" class="edge">
<title>Node32&#45;&gt;Node33</title>
<path fill="none" stroke="midnightblue" d="M1183,-269.8C1183,-260.91 1183,-250.78 1183,-243.75"/>
<polygon fill="midnightblue" stroke="midnightblue" points="1179.5,-270.08 1183,-280.08 1186.5,-270.08 1179.5,-270.08"/>
</g>
<!-- Node39 -->
<g id="node37" class="node">
<title>Node39</title>
<g id="a_node37"><a xlink:href="packet__io__stats_8h.html" target="_top" xlink:title=" ">
<polygon fill="white" stroke="black" points="310.5,-336.5 310.5,-355.5 411.5,-355.5 411.5,-336.5 310.5,-336.5"/>
<text text-anchor="middle" x="361" y="-343.5" font-family="Helvetica,sans-Serif" font-size="10.00">packet_io_stats.h</text>
</a>
</g>
</g>
<!-- Node38&#45;&gt;Node39 -->
<g id="edge44" class="edge">
<title>Node38&#45;&gt;Node39</title>
<path fill="none" stroke="midnightblue" d="M287.59,-387.45C305.68,-377.48 329.73,-364.23 345.29,-355.65"/>
<polygon fill="midnightblue" stroke="midnightblue" points="285.81,-384.43 278.75,-392.32 289.19,-390.56 285.81,-384.43"/>
</g>
<!-- Node39&#45;&gt;Node19 -->
<g id="edge45" class="edge">
<title>Node39&#45;&gt;Node19</title>
<path fill="none" stroke="midnightblue" d="M322.62,-332.5C307.49,-325.48 291.68,-315.02 283,-300 278.55,-292.3 280.85,-288.62 283,-280 294.22,-235.05 312.29,-229.92 332,-188 343.45,-163.65 347.02,-157.7 355,-132 361.16,-112.16 365.58,-88.08 367.66,-75.54"/>
<polygon fill="midnightblue" stroke="midnightblue" points="321.31,-335.75 331.88,-336.44 324.05,-329.31 321.31,-335.75"/>
</g>
<!-- Node39&#45;&gt;Node26 -->
<g id="edge46" class="edge">
<title>Node39&#45;&gt;Node26</title>
<path fill="none" stroke="midnightblue" d="M323.1,-333.44C289.72,-323.26 241.9,-308.66 211.91,-299.52"/>
<polygon fill="midnightblue" stroke="midnightblue" points="322.37,-336.87 332.95,-336.44 324.41,-330.18 322.37,-336.87"/>
</g>
<!-- Node41 -->
<g id="node39" class="node">
<title>Node41</title>
<g id="a_node39"><a xlink:href="packet__types_8h.html" target="_top" xlink:title=" ">
<polygon fill="white" stroke="black" points="936,-560.5 936,-579.5 1026,-579.5 1026,-560.5 936,-560.5"/>
<text text-anchor="middle" x="981" y="-567.5" font-family="Helvetica,sans-Serif" font-size="10.00">packet_types.h</text>
</a>
</g>
</g>
<!-- Node40&#45;&gt;Node41 -->
<g id="edge49" class="edge">
<title>Node40&#45;&gt;Node41</title>
<path fill="none" stroke="midnightblue" d="M1048.71,-611.18C1031.96,-601.24 1009.9,-588.15 995.58,-579.65"/>
<polygon fill="midnightblue" stroke="midnightblue" points="1046.99,-614.23 1057.38,-616.32 1050.57,-608.21 1046.99,-614.23"/>
</g>
<!-- Node41&#45;&gt;Node5 -->
<g id="edge50" class="edge">
<title>Node41&#45;&gt;Node5</title>
<path fill="none" stroke="midnightblue" d="M1036.16,-561.12C1118.65,-549.34 1270.97,-527.58 1332.35,-518.81"/>
<polygon fill="midnightblue" stroke="midnightblue" points="1035.62,-557.66 1026.22,-562.54 1036.61,-564.59 1035.62,-557.66"/>
</g>
<!-- Node41&#45;&gt;Node7 -->
<g id="edge52" class="edge">
<title>Node41&#45;&gt;Node7</title>
<path fill="none" stroke="midnightblue" d="M925.74,-559.59C862.55,-548.82 760.6,-531.46 704.41,-521.88"/>
<polygon fill="midnightblue" stroke="midnightblue" points="925.47,-563.09 935.92,-561.32 926.65,-556.19 925.47,-563.09"/>
</g>
<!-- Node41&#45;&gt;Node19 -->
<g id="edge59" class="edge">
<title>Node41&#45;&gt;Node19</title>
<path fill="none" stroke="midnightblue" d="M926.03,-563.33C900.62,-557.64 872.67,-546.35 857,-524 823.33,-475.96 831.92,-445.04 857,-392 887.23,-328.05 980,-361.74 980,-291 980,-291 980,-291 980,-177 980,-118.26 536.93,-79.79 405.39,-69.67"/>
<polygon fill="midnightblue" stroke="midnightblue" points="925.48,-566.79 935.97,-565.31 926.85,-559.93 925.48,-566.79"/>
</g>
<!-- Node41&#45;&gt;Node21 -->
<g id="edge51" class="edge">
<title>Node41&#45;&gt;Node21</title>
<path fill="none" stroke="midnightblue" d="M937.78,-557.85C906.04,-549.36 862.02,-536.96 824,-524 636.55,-460.09 598.84,-421.07 420,-336 392.32,-322.83 359.9,-308.43 339.66,-299.55"/>
<polygon fill="midnightblue" stroke="midnightblue" points="937.06,-561.28 947.63,-560.46 938.86,-554.51 937.06,-561.28"/>
</g>
<!-- Node41&#45;&gt;Node23 -->
<g id="edge56" class="edge">
<title>Node41&#45;&gt;Node23</title>
<path fill="none" stroke="midnightblue" d="M1036.23,-564.77C1100.81,-556.45 1199,-531.83 1199,-459 1199,-459 1199,-459 1199,-401 1199,-321.88 1270.51,-283.18 1218,-224 1195.1,-198.19 956.31,-184.4 872.16,-180.31"/>
<polygon fill="midnightblue" stroke="midnightblue" points="1035.68,-561.31 1026.17,-565.97 1036.51,-568.26 1035.68,-561.31"/>
</g>
<!-- Node41&#45;&gt;Node26 -->
<g id="edge60" class="edge">
<title>Node41&#45;&gt;Node26</title>
<path fill="none" stroke="midnightblue" d="M925.62,-568.48C852.75,-566.38 721.45,-557.72 615,-524 435.79,-467.23 244.79,-334.83 195.92,-299.69"/>
<polygon fill="midnightblue" stroke="midnightblue" points="925.85,-571.98 935.94,-568.74 926.03,-564.99 925.85,-571.98"/>
</g>
<!-- Node41&#45;&gt;Node35 -->
<g id="edge61" class="edge">
<title>Node41&#45;&gt;Node35</title>
<path fill="none" stroke="midnightblue" d="M1005.37,-554.73C1015.95,-547.09 1027.22,-536.64 1033,-524 1047.04,-493.28 1044.39,-479.8 1033,-448 1008.85,-380.58 941.89,-321.36 915.19,-299.73"/>
<polygon fill="midnightblue" stroke="midnightblue" points="1003.15,-552 996.78,-560.47 1007.04,-557.82 1003.15,-552"/>
</g>
<!-- Node41&#45;&gt;Node36 -->
<g id="edge62" class="edge">
<title>Node41&#45;&gt;Node36</title>
<path fill="none" stroke="midnightblue" d="M1009.27,-555.77C1041.56,-538.47 1090,-504.88 1090,-459 1090,-459 1090,-459 1090,-401 1090,-362.98 1080.53,-318.34 1076.16,-299.78"/>
<polygon fill="midnightblue" stroke="midnightblue" points="1007.53,-552.73 1000.24,-560.42 1010.73,-558.96 1007.53,-552.73"/>
</g>
<!-- Node42 -->
<g id="node40" class="node">
<title>Node42</title>
<g id="a_node40"><a xlink:href="spec_2event_8h.html" target="_top" xlink:title=" ">
<polygon fill="white" stroke="black" points="866.5,-504.5 866.5,-523.5 919.5,-523.5 919.5,-504.5 866.5,-504.5"/>
<text text-anchor="middle" x="893" y="-511.5" font-family="Helvetica,sans-Serif" font-size="10.00">event.h</text>
</a>
</g>
</g>
<!-- Node41&#45;&gt;Node42 -->
<g id="edge53" class="edge">
<title>Node41&#45;&gt;Node42</title>
<path fill="none" stroke="midnightblue" d="M958.02,-554.9C941.89,-545 920.82,-532.07 907.1,-523.65"/>
<polygon fill="midnightblue" stroke="midnightblue" points="956.51,-558.08 966.86,-560.32 960.17,-552.11 956.51,-558.08"/>
</g>
<!-- Node45 -->
<g id="node43" class="node">
<title>Node45</title>
<g id="a_node43"><a xlink:href="spec_2packet__flags_8h.html" target="_top" xlink:title=" ">
<polygon fill="white" stroke="black" points="938,-504.5 938,-523.5 1024,-523.5 1024,-504.5 938,-504.5"/>
<text text-anchor="middle" x="981" y="-511.5" font-family="Helvetica,sans-Serif" font-size="10.00">packet_flags.h</text>
</a>
</g>
</g>
<!-- Node41&#45;&gt;Node45 -->
<g id="edge57" class="edge">
<title>Node41&#45;&gt;Node45</title>
<path fill="none" stroke="midnightblue" d="M981,-549.8C981,-540.91 981,-530.78 981,-523.75"/>
<polygon fill="midnightblue" stroke="midnightblue" points="977.5,-550.08 981,-560.08 984.5,-550.08 977.5,-550.08"/>
</g>
<!-- Node43 -->
<g id="node41" class="node">
<title>Node43</title>
<g id="a_node41"><a xlink:href="event_8h.html" target="_top" xlink:title=" ">
<polygon fill="white" stroke="black" points="866.5,-448.5 866.5,-467.5 919.5,-467.5 919.5,-448.5 866.5,-448.5"/>
<text text-anchor="middle" x="893" y="-455.5" font-family="Helvetica,sans-Serif" font-size="10.00">event.h</text>
</a>
</g>
</g>
<!-- Node42&#45;&gt;Node43 -->
<g id="edge54" class="edge">
<title>Node42&#45;&gt;Node43</title>
<path fill="none" stroke="midnightblue" d="M893,-493.8C893,-484.91 893,-474.78 893,-467.75"/>
<polygon fill="midnightblue" stroke="midnightblue" points="889.5,-494.08 893,-504.08 896.5,-494.08 889.5,-494.08"/>
</g>
<!-- Node44 -->
<g id="node42" class="node">
<title>Node44</title>
<g id="a_node42"><a xlink:href="timer__inlines_8h_source.html" target="_top" xlink:title=" ">
<polygon fill="white" stroke="black" points="866.5,-392.5 866.5,-411.5 955.5,-411.5 955.5,-392.5 866.5,-392.5"/>
<text text-anchor="middle" x="911" y="-399.5" font-family="Helvetica,sans-Serif" font-size="10.00">timer_inlines.h</text>
</a>
</g>
</g>
<!-- Node43&#45;&gt;Node44 -->
<g id="edge55" class="edge">
<title>Node43&#45;&gt;Node44</title>
<path fill="none" stroke="midnightblue" d="M899.2,-438.4C902.21,-429.36 905.69,-418.94 908.08,-411.75"/>
<polygon fill="midnightblue" stroke="midnightblue" points="895.81,-437.49 895.97,-448.08 902.46,-439.7 895.81,-437.49"/>
</g>
<!-- Node46 -->
<g id="node44" class="node">
<title>Node46</title>
<g id="a_node44"><a xlink:href="packet__flags_8h.html" target="_top" xlink:title=" ">
<polygon fill="white" stroke="black" points="938,-448.5 938,-467.5 1024,-467.5 1024,-448.5 938,-448.5"/>
<text text-anchor="middle" x="981" y="-455.5" font-family="Helvetica,sans-Serif" font-size="10.00">packet_flags.h</text>
</a>
</g>
</g>
<!-- Node45&#45;&gt;Node46 -->
<g id="edge58" class="edge">
<title>Node45&#45;&gt;Node46</title>
<path fill="none" stroke="midnightblue" d="M981,-493.8C981,-484.91 981,-474.78 981,-467.75"/>
<polygon fill="midnightblue" stroke="midnightblue" points="977.5,-494.08 981,-504.08 984.5,-494.08 977.5,-494.08"/>
</g>
<!-- Node48 -->
<g id="node46" class="node">
<title>Node48</title>
<g id="a_node46"><a xlink:href="queue_8h.html" target="_top" xlink:title=" ">
<polygon fill="white" stroke="black" points="1303,-560.5 1303,-579.5 1359,-579.5 1359,-560.5 1303,-560.5"/>
<text text-anchor="middle" x="1331" y="-567.5" font-family="Helvetica,sans-Serif" font-size="10.00">queue.h</text>
</a>
</g>
</g>
<!-- Node47&#45;&gt;Node48 -->
<g id="edge64" class="edge">
<title>Node47&#45;&gt;Node48</title>
<path fill="none" stroke="midnightblue" d="M1331,-605.8C1331,-596.91 1331,-586.78 1331,-579.75"/>
<polygon fill="midnightblue" stroke="midnightblue" points="1327.5,-606.08 1331,-616.08 1334.5,-606.08 1327.5,-606.08"/>
</g>
<!-- Node50 -->
<g id="node48" class="node">
<title>Node50</title>
<g id="a_node48"><a xlink:href="schedule_8h.html" target="_top" xlink:title=" ">
<polygon fill="white" stroke="black" points="1553.5,-560.5 1553.5,-579.5 1622.5,-579.5 1622.5,-560.5 1553.5,-560.5"/>
<text text-anchor="middle" x="1588" y="-567.5" font-family="Helvetica,sans-Serif" font-size="10.00">schedule.h</text>
</a>
</g>
</g>
<!-- Node49&#45;&gt;Node50 -->
<g id="edge66" class="edge">
<title>Node49&#45;&gt;Node50</title>
<path fill="none" stroke="midnightblue" d="M1588,-605.8C1588,-596.91 1588,-586.78 1588,-579.75"/>
<polygon fill="midnightblue" stroke="midnightblue" points="1584.5,-606.08 1588,-616.08 1591.5,-606.08 1584.5,-606.08"/>
</g>
<!-- Node52 -->
<g id="node50" class="node">
<title>Node52</title>
<g id="a_node50"><a xlink:href="queue__inlines_8h_source.html" target="_top" xlink:title=" ">
<polygon fill="white" stroke="black" points="1428.5,-560.5 1428.5,-579.5 1521.5,-579.5 1521.5,-560.5 1428.5,-560.5"/>
<text text-anchor="middle" x="1475" y="-567.5" font-family="Helvetica,sans-Serif" font-size="10.00">queue_inlines.h</text>
</a>
</g>
</g>
<!-- Node51&#45;&gt;Node52 -->
<g id="edge69" class="edge">
<title>Node51&#45;&gt;Node52</title>
<path fill="none" stroke="midnightblue" d="M1475,-605.8C1475,-596.91 1475,-586.78 1475,-579.75"/>
<polygon fill="midnightblue" stroke="midnightblue" points="1471.5,-606.08 1475,-616.08 1478.5,-606.08 1471.5,-606.08"/>
</g>
</g>
</svg>
