<?xml version="1.0" encoding="UTF-8" standalone="no"?>
<!DOCTYPE svg PUBLIC "-//W3C//DTD SVG 1.1//EN"
 "http://www.w3.org/Graphics/SVG/1.1/DTD/svg11.dtd">
<!-- Generated by graphviz version 2.43.0 (0)
 -->
<!-- Title: event_types.h Pages: 1 -->
<svg width="1527pt" height="644pt"
 viewBox="0.00 0.00 1526.50 644.00" xmlns="http://www.w3.org/2000/svg" xmlns:xlink="http://www.w3.org/1999/xlink">
<g id="graph0" class="graph" transform="scale(1 1) rotate(0) translate(4 640)">
<title>event_types.h</title>
<polygon fill="white" stroke="transparent" points="-4,4 -4,-640 1522.5,-640 1522.5,4 -4,4"/>
<!-- Node1 -->
<g id="node1" class="node">
<title>Node1</title>
<g id="a_node1"><a xlink:title=" ">
<polygon fill="#bfbfbf" stroke="black" points="954.5,-616.5 954.5,-635.5 1040.5,-635.5 1040.5,-616.5 954.5,-616.5"/>
<text text-anchor="middle" x="997.5" y="-623.5" font-family="Helvetica,sans-Serif" font-size="10.00">event_types.h</text>
</a>
</g>
</g>
<!-- Node2 -->
<g id="node2" class="node">
<title>Node2</title>
<g id="a_node2"><a xlink:href="event__types_8h.html" target="_top" xlink:title=" ">
<polygon fill="white" stroke="black" points="954.5,-560.5 954.5,-579.5 1040.5,-579.5 1040.5,-560.5 954.5,-560.5"/>
<text text-anchor="middle" x="997.5" y="-567.5" font-family="Helvetica,sans-Serif" font-size="10.00">event_types.h</text>
</a>
</g>
</g>
<!-- Node1&#45;&gt;Node2 -->
<g id="edge1" class="edge">
<title>Node1&#45;&gt;Node2</title>
<path fill="none" stroke="midnightblue" d="M997.5,-605.8C997.5,-596.91 997.5,-586.78 997.5,-579.75"/>
<polygon fill="midnightblue" stroke="midnightblue" points="994,-606.08 997.5,-616.08 1001,-606.08 994,-606.08"/>
</g>
<!-- Node3 -->
<g id="node3" class="node">
<title>Node3</title>
<g id="a_node3"><a xlink:href="spec_2buffer_8h.html" target="_top" xlink:title=" ">
<polygon fill="white" stroke="black" points="0,-280.5 0,-299.5 53,-299.5 53,-280.5 0,-280.5"/>
<text text-anchor="middle" x="26.5" y="-287.5" font-family="Helvetica,sans-Serif" font-size="10.00">buffer.h</text>
</a>
</g>
</g>
<!-- Node2&#45;&gt;Node3 -->
<g id="edge2" class="edge">
<title>Node2&#45;&gt;Node3</title>
<path fill="none" stroke="midnightblue" d="M944.24,-568C753.31,-563.71 114.5,-543.09 114.5,-459 114.5,-459 114.5,-459 114.5,-401 114.5,-354.29 65.51,-316.05 40.64,-299.64"/>
<polygon fill="midnightblue" stroke="midnightblue" points="944.24,-571.5 954.31,-568.22 944.39,-564.5 944.24,-571.5"/>
</g>
<!-- Node5 -->
<g id="node5" class="node">
<title>Node5</title>
<g id="a_node5"><a xlink:href="spec_2comp_8h.html" target="_top" xlink:title=" ">
<polygon fill="white" stroke="black" points="602,-504.5 602,-523.5 655,-523.5 655,-504.5 602,-504.5"/>
<text text-anchor="middle" x="628.5" y="-511.5" font-family="Helvetica,sans-Serif" font-size="10.00">comp.h</text>
</a>
</g>
</g>
<!-- Node2&#45;&gt;Node5 -->
<g id="edge4" class="edge">
<title>Node2&#45;&gt;Node5</title>
<path fill="none" stroke="midnightblue" d="M944.26,-563.64C878.27,-556.58 762.52,-542.82 664.5,-524 661.46,-523.42 658.3,-522.74 655.16,-522.01"/>
<polygon fill="midnightblue" stroke="midnightblue" points="944.1,-567.15 954.41,-564.72 944.84,-560.18 944.1,-567.15"/>
</g>
<!-- Node7 -->
<g id="node7" class="node">
<title>Node7</title>
<g id="a_node7"><a xlink:href="spec_2dma__types_8h.html" target="_top" xlink:title=" ">
<polygon fill="white" stroke="black" points="673.5,-504.5 673.5,-523.5 753.5,-523.5 753.5,-504.5 673.5,-504.5"/>
<text text-anchor="middle" x="713.5" y="-511.5" font-family="Helvetica,sans-Serif" font-size="10.00">dma_types.h</text>
</a>
</g>
</g>
<!-- Node2&#45;&gt;Node7 -->
<g id="edge6" class="edge">
<title>Node2&#45;&gt;Node7</title>
<path fill="none" stroke="midnightblue" d="M944.41,-558.91C889.14,-548.4 803.8,-532.17 753.82,-522.67"/>
<polygon fill="midnightblue" stroke="midnightblue" points="943.89,-562.37 954.37,-560.8 945.2,-555.49 943.89,-562.37"/>
</g>
<!-- Node21 -->
<g id="node21" class="node">
<title>Node21</title>
<g id="a_node21"><a xlink:href="spec_2packet_8h.html" target="_top" xlink:title=" ">
<polygon fill="white" stroke="black" points="702.5,-168.5 702.5,-187.5 760.5,-187.5 760.5,-168.5 702.5,-168.5"/>
<text text-anchor="middle" x="731.5" y="-175.5" font-family="Helvetica,sans-Serif" font-size="10.00">packet.h</text>
</a>
</g>
</g>
<!-- Node2&#45;&gt;Node21 -->
<g id="edge46" class="edge">
<title>Node2&#45;&gt;Node21</title>
<path fill="none" stroke="midnightblue" d="M987.36,-551.43C976.1,-530.24 959.5,-493.19 959.5,-459 959.5,-459 959.5,-459 959.5,-289 959.5,-201.76 822.42,-183.68 760.84,-179.95"/>
<polygon fill="midnightblue" stroke="midnightblue" points="984.32,-553.17 992.22,-560.23 990.45,-549.78 984.32,-553.17"/>
</g>
<!-- Node23 -->
<g id="node23" class="node">
<title>Node23</title>
<g id="a_node23"><a xlink:href="event__inlines_8h_source.html" target="_top" xlink:title=" ">
<polygon fill="white" stroke="black" points="854,-56.5 854,-75.5 945,-75.5 945,-56.5 854,-56.5"/>
<text text-anchor="middle" x="899.5" y="-63.5" font-family="Helvetica,sans-Serif" font-size="10.00">event_inlines.h</text>
</a>
</g>
</g>
<!-- Node2&#45;&gt;Node23 -->
<g id="edge57" class="edge">
<title>Node2&#45;&gt;Node23</title>
<path fill="none" stroke="midnightblue" d="M997.5,-550.25C997.5,-528.36 997.5,-491.05 997.5,-459 997.5,-459 997.5,-459 997.5,-177 997.5,-128.66 944.08,-91.74 916.12,-75.73"/>
<polygon fill="midnightblue" stroke="midnightblue" points="994,-550.44 997.5,-560.44 1001,-550.44 994,-550.44"/>
</g>
<!-- Node30 -->
<g id="node30" class="node">
<title>Node30</title>
<g id="a_node30"><a xlink:href="spec_2timer_8h.html" target="_top" xlink:title=" ">
<polygon fill="white" stroke="black" points="1042,-280.5 1042,-299.5 1093,-299.5 1093,-280.5 1042,-280.5"/>
<text text-anchor="middle" x="1067.5" y="-287.5" font-family="Helvetica,sans-Serif" font-size="10.00">timer.h</text>
</a>
</g>
</g>
<!-- Node2&#45;&gt;Node30 -->
<g id="edge51" class="edge">
<title>Node2&#45;&gt;Node30</title>
<path fill="none" stroke="midnightblue" d="M1050.72,-569.15C1138.26,-568.3 1307.36,-561.67 1351.5,-524 1374.39,-504.46 1370.5,-489.1 1370.5,-459 1370.5,-459 1370.5,-459 1370.5,-401 1370.5,-342.17 1166.12,-305.78 1093.07,-294.65"/>
<polygon fill="midnightblue" stroke="midnightblue" points="1050.69,-565.65 1040.72,-569.23 1050.74,-572.65 1050.69,-565.65"/>
</g>
<!-- Node32 -->
<g id="node32" class="node">
<title>Node32</title>
<g id="a_node32"><a xlink:href="buffer__inlines_8h_source.html" target="_top" xlink:title=" ">
<polygon fill="white" stroke="black" points="689.5,-280.5 689.5,-299.5 781.5,-299.5 781.5,-280.5 689.5,-280.5"/>
<text text-anchor="middle" x="735.5" y="-287.5" font-family="Helvetica,sans-Serif" font-size="10.00">buffer_inlines.h</text>
</a>
</g>
</g>
<!-- Node2&#45;&gt;Node32 -->
<g id="edge56" class="edge">
<title>Node2&#45;&gt;Node32</title>
<path fill="none" stroke="midnightblue" d="M944.36,-564.8C880.41,-556.51 781.5,-531.9 781.5,-459 781.5,-459 781.5,-459 781.5,-401 781.5,-360.43 754.54,-317.5 741.9,-299.61"/>
<polygon fill="midnightblue" stroke="midnightblue" points="943.96,-568.28 954.31,-566 944.8,-561.33 943.96,-568.28"/>
</g>
<!-- Node34 -->
<g id="node34" class="node">
<title>Node34</title>
<g id="a_node34"><a xlink:href="packet__vector__inlines_8h.html" target="_top" xlink:title=" ">
<polygon fill="white" stroke="black" points="800,-280.5 800,-299.5 931,-299.5 931,-280.5 800,-280.5"/>
<text text-anchor="middle" x="865.5" y="-287.5" font-family="Helvetica,sans-Serif" font-size="10.00">packet_vector_inlines.h</text>
</a>
</g>
</g>
<!-- Node2&#45;&gt;Node34 -->
<g id="edge58" class="edge">
<title>Node2&#45;&gt;Node34</title>
<path fill="none" stroke="midnightblue" d="M970.38,-555.34C939.56,-537.68 893.5,-503.78 893.5,-459 893.5,-459 893.5,-459 893.5,-401 893.5,-362.18 876.92,-317.97 869.28,-299.65"/>
<polygon fill="midnightblue" stroke="midnightblue" points="968.94,-558.54 979.38,-560.3 972.31,-552.41 968.94,-558.54"/>
</g>
<!-- Node36 -->
<g id="node36" class="node">
<title>Node36</title>
<g id="a_node36"><a xlink:href="spec_2event_8h.html" target="_top" xlink:title=" ">
<polygon fill="white" stroke="black" points="1127,-504.5 1127,-523.5 1180,-523.5 1180,-504.5 1127,-504.5"/>
<text text-anchor="middle" x="1153.5" y="-511.5" font-family="Helvetica,sans-Serif" font-size="10.00">event.h</text>
</a>
</g>
</g>
<!-- Node2&#45;&gt;Node36 -->
<g id="edge43" class="edge">
<title>Node2&#45;&gt;Node36</title>
<path fill="none" stroke="midnightblue" d="M1031.67,-557.17C1061.04,-547 1102.7,-532.59 1128.9,-523.52"/>
<polygon fill="midnightblue" stroke="midnightblue" points="1030.52,-553.86 1022.22,-560.44 1032.81,-560.48 1030.52,-553.86"/>
</g>
<!-- Node39 -->
<g id="node39" class="node">
<title>Node39</title>
<g id="a_node39"><a xlink:href="spec_2queue_8h.html" target="_top" xlink:title=" ">
<polygon fill="white" stroke="black" points="1198.5,-504.5 1198.5,-523.5 1254.5,-523.5 1254.5,-504.5 1198.5,-504.5"/>
<text text-anchor="middle" x="1226.5" y="-511.5" font-family="Helvetica,sans-Serif" font-size="10.00">queue.h</text>
</a>
</g>
</g>
<!-- Node2&#45;&gt;Node39 -->
<g id="edge47" class="edge">
<title>Node2&#45;&gt;Node39</title>
<path fill="none" stroke="midnightblue" d="M1043.69,-558.13C1082.37,-549.03 1139.04,-535.68 1188.5,-524 1191.67,-523.25 1194.98,-522.47 1198.28,-521.69"/>
<polygon fill="midnightblue" stroke="midnightblue" points="1042.7,-554.77 1033.76,-560.47 1044.3,-561.59 1042.7,-554.77"/>
</g>
<!-- Node41 -->
<g id="node41" class="node">
<title>Node41</title>
<g id="a_node41"><a xlink:href="spec_2schedule_8h.html" target="_top" xlink:title=" ">
<polygon fill="white" stroke="black" points="1273,-504.5 1273,-523.5 1342,-523.5 1342,-504.5 1273,-504.5"/>
<text text-anchor="middle" x="1307.5" y="-511.5" font-family="Helvetica,sans-Serif" font-size="10.00">schedule.h</text>
</a>
</g>
</g>
<!-- Node2&#45;&gt;Node41 -->
<g id="edge49" class="edge">
<title>Node2&#45;&gt;Node41</title>
<path fill="none" stroke="midnightblue" d="M1050.88,-560.52C1104.66,-551.85 1189.97,-537.74 1263.5,-524 1266.57,-523.43 1269.75,-522.81 1272.93,-522.19"/>
<polygon fill="midnightblue" stroke="midnightblue" points="1050.21,-557.08 1040.89,-562.13 1051.32,-563.99 1050.21,-557.08"/>
</g>
<!-- Node43 -->
<g id="node43" class="node">
<title>Node43</title>
<g id="a_node43"><a xlink:href="spec_2timer__types_8h.html" target="_top" xlink:title=" ">
<polygon fill="white" stroke="black" points="1025.5,-504.5 1025.5,-523.5 1109.5,-523.5 1109.5,-504.5 1025.5,-504.5"/>
<text text-anchor="middle" x="1067.5" y="-511.5" font-family="Helvetica,sans-Serif" font-size="10.00">timer_types.h</text>
</a>
</g>
</g>
<!-- Node2&#45;&gt;Node43 -->
<g id="edge52" class="edge">
<title>Node2&#45;&gt;Node43</title>
<path fill="none" stroke="midnightblue" d="M1016.81,-554.1C1029.41,-544.38 1045.43,-532.03 1056.05,-523.83"/>
<polygon fill="midnightblue" stroke="midnightblue" points="1014.53,-551.44 1008.75,-560.32 1018.8,-556.99 1014.53,-551.44"/>
</g>
<!-- Node45 -->
<g id="node45" class="node">
<title>Node45</title>
<g id="a_node45"><a xlink:href="queue__inline__types_8h_source.html" target="_top" xlink:title=" ">
<polygon fill="white" stroke="black" points="1398.5,-504.5 1398.5,-523.5 1518.5,-523.5 1518.5,-504.5 1398.5,-504.5"/>
<text text-anchor="middle" x="1458.5" y="-511.5" font-family="Helvetica,sans-Serif" font-size="10.00">queue_inline_types.h</text>
</a>
</g>
</g>
<!-- Node2&#45;&gt;Node45 -->
<g id="edge59" class="edge">
<title>Node2&#45;&gt;Node45</title>
<path fill="none" stroke="midnightblue" d="M1050.84,-562.89C1125.48,-554.31 1265.34,-538.17 1384.5,-524 1389,-523.46 1393.65,-522.91 1398.33,-522.35"/>
<polygon fill="midnightblue" stroke="midnightblue" points="1050.28,-559.43 1040.75,-564.05 1051.08,-566.38 1050.28,-559.43"/>
</g>
<!-- Node4 -->
<g id="node4" class="node">
<title>Node4</title>
<g id="a_node4"><a xlink:href="buffer_8h.html" target="_top" xlink:title=" ">
<polygon fill="white" stroke="black" points="0,-224.5 0,-243.5 53,-243.5 53,-224.5 0,-224.5"/>
<text text-anchor="middle" x="26.5" y="-231.5" font-family="Helvetica,sans-Serif" font-size="10.00">buffer.h</text>
</a>
</g>
</g>
<!-- Node3&#45;&gt;Node4 -->
<g id="edge3" class="edge">
<title>Node3&#45;&gt;Node4</title>
<path fill="none" stroke="midnightblue" d="M26.5,-269.8C26.5,-260.91 26.5,-250.78 26.5,-243.75"/>
<polygon fill="midnightblue" stroke="midnightblue" points="23,-270.08 26.5,-280.08 30,-270.08 23,-270.08"/>
</g>
<!-- Node6 -->
<g id="node6" class="node">
<title>Node6</title>
<g id="a_node6"><a xlink:href="comp_8h.html" target="_top" xlink:title=" ">
<polygon fill="white" stroke="black" points="527,-448.5 527,-467.5 580,-467.5 580,-448.5 527,-448.5"/>
<text text-anchor="middle" x="553.5" y="-455.5" font-family="Helvetica,sans-Serif" font-size="10.00">comp.h</text>
</a>
</g>
</g>
<!-- Node5&#45;&gt;Node6 -->
<g id="edge5" class="edge">
<title>Node5&#45;&gt;Node6</title>
<path fill="none" stroke="midnightblue" d="M608.19,-498.38C594.64,-488.62 577.26,-476.11 565.77,-467.83"/>
<polygon fill="midnightblue" stroke="midnightblue" points="606.29,-501.32 616.45,-504.32 610.38,-495.64 606.29,-501.32"/>
</g>
<!-- Node8 -->
<g id="node8" class="node">
<title>Node8</title>
<g id="a_node8"><a xlink:href="dma__types_8h.html" target="_top" xlink:title=" ">
<polygon fill="white" stroke="black" points="598.5,-448.5 598.5,-467.5 678.5,-467.5 678.5,-448.5 598.5,-448.5"/>
<text text-anchor="middle" x="638.5" y="-455.5" font-family="Helvetica,sans-Serif" font-size="10.00">dma_types.h</text>
</a>
</g>
</g>
<!-- Node7&#45;&gt;Node8 -->
<g id="edge7" class="edge">
<title>Node7&#45;&gt;Node8</title>
<path fill="none" stroke="midnightblue" d="M693.19,-498.38C679.64,-488.62 662.26,-476.11 650.77,-467.83"/>
<polygon fill="midnightblue" stroke="midnightblue" points="691.29,-501.32 701.45,-504.32 695.38,-495.64 691.29,-501.32"/>
</g>
<!-- Node9 -->
<g id="node9" class="node">
<title>Node9</title>
<g id="a_node9"><a xlink:href="spec_2dma_8h.html" target="_top" xlink:title=" ">
<polygon fill="white" stroke="black" points="71,-280.5 71,-299.5 118,-299.5 118,-280.5 71,-280.5"/>
<text text-anchor="middle" x="94.5" y="-287.5" font-family="Helvetica,sans-Serif" font-size="10.00">dma.h</text>
</a>
</g>
</g>
<!-- Node8&#45;&gt;Node9 -->
<g id="edge8" class="edge">
<title>Node8&#45;&gt;Node9</title>
<path fill="none" stroke="midnightblue" d="M599.97,-445.52C569.66,-436.46 526.37,-423.49 488.5,-412 347.79,-369.29 179.1,-317.18 118.02,-298.28"/>
<polygon fill="midnightblue" stroke="midnightblue" points="599.14,-448.92 609.73,-448.43 601.15,-442.21 599.14,-448.92"/>
</g>
<!-- Node11 -->
<g id="node11" class="node">
<title>Node11</title>
<g id="a_node11"><a xlink:href="spec_2pool__types_8h.html" target="_top" xlink:title=" ">
<polygon fill="white" stroke="black" points="498,-392.5 498,-411.5 577,-411.5 577,-392.5 498,-392.5"/>
<text text-anchor="middle" x="537.5" y="-399.5" font-family="Helvetica,sans-Serif" font-size="10.00">pool_types.h</text>
</a>
</g>
</g>
<!-- Node8&#45;&gt;Node11 -->
<g id="edge10" class="edge">
<title>Node8&#45;&gt;Node11</title>
<path fill="none" stroke="midnightblue" d="M613.42,-443.59C594.74,-433.61 569.8,-420.27 553.69,-411.65"/>
<polygon fill="midnightblue" stroke="midnightblue" points="611.8,-446.7 622.27,-448.32 615.1,-440.52 611.8,-446.7"/>
</g>
<!-- Node10 -->
<g id="node10" class="node">
<title>Node10</title>
<g id="a_node10"><a xlink:href="dma_8h.html" target="_top" xlink:title=" ">
<polygon fill="white" stroke="black" points="71,-224.5 71,-243.5 118,-243.5 118,-224.5 71,-224.5"/>
<text text-anchor="middle" x="94.5" y="-231.5" font-family="Helvetica,sans-Serif" font-size="10.00">dma.h</text>
</a>
</g>
</g>
<!-- Node9&#45;&gt;Node10 -->
<g id="edge9" class="edge">
<title>Node9&#45;&gt;Node10</title>
<path fill="none" stroke="midnightblue" d="M94.5,-269.8C94.5,-260.91 94.5,-250.78 94.5,-243.75"/>
<polygon fill="midnightblue" stroke="midnightblue" points="91,-270.08 94.5,-280.08 98,-270.08 91,-270.08"/>
</g>
<!-- Node12 -->
<g id="node12" class="node">
<title>Node12</title>
<g id="a_node12"><a xlink:href="pool__types_8h.html" target="_top" xlink:title=" ">
<polygon fill="white" stroke="black" points="444,-336.5 444,-355.5 523,-355.5 523,-336.5 444,-336.5"/>
<text text-anchor="middle" x="483.5" y="-343.5" font-family="Helvetica,sans-Serif" font-size="10.00">pool_types.h</text>
</a>
</g>
</g>
<!-- Node11&#45;&gt;Node12 -->
<g id="edge11" class="edge">
<title>Node11&#45;&gt;Node12</title>
<path fill="none" stroke="midnightblue" d="M521.5,-385C511.93,-375.43 500.14,-363.64 492.25,-355.75"/>
<polygon fill="midnightblue" stroke="midnightblue" points="519.04,-387.49 528.58,-392.08 523.99,-382.54 519.04,-387.49"/>
</g>
<!-- Node12&#45;&gt;Node3 -->
<g id="edge12" class="edge">
<title>Node12&#45;&gt;Node3</title>
<path fill="none" stroke="midnightblue" d="M433.78,-342.05C354.53,-336.82 194.9,-324.13 61.5,-300 58.78,-299.51 55.97,-298.92 53.16,-298.28"/>
<polygon fill="midnightblue" stroke="midnightblue" points="433.75,-345.55 443.96,-342.71 434.2,-338.57 433.75,-345.55"/>
</g>
<!-- Node12&#45;&gt;Node9 -->
<g id="edge22" class="edge">
<title>Node12&#45;&gt;Node9</title>
<path fill="none" stroke="midnightblue" d="M433.8,-340.94C364.66,-334.79 235.75,-321.49 127.5,-300 124.47,-299.4 121.31,-298.67 118.2,-297.89"/>
<polygon fill="midnightblue" stroke="midnightblue" points="433.7,-344.44 443.96,-341.83 434.31,-337.47 433.7,-344.44"/>
</g>
<!-- Node13 -->
<g id="node13" class="node">
<title>Node13</title>
<g id="a_node13"><a xlink:href="spec_2classification_8h.html" target="_top" xlink:title=" ">
<polygon fill="white" stroke="black" points="330,-168.5 330,-187.5 419,-187.5 419,-168.5 330,-168.5"/>
<text text-anchor="middle" x="374.5" y="-175.5" font-family="Helvetica,sans-Serif" font-size="10.00">classification.h</text>
</a>
</g>
</g>
<!-- Node12&#45;&gt;Node13 -->
<g id="edge13" class="edge">
<title>Node12&#45;&gt;Node13</title>
<path fill="none" stroke="midnightblue" d="M433.8,-340.06C407.69,-334.64 377.8,-323.38 361.5,-300 336.85,-264.64 359.74,-208.8 370.06,-187.57"/>
<polygon fill="midnightblue" stroke="midnightblue" points="433.5,-343.56 443.96,-341.92 434.76,-336.67 433.5,-343.56"/>
</g>
<!-- Node19 -->
<g id="node19" class="node">
<title>Node19</title>
<g id="a_node19"><a xlink:href="spec_2crypto_8h.html" target="_top" xlink:title=" ">
<polygon fill="white" stroke="black" points="136.5,-280.5 136.5,-299.5 192.5,-299.5 192.5,-280.5 136.5,-280.5"/>
<text text-anchor="middle" x="164.5" y="-287.5" font-family="Helvetica,sans-Serif" font-size="10.00">crypto.h</text>
</a>
</g>
</g>
<!-- Node12&#45;&gt;Node19 -->
<g id="edge19" class="edge">
<title>Node12&#45;&gt;Node19</title>
<path fill="none" stroke="midnightblue" d="M433.52,-338.26C376.98,-330.36 282.26,-316.24 201.5,-300 198.65,-299.43 195.68,-298.78 192.73,-298.11"/>
<polygon fill="midnightblue" stroke="midnightblue" points="433.24,-341.76 443.62,-339.67 434.2,-334.82 433.24,-341.76"/>
</g>
<!-- Node12&#45;&gt;Node21 -->
<g id="edge23" class="edge">
<title>Node12&#45;&gt;Node21</title>
<path fill="none" stroke="midnightblue" d="M533.15,-339.48C566.46,-333.83 610.02,-322.52 642.5,-300 686.65,-269.39 717.37,-209.69 727.69,-187.54"/>
<polygon fill="midnightblue" stroke="midnightblue" points="532.49,-336.04 523.16,-341.06 533.58,-342.95 532.49,-336.04"/>
</g>
<!-- Node24 -->
<g id="node24" class="node">
<title>Node24</title>
<g id="a_node24"><a xlink:href="spec_2packet__io__types_8h.html" target="_top" xlink:title=" ">
<polygon fill="white" stroke="black" points="210.5,-280.5 210.5,-299.5 314.5,-299.5 314.5,-280.5 210.5,-280.5"/>
<text text-anchor="middle" x="262.5" y="-287.5" font-family="Helvetica,sans-Serif" font-size="10.00">packet_io_types.h</text>
</a>
</g>
</g>
<!-- Node12&#45;&gt;Node24 -->
<g id="edge26" class="edge">
<title>Node12&#45;&gt;Node24</title>
<path fill="none" stroke="midnightblue" d="M438.58,-334.02C396.83,-323.82 335.52,-308.84 297.35,-299.52"/>
<polygon fill="midnightblue" stroke="midnightblue" points="437.94,-337.47 448.48,-336.44 439.6,-330.67 437.94,-337.47"/>
</g>
<!-- Node28 -->
<g id="node28" class="node">
<title>Node28</title>
<g id="a_node28"><a xlink:href="spec_2pool_8h.html" target="_top" xlink:title=" ">
<polygon fill="white" stroke="black" points="371,-280.5 371,-299.5 418,-299.5 418,-280.5 371,-280.5"/>
<text text-anchor="middle" x="394.5" y="-287.5" font-family="Helvetica,sans-Serif" font-size="10.00">pool.h</text>
</a>
</g>
</g>
<!-- Node12&#45;&gt;Node28 -->
<g id="edge35" class="edge">
<title>Node12&#45;&gt;Node28</title>
<path fill="none" stroke="midnightblue" d="M460.26,-330.9C443.94,-321 422.63,-308.07 408.76,-299.65"/>
<polygon fill="midnightblue" stroke="midnightblue" points="458.84,-334.13 469.2,-336.32 462.47,-328.14 458.84,-334.13"/>
</g>
<!-- Node12&#45;&gt;Node30 -->
<g id="edge37" class="edge">
<title>Node12&#45;&gt;Node30</title>
<path fill="none" stroke="midnightblue" d="M533.15,-340.41C652.51,-329.37 952.29,-301.65 1041.85,-293.37"/>
<polygon fill="midnightblue" stroke="midnightblue" points="532.82,-336.92 523.18,-341.33 533.46,-343.9 532.82,-336.92"/>
</g>
<!-- Node12&#45;&gt;Node32 -->
<g id="edge39" class="edge">
<title>Node12&#45;&gt;Node32</title>
<path fill="none" stroke="midnightblue" d="M532.93,-334.41C580.52,-324.21 651.59,-308.98 695.66,-299.54"/>
<polygon fill="midnightblue" stroke="midnightblue" points="532.2,-330.99 523.15,-336.5 533.66,-337.83 532.2,-330.99"/>
</g>
<!-- Node33 -->
<g id="node33" class="node">
<title>Node33</title>
<g id="a_node33"><a xlink:href="packet__inlines_8h.html" target="_top" xlink:title=" ">
<polygon fill="white" stroke="black" points="436,-280.5 436,-299.5 531,-299.5 531,-280.5 436,-280.5"/>
<text text-anchor="middle" x="483.5" y="-287.5" font-family="Helvetica,sans-Serif" font-size="10.00">packet_inlines.h</text>
</a>
</g>
</g>
<!-- Node12&#45;&gt;Node33 -->
<g id="edge40" class="edge">
<title>Node12&#45;&gt;Node33</title>
<path fill="none" stroke="midnightblue" d="M483.5,-325.8C483.5,-316.91 483.5,-306.78 483.5,-299.75"/>
<polygon fill="midnightblue" stroke="midnightblue" points="480,-326.08 483.5,-336.08 487,-326.08 480,-326.08"/>
</g>
<!-- Node12&#45;&gt;Node34 -->
<g id="edge41" class="edge">
<title>Node12&#45;&gt;Node34</title>
<path fill="none" stroke="midnightblue" d="M533.6,-337.92C603.51,-328.03 730.16,-310.13 805.17,-299.53"/>
<polygon fill="midnightblue" stroke="midnightblue" points="532.71,-334.51 523.3,-339.37 533.69,-341.44 532.71,-334.51"/>
</g>
<!-- Node35 -->
<g id="node35" class="node">
<title>Node35</title>
<g id="a_node35"><a xlink:href="pool__inlines_8h_source.html" target="_top" xlink:title=" ">
<polygon fill="white" stroke="black" points="549.5,-280.5 549.5,-299.5 633.5,-299.5 633.5,-280.5 549.5,-280.5"/>
<text text-anchor="middle" x="591.5" y="-287.5" font-family="Helvetica,sans-Serif" font-size="10.00">pool_inlines.h</text>
</a>
</g>
</g>
<!-- Node12&#45;&gt;Node35 -->
<g id="edge42" class="edge">
<title>Node12&#45;&gt;Node35</title>
<path fill="none" stroke="midnightblue" d="M510.05,-331.73C530.05,-321.73 556.89,-308.31 574.19,-299.65"/>
<polygon fill="midnightblue" stroke="midnightblue" points="508.23,-328.72 500.85,-336.32 511.36,-334.98 508.23,-328.72"/>
</g>
<!-- Node14 -->
<g id="node14" class="node">
<title>Node14</title>
<g id="a_node14"><a xlink:href="classification_8h.html" target="_top" xlink:title=" ">
<polygon fill="white" stroke="black" points="330,-112.5 330,-131.5 419,-131.5 419,-112.5 330,-112.5"/>
<text text-anchor="middle" x="374.5" y="-119.5" font-family="Helvetica,sans-Serif" font-size="10.00">classification.h</text>
</a>
</g>
</g>
<!-- Node13&#45;&gt;Node14 -->
<g id="edge14" class="edge">
<title>Node13&#45;&gt;Node14</title>
<path fill="none" stroke="midnightblue" d="M374.5,-157.8C374.5,-148.91 374.5,-138.78 374.5,-131.75"/>
<polygon fill="midnightblue" stroke="midnightblue" points="371,-158.08 374.5,-168.08 378,-158.08 371,-158.08"/>
</g>
<!-- Node15 -->
<g id="node15" class="node">
<title>Node15</title>
<g id="a_node15"><a xlink:href="spec_2ipsec_8h.html" target="_top" xlink:title=" ">
<polygon fill="white" stroke="black" points="186,-56.5 186,-75.5 237,-75.5 237,-56.5 186,-56.5"/>
<text text-anchor="middle" x="211.5" y="-63.5" font-family="Helvetica,sans-Serif" font-size="10.00">ipsec.h</text>
</a>
</g>
</g>
<!-- Node14&#45;&gt;Node15 -->
<g id="edge15" class="edge">
<title>Node14&#45;&gt;Node15</title>
<path fill="none" stroke="midnightblue" d="M338.8,-109.17C308.1,-99 264.58,-84.59 237.21,-75.52"/>
<polygon fill="midnightblue" stroke="midnightblue" points="338.08,-112.62 348.67,-112.44 340.28,-105.98 338.08,-112.62"/>
</g>
<!-- Node17 -->
<g id="node17" class="node">
<title>Node17</title>
<g id="a_node17"><a xlink:href="spec_2packet__io_8h.html" target="_top" xlink:title=" ">
<polygon fill="white" stroke="black" points="285.5,-56.5 285.5,-75.5 357.5,-75.5 357.5,-56.5 285.5,-56.5"/>
<text text-anchor="middle" x="321.5" y="-63.5" font-family="Helvetica,sans-Serif" font-size="10.00">packet_io.h</text>
</a>
</g>
</g>
<!-- Node14&#45;&gt;Node17 -->
<g id="edge17" class="edge">
<title>Node14&#45;&gt;Node17</title>
<path fill="none" stroke="midnightblue" d="M358.52,-104.72C349.18,-95.2 337.75,-83.56 330.09,-75.75"/>
<polygon fill="midnightblue" stroke="midnightblue" points="356.25,-107.4 365.75,-112.08 361.24,-102.49 356.25,-107.4"/>
</g>
<!-- Node16 -->
<g id="node16" class="node">
<title>Node16</title>
<g id="a_node16"><a xlink:href="ipsec_8h.html" target="_top" xlink:title=" ">
<polygon fill="white" stroke="black" points="186,-0.5 186,-19.5 237,-19.5 237,-0.5 186,-0.5"/>
<text text-anchor="middle" x="211.5" y="-7.5" font-family="Helvetica,sans-Serif" font-size="10.00">ipsec.h</text>
</a>
</g>
</g>
<!-- Node15&#45;&gt;Node16 -->
<g id="edge16" class="edge">
<title>Node15&#45;&gt;Node16</title>
<path fill="none" stroke="midnightblue" d="M211.5,-45.8C211.5,-36.91 211.5,-26.78 211.5,-19.75"/>
<polygon fill="midnightblue" stroke="midnightblue" points="208,-46.08 211.5,-56.08 215,-46.08 208,-46.08"/>
</g>
<!-- Node18 -->
<g id="node18" class="node">
<title>Node18</title>
<g id="a_node18"><a xlink:href="packet__io_8h.html" target="_top" xlink:title=" ">
<polygon fill="white" stroke="black" points="285.5,-0.5 285.5,-19.5 357.5,-19.5 357.5,-0.5 285.5,-0.5"/>
<text text-anchor="middle" x="321.5" y="-7.5" font-family="Helvetica,sans-Serif" font-size="10.00">packet_io.h</text>
</a>
</g>
</g>
<!-- Node17&#45;&gt;Node18 -->
<g id="edge18" class="edge">
<title>Node17&#45;&gt;Node18</title>
<path fill="none" stroke="midnightblue" d="M321.5,-45.8C321.5,-36.91 321.5,-26.78 321.5,-19.75"/>
<polygon fill="midnightblue" stroke="midnightblue" points="318,-46.08 321.5,-56.08 325,-46.08 318,-46.08"/>
</g>
<!-- Node20 -->
<g id="node20" class="node">
<title>Node20</title>
<g id="a_node20"><a xlink:href="crypto_8h.html" target="_top" xlink:title=" ">
<polygon fill="white" stroke="black" points="77.5,-168.5 77.5,-187.5 133.5,-187.5 133.5,-168.5 77.5,-168.5"/>
<text text-anchor="middle" x="105.5" y="-175.5" font-family="Helvetica,sans-Serif" font-size="10.00">crypto.h</text>
</a>
</g>
</g>
<!-- Node19&#45;&gt;Node20 -->
<g id="edge20" class="edge">
<title>Node19&#45;&gt;Node20</title>
<path fill="none" stroke="midnightblue" d="M155.02,-271.32C142.17,-247.37 119.74,-205.55 110.11,-187.59"/>
<polygon fill="midnightblue" stroke="midnightblue" points="152.06,-273.21 159.87,-280.37 158.23,-269.9 152.06,-273.21"/>
</g>
<!-- Node20&#45;&gt;Node15 -->
<g id="edge21" class="edge">
<title>Node20&#45;&gt;Node15</title>
<path fill="none" stroke="midnightblue" d="M114.5,-159.27C122.08,-145.41 133.86,-126.18 147.5,-112 162,-96.92 182.21,-83.7 196.02,-75.56"/>
<polygon fill="midnightblue" stroke="midnightblue" points="111.32,-157.79 109.75,-168.26 117.51,-161.05 111.32,-157.79"/>
</g>
<!-- Node22 -->
<g id="node22" class="node">
<title>Node22</title>
<g id="a_node22"><a xlink:href="packet_8h.html" target="_top" xlink:title=" ">
<polygon fill="white" stroke="black" points="772.5,-112.5 772.5,-131.5 830.5,-131.5 830.5,-112.5 772.5,-112.5"/>
<text text-anchor="middle" x="801.5" y="-119.5" font-family="Helvetica,sans-Serif" font-size="10.00">packet.h</text>
</a>
</g>
</g>
<!-- Node21&#45;&gt;Node22 -->
<g id="edge24" class="edge">
<title>Node21&#45;&gt;Node22</title>
<path fill="none" stroke="midnightblue" d="M750.81,-162.1C763.41,-152.38 779.43,-140.03 790.05,-131.83"/>
<polygon fill="midnightblue" stroke="midnightblue" points="748.53,-159.44 742.75,-168.32 752.8,-164.99 748.53,-159.44"/>
</g>
<!-- Node22&#45;&gt;Node23 -->
<g id="edge25" class="edge">
<title>Node22&#45;&gt;Node23</title>
<path fill="none" stroke="midnightblue" d="M826.09,-107.45C844.18,-97.48 868.23,-84.23 883.79,-75.65"/>
<polygon fill="midnightblue" stroke="midnightblue" points="824.31,-104.43 817.25,-112.32 827.69,-110.56 824.31,-104.43"/>
</g>
<!-- Node25 -->
<g id="node25" class="node">
<title>Node25</title>
<g id="a_node25"><a xlink:href="packet__io__types_8h.html" target="_top" xlink:title=" ">
<polygon fill="white" stroke="black" points="210.5,-224.5 210.5,-243.5 314.5,-243.5 314.5,-224.5 210.5,-224.5"/>
<text text-anchor="middle" x="262.5" y="-231.5" font-family="Helvetica,sans-Serif" font-size="10.00">packet_io_types.h</text>
</a>
</g>
</g>
<!-- Node24&#45;&gt;Node25 -->
<g id="edge27" class="edge">
<title>Node24&#45;&gt;Node25</title>
<path fill="none" stroke="midnightblue" d="M262.5,-269.8C262.5,-260.91 262.5,-250.78 262.5,-243.75"/>
<polygon fill="midnightblue" stroke="midnightblue" points="259,-270.08 262.5,-280.08 266,-270.08 259,-270.08"/>
</g>
<!-- Node25&#45;&gt;Node13 -->
<g id="edge28" class="edge">
<title>Node25&#45;&gt;Node13</title>
<path fill="none" stroke="midnightblue" d="M289.75,-219.86C310.52,-209.85 338.52,-196.35 356.55,-187.65"/>
<polygon fill="midnightblue" stroke="midnightblue" points="287.98,-216.83 280.49,-224.32 291.02,-223.13 287.98,-216.83"/>
</g>
<!-- Node25&#45;&gt;Node15 -->
<g id="edge29" class="edge">
<title>Node25&#45;&gt;Node15</title>
<path fill="none" stroke="midnightblue" d="M221.13,-220.5C205.57,-213.55 189.47,-203.16 180.5,-188 163.29,-158.93 170.47,-144.25 180.5,-112 184.9,-97.87 195.45,-84.25 203.02,-75.77"/>
<polygon fill="midnightblue" stroke="midnightblue" points="220.11,-223.86 230.69,-224.38 222.75,-217.37 220.11,-223.86"/>
</g>
<!-- Node25&#45;&gt;Node17 -->
<g id="edge31" class="edge">
<title>Node25&#45;&gt;Node17</title>
<path fill="none" stroke="midnightblue" d="M270.93,-215.21C274.68,-207.01 279.02,-197.1 282.5,-188 298.34,-146.56 313.35,-95.6 319.07,-75.62"/>
<polygon fill="midnightblue" stroke="midnightblue" points="267.66,-213.94 266.61,-224.49 274,-216.9 267.66,-213.94"/>
</g>
<!-- Node25&#45;&gt;Node21 -->
<g id="edge30" class="edge">
<title>Node25&#45;&gt;Node21</title>
<path fill="none" stroke="midnightblue" d="M325.15,-225.79C427.78,-213.97 627.74,-190.95 702.43,-182.35"/>
<polygon fill="midnightblue" stroke="midnightblue" points="324.47,-222.34 314.94,-226.96 325.27,-229.3 324.47,-222.34"/>
</g>
<!-- Node26 -->
<g id="node26" class="node">
<title>Node26</title>
<g id="a_node26"><a xlink:href="spec_2traffic__mngr_8h.html" target="_top" xlink:title=" ">
<polygon fill="white" stroke="black" points="189.5,-168.5 189.5,-187.5 273.5,-187.5 273.5,-168.5 189.5,-168.5"/>
<text text-anchor="middle" x="231.5" y="-175.5" font-family="Helvetica,sans-Serif" font-size="10.00">traffic_mngr.h</text>
</a>
</g>
</g>
<!-- Node25&#45;&gt;Node26 -->
<g id="edge32" class="edge">
<title>Node25&#45;&gt;Node26</title>
<path fill="none" stroke="midnightblue" d="M252.32,-215.27C247.03,-206.05 240.78,-195.17 236.52,-187.75"/>
<polygon fill="midnightblue" stroke="midnightblue" points="249.37,-217.15 257.38,-224.08 255.44,-213.67 249.37,-217.15"/>
</g>
<!-- Node27 -->
<g id="node27" class="node">
<title>Node27</title>
<g id="a_node27"><a xlink:href="traffic__mngr_8h.html" target="_top" xlink:title=" ">
<polygon fill="white" stroke="black" points="189.5,-112.5 189.5,-131.5 273.5,-131.5 273.5,-112.5 189.5,-112.5"/>
<text text-anchor="middle" x="231.5" y="-119.5" font-family="Helvetica,sans-Serif" font-size="10.00">traffic_mngr.h</text>
</a>
</g>
</g>
<!-- Node26&#45;&gt;Node27 -->
<g id="edge33" class="edge">
<title>Node26&#45;&gt;Node27</title>
<path fill="none" stroke="midnightblue" d="M231.5,-157.8C231.5,-148.91 231.5,-138.78 231.5,-131.75"/>
<polygon fill="midnightblue" stroke="midnightblue" points="228,-158.08 231.5,-168.08 235,-158.08 228,-158.08"/>
</g>
<!-- Node27&#45;&gt;Node15 -->
<g id="edge34" class="edge">
<title>Node27&#45;&gt;Node15</title>
<path fill="none" stroke="midnightblue" d="M224.72,-102.69C221.35,-93.59 217.43,-83.01 214.74,-75.75"/>
<polygon fill="midnightblue" stroke="midnightblue" points="221.44,-103.92 228.2,-112.08 228.01,-101.49 221.44,-103.92"/>
</g>
<!-- Node29 -->
<g id="node29" class="node">
<title>Node29</title>
<g id="a_node29"><a xlink:href="pool_8h.html" target="_top" xlink:title=" ">
<polygon fill="white" stroke="black" points="371,-224.5 371,-243.5 418,-243.5 418,-224.5 371,-224.5"/>
<text text-anchor="middle" x="394.5" y="-231.5" font-family="Helvetica,sans-Serif" font-size="10.00">pool.h</text>
</a>
</g>
</g>
<!-- Node28&#45;&gt;Node29 -->
<g id="edge36" class="edge">
<title>Node28&#45;&gt;Node29</title>
<path fill="none" stroke="midnightblue" d="M394.5,-269.8C394.5,-260.91 394.5,-250.78 394.5,-243.75"/>
<polygon fill="midnightblue" stroke="midnightblue" points="391,-270.08 394.5,-280.08 398,-270.08 391,-270.08"/>
</g>
<!-- Node31 -->
<g id="node31" class="node">
<title>Node31</title>
<g id="a_node31"><a xlink:href="timer_8h.html" target="_top" xlink:title=" ">
<polygon fill="white" stroke="black" points="1042,-224.5 1042,-243.5 1093,-243.5 1093,-224.5 1042,-224.5"/>
<text text-anchor="middle" x="1067.5" y="-231.5" font-family="Helvetica,sans-Serif" font-size="10.00">timer.h</text>
</a>
</g>
</g>
<!-- Node30&#45;&gt;Node31 -->
<g id="edge38" class="edge">
<title>Node30&#45;&gt;Node31</title>
<path fill="none" stroke="midnightblue" d="M1067.5,-269.8C1067.5,-260.91 1067.5,-250.78 1067.5,-243.75"/>
<polygon fill="midnightblue" stroke="midnightblue" points="1064,-270.08 1067.5,-280.08 1071,-270.08 1064,-270.08"/>
</g>
<!-- Node37 -->
<g id="node37" class="node">
<title>Node37</title>
<g id="a_node37"><a xlink:href="event_8h.html" target="_top" xlink:title=" ">
<polygon fill="white" stroke="black" points="1127,-448.5 1127,-467.5 1180,-467.5 1180,-448.5 1127,-448.5"/>
<text text-anchor="middle" x="1153.5" y="-455.5" font-family="Helvetica,sans-Serif" font-size="10.00">event.h</text>
</a>
</g>
</g>
<!-- Node36&#45;&gt;Node37 -->
<g id="edge44" class="edge">
<title>Node36&#45;&gt;Node37</title>
<path fill="none" stroke="midnightblue" d="M1153.5,-493.8C1153.5,-484.91 1153.5,-474.78 1153.5,-467.75"/>
<polygon fill="midnightblue" stroke="midnightblue" points="1150,-494.08 1153.5,-504.08 1157,-494.08 1150,-494.08"/>
</g>
<!-- Node38 -->
<g id="node38" class="node">
<title>Node38</title>
<g id="a_node38"><a xlink:href="timer__inlines_8h_source.html" target="_top" xlink:title=" ">
<polygon fill="white" stroke="black" points="1103,-392.5 1103,-411.5 1192,-411.5 1192,-392.5 1103,-392.5"/>
<text text-anchor="middle" x="1147.5" y="-399.5" font-family="Helvetica,sans-Serif" font-size="10.00">timer_inlines.h</text>
</a>
</g>
</g>
<!-- Node37&#45;&gt;Node38 -->
<g id="edge45" class="edge">
<title>Node37&#45;&gt;Node38</title>
<path fill="none" stroke="midnightblue" d="M1151.4,-438.1C1150.4,-429.14 1149.26,-418.86 1148.47,-411.75"/>
<polygon fill="midnightblue" stroke="midnightblue" points="1147.93,-438.53 1152.51,-448.08 1154.88,-437.76 1147.93,-438.53"/>
</g>
<!-- Node40 -->
<g id="node40" class="node">
<title>Node40</title>
<g id="a_node40"><a xlink:href="queue_8h.html" target="_top" xlink:title=" ">
<polygon fill="white" stroke="black" points="1198.5,-448.5 1198.5,-467.5 1254.5,-467.5 1254.5,-448.5 1198.5,-448.5"/>
<text text-anchor="middle" x="1226.5" y="-455.5" font-family="Helvetica,sans-Serif" font-size="10.00">queue.h</text>
</a>
</g>
</g>
<!-- Node39&#45;&gt;Node40 -->
<g id="edge48" class="edge">
<title>Node39&#45;&gt;Node40</title>
<path fill="none" stroke="midnightblue" d="M1226.5,-493.8C1226.5,-484.91 1226.5,-474.78 1226.5,-467.75"/>
<polygon fill="midnightblue" stroke="midnightblue" points="1223,-494.08 1226.5,-504.08 1230,-494.08 1223,-494.08"/>
</g>
<!-- Node42 -->
<g id="node42" class="node">
<title>Node42</title>
<g id="a_node42"><a xlink:href="schedule_8h.html" target="_top" xlink:title=" ">
<polygon fill="white" stroke="black" points="1273,-448.5 1273,-467.5 1342,-467.5 1342,-448.5 1273,-448.5"/>
<text text-anchor="middle" x="1307.5" y="-455.5" font-family="Helvetica,sans-Serif" font-size="10.00">schedule.h</text>
</a>
</g>
</g>
<!-- Node41&#45;&gt;Node42 -->
<g id="edge50" class="edge">
<title>Node41&#45;&gt;Node42</title>
<path fill="none" stroke="midnightblue" d="M1307.5,-493.8C1307.5,-484.91 1307.5,-474.78 1307.5,-467.75"/>
<polygon fill="midnightblue" stroke="midnightblue" points="1304,-494.08 1307.5,-504.08 1311,-494.08 1304,-494.08"/>
</g>
<!-- Node44 -->
<g id="node44" class="node">
<title>Node44</title>
<g id="a_node44"><a xlink:href="timer__types_8h.html" target="_top" xlink:title=" ">
<polygon fill="white" stroke="black" points="1025.5,-448.5 1025.5,-467.5 1109.5,-467.5 1109.5,-448.5 1025.5,-448.5"/>
<text text-anchor="middle" x="1067.5" y="-455.5" font-family="Helvetica,sans-Serif" font-size="10.00">timer_types.h</text>
</a>
</g>
</g>
<!-- Node43&#45;&gt;Node44 -->
<g id="edge53" class="edge">
<title>Node43&#45;&gt;Node44</title>
<path fill="none" stroke="midnightblue" d="M1067.5,-493.8C1067.5,-484.91 1067.5,-474.78 1067.5,-467.75"/>
<polygon fill="midnightblue" stroke="midnightblue" points="1064,-494.08 1067.5,-504.08 1071,-494.08 1064,-494.08"/>
</g>
<!-- Node44&#45;&gt;Node30 -->
<g id="edge54" class="edge">
<title>Node44&#45;&gt;Node30</title>
<path fill="none" stroke="midnightblue" d="M1067.5,-437.93C1067.5,-401.92 1067.5,-325.23 1067.5,-299.57"/>
<polygon fill="midnightblue" stroke="midnightblue" points="1064,-438.08 1067.5,-448.08 1071,-438.08 1064,-438.08"/>
</g>
<!-- Node44&#45;&gt;Node38 -->
<g id="edge55" class="edge">
<title>Node44&#45;&gt;Node38</title>
<path fill="none" stroke="midnightblue" d="M1088.8,-442.62C1103.42,-432.76 1122.33,-419.99 1134.68,-411.65"/>
<polygon fill="midnightblue" stroke="midnightblue" points="1086.68,-439.83 1080.35,-448.32 1090.6,-445.63 1086.68,-439.83"/>
</g>
<!-- Node46 -->
<g id="node46" class="node">
<title>Node46</title>
<g id="a_node46"><a xlink:href="queue__inlines_8h_source.html" target="_top" xlink:title=" ">
<polygon fill="white" stroke="black" points="1412,-448.5 1412,-467.5 1505,-467.5 1505,-448.5 1412,-448.5"/>
<text text-anchor="middle" x="1458.5" y="-455.5" font-family="Helvetica,sans-Serif" font-size="10.00">queue_inlines.h</text>
</a>
</g>
</g>
<!-- Node45&#45;&gt;Node46 -->
<g id="edge60" class="edge">
<title>Node45&#45;&gt;Node46</title>
<path fill="none" stroke="midnightblue" d="M1458.5,-493.8C1458.5,-484.91 1458.5,-474.78 1458.5,-467.75"/>
<polygon fill="midnightblue" stroke="midnightblue" points="1455,-494.08 1458.5,-504.08 1462,-494.08 1455,-494.08"/>
</g>
</g>
</svg>
