<?xml version="1.0" encoding="UTF-8" standalone="no"?>
<!DOCTYPE svg PUBLIC "-//W3C//DTD SVG 1.1//EN"
 "http://www.w3.org/Graphics/SVG/1.1/DTD/svg11.dtd">
<!-- Generated by graphviz version 2.43.0 (0)
 -->
<!-- Title: queue_types.h Pages: 1 -->
<svg width="1399pt" height="756pt"
 viewBox="0.00 0.00 1398.50 756.00" xmlns="http://www.w3.org/2000/svg" xmlns:xlink="http://www.w3.org/1999/xlink">
<g id="graph0" class="graph" transform="scale(1 1) rotate(0) translate(4 752)">
<title>queue_types.h</title>
<polygon fill="white" stroke="transparent" points="-4,4 -4,-752 1394.5,-752 1394.5,4 -4,4"/>
<!-- Node1 -->
<g id="node1" class="node">
<title>Node1</title>
<g id="a_node1"><a xlink:title=" ">
<polygon fill="#bfbfbf" stroke="black" points="959.5,-728.5 959.5,-747.5 1047.5,-747.5 1047.5,-728.5 959.5,-728.5"/>
<text text-anchor="middle" x="1003.5" y="-735.5" font-family="Helvetica,sans-Serif" font-size="10.00">queue_types.h</text>
</a>
</g>
</g>
<!-- Node2 -->
<g id="node2" class="node">
<title>Node2</title>
<g id="a_node2"><a xlink:href="queue__types_8h.html" target="_top" xlink:title=" ">
<polygon fill="white" stroke="black" points="959.5,-672.5 959.5,-691.5 1047.5,-691.5 1047.5,-672.5 959.5,-672.5"/>
<text text-anchor="middle" x="1003.5" y="-679.5" font-family="Helvetica,sans-Serif" font-size="10.00">queue_types.h</text>
</a>
</g>
</g>
<!-- Node1&#45;&gt;Node2 -->
<g id="edge1" class="edge">
<title>Node1&#45;&gt;Node2</title>
<path fill="none" stroke="midnightblue" d="M1003.5,-717.8C1003.5,-708.91 1003.5,-698.78 1003.5,-691.75"/>
<polygon fill="midnightblue" stroke="midnightblue" points="1000,-718.08 1003.5,-728.08 1007,-718.08 1000,-718.08"/>
</g>
<!-- Node3 -->
<g id="node3" class="node">
<title>Node3</title>
<g id="a_node3"><a xlink:href="spec_2comp_8h.html" target="_top" xlink:title=" ">
<polygon fill="white" stroke="black" points="292,-504.5 292,-523.5 345,-523.5 345,-504.5 292,-504.5"/>
<text text-anchor="middle" x="318.5" y="-511.5" font-family="Helvetica,sans-Serif" font-size="10.00">comp.h</text>
</a>
</g>
</g>
<!-- Node2&#45;&gt;Node3 -->
<g id="edge2" class="edge">
<title>Node2&#45;&gt;Node3</title>
<path fill="none" stroke="midnightblue" d="M949.47,-679.77C872.08,-676.92 725.74,-667.44 605.5,-636 497.47,-607.75 376.98,-546.34 334.42,-523.65"/>
<polygon fill="midnightblue" stroke="midnightblue" points="949.35,-683.27 959.47,-680.12 949.59,-676.27 949.35,-683.27"/>
</g>
<!-- Node5 -->
<g id="node5" class="node">
<title>Node5</title>
<g id="a_node5"><a xlink:href="spec_2dma__types_8h.html" target="_top" xlink:title=" ">
<polygon fill="white" stroke="black" points="363.5,-504.5 363.5,-523.5 443.5,-523.5 443.5,-504.5 363.5,-504.5"/>
<text text-anchor="middle" x="403.5" y="-511.5" font-family="Helvetica,sans-Serif" font-size="10.00">dma_types.h</text>
</a>
</g>
</g>
<!-- Node2&#45;&gt;Node5 -->
<g id="edge4" class="edge">
<title>Node2&#45;&gt;Node5</title>
<path fill="none" stroke="midnightblue" d="M949.17,-678.99C880.65,-675.3 759.77,-664.93 660.5,-636 604,-619.54 593.75,-605.06 540.5,-580 497.86,-559.94 447.87,-536.15 421.65,-523.66"/>
<polygon fill="midnightblue" stroke="midnightblue" points="949.14,-682.49 959.3,-679.51 949.5,-675.5 949.14,-682.49"/>
</g>
<!-- Node17 -->
<g id="node17" class="node">
<title>Node17</title>
<g id="a_node17"><a xlink:href="spec_2packet__io_8h.html" target="_top" xlink:title=" ">
<polygon fill="white" stroke="black" points="1030.5,-56.5 1030.5,-75.5 1102.5,-75.5 1102.5,-56.5 1030.5,-56.5"/>
<text text-anchor="middle" x="1066.5" y="-63.5" font-family="Helvetica,sans-Serif" font-size="10.00">packet_io.h</text>
</a>
</g>
</g>
<!-- Node2&#45;&gt;Node17 -->
<g id="edge42" class="edge">
<title>Node2&#45;&gt;Node17</title>
<path fill="none" stroke="midnightblue" d="M1021.25,-665.34C1029.54,-657.25 1038.99,-646.83 1045.5,-636 1115.28,-519.86 1142.5,-482.49 1142.5,-347 1142.5,-347 1142.5,-347 1142.5,-177 1142.5,-132.2 1099.3,-92.43 1078.04,-75.57"/>
<polygon fill="midnightblue" stroke="midnightblue" points="1018.71,-662.92 1013.79,-672.31 1023.49,-668.04 1018.71,-662.92"/>
</g>
<!-- Node24 -->
<g id="node24" class="node">
<title>Node24</title>
<g id="a_node24"><a xlink:href="spec_2packet__io__types_8h.html" target="_top" xlink:title=" ">
<polygon fill="white" stroke="black" points="934.5,-280.5 934.5,-299.5 1038.5,-299.5 1038.5,-280.5 934.5,-280.5"/>
<text text-anchor="middle" x="986.5" y="-287.5" font-family="Helvetica,sans-Serif" font-size="10.00">packet_io_types.h</text>
</a>
</g>
</g>
<!-- Node2&#45;&gt;Node24 -->
<g id="edge47" class="edge">
<title>Node2&#45;&gt;Node24</title>
<path fill="none" stroke="midnightblue" d="M979.25,-667.09C951.11,-648.91 908.5,-614.26 908.5,-571 908.5,-571 908.5,-571 908.5,-457 908.5,-391.09 959.5,-323.23 979.02,-299.67"/>
<polygon fill="midnightblue" stroke="midnightblue" points="977.47,-670.1 987.81,-672.4 981.16,-664.15 977.47,-670.1"/>
</g>
<!-- Node30 -->
<g id="node30" class="node">
<title>Node30</title>
<g id="a_node30"><a xlink:href="spec_2timer_8h.html" target="_top" xlink:title=" ">
<polygon fill="white" stroke="black" points="865,-280.5 865,-299.5 916,-299.5 916,-280.5 865,-280.5"/>
<text text-anchor="middle" x="890.5" y="-287.5" font-family="Helvetica,sans-Serif" font-size="10.00">timer.h</text>
</a>
</g>
</g>
<!-- Node2&#45;&gt;Node30 -->
<g id="edge67" class="edge">
<title>Node2&#45;&gt;Node30</title>
<path fill="none" stroke="midnightblue" d="M998.28,-662.39C992.66,-640.65 984.5,-603.51 984.5,-571 984.5,-571 984.5,-571 984.5,-457 984.5,-388.77 923.63,-322.86 899.86,-299.72"/>
<polygon fill="midnightblue" stroke="midnightblue" points="994.96,-663.5 1000.94,-672.25 1001.72,-661.68 994.96,-663.5"/>
</g>
<!-- Node36 -->
<g id="node36" class="node">
<title>Node36</title>
<g id="a_node36"><a xlink:href="spec_2packet__io__stats_8h.html" target="_top" xlink:title=" ">
<polygon fill="white" stroke="black" points="1013,-392.5 1013,-411.5 1114,-411.5 1114,-392.5 1013,-392.5"/>
<text text-anchor="middle" x="1063.5" y="-399.5" font-family="Helvetica,sans-Serif" font-size="10.00">packet_io_stats.h</text>
</a>
</g>
</g>
<!-- Node2&#45;&gt;Node36 -->
<g id="edge43" class="edge">
<title>Node2&#45;&gt;Node36</title>
<path fill="none" stroke="midnightblue" d="M1013.91,-663.46C1025.46,-642.3 1042.5,-605.28 1042.5,-571 1042.5,-571 1042.5,-571 1042.5,-513 1042.5,-474.7 1054.94,-430.21 1060.67,-411.73"/>
<polygon fill="midnightblue" stroke="midnightblue" points="1010.81,-661.83 1008.92,-672.25 1016.9,-665.28 1010.81,-661.83"/>
</g>
<!-- Node38 -->
<g id="node38" class="node">
<title>Node38</title>
<g id="a_node38"><a xlink:href="spec_2packet__types_8h.html" target="_top" xlink:title=" ">
<polygon fill="white" stroke="black" points="669.5,-616.5 669.5,-635.5 759.5,-635.5 759.5,-616.5 669.5,-616.5"/>
<text text-anchor="middle" x="714.5" y="-623.5" font-family="Helvetica,sans-Serif" font-size="10.00">packet_types.h</text>
</a>
</g>
</g>
<!-- Node2&#45;&gt;Node38 -->
<g id="edge48" class="edge">
<title>Node2&#45;&gt;Node38</title>
<path fill="none" stroke="midnightblue" d="M949.42,-670.9C894.67,-660.67 810.97,-645.02 759.66,-635.44"/>
<polygon fill="midnightblue" stroke="midnightblue" points="948.82,-674.34 959.29,-672.74 950.11,-667.46 948.82,-674.34"/>
</g>
<!-- Node45 -->
<g id="node45" class="node">
<title>Node45</title>
<g id="a_node45"><a xlink:href="spec_2queue_8h.html" target="_top" xlink:title=" ">
<polygon fill="white" stroke="black" points="1108.5,-616.5 1108.5,-635.5 1164.5,-635.5 1164.5,-616.5 1108.5,-616.5"/>
<text text-anchor="middle" x="1136.5" y="-623.5" font-family="Helvetica,sans-Serif" font-size="10.00">queue.h</text>
</a>
</g>
</g>
<!-- Node2&#45;&gt;Node45 -->
<g id="edge63" class="edge">
<title>Node2&#45;&gt;Node45</title>
<path fill="none" stroke="midnightblue" d="M1033.95,-668.64C1058.91,-658.5 1093.58,-644.43 1115.52,-635.52"/>
<polygon fill="midnightblue" stroke="midnightblue" points="1032.52,-665.44 1024.57,-672.44 1035.16,-671.92 1032.52,-665.44"/>
</g>
<!-- Node47 -->
<g id="node47" class="node">
<title>Node47</title>
<g id="a_node47"><a xlink:href="spec_2schedule_8h.html" target="_top" xlink:title=" ">
<polygon fill="white" stroke="black" points="1183,-616.5 1183,-635.5 1252,-635.5 1252,-616.5 1183,-616.5"/>
<text text-anchor="middle" x="1217.5" y="-623.5" font-family="Helvetica,sans-Serif" font-size="10.00">schedule.h</text>
</a>
</g>
</g>
<!-- Node2&#45;&gt;Node47 -->
<g id="edge65" class="edge">
<title>Node2&#45;&gt;Node47</title>
<path fill="none" stroke="midnightblue" d="M1047.26,-669.96C1087.67,-659.76 1146.87,-644.82 1183.75,-635.52"/>
<polygon fill="midnightblue" stroke="midnightblue" points="1046.25,-666.6 1037.41,-672.44 1047.96,-673.39 1046.25,-666.6"/>
</g>
<!-- Node49 -->
<g id="node49" class="node">
<title>Node49</title>
<g id="a_node49"><a xlink:href="queue__inline__types_8h_source.html" target="_top" xlink:title=" ">
<polygon fill="white" stroke="black" points="1270.5,-616.5 1270.5,-635.5 1390.5,-635.5 1390.5,-616.5 1270.5,-616.5"/>
<text text-anchor="middle" x="1330.5" y="-623.5" font-family="Helvetica,sans-Serif" font-size="10.00">queue_inline_types.h</text>
</a>
</g>
</g>
<!-- Node2&#45;&gt;Node49 -->
<g id="edge68" class="edge">
<title>Node2&#45;&gt;Node49</title>
<path fill="none" stroke="midnightblue" d="M1057.48,-672.09C1118.85,-661.95 1218.34,-645.52 1278.76,-635.54"/>
<polygon fill="midnightblue" stroke="midnightblue" points="1056.9,-668.63 1047.6,-673.72 1058.04,-675.54 1056.9,-668.63"/>
</g>
<!-- Node4 -->
<g id="node4" class="node">
<title>Node4</title>
<g id="a_node4"><a xlink:href="comp_8h.html" target="_top" xlink:title=" ">
<polygon fill="white" stroke="black" points="292,-448.5 292,-467.5 345,-467.5 345,-448.5 292,-448.5"/>
<text text-anchor="middle" x="318.5" y="-455.5" font-family="Helvetica,sans-Serif" font-size="10.00">comp.h</text>
</a>
</g>
</g>
<!-- Node3&#45;&gt;Node4 -->
<g id="edge3" class="edge">
<title>Node3&#45;&gt;Node4</title>
<path fill="none" stroke="midnightblue" d="M318.5,-493.8C318.5,-484.91 318.5,-474.78 318.5,-467.75"/>
<polygon fill="midnightblue" stroke="midnightblue" points="315,-494.08 318.5,-504.08 322,-494.08 315,-494.08"/>
</g>
<!-- Node6 -->
<g id="node6" class="node">
<title>Node6</title>
<g id="a_node6"><a xlink:href="dma__types_8h.html" target="_top" xlink:title=" ">
<polygon fill="white" stroke="black" points="363.5,-448.5 363.5,-467.5 443.5,-467.5 443.5,-448.5 363.5,-448.5"/>
<text text-anchor="middle" x="403.5" y="-455.5" font-family="Helvetica,sans-Serif" font-size="10.00">dma_types.h</text>
</a>
</g>
</g>
<!-- Node5&#45;&gt;Node6 -->
<g id="edge5" class="edge">
<title>Node5&#45;&gt;Node6</title>
<path fill="none" stroke="midnightblue" d="M403.5,-493.8C403.5,-484.91 403.5,-474.78 403.5,-467.75"/>
<polygon fill="midnightblue" stroke="midnightblue" points="400,-494.08 403.5,-504.08 407,-494.08 400,-494.08"/>
</g>
<!-- Node7 -->
<g id="node7" class="node">
<title>Node7</title>
<g id="a_node7"><a xlink:href="spec_2dma_8h.html" target="_top" xlink:title=" ">
<polygon fill="white" stroke="black" points="0,-280.5 0,-299.5 47,-299.5 47,-280.5 0,-280.5"/>
<text text-anchor="middle" x="23.5" y="-287.5" font-family="Helvetica,sans-Serif" font-size="10.00">dma.h</text>
</a>
</g>
</g>
<!-- Node6&#45;&gt;Node7 -->
<g id="edge6" class="edge">
<title>Node6&#45;&gt;Node7</title>
<path fill="none" stroke="midnightblue" d="M374.67,-444.41C300.76,-412.12 105.94,-327.01 43.24,-299.62"/>
<polygon fill="midnightblue" stroke="midnightblue" points="373.3,-447.63 383.87,-448.42 376.11,-441.21 373.3,-447.63"/>
</g>
<!-- Node9 -->
<g id="node9" class="node">
<title>Node9</title>
<g id="a_node9"><a xlink:href="spec_2pool__types_8h.html" target="_top" xlink:title=" ">
<polygon fill="white" stroke="black" points="364,-392.5 364,-411.5 443,-411.5 443,-392.5 364,-392.5"/>
<text text-anchor="middle" x="403.5" y="-399.5" font-family="Helvetica,sans-Serif" font-size="10.00">pool_types.h</text>
</a>
</g>
</g>
<!-- Node6&#45;&gt;Node9 -->
<g id="edge8" class="edge">
<title>Node6&#45;&gt;Node9</title>
<path fill="none" stroke="midnightblue" d="M403.5,-437.8C403.5,-428.91 403.5,-418.78 403.5,-411.75"/>
<polygon fill="midnightblue" stroke="midnightblue" points="400,-438.08 403.5,-448.08 407,-438.08 400,-438.08"/>
</g>
<!-- Node8 -->
<g id="node8" class="node">
<title>Node8</title>
<g id="a_node8"><a xlink:href="dma_8h.html" target="_top" xlink:title=" ">
<polygon fill="white" stroke="black" points="0,-224.5 0,-243.5 47,-243.5 47,-224.5 0,-224.5"/>
<text text-anchor="middle" x="23.5" y="-231.5" font-family="Helvetica,sans-Serif" font-size="10.00">dma.h</text>
</a>
</g>
</g>
<!-- Node7&#45;&gt;Node8 -->
<g id="edge7" class="edge">
<title>Node7&#45;&gt;Node8</title>
<path fill="none" stroke="midnightblue" d="M23.5,-269.8C23.5,-260.91 23.5,-250.78 23.5,-243.75"/>
<polygon fill="midnightblue" stroke="midnightblue" points="20,-270.08 23.5,-280.08 27,-270.08 20,-270.08"/>
</g>
<!-- Node10 -->
<g id="node10" class="node">
<title>Node10</title>
<g id="a_node10"><a xlink:href="pool__types_8h.html" target="_top" xlink:title=" ">
<polygon fill="white" stroke="black" points="364,-336.5 364,-355.5 443,-355.5 443,-336.5 364,-336.5"/>
<text text-anchor="middle" x="403.5" y="-343.5" font-family="Helvetica,sans-Serif" font-size="10.00">pool_types.h</text>
</a>
</g>
</g>
<!-- Node9&#45;&gt;Node10 -->
<g id="edge9" class="edge">
<title>Node9&#45;&gt;Node10</title>
<path fill="none" stroke="midnightblue" d="M403.5,-381.8C403.5,-372.91 403.5,-362.78 403.5,-355.75"/>
<polygon fill="midnightblue" stroke="midnightblue" points="400,-382.08 403.5,-392.08 407,-382.08 400,-382.08"/>
</g>
<!-- Node10&#45;&gt;Node7 -->
<g id="edge21" class="edge">
<title>Node10&#45;&gt;Node7</title>
<path fill="none" stroke="midnightblue" d="M353.8,-340.87C285.93,-334.7 160.67,-321.47 55.5,-300 52.79,-299.45 49.96,-298.78 47.17,-298.07"/>
<polygon fill="midnightblue" stroke="midnightblue" points="353.52,-344.36 363.79,-341.76 354.14,-337.38 353.52,-344.36"/>
</g>
<!-- Node11 -->
<g id="node11" class="node">
<title>Node11</title>
<g id="a_node11"><a xlink:href="spec_2buffer_8h.html" target="_top" xlink:title=" ">
<polygon fill="white" stroke="black" points="65,-280.5 65,-299.5 118,-299.5 118,-280.5 65,-280.5"/>
<text text-anchor="middle" x="91.5" y="-287.5" font-family="Helvetica,sans-Serif" font-size="10.00">buffer.h</text>
</a>
</g>
</g>
<!-- Node10&#45;&gt;Node11 -->
<g id="edge10" class="edge">
<title>Node10&#45;&gt;Node11</title>
<path fill="none" stroke="midnightblue" d="M353.82,-337.54C299.36,-329.17 209.49,-314.83 132.5,-300 127.92,-299.12 123.07,-298.11 118.37,-297.1"/>
<polygon fill="midnightblue" stroke="midnightblue" points="353.48,-341.03 363.89,-339.08 354.54,-334.11 353.48,-341.03"/>
</g>
<!-- Node13 -->
<g id="node13" class="node">
<title>Node13</title>
<g id="a_node13"><a xlink:href="spec_2classification_8h.html" target="_top" xlink:title=" ">
<polygon fill="white" stroke="black" points="743,-168.5 743,-187.5 832,-187.5 832,-168.5 743,-168.5"/>
<text text-anchor="middle" x="787.5" y="-175.5" font-family="Helvetica,sans-Serif" font-size="10.00">classification.h</text>
</a>
</g>
</g>
<!-- Node10&#45;&gt;Node13 -->
<g id="edge12" class="edge">
<title>Node10&#45;&gt;Node13</title>
<path fill="none" stroke="midnightblue" d="M449.45,-333.92C480.03,-325.94 520.8,-314.11 555.5,-300 573.18,-292.81 575.69,-286.87 593.5,-280 653.44,-256.88 679.23,-278.38 733.5,-244 756.55,-229.4 774.61,-201.7 782.77,-187.65"/>
<polygon fill="midnightblue" stroke="midnightblue" points="448.31,-330.6 439.5,-336.48 450.05,-337.38 448.31,-330.6"/>
</g>
<!-- Node19 -->
<g id="node19" class="node">
<title>Node19</title>
<g id="a_node19"><a xlink:href="spec_2crypto_8h.html" target="_top" xlink:title=" ">
<polygon fill="white" stroke="black" points="490.5,-280.5 490.5,-299.5 546.5,-299.5 546.5,-280.5 490.5,-280.5"/>
<text text-anchor="middle" x="518.5" y="-287.5" font-family="Helvetica,sans-Serif" font-size="10.00">crypto.h</text>
</a>
</g>
</g>
<!-- Node10&#45;&gt;Node19 -->
<g id="edge18" class="edge">
<title>Node10&#45;&gt;Node19</title>
<path fill="none" stroke="midnightblue" d="M430.98,-332.1C452.47,-322.01 481.72,-308.27 500.36,-299.52"/>
<polygon fill="midnightblue" stroke="midnightblue" points="429.29,-329.02 421.72,-336.44 432.26,-335.36 429.29,-329.02"/>
</g>
<!-- Node21 -->
<g id="node21" class="node">
<title>Node21</title>
<g id="a_node21"><a xlink:href="spec_2packet_8h.html" target="_top" xlink:title=" ">
<polygon fill="white" stroke="black" points="414.5,-168.5 414.5,-187.5 472.5,-187.5 472.5,-168.5 414.5,-168.5"/>
<text text-anchor="middle" x="443.5" y="-175.5" font-family="Helvetica,sans-Serif" font-size="10.00">packet.h</text>
</a>
</g>
</g>
<!-- Node10&#45;&gt;Node21 -->
<g id="edge22" class="edge">
<title>Node10&#45;&gt;Node21</title>
<path fill="none" stroke="midnightblue" d="M353.9,-342.83C291.31,-338.93 188.95,-328.29 165.5,-300 143.95,-273.99 143.61,-249.72 165.5,-224 197.27,-186.68 349.8,-180.21 414.45,-179.17"/>
<polygon fill="midnightblue" stroke="midnightblue" points="353.78,-346.33 363.97,-343.42 354.19,-339.34 353.78,-346.33"/>
</g>
<!-- Node10&#45;&gt;Node24 -->
<g id="edge25" class="edge">
<title>Node10&#45;&gt;Node24</title>
<path fill="none" stroke="midnightblue" d="M453.35,-341.66C546.2,-335.23 751.91,-319.96 924.5,-300 927.74,-299.63 931.07,-299.21 934.43,-298.78"/>
<polygon fill="midnightblue" stroke="midnightblue" points="452.86,-338.19 443.12,-342.37 453.34,-345.17 452.86,-338.19"/>
</g>
<!-- Node28 -->
<g id="node28" class="node">
<title>Node28</title>
<g id="a_node28"><a xlink:href="spec_2pool_8h.html" target="_top" xlink:title=" ">
<polygon fill="white" stroke="black" points="175,-280.5 175,-299.5 222,-299.5 222,-280.5 175,-280.5"/>
<text text-anchor="middle" x="198.5" y="-287.5" font-family="Helvetica,sans-Serif" font-size="10.00">pool.h</text>
</a>
</g>
</g>
<!-- Node10&#45;&gt;Node28 -->
<g id="edge34" class="edge">
<title>Node10&#45;&gt;Node28</title>
<path fill="none" stroke="midnightblue" d="M360.66,-333.92C325.85,-324.89 275.47,-311.75 231.5,-300 228.52,-299.2 225.38,-298.36 222.29,-297.52"/>
<polygon fill="midnightblue" stroke="midnightblue" points="359.94,-337.35 370.5,-336.47 361.7,-330.58 359.94,-337.35"/>
</g>
<!-- Node10&#45;&gt;Node30 -->
<g id="edge36" class="edge">
<title>Node10&#45;&gt;Node30</title>
<path fill="none" stroke="midnightblue" d="M453.3,-342.53C536.94,-337.83 710.67,-325.68 855.5,-300 858.59,-299.45 861.81,-298.78 864.98,-298.04"/>
<polygon fill="midnightblue" stroke="midnightblue" points="452.87,-339.05 443.08,-343.09 453.25,-346.04 452.87,-339.05"/>
</g>
<!-- Node32 -->
<g id="node32" class="node">
<title>Node32</title>
<g id="a_node32"><a xlink:href="buffer__inlines_8h_source.html" target="_top" xlink:title=" ">
<polygon fill="white" stroke="black" points="240.5,-280.5 240.5,-299.5 332.5,-299.5 332.5,-280.5 240.5,-280.5"/>
<text text-anchor="middle" x="286.5" y="-287.5" font-family="Helvetica,sans-Serif" font-size="10.00">buffer_inlines.h</text>
</a>
</g>
</g>
<!-- Node10&#45;&gt;Node32 -->
<g id="edge38" class="edge">
<title>Node10&#45;&gt;Node32</title>
<path fill="none" stroke="midnightblue" d="M375.84,-332.23C353.95,-322.13 324,-308.31 304.95,-299.52"/>
<polygon fill="midnightblue" stroke="midnightblue" points="374.41,-335.43 384.96,-336.44 377.35,-329.08 374.41,-335.43"/>
</g>
<!-- Node33 -->
<g id="node33" class="node">
<title>Node33</title>
<g id="a_node33"><a xlink:href="packet__inlines_8h.html" target="_top" xlink:title=" ">
<polygon fill="white" stroke="black" points="752,-280.5 752,-299.5 847,-299.5 847,-280.5 752,-280.5"/>
<text text-anchor="middle" x="799.5" y="-287.5" font-family="Helvetica,sans-Serif" font-size="10.00">packet_inlines.h</text>
</a>
</g>
</g>
<!-- Node10&#45;&gt;Node33 -->
<g id="edge39" class="edge">
<title>Node10&#45;&gt;Node33</title>
<path fill="none" stroke="midnightblue" d="M453.35,-338.77C519.49,-330.42 639.88,-314.91 742.5,-300 745.57,-299.55 748.74,-299.08 751.93,-298.6"/>
<polygon fill="midnightblue" stroke="midnightblue" points="452.69,-335.33 443.21,-340.05 453.57,-342.27 452.69,-335.33"/>
</g>
<!-- Node34 -->
<g id="node34" class="node">
<title>Node34</title>
<g id="a_node34"><a xlink:href="packet__vector__inlines_8h.html" target="_top" xlink:title=" ">
<polygon fill="white" stroke="black" points="603,-280.5 603,-299.5 734,-299.5 734,-280.5 603,-280.5"/>
<text text-anchor="middle" x="668.5" y="-287.5" font-family="Helvetica,sans-Serif" font-size="10.00">packet_vector_inlines.h</text>
</a>
</g>
</g>
<!-- Node10&#45;&gt;Node34 -->
<g id="edge40" class="edge">
<title>Node10&#45;&gt;Node34</title>
<path fill="none" stroke="midnightblue" d="M453.1,-334.89C503.05,-324.71 579.26,-309.19 626.36,-299.59"/>
<polygon fill="midnightblue" stroke="midnightblue" points="452.27,-331.49 443.17,-336.92 453.67,-338.35 452.27,-331.49"/>
</g>
<!-- Node35 -->
<g id="node35" class="node">
<title>Node35</title>
<g id="a_node35"><a xlink:href="pool__inlines_8h_source.html" target="_top" xlink:title=" ">
<polygon fill="white" stroke="black" points="350.5,-280.5 350.5,-299.5 434.5,-299.5 434.5,-280.5 350.5,-280.5"/>
<text text-anchor="middle" x="392.5" y="-287.5" font-family="Helvetica,sans-Serif" font-size="10.00">pool_inlines.h</text>
</a>
</g>
</g>
<!-- Node10&#45;&gt;Node35 -->
<g id="edge41" class="edge">
<title>Node10&#45;&gt;Node35</title>
<path fill="none" stroke="midnightblue" d="M399.65,-326.1C397.82,-317.14 395.73,-306.86 394.28,-299.75"/>
<polygon fill="midnightblue" stroke="midnightblue" points="396.26,-326.98 401.68,-336.08 403.12,-325.59 396.26,-326.98"/>
</g>
<!-- Node12 -->
<g id="node12" class="node">
<title>Node12</title>
<g id="a_node12"><a xlink:href="buffer_8h.html" target="_top" xlink:title=" ">
<polygon fill="white" stroke="black" points="65,-224.5 65,-243.5 118,-243.5 118,-224.5 65,-224.5"/>
<text text-anchor="middle" x="91.5" y="-231.5" font-family="Helvetica,sans-Serif" font-size="10.00">buffer.h</text>
</a>
</g>
</g>
<!-- Node11&#45;&gt;Node12 -->
<g id="edge11" class="edge">
<title>Node11&#45;&gt;Node12</title>
<path fill="none" stroke="midnightblue" d="M91.5,-269.8C91.5,-260.91 91.5,-250.78 91.5,-243.75"/>
<polygon fill="midnightblue" stroke="midnightblue" points="88,-270.08 91.5,-280.08 95,-270.08 88,-270.08"/>
</g>
<!-- Node14 -->
<g id="node14" class="node">
<title>Node14</title>
<g id="a_node14"><a xlink:href="classification_8h.html" target="_top" xlink:title=" ">
<polygon fill="white" stroke="black" points="743,-112.5 743,-131.5 832,-131.5 832,-112.5 743,-112.5"/>
<text text-anchor="middle" x="787.5" y="-119.5" font-family="Helvetica,sans-Serif" font-size="10.00">classification.h</text>
</a>
</g>
</g>
<!-- Node13&#45;&gt;Node14 -->
<g id="edge13" class="edge">
<title>Node13&#45;&gt;Node14</title>
<path fill="none" stroke="midnightblue" d="M787.5,-157.8C787.5,-148.91 787.5,-138.78 787.5,-131.75"/>
<polygon fill="midnightblue" stroke="midnightblue" points="784,-158.08 787.5,-168.08 791,-158.08 784,-158.08"/>
</g>
<!-- Node15 -->
<g id="node15" class="node">
<title>Node15</title>
<g id="a_node15"><a xlink:href="spec_2ipsec_8h.html" target="_top" xlink:title=" ">
<polygon fill="white" stroke="black" points="616,-56.5 616,-75.5 667,-75.5 667,-56.5 616,-56.5"/>
<text text-anchor="middle" x="641.5" y="-63.5" font-family="Helvetica,sans-Serif" font-size="10.00">ipsec.h</text>
</a>
</g>
</g>
<!-- Node14&#45;&gt;Node15 -->
<g id="edge14" class="edge">
<title>Node14&#45;&gt;Node15</title>
<path fill="none" stroke="midnightblue" d="M754.8,-108.91C727.35,-98.75 688.83,-84.51 664.53,-75.52"/>
<polygon fill="midnightblue" stroke="midnightblue" points="753.77,-112.26 764.37,-112.44 756.2,-105.69 753.77,-112.26"/>
</g>
<!-- Node14&#45;&gt;Node17 -->
<g id="edge16" class="edge">
<title>Node14&#45;&gt;Node17</title>
<path fill="none" stroke="midnightblue" d="M841.75,-110.5C897.46,-99.72 982.57,-83.24 1030.48,-73.97"/>
<polygon fill="midnightblue" stroke="midnightblue" points="840.86,-107.11 831.71,-112.44 842.19,-113.98 840.86,-107.11"/>
</g>
<!-- Node16 -->
<g id="node16" class="node">
<title>Node16</title>
<g id="a_node16"><a xlink:href="ipsec_8h.html" target="_top" xlink:title=" ">
<polygon fill="white" stroke="black" points="616,-0.5 616,-19.5 667,-19.5 667,-0.5 616,-0.5"/>
<text text-anchor="middle" x="641.5" y="-7.5" font-family="Helvetica,sans-Serif" font-size="10.00">ipsec.h</text>
</a>
</g>
</g>
<!-- Node15&#45;&gt;Node16 -->
<g id="edge15" class="edge">
<title>Node15&#45;&gt;Node16</title>
<path fill="none" stroke="midnightblue" d="M641.5,-45.8C641.5,-36.91 641.5,-26.78 641.5,-19.75"/>
<polygon fill="midnightblue" stroke="midnightblue" points="638,-46.08 641.5,-56.08 645,-46.08 638,-46.08"/>
</g>
<!-- Node18 -->
<g id="node18" class="node">
<title>Node18</title>
<g id="a_node18"><a xlink:href="packet__io_8h.html" target="_top" xlink:title=" ">
<polygon fill="white" stroke="black" points="1030.5,-0.5 1030.5,-19.5 1102.5,-19.5 1102.5,-0.5 1030.5,-0.5"/>
<text text-anchor="middle" x="1066.5" y="-7.5" font-family="Helvetica,sans-Serif" font-size="10.00">packet_io.h</text>
</a>
</g>
</g>
<!-- Node17&#45;&gt;Node18 -->
<g id="edge17" class="edge">
<title>Node17&#45;&gt;Node18</title>
<path fill="none" stroke="midnightblue" d="M1066.5,-45.8C1066.5,-36.91 1066.5,-26.78 1066.5,-19.75"/>
<polygon fill="midnightblue" stroke="midnightblue" points="1063,-46.08 1066.5,-56.08 1070,-46.08 1063,-46.08"/>
</g>
<!-- Node20 -->
<g id="node20" class="node">
<title>Node20</title>
<g id="a_node20"><a xlink:href="crypto_8h.html" target="_top" xlink:title=" ">
<polygon fill="white" stroke="black" points="490.5,-168.5 490.5,-187.5 546.5,-187.5 546.5,-168.5 490.5,-168.5"/>
<text text-anchor="middle" x="518.5" y="-175.5" font-family="Helvetica,sans-Serif" font-size="10.00">crypto.h</text>
</a>
</g>
</g>
<!-- Node19&#45;&gt;Node20 -->
<g id="edge19" class="edge">
<title>Node19&#45;&gt;Node20</title>
<path fill="none" stroke="midnightblue" d="M518.5,-270.35C518.5,-246.25 518.5,-205.31 518.5,-187.59"/>
<polygon fill="midnightblue" stroke="midnightblue" points="515,-270.37 518.5,-280.37 522,-270.37 515,-270.37"/>
</g>
<!-- Node20&#45;&gt;Node15 -->
<g id="edge20" class="edge">
<title>Node20&#45;&gt;Node15</title>
<path fill="none" stroke="midnightblue" d="M525.49,-158.78C531.66,-144.62 541.8,-125.22 555.5,-112 572.96,-95.15 597.99,-83.02 616.55,-75.63"/>
<polygon fill="midnightblue" stroke="midnightblue" points="522.1,-157.82 521.55,-168.4 528.58,-160.47 522.1,-157.82"/>
</g>
<!-- Node22 -->
<g id="node22" class="node">
<title>Node22</title>
<g id="a_node22"><a xlink:href="packet_8h.html" target="_top" xlink:title=" ">
<polygon fill="white" stroke="black" points="414.5,-112.5 414.5,-131.5 472.5,-131.5 472.5,-112.5 414.5,-112.5"/>
<text text-anchor="middle" x="443.5" y="-119.5" font-family="Helvetica,sans-Serif" font-size="10.00">packet.h</text>
</a>
</g>
</g>
<!-- Node21&#45;&gt;Node22 -->
<g id="edge23" class="edge">
<title>Node21&#45;&gt;Node22</title>
<path fill="none" stroke="midnightblue" d="M443.5,-157.8C443.5,-148.91 443.5,-138.78 443.5,-131.75"/>
<polygon fill="midnightblue" stroke="midnightblue" points="440,-158.08 443.5,-168.08 447,-158.08 440,-158.08"/>
</g>
<!-- Node23 -->
<g id="node23" class="node">
<title>Node23</title>
<g id="a_node23"><a xlink:href="event__inlines_8h_source.html" target="_top" xlink:title=" ">
<polygon fill="white" stroke="black" points="398,-56.5 398,-75.5 489,-75.5 489,-56.5 398,-56.5"/>
<text text-anchor="middle" x="443.5" y="-63.5" font-family="Helvetica,sans-Serif" font-size="10.00">event_inlines.h</text>
</a>
</g>
</g>
<!-- Node22&#45;&gt;Node23 -->
<g id="edge24" class="edge">
<title>Node22&#45;&gt;Node23</title>
<path fill="none" stroke="midnightblue" d="M443.5,-101.8C443.5,-92.91 443.5,-82.78 443.5,-75.75"/>
<polygon fill="midnightblue" stroke="midnightblue" points="440,-102.08 443.5,-112.08 447,-102.08 440,-102.08"/>
</g>
<!-- Node25 -->
<g id="node25" class="node">
<title>Node25</title>
<g id="a_node25"><a xlink:href="packet__io__types_8h.html" target="_top" xlink:title=" ">
<polygon fill="white" stroke="black" points="620.5,-224.5 620.5,-243.5 724.5,-243.5 724.5,-224.5 620.5,-224.5"/>
<text text-anchor="middle" x="672.5" y="-231.5" font-family="Helvetica,sans-Serif" font-size="10.00">packet_io_types.h</text>
</a>
</g>
</g>
<!-- Node24&#45;&gt;Node25 -->
<g id="edge26" class="edge">
<title>Node24&#45;&gt;Node25</title>
<path fill="none" stroke="midnightblue" d="M926.77,-278.73C867.43,-268.52 777.51,-253.06 722.02,-243.52"/>
<polygon fill="midnightblue" stroke="midnightblue" points="926.3,-282.2 936.75,-280.44 927.48,-275.3 926.3,-282.2"/>
</g>
<!-- Node25&#45;&gt;Node13 -->
<g id="edge27" class="edge">
<title>Node25&#45;&gt;Node13</title>
<path fill="none" stroke="midnightblue" d="M699.98,-220.1C721.47,-210.01 750.72,-196.27 769.36,-187.52"/>
<polygon fill="midnightblue" stroke="midnightblue" points="698.29,-217.02 690.72,-224.44 701.26,-223.36 698.29,-217.02"/>
</g>
<!-- Node25&#45;&gt;Node15 -->
<g id="edge28" class="edge">
<title>Node25&#45;&gt;Node15</title>
<path fill="none" stroke="midnightblue" d="M671.45,-214.22C669.81,-190.23 665.92,-147.58 657.5,-112 654.44,-99.09 648.96,-84.74 645.27,-75.79"/>
<polygon fill="midnightblue" stroke="midnightblue" points="667.96,-214.61 672.08,-224.38 674.95,-214.18 667.96,-214.61"/>
</g>
<!-- Node25&#45;&gt;Node17 -->
<g id="edge30" class="edge">
<title>Node25&#45;&gt;Node17</title>
<path fill="none" stroke="midnightblue" d="M676.2,-214.32C682.68,-187 698.81,-136.72 733.5,-112 780.6,-78.44 954.45,-69.87 1030.5,-67.71"/>
<polygon fill="midnightblue" stroke="midnightblue" points="672.77,-213.66 674.06,-224.17 679.6,-215.15 672.77,-213.66"/>
</g>
<!-- Node25&#45;&gt;Node21 -->
<g id="edge29" class="edge">
<title>Node25&#45;&gt;Node21</title>
<path fill="none" stroke="midnightblue" d="M626.31,-222.13C587.63,-213.03 530.96,-199.68 481.5,-188 478.6,-187.31 475.57,-186.6 472.55,-185.88"/>
<polygon fill="midnightblue" stroke="midnightblue" points="625.7,-225.59 636.24,-224.47 627.3,-218.77 625.7,-225.59"/>
</g>
<!-- Node26 -->
<g id="node26" class="node">
<title>Node26</title>
<g id="a_node26"><a xlink:href="spec_2traffic__mngr_8h.html" target="_top" xlink:title=" ">
<polygon fill="white" stroke="black" points="564.5,-168.5 564.5,-187.5 648.5,-187.5 648.5,-168.5 564.5,-168.5"/>
<text text-anchor="middle" x="606.5" y="-175.5" font-family="Helvetica,sans-Serif" font-size="10.00">traffic_mngr.h</text>
</a>
</g>
</g>
<!-- Node25&#45;&gt;Node26 -->
<g id="edge31" class="edge">
<title>Node25&#45;&gt;Node26</title>
<path fill="none" stroke="midnightblue" d="M653.95,-217.82C642.12,-208.15 627.21,-195.95 617.3,-187.83"/>
<polygon fill="midnightblue" stroke="midnightblue" points="651.94,-220.7 661.9,-224.32 656.37,-215.28 651.94,-220.7"/>
</g>
<!-- Node27 -->
<g id="node27" class="node">
<title>Node27</title>
<g id="a_node27"><a xlink:href="traffic__mngr_8h.html" target="_top" xlink:title=" ">
<polygon fill="white" stroke="black" points="564.5,-112.5 564.5,-131.5 648.5,-131.5 648.5,-112.5 564.5,-112.5"/>
<text text-anchor="middle" x="606.5" y="-119.5" font-family="Helvetica,sans-Serif" font-size="10.00">traffic_mngr.h</text>
</a>
</g>
</g>
<!-- Node26&#45;&gt;Node27 -->
<g id="edge32" class="edge">
<title>Node26&#45;&gt;Node27</title>
<path fill="none" stroke="midnightblue" d="M606.5,-157.8C606.5,-148.91 606.5,-138.78 606.5,-131.75"/>
<polygon fill="midnightblue" stroke="midnightblue" points="603,-158.08 606.5,-168.08 610,-158.08 603,-158.08"/>
</g>
<!-- Node27&#45;&gt;Node15 -->
<g id="edge33" class="edge">
<title>Node27&#45;&gt;Node15</title>
<path fill="none" stroke="midnightblue" d="M617.8,-103.57C623.82,-94.27 630.97,-83.25 635.83,-75.75"/>
<polygon fill="midnightblue" stroke="midnightblue" points="614.78,-101.79 612.28,-112.08 620.66,-105.6 614.78,-101.79"/>
</g>
<!-- Node29 -->
<g id="node29" class="node">
<title>Node29</title>
<g id="a_node29"><a xlink:href="pool_8h.html" target="_top" xlink:title=" ">
<polygon fill="white" stroke="black" points="175,-224.5 175,-243.5 222,-243.5 222,-224.5 175,-224.5"/>
<text text-anchor="middle" x="198.5" y="-231.5" font-family="Helvetica,sans-Serif" font-size="10.00">pool.h</text>
</a>
</g>
</g>
<!-- Node28&#45;&gt;Node29 -->
<g id="edge35" class="edge">
<title>Node28&#45;&gt;Node29</title>
<path fill="none" stroke="midnightblue" d="M198.5,-269.8C198.5,-260.91 198.5,-250.78 198.5,-243.75"/>
<polygon fill="midnightblue" stroke="midnightblue" points="195,-270.08 198.5,-280.08 202,-270.08 195,-270.08"/>
</g>
<!-- Node31 -->
<g id="node31" class="node">
<title>Node31</title>
<g id="a_node31"><a xlink:href="timer_8h.html" target="_top" xlink:title=" ">
<polygon fill="white" stroke="black" points="551,-224.5 551,-243.5 602,-243.5 602,-224.5 551,-224.5"/>
<text text-anchor="middle" x="576.5" y="-231.5" font-family="Helvetica,sans-Serif" font-size="10.00">timer.h</text>
</a>
</g>
</g>
<!-- Node30&#45;&gt;Node31 -->
<g id="edge37" class="edge">
<title>Node30&#45;&gt;Node31</title>
<path fill="none" stroke="midnightblue" d="M854.9,-280.09C746.27,-258.73 715.81,-265.04 611.5,-244 608.42,-243.38 605.22,-242.66 602.04,-241.9"/>
<polygon fill="midnightblue" stroke="midnightblue" points="854.47,-283.57 864.96,-282.1 855.84,-276.71 854.47,-283.57"/>
</g>
<!-- Node37 -->
<g id="node37" class="node">
<title>Node37</title>
<g id="a_node37"><a xlink:href="packet__io__stats_8h.html" target="_top" xlink:title=" ">
<polygon fill="white" stroke="black" points="1013,-336.5 1013,-355.5 1114,-355.5 1114,-336.5 1013,-336.5"/>
<text text-anchor="middle" x="1063.5" y="-343.5" font-family="Helvetica,sans-Serif" font-size="10.00">packet_io_stats.h</text>
</a>
</g>
</g>
<!-- Node36&#45;&gt;Node37 -->
<g id="edge44" class="edge">
<title>Node36&#45;&gt;Node37</title>
<path fill="none" stroke="midnightblue" d="M1063.5,-381.8C1063.5,-372.91 1063.5,-362.78 1063.5,-355.75"/>
<polygon fill="midnightblue" stroke="midnightblue" points="1060,-382.08 1063.5,-392.08 1067,-382.08 1060,-382.08"/>
</g>
<!-- Node37&#45;&gt;Node17 -->
<g id="edge45" class="edge">
<title>Node37&#45;&gt;Node17</title>
<path fill="none" stroke="midnightblue" d="M1074.44,-327.53C1086.59,-306.44 1104.5,-269.48 1104.5,-235 1104.5,-235 1104.5,-235 1104.5,-177 1104.5,-137.4 1082.23,-93.96 1071.78,-75.77"/>
<polygon fill="midnightblue" stroke="midnightblue" points="1071.34,-325.91 1069.2,-336.29 1077.34,-329.51 1071.34,-325.91"/>
</g>
<!-- Node37&#45;&gt;Node24 -->
<g id="edge46" class="edge">
<title>Node37&#45;&gt;Node24</title>
<path fill="none" stroke="midnightblue" d="M1042.6,-330.34C1028.59,-320.52 1010.62,-307.91 998.84,-299.65"/>
<polygon fill="midnightblue" stroke="midnightblue" points="1040.93,-333.45 1051.13,-336.32 1044.95,-327.72 1040.93,-333.45"/>
</g>
<!-- Node39 -->
<g id="node39" class="node">
<title>Node39</title>
<g id="a_node39"><a xlink:href="packet__types_8h.html" target="_top" xlink:title=" ">
<polygon fill="white" stroke="black" points="549.5,-560.5 549.5,-579.5 639.5,-579.5 639.5,-560.5 549.5,-560.5"/>
<text text-anchor="middle" x="594.5" y="-567.5" font-family="Helvetica,sans-Serif" font-size="10.00">packet_types.h</text>
</a>
</g>
</g>
<!-- Node38&#45;&gt;Node39 -->
<g id="edge49" class="edge">
<title>Node38&#45;&gt;Node39</title>
<path fill="none" stroke="midnightblue" d="M686.13,-612.23C663.68,-602.13 632.96,-588.31 613.43,-579.52"/>
<polygon fill="midnightblue" stroke="midnightblue" points="684.93,-615.53 695.49,-616.44 687.8,-609.15 684.93,-615.53"/>
</g>
<!-- Node39&#45;&gt;Node3 -->
<g id="edge50" class="edge">
<title>Node39&#45;&gt;Node3</title>
<path fill="none" stroke="midnightblue" d="M539.19,-559.6C490.43,-551.07 417.52,-537.77 354.5,-524 351.48,-523.34 348.33,-522.61 345.19,-521.86"/>
<polygon fill="midnightblue" stroke="midnightblue" points="538.77,-563.07 549.22,-561.34 539.97,-556.18 538.77,-563.07"/>
</g>
<!-- Node39&#45;&gt;Node5 -->
<g id="edge52" class="edge">
<title>Node39&#45;&gt;Node5</title>
<path fill="none" stroke="midnightblue" d="M554.53,-557.7C518.48,-547.51 466.26,-532.74 433.62,-523.52"/>
<polygon fill="midnightblue" stroke="midnightblue" points="553.66,-561.09 564.24,-560.44 555.56,-554.35 553.66,-561.09"/>
</g>
<!-- Node39&#45;&gt;Node17 -->
<g id="edge59" class="edge">
<title>Node39&#45;&gt;Node17</title>
<path fill="none" stroke="midnightblue" d="M650.06,-565.59C695.37,-560.94 759.91,-549.96 810.5,-524 917.04,-469.34 916.09,-417.85 1003.5,-336 1021.94,-318.73 1033.55,-321.07 1047.5,-300 1064.11,-274.9 1066.5,-265.1 1066.5,-235 1066.5,-235 1066.5,-235 1066.5,-177 1066.5,-139.19 1066.5,-94.06 1066.5,-75.56"/>
<polygon fill="midnightblue" stroke="midnightblue" points="649.46,-562.13 639.84,-566.56 650.13,-569.1 649.46,-562.13"/>
</g>
<!-- Node39&#45;&gt;Node19 -->
<g id="edge51" class="edge">
<title>Node39&#45;&gt;Node19</title>
<path fill="none" stroke="midnightblue" d="M573.05,-554.43C562.65,-546.46 550.68,-535.81 542.5,-524 524.97,-498.68 518.5,-489.8 518.5,-459 518.5,-459 518.5,-459 518.5,-401 518.5,-363.19 518.5,-318.06 518.5,-299.56"/>
<polygon fill="midnightblue" stroke="midnightblue" points="571.16,-557.38 581.3,-560.46 575.29,-551.73 571.16,-557.38"/>
</g>
<!-- Node39&#45;&gt;Node21 -->
<g id="edge56" class="edge">
<title>Node39&#45;&gt;Node21</title>
<path fill="none" stroke="midnightblue" d="M561.77,-556.4C525.34,-539.99 471.5,-507.52 471.5,-459 471.5,-459 471.5,-459 471.5,-401 471.5,-317.48 451.75,-217.66 445.42,-187.83"/>
<polygon fill="midnightblue" stroke="midnightblue" points="560.51,-559.67 571.08,-560.42 563.28,-553.24 560.51,-559.67"/>
</g>
<!-- Node39&#45;&gt;Node24 -->
<g id="edge60" class="edge">
<title>Node39&#45;&gt;Node24</title>
<path fill="none" stroke="midnightblue" d="M589.98,-550.07C582.6,-514.08 572.63,-435.49 613.5,-392 636.62,-367.41 853.9,-319.06 945.79,-299.51"/>
<polygon fill="midnightblue" stroke="midnightblue" points="586.63,-551.15 592.21,-560.16 593.46,-549.64 586.63,-551.15"/>
</g>
<!-- Node39&#45;&gt;Node33 -->
<g id="edge61" class="edge">
<title>Node39&#45;&gt;Node33</title>
<path fill="none" stroke="midnightblue" d="M649.76,-563.65C700.98,-557.44 771.86,-545.23 789.5,-524 846.18,-455.81 813.2,-333.77 802.49,-299.92"/>
<polygon fill="midnightblue" stroke="midnightblue" points="649.32,-560.18 639.8,-564.82 650.14,-567.13 649.32,-560.18"/>
</g>
<!-- Node39&#45;&gt;Node34 -->
<g id="edge62" class="edge">
<title>Node39&#45;&gt;Node34</title>
<path fill="none" stroke="midnightblue" d="M594.5,-550.25C594.5,-528.36 594.5,-491.05 594.5,-459 594.5,-459 594.5,-459 594.5,-401 594.5,-356.58 636.56,-316.62 657.26,-299.64"/>
<polygon fill="midnightblue" stroke="midnightblue" points="591,-550.44 594.5,-560.44 598,-550.44 591,-550.44"/>
</g>
<!-- Node40 -->
<g id="node40" class="node">
<title>Node40</title>
<g id="a_node40"><a xlink:href="spec_2event_8h.html" target="_top" xlink:title=" ">
<polygon fill="white" stroke="black" points="623,-504.5 623,-523.5 676,-523.5 676,-504.5 623,-504.5"/>
<text text-anchor="middle" x="649.5" y="-511.5" font-family="Helvetica,sans-Serif" font-size="10.00">event.h</text>
</a>
</g>
</g>
<!-- Node39&#45;&gt;Node40 -->
<g id="edge53" class="edge">
<title>Node39&#45;&gt;Node40</title>
<path fill="none" stroke="midnightblue" d="M610.79,-553C620.54,-543.43 632.55,-531.64 640.59,-523.75"/>
<polygon fill="midnightblue" stroke="midnightblue" points="608.27,-550.58 603.58,-560.08 613.17,-555.57 608.27,-550.58"/>
</g>
<!-- Node43 -->
<g id="node43" class="node">
<title>Node43</title>
<g id="a_node43"><a xlink:href="spec_2packet__flags_8h.html" target="_top" xlink:title=" ">
<polygon fill="white" stroke="black" points="694.5,-504.5 694.5,-523.5 780.5,-523.5 780.5,-504.5 694.5,-504.5"/>
<text text-anchor="middle" x="737.5" y="-511.5" font-family="Helvetica,sans-Serif" font-size="10.00">packet_flags.h</text>
</a>
</g>
</g>
<!-- Node39&#45;&gt;Node43 -->
<g id="edge57" class="edge">
<title>Node39&#45;&gt;Node43</title>
<path fill="none" stroke="midnightblue" d="M626.53,-556.91C653.41,-546.75 691.14,-532.51 714.95,-523.52"/>
<polygon fill="midnightblue" stroke="midnightblue" points="625.28,-553.64 617.16,-560.44 627.75,-560.19 625.28,-553.64"/>
</g>
<!-- Node41 -->
<g id="node41" class="node">
<title>Node41</title>
<g id="a_node41"><a xlink:href="event_8h.html" target="_top" xlink:title=" ">
<polygon fill="white" stroke="black" points="623,-448.5 623,-467.5 676,-467.5 676,-448.5 623,-448.5"/>
<text text-anchor="middle" x="649.5" y="-455.5" font-family="Helvetica,sans-Serif" font-size="10.00">event.h</text>
</a>
</g>
</g>
<!-- Node40&#45;&gt;Node41 -->
<g id="edge54" class="edge">
<title>Node40&#45;&gt;Node41</title>
<path fill="none" stroke="midnightblue" d="M649.5,-493.8C649.5,-484.91 649.5,-474.78 649.5,-467.75"/>
<polygon fill="midnightblue" stroke="midnightblue" points="646,-494.08 649.5,-504.08 653,-494.08 646,-494.08"/>
</g>
<!-- Node42 -->
<g id="node42" class="node">
<title>Node42</title>
<g id="a_node42"><a xlink:href="timer__inlines_8h_source.html" target="_top" xlink:title=" ">
<polygon fill="white" stroke="black" points="623,-392.5 623,-411.5 712,-411.5 712,-392.5 623,-392.5"/>
<text text-anchor="middle" x="667.5" y="-399.5" font-family="Helvetica,sans-Serif" font-size="10.00">timer_inlines.h</text>
</a>
</g>
</g>
<!-- Node41&#45;&gt;Node42 -->
<g id="edge55" class="edge">
<title>Node41&#45;&gt;Node42</title>
<path fill="none" stroke="midnightblue" d="M655.7,-438.4C658.71,-429.36 662.19,-418.94 664.58,-411.75"/>
<polygon fill="midnightblue" stroke="midnightblue" points="652.31,-437.49 652.47,-448.08 658.96,-439.7 652.31,-437.49"/>
</g>
<!-- Node44 -->
<g id="node44" class="node">
<title>Node44</title>
<g id="a_node44"><a xlink:href="packet__flags_8h.html" target="_top" xlink:title=" ">
<polygon fill="white" stroke="black" points="694.5,-448.5 694.5,-467.5 780.5,-467.5 780.5,-448.5 694.5,-448.5"/>
<text text-anchor="middle" x="737.5" y="-455.5" font-family="Helvetica,sans-Serif" font-size="10.00">packet_flags.h</text>
</a>
</g>
</g>
<!-- Node43&#45;&gt;Node44 -->
<g id="edge58" class="edge">
<title>Node43&#45;&gt;Node44</title>
<path fill="none" stroke="midnightblue" d="M737.5,-493.8C737.5,-484.91 737.5,-474.78 737.5,-467.75"/>
<polygon fill="midnightblue" stroke="midnightblue" points="734,-494.08 737.5,-504.08 741,-494.08 734,-494.08"/>
</g>
<!-- Node46 -->
<g id="node46" class="node">
<title>Node46</title>
<g id="a_node46"><a xlink:href="queue_8h.html" target="_top" xlink:title=" ">
<polygon fill="white" stroke="black" points="1108.5,-560.5 1108.5,-579.5 1164.5,-579.5 1164.5,-560.5 1108.5,-560.5"/>
<text text-anchor="middle" x="1136.5" y="-567.5" font-family="Helvetica,sans-Serif" font-size="10.00">queue.h</text>
</a>
</g>
</g>
<!-- Node45&#45;&gt;Node46 -->
<g id="edge64" class="edge">
<title>Node45&#45;&gt;Node46</title>
<path fill="none" stroke="midnightblue" d="M1136.5,-605.8C1136.5,-596.91 1136.5,-586.78 1136.5,-579.75"/>
<polygon fill="midnightblue" stroke="midnightblue" points="1133,-606.08 1136.5,-616.08 1140,-606.08 1133,-606.08"/>
</g>
<!-- Node48 -->
<g id="node48" class="node">
<title>Node48</title>
<g id="a_node48"><a xlink:href="schedule_8h.html" target="_top" xlink:title=" ">
<polygon fill="white" stroke="black" points="1183,-560.5 1183,-579.5 1252,-579.5 1252,-560.5 1183,-560.5"/>
<text text-anchor="middle" x="1217.5" y="-567.5" font-family="Helvetica,sans-Serif" font-size="10.00">schedule.h</text>
</a>
</g>
</g>
<!-- Node47&#45;&gt;Node48 -->
<g id="edge66" class="edge">
<title>Node47&#45;&gt;Node48</title>
<path fill="none" stroke="midnightblue" d="M1217.5,-605.8C1217.5,-596.91 1217.5,-586.78 1217.5,-579.75"/>
<polygon fill="midnightblue" stroke="midnightblue" points="1214,-606.08 1217.5,-616.08 1221,-606.08 1214,-606.08"/>
</g>
<!-- Node50 -->
<g id="node50" class="node">
<title>Node50</title>
<g id="a_node50"><a xlink:href="queue__inlines_8h_source.html" target="_top" xlink:title=" ">
<polygon fill="white" stroke="black" points="1284,-560.5 1284,-579.5 1377,-579.5 1377,-560.5 1284,-560.5"/>
<text text-anchor="middle" x="1330.5" y="-567.5" font-family="Helvetica,sans-Serif" font-size="10.00">queue_inlines.h</text>
</a>
</g>
</g>
<!-- Node49&#45;&gt;Node50 -->
<g id="edge69" class="edge">
<title>Node49&#45;&gt;Node50</title>
<path fill="none" stroke="midnightblue" d="M1330.5,-605.8C1330.5,-596.91 1330.5,-586.78 1330.5,-579.75"/>
<polygon fill="midnightblue" stroke="midnightblue" points="1327,-606.08 1330.5,-616.08 1334,-606.08 1327,-606.08"/>
</g>
</g>
</svg>
